/* XPM */
static char *result[] = {
/* columns rows colors chars-per-pixel */
"50 50 235 2 ",
"   c #65371A",
".  c #783A1E",
"X  c #583C27",
"o  c #4D3F37",
"O  c #653923",
"+  c #693823",
"@  c #633D2A",
"#  c #6B3D2A",
"$  c #733C22",
"%  c #7A3B23",
"&  c #733E2B",
"*  c #7A3E29",
"=  c #5E472F",
"-  c #4C493F",
";  c #564536",
":  c #5C4533",
">  c #574B3C",
",  c #63442C",
"<  c #6B422A",
"1  c #6C4C2E",
"2  c #7B442D",
"3  c #7A482A",
"4  c #624531",
"5  c #644A36",
"6  c #6C4B34",
"7  c #654E3A",
"8  c #6A4C3B",
"9  c #774732",
"0  c #734D34",
"q  c #7A4C32",
"w  c #65503B",
"e  c #6B533C",
"r  c #755335",
"t  c #7E5435",
"y  c #7C5936",
"u  c #73543A",
"i  c #7B553B",
"p  c #755B3B",
"a  c #7C5D39",
"s  c #584D44",
"d  c #4E5445",
"f  c #58564A",
"g  c #5E5A4C",
"h  c #555553",
"j  c #565A53",
"k  c #5A5B54",
"l  c #695847",
"z  c #705649",
"x  c #765B48",
"c  c #655D54",
"v  c #6A5F52",
"b  c #596157",
"n  c #5E645D",
"m  c #6F624E",
"M  c #75634C",
"N  c #7C6448",
"B  c #7B634C",
"V  c #6C6353",
"C  c #686554",
"Z  c #63635D",
"A  c #6C655B",
"S  c #636B5E",
"D  c #6C6B5D",
"F  c #766454",
"G  c #766755",
"H  c #7C6C57",
"J  c #726B5C",
"K  c #7B6C5A",
"L  c #75705D",
"P  c #5C6564",
"I  c #646663",
"U  c #666A64",
"Y  c #6B6B64",
"T  c #6C6D69",
"R  c #756D64",
"E  c #7C6E63",
"W  c #736F69",
"Q  c #6C7266",
"!  c #6D726C",
"~  c #6F7A6D",
"^  c #727265",
"/  c #7B7364",
"(  c #7C7964",
")  c #73736B",
"_  c #7B756B",
"`  c #747A6D",
"'  c #7B7A6E",
"]  c #6D7572",
"[  c #747673",
"{  c #797772",
"}  c #757A73",
"|  c #7B7C74",
" . c #767C7A",
".. c #7C7D7A",
"X. c #834225",
"o. c #84432B",
"O. c #8A4829",
"+. c #8C4B2C",
"@. c #924C2D",
"#. c #984F2B",
"$. c #8D542E",
"%. c #99542B",
"&. c #814E36",
"*. c #894B33",
"=. c #934D32",
"-. c #994C31",
";. c #88593C",
":. c #935236",
">. c #9B5434",
",. c #935B3C",
"<. c #985838",
"1. c #9E5A3C",
"2. c #A1592E",
"3. c #A25635",
"4. c #A45B34",
"5. c #AB5D34",
"6. c #A35C3B",
"7. c #AB5E39",
"8. c #93623D",
"9. c #AB6334",
"0. c #A6653C",
"q. c #AC643B",
"w. c #B56837",
"e. c #B2633B",
"r. c #B2693C",
"t. c #BC6C3D",
"y. c #B87039",
"u. c #BC733D",
"i. c #C1753D",
"p. c #C57A3F",
"a. c #835B41",
"s. c #8D5B42",
"d. c #985E43",
"f. c #896446",
"g. c #836B4C",
"h. c #976346",
"j. c #9A6443",
"k. c #9C6943",
"l. c #9C6A4A",
"z. c #9C7649",
"x. c #99764C",
"c. c #846D50",
"v. c #8A7254",
"b. c #88745A",
"n. c #8C755C",
"m. c #987A5A",
"M. c #A26441",
"N. c #A36A43",
"B. c #AC6C43",
"V. c #A96448",
"C. c #A16C49",
"Z. c #B46E42",
"A. c #BC6D43",
"S. c #B46A48",
"D. c #A6764C",
"F. c #AC744C",
"G. c #B37344",
"H. c #BB7442",
"J. c #BE7944",
"K. c #B4734A",
"L. c #BE744B",
"P. c #BD7B4C",
"I. c #A67D55",
"U. c #BA7952",
"Y. c #816F61",
"T. c #837464",
"R. c #8A7964",
"E. c #83776C",
"W. c #827A6D",
"Q. c #8A7D6C",
"!. c #977E64",
"~. c #837D73",
"^. c #807D79",
"/. c #C37643",
"(. c #C47547",
"). c #C47A43",
"_. c #CB7D44",
"`. c #C57C4A",
"'. c #CB7D4A",
"]. c #D17E44",
"[. c #C37C51",
"{. c #CB7D51",
"}. c #7D8175",
"|. c #7C827B",
" X c #AD814E",
".X c #BB8546",
"XX c #B88549",
"oX c #BA8549",
"OX c #A78357",
"+X c #AC8354",
"@X c #A3835C",
"#X c #B78855",
"$X c #BC8559",
"%X c #BC905F",
"&X c #88826C",
"*X c #95856D",
"=X c #9A866A",
"-X c #878579",
";X c #83847C",
":X c #948773",
">X c #AD8A62",
",X c #A88965",
"<X c #BC8661",
"1X c #CD8146",
"2X c #C6814D",
"3X c #CD824B",
"4X c #C48C4B",
"5X c #C98F4B",
"6X c #D28245",
"7X c #D3854B",
"8X c #D9874C",
"9X c #D4894E",
"0X c #DA8B4D",
"qX c #CC914C",
"wX c #D5954C",
"eX c #D9974C",
"rX c #D9984E",
"tX c #C28154",
"yX c #CE8452",
"uX c #C78956",
"iX c #D38651",
"pX c #D58A53",
"aX c #DA8C52",
"sX c #D98E58",
"dX c #C89355",
"fX c #D29652",
"gX c #DD9155",
"hX c #DE9359",
"jX c #E28F53",
"kX c #E19357",
"lX c #C2906A",
"zX c #7D8280",
"xX c #878B83",
"cX c #9E8F82",
"vX c #AB9380",
/* pixels */
"eXeXeXeXeXeXeXeXeXeXeXeXeXeXeXeXeXeXeXeXeXeXqXdXqXqX5X5X5XfXrXeXeXeXeXeXeXeXeXeXeXeXeXeXeXeXeXeXeXeX",
"eXeXeXeXeXeXeXeXeXeXeXeXeXeXeXeXeXeXeXeXeXdX,X=X=X*X=X*X:X,XdXeXeXeXrXeXeXeXeXeXeXeXrXeXeXeXeXeXeXeX",
"eXeXeXeXeXeXeXeXeXeXeXeXeXeXeXeXeXeXeXeXqX@X-X;XxX-X-X..^.' @XeXeXeXeXeXeXeXeXeXeXeXeXeXeXeXeXeXeXeX",
"eXeXeXeXeXeXeXeXeXeXeXeXeXeXeXeXeXeXeXeXqXm.| | | | }.U U T x.wXwXeXeXeXeXeXeXrXeXeXeXeXeXeXeXeXeXeX",
"eXeXeXeXeXeXeXeXeXeXeXeXeXeXeXeXeXeXeXeXwXI.~.` ' }.| Q U J #XeXeXeXeXeXrXeXeXeXeXeXeXeXeXeXeXeXeXeX",
"eXeXeXeXeXeXeXeXeXeXeXeXeXeXeXeXeXeXeXfXwX+X_ } | | | ) W A k.wXeXeXeXeXeXeXeXrXrXeXeXeXeXeXeXeXeXeX",
"eXeXeXeXeXeXeXeXeXeXwXwXwX4X9XeXeXwXdXdXm.M Y [ | [ } ` } n J =X%X4XeXwXwXwXeXeXeXeXeXeXeXeXeXeXeXeX",
"eXeXeXeXeXeXeXeXeXeXeXwX+XR.>XfX5XI.=X&X| b k [ T T  .} ~ b }.}.&X&XOXdX#X>X+XqXeXeXeXeXeXeXeXeXeXeX",
"eXeXeXeXeXeXeXeXeXeXeX#XQ.^._ !.m.-X` ` Q k h ..| | ^.{ ) n } ! ]  .] R.:X-X&XOXfXeXeXeXeXeXeXeXeXeX",
"eXeXeXeXeXeXrXeXeXeX+XW.} } [ T U }.} ` | Y h E.E.Q.E.E.J D | ~ ] ] P ] xXxX-X}.OXeXeXeXeXeXeXeXeXeX",
"eXeXeXeXeXeXeXeXeX.Xn. .} } } ` n D }.( G s @ z F x c.B e l G _ _ T I ..|.-X;X;X!.qXeXeXeXeXeXeXeXeX",
"eXrXeXeXeXeXeXeXeXwXOX^ ~ }.~ ~ }.g M e 0 9 ;.s.s.;.h.d.;.&.u e x v ' -X|.|.|.}.I.qXeXeXeXeXeXeXeXeX",
"eXeXeXeXeXeXeXeXeXeX#Xm Q }.~ ` L 5 X t ,.d.6.M.0.<.K.Z.r.B.C.s.< 6 R.Q.;XzX] A #XeXeXeXeXeXeXeXeXeX",
"eXeXeXeXeXeXeXeXeXwX@X` S Q ^ D w = &.N.6.7.Z.S.Z.e.'.(.u.H.K.0.,.y , F _ U U [ n.qXeXeXeXeXeXeXeXeX",
"eXeXeXeXeXeXeXeXeX X&X}.Q d C = 4 ;.:.S.A.H.`.`.H.y.8X7X_._.`.Z.4.D.q , > Z |.zX' OXeXeXeXeXeXeXeXeX",
"eXeXeXeXeXeXeXeXqX&X..} }.C ; , f.8.1.`.`.`.2X3X`.i.hXpX8X7XiX/.r.`.N.q , E ;XxX|.R.#XeXeXeXeXeXeXeX",
"eXeXeXeXeXeXeXeXF.J [ ..~.m , ,.N.B.9.yX'.].8X8X3X`.kXsX8XiX8X'.u.yXG.D.u l ~.^...T m.eXeXeXeXeXeXeX",
"eXeXeXeXeXeXeXwX@XI I ) / = ;.N.H.u.w.8X8X8XpXaX3X_.kX0X8X7X7X'.).aX`.K.l.u F W U Z c.wXeXeXeXeXeXeX",
"eXeXeXeXeXeXeXdX*X[ [ R z 0 8.y.)./.u.0X6X8X8XpX3X_.sX8X7X7X7X`.i.0X_.`.D.f.4 A [ ] / #XeXeXeXeXeXeX",
"eXeXeXeXeXeXfXdXW.[ [ E e ,.B.J.3X).i.aX7XpXpXpX3X).kX7X6X6X7X_.u.0X1X).G.l.0 K ) ] | #XwXeXeXeXeXeX",
"eXeXeXeXeXwXwX>X{ ! ) G i N.G.2XyX`.).sX5XsXiXyX1Xp.gX7X6X6X9X1Xi.aXp.].H.G.f.M _ ] [ ,XwXeXeXeXeXeX",
"eXeXeXeXeXwXqXv.Y T Y z i G.).2XyX_.p.hX7XpX7X7X1Xp.jX8X6X6X9X1Xp.fX6X6X).G.j.e A T U b.5XwXwXwXeXeX",
"eXeXeXeX5XI.,X:X| | E.7 8.oX1XyXsX3Xp.rX7X9X7X7X1Xp.jX0X6X8XeX6Xi.hX7X6X3X2Xk.4 R [ ! &X>X+X+XwXeXeX",
"eXeXeXeX2Xb.{ [ W [ _ 7 k.2X1X7XaX1Xp.kX6X8X6X7X3X1X0X0XeX0XaX1X`.hX7X7X5XyXF.6 E  .zX;X| / c.wXeXeX",
"eXeXwXeX.X*X| | | ^ ^ e k.3X6XpX0X1Xp.hX7X7X7X7X3X1X0X0X0X0XsX6X1XhX5X5X3X3XU.y /  ...^.} ) N 5XeXeX",
"eXeXeXeX.X&X....;X}.Q 7 N.3X3XpX9X1Xp.hX3X6X7X3X2Xu.0X0X0X0X8X).1XkX1X3X3X3XtXa W. ...| | _ M qXeXeX",
"eXeXeXeXoXT.{ { ' ` ` 7 N.yX'.7X9X_.p.hX1X1X3X3X1Xp.0X8XaXpX7X)._.jX6X3X5X3XtXa &X . ...[ T M qXeXeX",
"eXeXeXwXoXK T I U Q Q w N.'._.8X7X1Xp.hX1X7X1X3X2Xp.wX7X0X8X7X)._.0X].].3X7XuXi ( ] T Q Y Z M qXeXeX",
"eXeXeXeX5Xg.V h f j f = N.3X1X7X3X).p.gX_.1X1X1X).i.0X6X8XiXiX(._.jXp.].3XyX$X1 f j h k V l g.qXeXeX",
"eXeXeXeXwX4X XF ) }.Y 5 M.3X3X6X7Xp.y.gX)._._.1X).u.0X6X].iX7Xi.i.aX]._.2XuXtX1 G }.) V  X.X4XwXeXeX",
"eXeXeXeXeXwX5Xv.;XxX}.w N.3X7X3X7Xp.y.0X_._._.3X`.u.pX6X].].iXi.i.pX`.`.tXtXU.u &X;X[ K 4XeXeXeXeXeX",
"eXeXeXeXeXwX5Xg.` -X| e N.yX1X7X7Xp.i.aX_.3X_.'.'.i.iX].].{.'./.).uXL.G.G.U.$Xu &X) [ K .XwXeXeXeXeX",
"eXeXeXeXeXeX5Xg.T | ` w N.3X1X7X1X).p.pX1X1X3X'.`.).1X_._.'.'./.).uXU.<XlX<XU.a ( Q T G 4XeXeXeXeXeX",
"eXeXeXeXeXwX5Xg.^ } L 5 k.3X1X1X2X).u.aX).6X'.3X`.i.6X1X_.1X3X).u.uX;.*XvX!.!.p L U n G 4XwXeXeXeXeX",
"eXeXeXeXeXeX5Xc.Y U c 5 k.2X_._.3XJ.y.pX]._.].{.J.u.9X1X3X1X3X).u.$X, g ~.x m.8 G U P F 4XeXeXeXeXeX",
"eXeXeXeXwXI.x.M k j - = C.3X1X1X2XJ.y.sX].].7XyX2Xu.pX3X3X3X3X).G.$Xn.R { cXY.: f k j l z.I.#XwXeXeX",
"eXeXeXeX.XK ^.-X-X;X( 8 l.3X1X).3XJ.u.gX].].].'.2Xu.pX'.3X7XyXJ.G.I.B s o k Y.; _ | | ` ' ^ g.qXeXeX",
"eXeXeXwXXX/ | { |.} _ 5 k.tX_.).`.J.w.gX].8X'.{.J.r.pX3X'.'.yXJ.H.D.u c d c v s _ D ^ }.;X^ M qXeXwX",
"eXeXeXeXXX/ | ^.}.` R 7 j.[.'.'.`.A.5.sX].].].{.J.9.5X'.'.'.yXy.y.I.r T.E.F o > ' A _ ;X;X_ M qXeXeX",
"eXeXeXeX.X' ....}.) D 8 h.[././.H.r.5.pX_.].(.{.P.9.iX/.(.'.`.r.0.F.  , 8 @ 0 s -X| ` }.| ) M qXwXeX",
"eXeXwXeXoXW...| |.) D 7 h.U.(./.S.5.3.yXi./.].(.G.q.{.H././.).9.9.U.j.k.j.z.m.w ' |.| ;X| T G qXeXeX",
"eXeXeXwX.X/ } | Q D C : d.U.e.e.Z.3.2.{.i.i.(.(.r.5.{.t.t.t.G.9.4.K.N.G.q.r.C.= D ` ) { ) c x qXeXeX",
"eXeXeXeX4Xv.K c j k g : d.S.e.7.e.3.-.[.5.t.i.e.r.4.(.7.7.r.r.3.%.B.%.9.#.%.j.X > k k k m l f.wXeXeX",
"eXeXeXeXfXqX5Xg.! | R 5 a.1.3.3.3.#.-.A.5.e.7.5.q.3.A.4.4.7.7.#.%.0.O.%.O.$.h.X T.^.[ K XX4XfXeXeXeX",
"eXeXeXeXeXwX5Xv.T | E.5 * :.>.>.-.@.@.S.3.7.5.0.4.>.S.>.3.3.1.+.=.1.X.X.% X.a.7 ~. .[ H 4XwXeXeXeXeX",
"eXeXeXeXeXeX5Xv.[ W E 8 & *.=.=.=.o.o.V.-.-.>.>.>.@.6.-.=.-.=.o.X.:.. X.3 3 p l ^.[ } H 4XwXeXeXeXeX",
"eXeXeXeXeXeX5Xv.[ } E 4 # o.* o.* % % 1.O.=.:.@.O.+.<.O.o.o.o.* % +.. . 2 $ 6 ; { [ ..b.4XeXeXeXeXeX",
"eXeXeXeXeXeX5Xv.) T R ; @ & * * % $ $ :.o.o.*.o.3 o.:.X.* o.o.& + &.. . $ # 4 ; W { }.n.5XeXeXeXeXeX",
"eXeXeXeXeXeX9Xv.D Z c > X 4 # # @ O O q * & 9 9 & 9 &.& # & # #   <   + O , , ; A ) | n.qXeXeXeXeXeX",
"eXeXeXeXeXeXqXz.x N x u u i t r r 0 0 i i 9 0 8 0 u t 0 0 0 0 0 r &.t t y y y p a g.g.D.wXeXeXwXeXeX"
};
