/* XPM */
static char *f075b97d0e17427c801ce83d54ffe1e6k6vievHeCad10aXl[] = {
/* columns rows colors chars-per-pixel */
"50 50 210 2 ",
"   c #0B050D",
".  c #0A080F",
"X  c #070712",
"o  c #0C0712",
"O  c #070A15",
"+  c #0C0A15",
"@  c #0D0C1A",
"#  c #100612",
"$  c #110915",
"%  c #1C0B13",
"&  c #110C1C",
"*  c #1F0E18",
"=  c #0B1017",
"-  c #0C121C",
";  c #12111D",
":  c #19141A",
">  c #2E0F10",
",  c #23131B",
"<  c #291719",
"1  c #221B1B",
"2  c #341919",
"3  c #30271A",
"4  c #0E0E22",
"5  c #120D22",
"6  c #190F25",
"7  c #0D1423",
"8  c #0D1B26",
"9  c #0E1429",
"0  c #071F29",
"q  c #0D1C2B",
"w  c #121223",
"e  c #1A1727",
"r  c #101926",
"t  c #13152A",
"y  c #19142C",
"u  c #121A2B",
"i  c #0D1E31",
"p  c #131C33",
"a  c #171A34",
"s  c #1A1B35",
"d  c #1B1E3A",
"f  c #241E23",
"g  c #201B2B",
"h  c #211E37",
"j  c #281E31",
"k  c #0D222D",
"l  c #10212E",
"z  c #0D2431",
"x  c #0D2935",
"c  c #0F2739",
"v  c #0D2939",
"b  c #0E2B3B",
"n  c #122333",
"m  c #182136",
"M  c #112936",
"N  c #15243B",
"B  c #1A213C",
"V  c #132B3A",
"C  c #192A3E",
"Z  c #0E313C",
"A  c #13303E",
"S  c #2D2523",
"D  c #372624",
"F  c #362D22",
"G  c #3C3225",
"H  c #3E342B",
"J  c #332A35",
"K  c #471E17",
"L  c #45221C",
"P  c #492B1C",
"I  c #562713",
"U  c #522C1C",
"Y  c #592B19",
"T  c #43351B",
"R  c #743712",
"E  c #723B13",
"W  c #4D3E26",
"Q  c #42392D",
"!  c #4B3535",
"~  c #713B20",
"^  c #6D4316",
"/  c #59472D",
"(  c #614928",
")  c #774729",
"_  c #694830",
"`  c #6A5936",
"'  c #1B2543",
"]  c #1B2B44",
"[  c #1C2A48",
"{  c #0E3341",
"}  c #0D3E4C",
"|  c #113343",
" . c #143747",
".. c #1B344D",
"X. c #133C4B",
"o. c #1A394D",
"O. c #1D3452",
"+. c #1C3F59",
"@. c #212142",
"#. c #21284B",
"$. c #242B52",
"%. c #213050",
"&. c #13404D",
"*. c #0D4554",
"=. c #124451",
"-. c #1D425B",
";. c #224163",
":. c #524941",
">. c #6C4840",
",. c #6A5F45",
"<. c #6E6149",
"1. c #7B6B45",
"2. c #B13F28",
"3. c #98460D",
"4. c #B6480B",
"5. c #A44A11",
"6. c #B85619",
"7. c #BF6310",
"8. c #854D20",
"9. c #975728",
"0. c #8D5535",
"q. c #B54823",
"w. c #B55926",
"e. c #866C33",
"r. c #876F34",
"t. c #97793B",
"y. c #AE6028",
"u. c #B16F2F",
"i. c #C15E08",
"p. c #C8660B",
"a. c #CF7411",
"s. c #EA7712",
"d. c #C46B2A",
"f. c #CC7836",
"g. c #826F40",
"h. c #877548",
"j. c #927042",
"k. c #857A57",
"l. c #AC7544",
"z. c #C97A48",
"x. c #A3843A",
"c. c #F9940C",
"v. c #FA8A19",
"b. c #EC9018",
"n. c #F8A112",
"m. c #D88C3A",
"M. c #D59C33",
"N. c #F79924",
"B. c #E28E31",
"V. c #D2A83E",
"C. c #F7A52A",
"Z. c #EBA63E",
"A. c #F9B635",
"S. c #9D8440",
"D. c #B4934D",
"F. c #9A8F63",
"G. c #A79A6F",
"H. c #B8A666",
"J. c #B8AB77",
"K. c #C78848",
"L. c #D68345",
"P. c #C79A41",
"I. c #DC9A45",
"U. c #C38E50",
"Y. c #D39154",
"T. c #DB9D55",
"R. c #E08F4B",
"E. c #E09850",
"W. c #D9B64F",
"Q. c #E8A648",
"!. c #E6B94A",
"~. c #F8B644",
"^. c #EDA95A",
"/. c #F0AE52",
"(. c #EBB959",
"). c #F5BA55",
"_. c #DAA863",
"`. c #C6B277",
"'. c #E9AA63",
"]. c #F1AC60",
"[. c #EDBA69",
"{. c #F3B96A",
"}. c #F5BE73",
"|. c #F7C94D",
" X c #E7C458",
".X c #F7C758",
"XX c #FBD055",
"oX c #DCC075",
"OX c #E9C76D",
"+X c #F7C86C",
"@X c #F7D46A",
"#X c #E4C475",
"$X c #EFC878",
"%X c #F6C975",
"&X c #EBD17F",
"*X c #FBD879",
"=X c #D3C894",
"-X c #DED399",
";X c #F8D885",
":X c #EADB9C",
">X c #FCDE90",
",X c #F8E288",
"<X c #F9E49A",
"1X c #ECE6A8",
"2X c #FAEBA6",
"3X c #FDF0A7",
"4X c #F5EEB4",
"5X c #FAF6BB",
"6X c #FCF5BA",
"7X c #FBF9C4",
/* pixels */
"t t 4 @ O X o X @ 5 u d ' B t n  .X.| { b q 7 7 8 - @ + + 7 q i q 7 { *.O.' 9 u u t @ 4 9 9 p p t 9 ",
"t w 4 @ O o o . o O @ w s d t u u w M Z x k 8 8 q 7 @ @ X m %.z i z } *.q 9 7 7 u t 7 7 7 p ' #.s y ",
"y & @ @ @ + o o o + + & w t t u q x x 7 7 8 8 8 7 @ + - = u ' b b o.X.b q 9 7 u p t w 7 w p $.$.s y ",
"6 & & @ & & @ + o + o o + @ w t q x x - + @ - - + O O @ - 7 0 b b M b z z q p m m t w w w ' $.@.a y ",
"& & & 5 5 5 & @ @ + + o O + @ ; u k z 7 @ + + @ @ @ @ O @ 7 q z k q b b x z m s C C m u d #.@.a y 6 ",
"5 & & 5 5 5 & & @ + + + + - 7 r q k q 7 @ + O O @ - @ O O @ 7 7 q b { b { x N B O.-.o.] B a t w 6 6 ",
"& & & 5 5 5 5 & @ + o X + - - r 8 z z 8 = + @ @ @ @ @ @ @ 7 7 7 7 z x n | M N ..;.-.+...w & & $ & & ",
"& & & 5 6 6 5 & @ + o . X + + = - 8 q 8 7 @ @ @ @ @ @ 7 9 7 7 7 @ q q t u t t B ..O. .u # & & $ & $ ",
"6 6 & & & & & & @ O o o . o o + + = - 7 - + + @ @ @ 7 7 7 7 7 7 7 8 7 @ @ @ t u m V z - + # $ & & & ",
"w w & & $ & & & @ O o o o o o o + + @ - @ O @ @ 4 7 7 7 @ @ 7 7 7 - - @ @ @ @ @ - = + - + # # # $ $ ",
"& w & & $ $ $ @ o o O O O + X + = = @ - @ O @ @ @ @ @ @ @ @ @ @ - @ @ @ O O o O O + - = o + o # # # ",
"# # $ $ $ $ $ $ @ @ @ @ @ @ @ - - - - @ + O + O O @ 4 @ @ @ & @ & @ - @ O O O X O + - = @ o     o # ",
"o o o $ # # $ + + @ u p q 7 - 8 q 7 - @ + O O X O @ @ 7 @ @ @ & & & @ @ O O @ + O + - - - X . .   # ",
"o # # $ # # $ + + + 9 q q q q q 8 - @ = @ O O O @ + @ @ @ @ @ & & & & @ @ @ - @ + - = - - + . .   o ",
"# # # # o + + @ + @ 7 7 t d u 7 7 @ @ 7 - $ : S F H Q Q H S 1 : & w ; & @ @ + @ - - + + - = X . o o ",
"# # # o o + + @ @ @ @ 5 w w 5 4 w @ @ 7 ; 1 F / ` 1.h.h.1./ G 1 & ; & + + O X O - 7 7 - - - = + X o ",
"o o # o . o + @ @ @ $ & & & 5 5 5 & e S Q ,.k.F.G.J.J.H.D.S.e.W 1 : & + o o O @ - 8 k 8 8 - + o X + ",
"X   o o o o o + @ @ @ & & & & w 5 & f H 1.J.-X1X1X4X1X,X@X XV.e.F : & + X X + - 8 8 q 8 q ; o o X + ",
"  o o o o o o + @ @ @ @ & & 6 6 5 & H <.G.-X4X6X5X6X3X,X@XXX!.x.( F ; + X X + 8 n l l r - ; & = @ + ",
"      . . o o o @ @ & 5 5 5 5 5 5 & :.G.=X4X7X7X5X4X<X@X|.|.|.P.r.W e w + - - q n n 8 r w & & w - o ",
"    . . . o o o @ $ & 5 5 5 5 5 : 1 ,.`.:X5X7X7X4X2X;X.XA.A.A.M.u.( h t @ = - u l z 8 8 r & @ @ @   ",
"    . . . . o o + & & 5 5 & 5 & 1 3 g.oX<X6X5X6X3X>X+XA.n.C.C.b.a.^ j s & @ @ u u z u l n w 7 & + . ",
"    . . o o o @ @ @ & 5 5 6 w & 1 T t.OX,X2X2X<X;X%X).C.c.n.N.b.p.E j h y w ; w u M V V M u w & + o ",
". o o o o X O @ 5 w w @ 7 t y w S W t. X*X;X;XOX(.(.Z.N.c.v.v.s.i.E j @.@.d t u n A A V m u & & @ o ",
"o o O X @ @ 7 - s N 7 B d t p t f G r.W..X+X[.I.m.I.Z.C.N.v.s.p.3.Y g d #.[ m u u X.=.V n n w 7 @ @ ",
"@ O O O 7 q q q 9 { } O.' 9 u u e f ` D.!.).I.w.q.z.T./.~.N.s.3.I 2 w u B ' B t u  .&.| Z b q 7 7 8 ",
"- @ @ X m %.p i z } *.q q 7 7 t t w W t.P.Q.m.q.2.z._.{.).B.7.R > % + & w s d t u u w M Z x k 8 8 q ",
"@ O - - u ' c b o.X.b q 7 7 u m t w D ) u.I.Q.L.R.'.{.{.^.d.3.I % $ # # & 5 t t u k x x 7 7 8 8 8 7 ",
"O O @ - 7 0 b x M b z z q p m m t w < K 0.Y.^.{.}.%X+X].R.y.R K $ + # + X + @ w w q x x - + @ - - @ ",
"= @ O @ 7 q z k q b b b z n s C C m g J >.l.T.$X;X#X_.L.d.6.3.I & @ + + o O + @ ; u k z 7 @ + O @ @ ",
"- @ O O @ 7 7 q b b b { x N B ..-.o.] B ! 0.U.&X,X#XY.w.4.4.5.Y & $ + + + + - 7 r q k q 7 @ + O @ @ ",
"@ @ @ @ 7 7 7 7 z x n | M N ..;.-.-...w D ) S.#X*X[.T.f.6.5.R L & $ + o X + - - r 8 z z 8 @ + @ @ O ",
"@ @ 7 9 7 7 7 @ q k t u t t N ..O.o.u # S / j._.{.].E.f.w.8.Y 2 & @ + o . X + + = - 8 q 8 7 @ @ @ @ ",
"@ 7 7 7 7 7 7 7 q 7 @ @ @ t u m V z ; + , D _ l.K.K.u.9.~ U 2 , & @ + o o . o o + + @ - 7 - + + @ @ ",
"7 7 7 @ @ - 7 7 - - @ @ @ @ @ - = + - + $ * L 8.9.9.8.Y 2 , & & & @ o o o o o o o + + @ - - O @ @ 4 ",
"@ @ @ @ @ @ & @ @ @ @ O O o O O + - = o + # , L U U P 2 * & $ $ @ + o O X O + X + = = @ - @ O @ @ @ ",
"@ 4 @ @ @ & & & @ @ @ O O O X O + - = = o     o o o # # # $ $ $ @ @ @ @ @ @ @ @ - - - - @ + + O O O ",
"@ @ 7 @ @ @ & & & @ @ O O @ O O + - - - X       # o   o # # $ $ + + @ t p q 7 - 8 q 7 - @ + O X X O ",
"O @ @ @ @ @ & & & & @ @ @ - @ @ - = = - + . .   o o # # # # # $ + + + 9 q q q q q 8 - @ - @ O O o @ ",
"@ @ O @ @ @ & & w & & @ @ @ @ - - + + - = X . X o o # # # o + + @ + @ w 7 t d u 7 7 @ @ 7 - O O o O ",
"+ + + @ @ + + + & & + + O X O @ 7 7 = - - = + + o o # # o o o + @ @ @ @ 5 w w 5 4 - @ @ 7 @ @ O O @ ",
"o @ + + + o o o & $ X o o O @ - 8 k 8 8 - + o X + o o # o . o + @ @ @ & & 5 5 & & & @ @ @ @ @ @ + @ ",
"@ @ + + + # + + + + O X o + - 8 8 q 8 q ; o o X + o   o o o o o @ @ @ @ & & & & 5 & & & 4 @ @ @ @ @ ",
"$ $ + o o @ $ + @ @ + X X + 8 n l l r - ; & = @ +   o o o . o o $ @ @ @ @ & & 5 5 & & 5 5 @ @ @ @ & ",
"$ @ + + + @ @ + @ t w O @ - q n n 8 r w & & w @ o     . . . o o o o @ & 5 5 5 5 5 5 & @ 5 5 @ $ & & ",
"$ $ @ @ @ @ @ + @ p t @ = - u l z q 8 r & @ @ +       . . . o o o o $ & 5 5 5 5 5 @ @ @ 4 4 4 5 & @ ",
"& & $ @ @ @ + + & a s & @ @ u u z u n n w 7 & + .     . . . . o o $ $ & 5 5 & 5 & @ @ @ @ 4 4 5 5 @ ",
"@ @ @ @ @ + + + 6 d d y w ; w u M V V M u w & +   . . . . . . + @ $ & 5 5 5 5 5 & @ @ @ @ 4 4 4 5 @ ",
"4 4 @ @ @ + o @ 5 s @.@.d t u n A A V m u & & @ o . o o o o o O @ w w 7 7 w t y w @ @ @ @ 4 4 4 4 4 ",
"9 9 @ @ @ o @ @ 5 t d #.[ m p u  .&.M n n 7 w @ + o + @ X @ @ 7 - d N 7 p p t t t & @ @ @ 4 4 t 4 4 "
};
