/* XPM */
static char *a7cb8103445340d7bce1d1b969dafac3VwixjcrhRz2JDjqq[] = {
/* columns rows colors chars-per-pixel */
"50 50 122 2 ",
"   c #010305",
".  c #040907",
"X  c #080907",
"o  c #030509",
"O  c #09070C",
"+  c #050A09",
"@  c #070A09",
"#  c #04080B",
"$  c #070B0A",
"%  c #04090C",
"&  c #05090D",
"*  c #07090C",
"=  c #05080F",
"-  c #070B0F",
";  c #040C0E",
":  c gray3",
">  c #080A08",
",  c #080C0B",
"<  c #09080E",
"1  c #0A090E",
"2  c #0B090E",
"3  c #0B0A0F",
"4  c #080C0C",
"5  c #0C0F0D",
"6  c #0C100F",
"7  c #040711",
"8  c #070A10",
"9  c #060E10",
"0  c #0B0A11",
"q  c #080B12",
"w  c #0B0F12",
"e  c #0C0C13",
"r  c #0D0F12",
"t  c #0A0D14",
"y  c #100F10",
"u  c #071212",
"i  c #0B1213",
"p  c #0E1211",
"a  c #0C1013",
"s  c #0E1215",
"d  c #111015",
"f  c #121415",
"g  c #191614",
"h  c #161817",
"j  c #181817",
"k  c #131318",
"l  c #1D1E1B",
"z  c #1C1D1C",
"x  c #22211E",
"c  c #1F2122",
"v  c #242321",
"b  c #252521",
"n  c #292622",
"m  c #2B2A25",
"M  c #2B2926",
"N  c #2B2B29",
"B  c #2E2D28",
"V  c #302F2A",
"C  c #34332E",
"Z  c #373530",
"A  c #393731",
"S  c #3C3A34",
"D  c #413D36",
"F  c #423F38",
"G  c #44413B",
"H  c #49463E",
"J  c #4B483F",
"K  c #4D4A42",
"L  c #524E45",
"P  c #545147",
"I  c #565249",
"U  c #5A564C",
"Y  c #5D584D",
"T  c #5D5A50",
"R  c #625D52",
"E  c #666155",
"W  c #686357",
"Q  c #66625B",
"!  c #6A6559",
"~  c #6E695D",
"^  c #716B5E",
"/  c #736E62",
"(  c #777164",
")  c #7B7566",
"_  c #7C7769",
"`  c #7E796D",
"'  c #837C6D",
"]  c #857E70",
"[  c #878171",
"{  c #8B8474",
"}  c #8F8876",
"|  c #858178",
" . c #8F8978",
".. c #928B7A",
"X. c #97907E",
"o. c #938E83",
"O. c #9C9583",
"+. c #A29A86",
"@. c #A39C8A",
"#. c #A9A18D",
"$. c #A7A195",
"%. c #ABA492",
"&. c #B2AA96",
"*. c #B4AC98",
"=. c #B4AD9A",
"-. c #B8AF9A",
";. c #BAB29D",
":. c #BEB5A1",
">. c #BEB5A2",
",. c #C1B8A4",
"<. c #C3BAA5",
"1. c #C4BCAA",
"2. c #C8BFAB",
"3. c #C9C1AD",
"4. c #CDC5B2",
"5. c #D1C9B6",
"6. c #D6CDBC",
"7. c #D8D0BE",
"8. c #DCD4C4",
"9. c #DED6C8",
"0. c #E5DDCD",
"q. c #E8E0D1",
/* pixels */
"          @ @               o * * o                 o                 @ * * o             o * 8 * o ",
"        . , ,       o       o * 4 @ o   o o o     o o o o           o * 4 * o             o 8 w @ o ",
"          , >               o * * @ o   o o o     o * @ o             @ * * o             o 8 w o   ",
"          @ @               o * * @       o     o @ * @ o             o * @ o             o * w * o ",
"          , , .     o o     o * w * o o @ * @ o @ * w 4 * O o o     o * 4 * o       .   o * 0 s * @ ",
". > > . , p p 4 * * * * O * w e s w * * * w 4 * 9 p s s e 1 1 1 O O * w s s 4 @ . @ @ @ * 0 s k w * ",
". @ @ . @ p p 4 * * * @ o O 1 w p * @ * * * * * * w p e w 1 1 1 O O * w s w * O . . . @ @ * t s w * ",
"          , ,               o * * o               @ * @ O             @ * * o             o * 8 * o ",
"          @ @               o o .                   @ @                 @ @                 O 1 o   ",
"          , ,             o o * .                                     . @ @ .               O 1 o   ",
"        . 4 4 .           o * * .                   . .               @ , , .       o     o 1 1 o   ",
"          , ,             o * * > .       .       . @ @               . @ @ .             o 1 1     ",
"          @ @               o * @ .               . @ @                 @ @               o 1 1     ",
"          @ @             o * * @           g n m b l 5               . @ @         o o o O 1 e O   ",
"        @ 6 4 @ X X . . O 1 0 e 4 @ . . B $.1.:.,.*.X.W m .   .     . , 4 4 @   O O 1 1 1 1 e d 1 1 ",
". @ @ . , p p , > > > > 1 0 e y f p 5 Q 9.0.4.,.:.-.*.+.[ P h , @ . @ 4 p p 4 @ 1 1 1 1 1 w d k e e ",
"  o o   @ w w @           o 7 t 4 f | 0.q.0.7.3.,.;.&.;.[ { R f     o * w 4 @ o   o O o o @ w w * * ",
"        o w w o           o 7 0 w o.9.0.0.9.4.3.,.;.;.;...O.' P p   o * w 4 o       o o o o * w O o ",
"        o w w o           o 7 0 c 4.4.6.5.4.4.1.;.;.*.;.[ @.[ ~ H e o * 4 * o       o o   o * w o   ",
"        o * 4 o           o * 8 N 2.1.1.2.,.,.1.,.:.#.{ @.+.' ~ Y C o @ * * o             o * w     ",
"        o * * o             * 8 G :...O.,.+.....:.,...;.;.%.O.{ / F . o * * o               * w     ",
"        o * *               @ w ` O.O.[ 5.6.6.;...%.+.../ { ] O.' F   o * * o               * *     ",
"        o * *               @ z T G L ( ..' G ! W %./ W ..1.%...' A   o * @ o               * *     ",
"        o * *               . z L H ~ ` { F D P / / @.! ..,.8...' m   o @ @                 o * o   ",
"        o * * o o o o o     @ f ~ C J :.{ S A L R P *.E { %.4.[ ) f   o * * o     o o     o @ * * o ",
"o * * @ * i i * * * * * * * 9 N { R D T ) ~ Y P K [ O.^ ! _ O.^ T 1 o * w w * * * * * * * * 9 i w * ",
"@ * * @ * s i * * * * * * * w S %.{ S H K ' ;.5.O...&.*...) ! ^ H @ @ * p p 9 * * * * * * * w s p * ",
"  o o   o w w o o o o o   o * s K ..P T H @.+.O.*.&.( R ! T ~ _ v     o * * @ o   o o o   o * 4 * o ",
"          * *               O * C  .{ { ....+.! L S _ %.! H ) K         O O                 O * O   ",
"        O 1 1 O     o       O 1 V R I E R E I L B > / { Y S m >       o 1 1 O       O       O 1 O o ",
"        O 1 1 O o o O o   o 1 1 x K U T L U P K Z b ' _ S O           o 1 1 O o   o O o   o 1 1 1 O ",
"        o 1 1 o             O 1 G R K U Y _ ) _ { _ ..( v             o O 1 O               O 1 O   ",
"  o o   O 1 1 o           o O 1 T :.&.;.-.*.%.@.[ } ' E 5             O 1 1 O .             > 1     ",
"          1 O               O O Q $.%.%.*.%...[ U m j y                 O O o               O 1     ",
"  o o   o * *   o o     o o * * p C F E ) ^ G l @ o @ @ o             o * * o               * 4     ",
"@ * * @ * p w * * * * * * 9 p i u ; @ 4 h e O O @ * p p 9 * * * @ @ @ * w 9 * @ . . @ @ @ * p s O . ",
"@ * * # * p w * * * * * * 9 p i u 9 * * * * O O * 9 p p 9 * * * @ @ * ; w w * @ . . @ @ @ * p s @ o ",
"  o o   o * *   o o     o o * * * o o o o o       @ * * o o           o * * o               * w o o ",
"          1 O               O O o                   O O                 O O o               O 1 o   ",
"  O o   O 1 1 o           o O * O                 O * * O             O 1 1 O             . > 1     ",
"        o * *               O 1 o               o @ * * o               @ @           .     . 5 .   ",
"          * @               * * o                 o * * o               @ .           .     . >     ",
"          * #               * * o                 o * * o               @ .                   >     ",
"          * *               o * o                 o * @ o               @ .                   >     ",
"  o o   o * *     . . .   o * 0 * o     o o       o * * o             . > @           .     . >     ",
"o > O o @ 9 9 @ . O O O o O 0 e * O O O > > O   o * * * @             @ 4 4 @   . . . > .   > 5     ",
"1 1 1 * * p p * > > > > 1 1 e e w * 1 1 1 1 @ O O * w w * o o o   . @ 4 6 5 > . > . . > X . > 5     ",
"1 1 1 * * p i * > > > > 1 1 e e w 1 1 1 1 1 1 O * * w w * @ O o . . @ 4 p 6 4 @ > . > > X . > y .   ",
"        O w 4 o           o o O @ o     O o     o * * * O             @ , @ .         .   . > ,     ",
"        o 1 * o           o o o o o     o       o * * * .             . @ @ .               > >     "
};
