/* XPM */
static char *result[] = {
/* columns rows colors chars-per-pixel */
"50 50 214 2 ",
"   c #1D1915",
".  c #331D1C",
"X  c #1C262C",
"o  c #33272A",
"O  c #383431",
"+  c #6A1919",
"@  c #791D17",
"#  c #572E15",
"$  c #4C3111",
"%  c #76350C",
"&  c #742F15",
"*  c #673818",
"=  c #753B17",
"-  c #7C3E1D",
";  c #4D2D2B",
":  c #542F2E",
">  c #5A2C2C",
",  c #46342B",
"<  c #4D342B",
"1  c #42392E",
"2  c #4D3A2B",
"3  c #533926",
"4  c #573728",
"5  c #5C332C",
"6  c #543C2B",
"7  c #5B3C2B",
"8  c #483A30",
"9  c #523C31",
"0  c #5A3831",
"q  c #682C2E",
"w  c #762728",
"e  c #7B2E2E",
"r  c #643725",
"t  c #663924",
"y  c #6B3B24",
"u  c #63352C",
"i  c #6A302E",
"p  c #633C2B",
"a  c #6B3C2A",
"s  c #743D23",
"d  c #7A3E21",
"f  c #703F2A",
"g  c #612C30",
"h  c #792F30",
"j  c #6C3331",
"k  c #6A3434",
"l  c #743332",
"z  c #7D3030",
"x  c #753B34",
"c  c #7B3D36",
"v  c #7E401F",
"b  c #4C452E",
"n  c #5A442C",
"m  c #574636",
"M  c #66432C",
"N  c #7D4123",
"B  c #74432C",
"V  c #7A442A",
"C  c #79482D",
"Z  c #75532D",
"A  c #644433",
"S  c #644C33",
"D  c #6B4937",
"F  c #754635",
"G  c #754B32",
"H  c #7D4C34",
"J  c #7C4C39",
"K  c #675137",
"L  c #6B5136",
"P  c #6B5339",
"I  c #755335",
"U  c #795637",
"Y  c #735339",
"T  c #7B5B3B",
"R  c #7E663F",
"E  c #2B3746",
"W  c #343D47",
"Q  c #253A64",
"!  c #1F425E",
"~  c #3B4857",
"^  c #354869",
"/  c #2A4978",
"(  c #354E78",
")  c #395577",
"_  c #484647",
"`  c #554D47",
"'  c #5C5146",
"]  c #464C54",
"[  c #4A515C",
"{  c #545453",
"}  c #6B4D4D",
"|  c #685248",
" . c #765746",
".. c #6A5B57",
"X. c #7E674B",
"o. c #6B635E",
"O. c #7A6455",
"+. c #545A60",
"@. c #5D6369",
"#. c #56647C",
"$. c #676465",
"%. c #716B6A",
"&. c #7B736D",
"*. c #656C77",
"=. c #756F71",
"-. c #6B7176",
";. c #6B727B",
":. c #797879",
">. c #823C1F",
",. c #882D2C",
"<. c #82362C",
"1. c #823232",
"2. c #8C3434",
"3. c #883937",
"4. c #943635",
"5. c #983937",
"6. c #81401F",
"7. c #834323",
"8. c #834A2A",
"9. c #8B4C2C",
"0. c #944E27",
"q. c #8D532C",
"w. c #995B2A",
"e. c #834C34",
"r. c #835136",
"t. c #8D5335",
"y. c #8C553A",
"u. c #825A38",
"i. c #8B5A3D",
"p. c #935434",
"a. c #9A5734",
"s. c #955739",
"d. c #945B3D",
"f. c #9D5D3D",
"g. c #A15F3E",
"h. c #896A2E",
"j. c #90712F",
"k. c #84633C",
"l. c #8C643C",
"z. c #8B6A3E",
"x. c #946C3C",
"c. c #99693F",
"v. c #9A7536",
"b. c #A66B3E",
"n. c #975E42",
"m. c #876A46",
"M. c #8C6B41",
"N. c #936C40",
"B. c #8C7145",
"V. c #977346",
"C. c #9C7242",
"Z. c #916F59",
"A. c #A26140",
"S. c #A57744",
"D. c #AB7B44",
"F. c #B37E45",
"G. c #887969",
"H. c #957866",
"J. c #897572",
"K. c #A68035",
"L. c #AD8145",
"P. c #B48246",
"I. c #BD8546",
"U. c #B98549",
"Y. c #BE894A",
"T. c #A98459",
"R. c #B58957",
"E. c #89827B",
"W. c #988C7D",
"Q. c #AA8969",
"!. c #C38947",
"~. c #C38B4A",
"^. c #CB8D49",
"/. c #CE914A",
"(. c #D6954B",
"). c #D9974C",
"_. c #C68F50",
"`. c #1C518F",
"'. c #1F569B",
"]. c #29528A",
"[. c #37588A",
"{. c #1856A3",
"}. c #275BA5",
"|. c #295EAB",
" X c #2D60AF",
".X c #2C65B9",
"XX c #516684",
"oX c #767C85",
"OX c #2B69C3",
"+X c #79818B",
"@X c #988C86",
"#X c #838993",
"$X c #8C8D90",
"%X c #969392",
"&X c #B2998C",
"*X c #A39B98",
"=X c #ABA49D",
"-X c #B5A898",
";X c #A9A7A9",
":X c #B3ACA9",
">X c #B2B5BB",
",X c #BAB9B9",
"<X c #C4BAB0",
"1X c #C8C3BE",
"2X c #BBBCC2",
"3X c #C4C3C4",
"4X c #D4CDCD",
"5X c #D3D3D5",
"6X c #D9D8D9",
"7X c #DBDBDC",
"8X c #E1DFDE",
"9X c #DFDFE0",
"0X c #E2E1E1",
"qX c #F3F2F2",
/* pixels */
").).).).).).).).).).).).).).).).).).).).).).).).).).).).).).).).).).).).).).).).).).).).).).).).).).",
").).).).).).).).).).).).).).).).).).).).).).).).).).).).).).).).).).).).).).).).).).).).).).).).).).",
").).).).).).).).).).).).).).).).).).).).).).).).).).).).).).).).).).).).).).).).).).).).).).).).).).",
").).).).).).).).).).).).).).).).(.(.(.).(.).).).).).).).).).).).).).).).).).).).).).).).).).).).).).",
").).).).).).).).).).).).).).(.(.(.(.(.(.(.(.(.(.).).).).).).).).).).).).).).).).).).).).).).).).).).",
").).).).).).).).).).).).(.).(.(.P.R z.B.^.(.).).).).).(.).).).).).).).).).).).).).).).).).).).).).).",
").).).).).).).).).).(.(.(.F.M.M.i.J F J k.M.l.C./.(.(.(.).).).).).).).).).).).).).).).).).).).).).).",
").).).).).).).).).).(./.D.n.F k 3.3.3.4.F F x J N.D.(.(.(.).).).).).).).).).).).).).).).).).).).).).",
").).).).).).).).).).(.P.T 3.2.4.z z ,.4.5.5.5.2.x J F._.F.R.(.(.).).).).).).).).).).).).).).).).).).",
").).).).).).).).)./.U. .x z ,.e...} + ,.4.4.5.5.4.4.e.S.H.Z.P.).).).).).).).).).).).).).).).).).).).",
").).).).).).).(.(.P.T x 1.1.,.k oX:XJ.+ q j l q l 3.@ @X>XJ.m.(.).).).).).).).).).).).).).).).).).).",
").).).).).).(.(.P.u.x <.z z w 5 :.7X%X. 5 a y a a 0 . ;X4X%.Z (.).).).).).).).).).).).).).).).).).).",
").).).).).).(.L.T c 1.1.1.h w : :.7X*Xo e.p.p.p.y.e.r O.%X&.z.(.).).).).).).).).).).).).).).).).).).",
").).).).).).(.v.Y l 1.1.h j > 0 E.0X4XJ.d.f.A.n.f.f.s.9. .Z.Y.).).).).).).).).).).).).).).).).).).).",
").).).).).(.(.B.A h 1.h q u t M H.8XqX4Xc.0.a.f.s.f.c.a.* u.Y.).).).).).).).).).).).).).).).).).).).",
").).).).).(.I.P 9 l 1.h q u s v s.&X4X&Xs.p.s.s.p.p.s.w.i.U V.).).).).).).).).).).).).).).).).).).).",
").).).(.(.!.r.p u q e 1.h i 5 * % >.Z.,.} @X&XH.0.>.9.9.Q.&.m.).).).).).).).).).).).).).).).).).).).",
").).).(.P.U C 8.a 5 h e z h q 5 r >.@ & m %X3X:Xm.% = O.:X%XZ.^.(.).).).).).).).).).).).).).(.).).).",
").).(.~.U e.f.a.8.u i 1.z z z i u d >.>.s A |  .e.<.9.F  .J e.l./.(.(.).).).).).).).).).(.(.(.).).).",
").(.(.!.K d.A.A.p.a : h z z z e i r N 6.- s = 7.p.f.g.g.n.c.p.C x./.(.).).).).).(.).(.).).).(.).).).",
").).(.~.P d.A.A.s.B ; h z z z z l i u - v 6.- 6.8.t.J U r.r.J G m./.(.(.).).).).).).).).U.z.z.Y.).).",
").(.(.!.P n.A.A.s.V 5 i z z z z z h i t d N 7.>.d M 8 O 1 9 7 0 x.(.(.).).(.(.!.x.z.z.z.I n P S.).).",
").(.(.~.K d.A.A.a.7.s > h z z z z z e u t y d d y 6 b X X b S S F.^.^.(.!.S.C.m.` _ ` m b n U D.).).",
").(.(.Y.K y.f.f.p.7.y : h z z z z z z h > 5 u t 7 M h.m o Y K.v.F.D.N.C.k.` W [ ;.;.;.=.%...z.(.(.).",
").).(.~.S V q.q.7.d s ; q h z z 1.e 1.e z z q : > > B h.j.v.v.h.n ' ` _ { *.oX#X>X,X>X,X>X@Xz.K.^.(.",
").(.(.!.K V p.s.9.7.y < 5 j z z e 1.h e 1.4.2.2.2.1.q M h.j.m o M | :.oX#X>X2X2X5X5X5X5X5X<XE.I I I.",
").(.(.~.K y.g.g.f.p.s 4 s u : : i 1.1.2.2.4.4.3.i 5 5 7 < < 3 3 b m ;X,X3X5X5X5X5X5X5X5X5X5X1X:X=XZ.",
").).(.~.P d.g.g.g.t.7 y - d y y u g 1.1.k k u p 7 7 6 2 : 0 n n P x.X.$X2X7X5X5X5X5X5X5X5X5X4X4X%XT.",
").(.(.I.K n.g.g.A.y.5 t s s s B a < u a 7 6 3 2 , 1 2 7 G e.H Y z.Y.Z E.2X5X5X5X5X5X5X5X5X6X0X6XW._.",
").).(.~.T i.A.g.n.s.a 7 4 7 p M A 6 3 2 3 3 7 7 , O n N 8.0.t.H z.~.B.:X6X7X5X5X5X5X5X7X7X8X7X1XR.(.",
").(.(.(.D.U n.g.n.a.v 4 7 n n 6 7 n 7 6 < r C H M m l.C N = s H v._.&.3X7X7X9X7X7X7X7X9X6X1X-XQ./.).",
").).(.(.F.m n.A.f.q.* , M 4 3 6 2 1 F V s 7.a.a.C U I.l.D A G x././.X.E.W.-X5X0X9X9X0X,X&XT.Y./.).).",
").(.^.D.P b y.g.n.a.B , o   < C p.y.8.= % v 9.r.I I.(./.!.I.!.^.).(.^.~._.R.H.J.G.G.J.T.~.(.(.(.).).",
"(.F.T D 2 1 F p.f.p.N * b +.n & = 8.| { { | B v u./.(.).).(.).).).).(.(.).(.^._.~.~._.^.(.(.).(.).).",
"(.D.G S L Y I G f a r # { -.%.o.o.$.oXoXoX:.%.O.V.(.).).).).).).).).).).).).).).).).).).).).).(.).).",
"(.!.c.l.D.U.D.x.L 9 B p < ^ #.-.$.@.#X#X+X+X*.$.X./.(.).).).).).).).).).).).).).).).).(.).).).).).).",
"(.)./.I.(.(.(.P.m.P d.t.# Q ].[.( ) XX*.*.#.XX) ' S./.(.).).).).).).).).).).).).).).).).).).).).).).",
"(.).).).(./.(.S.y.f.g.p.% _ ].{.{.{.[.[.( ].{.].D u.D./.(.).).).).).).).).).).).).).).).).).).).).).",
").).).(.(.).^.c.y.n.c.0.v $ ^ |.|.|..XOXOXOX'.] w.n.Y I.(.(.).).).).).).).).).).).).).).).).).).).).",
").).).).).(.S.i.n.g.9.= W E / }.|.|. XOXOX.X`.~ w.n.T S.^.).(.).).).).).).).).).).).).).).).).).).).",
").).).).(.(.D.i.d.f.7.* ! / / ].|.|.|..X.X}.^ A g.c.r.R Y.).).).).).).).).).).).).).).).).).).).).).",
").).).(.).(.D.U C 9.N y O ~ ~ / |.}.|. X X'._ - 9.8.B z.~.).).).).).).).).).).).).).).).).).).).).).",
").).).).(.(.D.P 8 2 9 A M.C.P ] [ [ [ [ [ ~ m t 7 9 D b./.(.).).).).).).).).).).).).).).).).).).).).",
").).).).).(.I.T m m m R ^.).U.c.x.v.x.x.v.x.k.Y m m k.^.(.(.).).).).).).).).).).).).).).).).).).).).",
").).).).).(.^.D.C.C.C.F.(.(.(.).).).(.).(.(.~.D.C.S.F./.).).).).).).).).).).).).).).).).).).).).).).",
").).).).).(.).).).(.).).(.(.).(.).).(.(.(.(.(.(.).(.).(.).).).).).).).).).).).).).).).).).).).).).).",
").).).).).).).(.(.(.(.(.).).).).).).(.).(.).).(.(.(.(.).).).).).).).).).).).).).).).).).).).).).).).",
").).).).).).).).).).).(.).).).).).).).).).).(.).(.).).).).).).).).).).).).).).).).).).).).).).).).).",
").).).).).).).).).).).).).).).).).).).).).).).).).).).).).).).).).).).).).).).).).).).).).).).).).).",
").).).).).).).).).).).).).).).).).).).).).).).).).).).).).).).).).).).).).).).).).).).).).).).).).)."
};
