/* XPM */
static char *result[] = {
/* columns rows colors chars-per-pixel */
"50 50 198 2 ",
"   c #11120C",
".  c #0D0918",
"X  c #140F15",
"o  c #140D1A",
"O  c #1A0818",
"+  c #1C0C1C",
"@  c #101114",
"#  c #1C1116",
"$  c #161419",
"%  c #1B131B",
"&  c #26070D",
"*  c #2F090F",
"=  c #2C0614",
"-  c #250C13",
";  c #2C0915",
":  c #2B061D",
">  c #230B1C",
",  c #2C0B1A",
"<  c #320714",
"1  c #320A14",
"2  c #3A0B16",
"3  c #340C1B",
"4  c #3B0C1B",
"5  c #23131A",
"6  c #251618",
"7  c #2C141C",
"8  c #2B1C1F",
"9  c #341317",
"0  c #35121D",
"q  c #3B131C",
"w  c #351A1D",
"e  c #2C211C",
"r  c #372918",
"t  c #293A15",
"y  c #160F20",
"u  c #1B0E24",
"i  c #151224",
"p  c #1D1920",
"a  c #210820",
"s  c #350E22",
"d  c #3E0D21",
"f  c #2C1822",
"g  c #3C1522",
"h  c #3D1921",
"j  c #2B2728",
"k  c #39252A",
"l  c #332C2D",
"z  c #273120",
"x  c #3B362C",
"c  c #352734",
"v  c #3F3237",
"b  c #450C16",
"n  c #490C15",
"m  c #430D1B",
"M  c #4B0E1B",
"N  c #530E1B",
"B  c #47161A",
"V  c #43131D",
"C  c #4B151C",
"Z  c #52131D",
"A  c #5B141D",
"S  c #54191E",
"D  c #67161E",
"F  c #6B191F",
"G  c #6D1A1D",
"H  c #43271A",
"J  c #460D20",
"K  c #441423",
"L  c #4B1423",
"P  c #431C25",
"I  c #4D1A26",
"U  c #431329",
"Y  c #461E2C",
"T  c #4C1B2B",
"R  c #531422",
"E  c #5B1623",
"W  c #551C25",
"Q  c #5B1B25",
"!  c #531B2C",
"~  c #5B1C2A",
"^  c #4D1E31",
"/  c #521C31",
"(  c #5B1B32",
")  c #631624",
"_  c #6A1624",
"`  c #641A25",
"'  c #691A24",
"]  c #6E1729",
"[  c #641C2A",
"{  c #6B1A2A",
"}  c #721629",
"|  c #601931",
" . c #452424",
".. c #4D2125",
"X. c #44212C",
"o. c #4B292A",
"O. c #5C2125",
"+. c #57262B",
"@. c #47372B",
"#. c #50332A",
"$. c #543E2E",
"%. c #5B3A2B",
"&. c #452634",
"*. c #4F2133",
"=. c #432E33",
"-. c #552332",
";. c #5A2937",
":. c #433532",
">. c #513D34",
",. c #583739",
"<. c #63232C",
"1. c #69232C",
"2. c #6E2A2E",
"3. c #65342B",
"4. c #642435",
"5. c #642C38",
"6. c #663836",
"7. c #7B3A35",
"8. c #274F13",
"9. c #385C1D",
"0. c #36721D",
"q. c #30442A",
"w. c #374639",
"e. c #3A7429",
"r. c #5E462D",
"t. c #4A4635",
"y. c #594535",
"u. c #55443E",
"i. c #41533F",
"p. c #67482F",
"a. c #6D4536",
"s. c #664539",
"d. c #754736",
"f. c #78493A",
"g. c #66503F",
"h. c #72543A",
"j. c #7D5539",
"k. c #7A5A3A",
"l. c #467127",
"z. c #517B30",
"x. c #3E2C43",
"c. c #463C4A",
"v. c #584E4D",
"b. c #724845",
"n. c #52764B",
"m. c #617B5B",
"M. c #585060",
"N. c #715B6E",
"B. c #68616E",
"V. c #787666",
"C. c #813733",
"Z. c #813833",
"A. c #854637",
"S. c #824A36",
"D. c #894E39",
"F. c #8A5A37",
"G. c #8A573C",
"H. c #865A3C",
"J. c #935C3D",
"K. c #8D653C",
"L. c #9A683D",
"P. c #A0673F",
"I. c #A4703D",
"U. c #804F40",
"Y. c #855F44",
"T. c #8A6142",
"R. c #976642",
"E. c #9B6E43",
"W. c #9B7246",
"Q. c #A16A43",
"!. c #A86D42",
"~. c #A37445",
"^. c #AA7745",
"/. c #AC7C44",
"(. c #AA774A",
"). c #B27C43",
"_. c #B37845",
"`. c #816E7C",
"'. c #4C8D2F",
"]. c #5EA241",
"[. c #BA8246",
"{. c #B78348",
"}. c #BC8549",
"|. c #C38247",
" X c #C88B47",
".X c #C3894A",
"XX c #CB8C4A",
"oX c #CE914B",
"OX c #D5954B",
"+X c #D9974C",
"@X c #9D9791",
"#X c #A88684",
"$X c #B8A49F",
"%X c #CDB3B4",
"&X c #CBB7B8",
"*X c #DECFC7",
"=X c #DCD1CB",
"-X c #F7E7E6",
/* pixels */
"+X+X+X+X+X+X+X+X+X+X+X+X+X+X+X+X+X+X+X+X+X+X+X+X+X+X+X+X+X+X+X+X+X+X+X+X+X+X+X+X+X+X+X+X+X+X+X+X+X+X",
"+X+X+X+X+X+X+X+X+X+X+X+X+X+X+X+X+X+X+X+X+X+X+X+X+X+X+X+X+X+X+X+X+X+X+X+X+X+X+X+X+X+X+X+X+X+X+X+X+X+X",
"+X+X+X+X+X+X+X+X+X+X+X+X+X+X+X+X+X+X+X+X+X+X+X+X+X+X+X+X+X+X+X+X+X+X+X+X+X+X+X+X+X+X+X+X+X+X+X+X+X+X",
"+X+X+X+X+X+X+X+X+X+X+X+X+X+X+X+X+X+X+X+X+XOXXX|.|.|.|.|.XX+X+X+X+X+X+X+X+X+X+X+X+X+X+X+X+X+X+X+X+X+X",
"+X+X+X+X+X+X+X+X+X+X+X+X+X+X+X+X+X+X+X+XOX[.D.C.Z.Z.Z.7.J. XOX+X+X+X+X+X+X+X+X+X+X+X+X+X+X+X+X+X+X+X",
"+X+X+X+X+X+X+X+X+X+X+X+X+X+X+X+X+X+X+X+X).d.1.} ' ) Z C +.G.XXOX+X+X+X+X+X+X+X+X+X+X+X+X+X+X+X+X+X+X",
"+X+X+X+X+X+X+X+X+X+X+X+X+X+X+X+X+X+X+XXXD.{ } ] ` S B ; 0 *.R.XXOX+X+X+X+X+X+X+X+X+X+X+X+X+X+X+X+X+X",
"+X+X+X+X+X+X+X+X+X+X+X+X+X+X+X+X+X+X+XQ.2.} } _ ` ` [ L 1 g f.XX+X+X+X+X+X+X+X+X+X+X+X+X+X+X+X+X+X+X",
"+X+X+X+X+X+X+X+X+X+X+X+X+X+X+X+X+X+XOXS.R { { [ N N Q T q X.j.XX+X+X+X+X+X+X+X+X+X+X+X+X+X+X+X+X+X+X",
"+X+X+X+X+X+X+X+X+X+X+X+X+X+X+X+X+X+XXXd.4 I ~ T 9 * Y 0 5 X.U.XXOX+X+X+X+X+X+X+X+X+X+X+X+X+X+X+X+X+X",
"+X+X+X+X+X+X+X+X+X+X+X+X+X+X+X+X+X+XXXa.2 , 7 5 # & T U = 7 f..X+X+X+X+X+X+X+X+X+X+X+X+X+X+X+X+X+X+X",
"+X+X+X+X+X+X+X+X+X+X+X+X+X+X+X+X+X+X{.6., # X . X : / | V > s..X+X+X+X+X+X+X+X+X+X+X+X+X+X+X+X+X+X+X",
"+X+X+X+X+X+X+X+X+X+X+X+X+X+X+X+X+X+XQ.X.&.`.c.B.v.a U ( T - o.{.OXOX+X+X+X+X+X+X+X+X+X+X+X+X+X+X+X+X",
"+X+X+X+X+X+X+X+X+X+X+X+X+X+X+X+X+X+XL.w k N.x.M.c.y : L / 0 5 k.OX+X+X+X+X+X+X+X+X+X+X+X+X+X+X+X+X+X",
"+X+X+X+X+X+X+X+X+X+X+X+X+X+X+X+X+XOXJ.7 O O y . y u > 4 / 3 + >..X+X+X+X+X+X+X+X+X+X+X+X+X+X+X+X+X+X",
"+X+X+X+X+X+X+X+X+X+X+X+X+X+X+X+X+X|.7.P > > y i u O 1 Z *.f + c W.+X+X+X+X+X+X+X+X+X+X+X+X+X+X+X+X+X",
"+X+X+X+X+X+X+X+X+X+X+X+X+X+X+X+XOX_.{ ( 1 # o i X ; Z [ P + > s f.oX+X+X+X+X+X+X+X+X+X+X+X+X+X+X+X+X",
"+X+X+X+X+X+X+X+X+X+X+X+X+X+X+X+XOXR.4.-.L 7 # + , V [ ~ 4 - g W ;.E.OX+X+X+X+X+X+X+X+X+X+X+X+X+X+X+X",
"+X+X+X+X+X+X+X+X+X+X+X+X+X+XOXOX_.3.C ~ +.K - : T ~ ! U ; 9 O.` O.a.}.+X+X+X+X+X+X+X+X+X+X+X+X+X+X+X",
"+X+X+X+X+X+X+X+X+X+X+X+X+X+XOX|.d.Q m b W K 2 M ~ ~ T : g W F G G <.H.XX+X+X+X+X+X+X+X+X+X+X+X+X+X+X",
"+X+X+X+X+X+X+X+X+X+X+X+X+XOXOXL.1.` ` n V V L A R R m K ! N D G G _ 2.^.OX+X+X+X+X+X+X+X+X+X+X+X+X+X",
"+X+X+X+X+X+X+X+X+X+X+X+X+XOX|.7.` ' ) { R * Z A N R J ~ ~ n E ) ] { +.H.XX+X+X+X+X+X+X+X+X+X+X+X+X+X",
"+X+X+X+X+X+X+X+X+X+X+X+X+X XS.<.` A _ ) N R ) A B ~ [ ' W 1 3 K L C O.f.}.OX+X+X+X+X+X+X+X+X+X+X+X+X",
"+X+X+X+X+X+X+X+X+X+X+X+XOX!.2.{ S n ) ` E _ ' E C ` { ` q : 2 : q B R +.E.OX+X+X+X+X+X+X+X+X+X+X+X+X",
"+X+X+X+X+X+X+X+X+X+X+X+XXXA.<.` Q m N E ' ' _ _ ' _ ) J < d ( U 2 [ _ [ Y.oXOX+X+X+X+X+X+X+X+X+X+X+X",
"+X+X+X+X+X+X+X+X+X+X+X+XXXA.' ' Q M M M Q ` G _ _ ) M L L ~ { Q n ) } [ Y.oXOX+X+X+X+X+X+X+X+X+X+X+X",
"+X+X+X+X+X+X+X+X+X+X+X+XXXC.} ' E Z L 2 L C ' D 1.-.;.5.` ` _ ) ) ` ) V T.OXOX+X+X+X+X+X+X+X+X+X+X+X",
"+X+X+X+X+X+X+X+X+X+X+XOXoXD.1.~ V q 4 4 K M ` 2.#X%X&X#X..A ' ] [ W q 7 R.OX+X+X+X+X+X+X+X+X+X+X+X+X",
"+X+X+X+X+X+X+X+X+X+X+X+XOXP.-.L P g 4 d J K ~ b.*X-X=XV.$.B 1.D Q g > 8 ~.+X+X+X+X+X+X+X+X+X+X+X+X+X",
"+X+X+X+X+X+X+X+X+X+X+X+XOXQ.;.K 2 K P ^ 4 !  .u.$X&X@Xq.v.B ` ` V > % y.}.+X+X+X+X+X+X+X+X+X+X+X+X+X",
"+X+X+X+X+X+X+X+X+X+X+X+XOX(.+.q Z [ L g g P 7 k s.=.l i.@.P +.! , + $ K.oX+X+X+X+X+X+X+X+X+X+X+X+X+X",
"+X+X+X+X+X+X+X+X+X+X+XOX+X_.#.I ' _ M & 0 K = P ..e w.x * I ( s a o k ~.OX+X+X+X+X+X+X+X+X+X+X+X+X+X",
"+X+X+X+X+X+X+X+X+X+X+X+X+XI.%.+.` ' ..- 7 K 2 W H t z   9 T 4 a u + y..X+X+X+X+X+X+X+X+X+X+X+X+X+X+X",
"+X+X+X+X+X+X+X+X+X+X+X+X+X Xa.P Q Z C q ; K m H 8.8.n.z w I > u i p h.XX+X+X+X+X+X+X+X+X+X+X+X+X+X+X",
"+X+X+X+X+X+X+X+X+X+X+X+XOXOX(.,...n K *.1 g q r 9.0.e.m.6 ; a u i l /.OX+X+X+X+X+X+X+X+X+X+X+X+X+X+X",
"+X+X+X+X+X+X+X+X+X+X+X+XOXOXXXT.+.A L ! 3 7 3 r z.].e.m.  # u u i x {.+X+X+X+X+X+X+X+X+X+X+X+X+X+X+X",
"+X+X+X+X+X+X+X+X+X+X+X+X+XOXOX(.%.N L *.3 f : r l.'.e.].. . p i + o.}.OX+X+X+X+X+X+X+X+X+X+X+X+X+X+X",
"+X+X+X+X+X+X+X+X+X+X+X+X+X+X+XXXH.o.q T 4 4 ; r t 9.n.i.. j c $ f j.oX+X+X+X+X+X+X+X+X+X+X+X+X+X+X+X",
"+X+X+X+X+X+X+X+X+X+X+X+X+X+XOX+X{.y.6 g U L 1 w e t x $ a v j % @.).+X+X+X+X+X+X+X+X+X+X+X+X+X+X+X+X",
"+X+X+X+X+X+X+X+X+X+X+X+X+X+X+XOXOX).>.X.T K < h w 8 @ $ p u.:.8 K.XX+X+X+X+X+X+X+X+X+X+X+X+X+X+X+X+X",
"+X+X+X+X+X+X+X+X+X+X+X+X+X+X+X+X+XOX~.o.X.K < g P 8 % 6 j s.>.r.}.+X+X+X+X+X+X+X+X+X+X+X+X+X+X+X+X+X",
"+X+X+X+X+X+X+X+X+X+X+X+X+X+X+X+X+X+XOXF.P h 3 T / w % l u.t.r./.OX+X+X+X+X+X+X+X+X+X+X+X+X+X+X+X+X+X",
"+X+X+X+X+X+X+X+X+X+X+X+X+X+X+X+X+X+X+X X%.7 , *.;.g 8 g.k.r./.OX+X+X+X+X+X+X+X+X+X+X+X+X+X+X+X+X+X+X",
"+X+X+X+X+X+X+X+X+X+X+X+X+X+X+X+X+X+X+XOX).p. .X.-.6.@.W.W.L.oXOX+X+X+X+X+X+X+X+X+X+X+X+X+X+X+X+X+X+X",
"+X+X+X+X+X+X+X+X+X+X+X+X+X+X+X+X+X+X+X+XOX XI.F.a.s.K..XOXOX+X+X+X+X+X+X+X+X+X+X+X+X+X+X+X+X+X+X+X+X",
"+X+X+X+X+X+X+X+X+X+X+X+X+X+X+X+X+X+X+X+XOXOXOX+X_.b.}.+X+X+X+X+X+X+X+X+X+X+X+X+X+X+X+X+X+X+X+X+X+X+X",
"+X+X+X+X+X+X+X+X+X+X+X+X+X+X+X+X+X+X+X+X+X+X+XOX.X}.OX+X+X+X+X+X+X+X+X+X+X+X+X+X+X+X+X+X+X+X+X+X+X+X",
"+X+X+X+X+X+X+X+X+X+X+X+X+X+X+X+X+X+X+X+X+X+X+X+XOX+X+X+X+X+X+X+X+X+X+X+X+X+X+X+X+X+X+X+X+X+X+X+X+X+X",
"+X+X+X+X+X+X+X+X+X+X+X+X+X+X+X+X+X+X+X+X+X+X+X+X+X+X+X+X+X+X+X+X+X+X+X+X+X+X+X+X+X+X+X+X+X+X+X+X+X+X",
"+X+X+X+X+X+X+X+X+X+X+X+X+X+X+X+X+X+X+X+X+X+X+X+X+X+X+X+X+X+X+X+X+X+X+X+X+X+X+X+X+X+X+X+X+X+X+X+X+X+X"
};
