/* XPM */
static char *result[] = {
/* columns rows colors chars-per-pixel */
"50 50 209 2 ",
"   c #190F07",
".  c #190C18",
"X  c #1C0E1C",
"o  c #16101F",
"O  c #1C121C",
"+  c #38090D",
"@  c #25180C",
"#  c #290517",
"$  c #230C14",
"%  c #2A0A16",
"&  c #230B1A",
"*  c #2B0C1A",
"=  c #330613",
"-  c #350C15",
";  c #3C0C15",
":  c #340C1B",
">  c #3A0C1C",
",  c #28161A",
"<  c #2C131C",
"1  c #26181E",
"2  c #371514",
"3  c #36131C",
"4  c #3C131E",
"5  c #37181D",
"6  c #3B1C1D",
"7  c #0E220B",
"8  c #1C2C1D",
"9  c #193614",
"0  c #342F16",
"q  c #3A241D",
"w  c #253816",
"e  c #170E22",
"r  c #1B0E21",
"t  c #191222",
"y  c #230D22",
"u  c #370E22",
"i  c #261523",
"p  c #2C1B22",
"a  c #331321",
"s  c #3C1323",
"d  c #331D22",
"f  c #3B1A24",
"g  c #3C172D",
"h  c #331B2C",
"j  c #332222",
"k  c #3D2324",
"l  c #3B252B",
"z  c #283B26",
"x  c #363A25",
"c  c #332E34",
"v  c #37313C",
"b  c #400B0C",
"n  c #400712",
"m  c #430B16",
"M  c #4D0B15",
"N  c #450D1A",
"B  c #4A0B1A",
"V  c #510E16",
"C  c #540C1A",
"Z  c #44121C",
"A  c #4C121D",
"S  c #411C1F",
"D  c #53141E",
"F  c #581C1E",
"G  c #69181D",
"H  c #69181F",
"J  c #76181F",
"K  c #43251B",
"L  c #51261B",
"P  c #413217",
"I  c #431423",
"U  c #4C1522",
"Y  c #451B25",
"T  c #4C1A25",
"R  c #471629",
"E  c #451B2A",
"W  c #4B1C2B",
"Q  c #551523",
"!  c #5D1524",
"~  c #541A24",
"^  c #5C1A24",
"/  c #57172B",
"(  c #531C2A",
")  c #5C1B2A",
"_  c #471E31",
"`  c #541C33",
"'  c #5B1E30",
"]  c #621623",
"[  c #6B1625",
"{  c #641B24",
"}  c #6B1A24",
"|  c #631328",
" . c #6D1529",
".. c #641B2B",
"X. c #6B1A2A",
"o. c #721522",
"O. c #711923",
"+. c #721B2B",
"@. c #621B36",
"#. c #422425",
"$. c #4B2325",
"%. c #492727",
"&. c #472B26",
"*. c #4C232B",
"=. c #4C292C",
"-. c #582527",
";. c #54232B",
":. c #533729",
">. c #5B3D2C",
",. c #4A2F31",
"<. c #542232",
"1. c #5A2934",
"2. c #4A3734",
"3. c #573133",
"4. c #593D33",
"5. c #632626",
"6. c #6C262D",
"7. c #6A2C2C",
"8. c #732B30",
"9. c #673B35",
"0. c #7A3933",
"q. c #7A3D33",
"w. c #254F1B",
"e. c #2D502E",
"r. c #326232",
"t. c #47531A",
"y. c #53501B",
"u. c #5F412D",
"i. c #5C4330",
"p. c #64442B",
"a. c #6B442E",
"s. c #674636",
"d. c #6A4B32",
"f. c #6E403B",
"g. c #7B4337",
"h. c #734D32",
"j. c #7B4B34",
"k. c #745335",
"l. c #785536",
"z. c #7A553A",
"x. c #48692A",
"c. c #406238",
"v. c #393646",
"b. c #4A5747",
"n. c #56504E",
"m. c #774649",
"M. c #764C5A",
"N. c #4D624A",
"B. c #645A68",
"V. c #7C5E64",
"C. c #6E6671",
"Z. c #874E39",
"A. c #825837",
"S. c #855B35",
"D. c #8D533C",
"F. c #8E5C3B",
"G. c #9C5B3D",
"H. c #8A643C",
"J. c #94693C",
"K. c #9C6D3D",
"L. c #9F703E",
"P. c #A0683B",
"I. c #A3733E",
"U. c #AB763F",
"Y. c #8D5A42",
"T. c #8B6642",
"R. c #976842",
"E. c #9B7446",
"W. c #A16540",
"Q. c #A56C41",
"!. c #AA6C40",
"~. c #A47443",
"^. c #AC7543",
"/. c #AD7A41",
"(. c #B17542",
"). c #B37C43",
"_. c #BA7C45",
"`. c #826E6D",
"'. c #90656D",
"]. c #847A74",
"[. c #9E787F",
"{. c #4F8232",
"}. c #5B903E",
"|. c #6D9033",
" X c #7EA872",
".X c #BD8345",
"XX c #BD8548",
"oX c #C28546",
"OX c #C68A47",
"+X c #C88C47",
"@X c #C38648",
"#X c #C48A49",
"$X c #CB8D49",
"%X c #D08F4A",
"&X c #CF904A",
"*X c #D4944B",
"=X c #D9974C",
"-X c #7A7682",
";X c #A37B85",
":X c #9B918F",
">X c #AF9CA1",
",X c #B49DA4",
"<X c #BAA0A4",
"1X c #C5ADB0",
"2X c #D1B1BA",
"3X c #D0CEC8",
"4X c #EED1D8",
"5X c #E7D8DA",
"6X c #EFE8EB",
/* pixels */
"=X=X=X=X=X=X=X=X=X=X=X=X=X=X=X=X=X=X=X=X=X=X=X=X=X=X=X=X=X=X=X=X=X=X=X=X=X=X=X=X=X=X=X=X=X=X=X=X=X=X",
"=X=X=X=X=X=X=X=X=X=X=X=X=X=X=X=X=X=X=X=X=X=X=X=X=X=X=X=X=X=X=X=X=X=X=X=X=X=X=X=X=X=X=X=X=X=X=X=X=X=X",
"=X=X=X=X=X=X=X=X=X=X=X=X=X=X=X=X=X=X=X=X=X=X=X=X=X=X=X=X=X=X=X=X=X=X=X=X=X=X=X=X=X=X=X=X=X=X=X=X=X=X",
"=X=X=X=X=X=X=X=X=X=X=X=X=X=X=X=X=X=X=X=X=X=X=X=X=X=X=X=X=X=X=X=X=X=X=X=X=X=X=X=X=X=X=X=X=X=X=X=X=X=X",
"=X=X=X=X=X=X=X=X=X=X=X=X=X=X=X=X=X=X=X=X=X=X=X=X=X=X=X=X=X=X=X=X=X=X=X=X=X=X=X=X=X=X=X=X=X=X=X=X=X=X",
"=X=X=X=X=X=X=X=X=X=X=X=X=X=X=X=X=X=X=X=X%X$X+X$X$X&X*X=X=X=X=X=X=X=X=X=X=X=X=X=X=X=X=X=X=X=X=X=X=X=X",
"=X=X=X=X=X=X=X=X=X=X=X=X=X=X=X=X=X=X*XoXW.g.q.q.Z.S.U.*X=X=X=X=X=X=X=X=X=X=X=X=X=X=X=X=X=X=X=X=X=X=X",
"=X=X=X=X=X=X=X=X=X=X=X=X=X=X=X=X=X*X(.0.6. .[ C m m Z.!.oX%X=X=X=X=X=X=X=X=X=X=X=X=X=X=X=X=X=X=X=X=X",
"=X=X=X=X=X=X=X=X=X=X=X=X=X=X=X=X=X!.0.} o.J o.[ ..4 5 a.Z.Q._.&X=X=X=X=X=X=X=X=X=X=X=X=X=X=X=X=X=X=X",
"=X=X=X=X=X=X=X=X=X=X=X=X=X=X=X=X%XK.6.} o.O.o.} ..;.=.j.j.D.F.Q.$X=X=X=X=X=X=X=X=X=X=X=X=X=X=X=X=X=X",
"=X=X=X=X=X=X=X=X=X=X=X=X=X=X=X=XoX5.) { G G } C ) ( -.(.oX@X@XR.~.=X=X=X=X=X=X=X=X=X=X=X=X=X=X=X=X=X",
"=X=X=X=X=X=X=X=X=X=X=X=X=X=X=X=X).A T ..+.o.] B ~ N &.U.=X=X*X#XOX=X=X=X=X=X=X=X=X=X=X=X=X=X=X=X=X=X",
"=X=X=X=X=X=X=X=X=X=X=X=X=X=X=X=XQ.Y u R Q ( ( > ( ~ S h.(.*X=X=X=X=X=X=X=X=X=X=X=X=X=X=X=X=X=X=X=X=X",
"=X=X=X=X=X=X=X=X=X=X=X=X=X=X=X=XW.h X & & & & & ( ' T 5 p.L.#X*X=X=X=X=X=X=X=X=X=X=X=X=X=X=X=X=X=X=X",
"=X=X=X=X=X=X=X=X=X=X=X=X=X=X=X=XY.h B.n.c C.v r I ' ( a i j i.J.OX=X=X=X=X=X=X=X=X=X=X=X=X=X=X=X=X=X",
"=X=X=X=X=X=X=X=X=X=X=X=X=X=X=X=Xm.h C.B.v -Xv.e # s U E i X O j l.XX=X=X=X=X=X=X=X=X=X=X=X=X=X=X=X=X",
"=X=X=X=X=X=X=X=X=X=X=X=X=X=X=X*Xm.g & O . O o t & = Q 1.g y X $ 6 h.XX=X=X=X=X=X=X=X=X=X=X=X=X=X=X=X",
"=X=X=X=X=X=X=X=X=X=X=X=X=X=X=XU.9.` u $ X X . X * ~ ..Q u # # I *.%.h.oX=X=X=X=X=X=X=X=X=X=X=X=X=X=X",
"=X=X=X=X=X=X=X=X=X=X=X=X=X&X_.7.( ' U u & & $ % U ' | U # * W / ..) 1.F.$X=X=X=X=X=X=X=X=X=X=X=X=X=X",
"=X=X=X=X=X=X=X=X=X=X=X=XOXD.1.A U ) ) ` # & * W 5.| Q = * W ....X.] { q._.=X=X=X=X=X=X=X=X=X=X=X=X=X",
"=X=X=X=X=X=X=X=X=X=X=X%XD.X.@.D b ! ! U > * Y ~ ^ ^ N - a /  .X.] [ O.X.Z.@X=X=X=X=X=X=X=X=X=X=X=X=X",
"=X=X=X=X=X=X=X=X=X=X=XU.8. . .{ -.^ V n _ f A D D ;.*.3 > !  . .} } O.} ) P.%X=X=X=X=X=X=X=X=X=X=X=X",
"=X=X=X=X=X=X=X=X=X=X$XZ.6. .[ { G F { Q I : U ) m W > : Q ..+. .} H } [ ] q.I.=X=X=X=X=X=X=X=X=X=X=X",
"=X=X=X=X=X=X=X=X=X*XS.S .. .o.} G { { ..) B n F Q B T ;.) X.[  .{ V } 5.X.] g.%X=X=X=X=X=X=X=X=X=X=X",
"=X=X=X=X=X=X=X=X*X~.K #.( ..[ } M ]  . ...! ^ V { C B B X.[ +. .^ b F L } +.8.!.=X=X=X=X=X=X=X=X=X=X",
"=X=X=X=X=X=X=X=X#X4.& - W .. .^ ; / | +.[ } { } [ +.{ G } O.o.] Q + ; A { o.+.G.=X=X=X=X=X=X=X=X=X=X",
"=X=X=X=X=X=X=X$XR.#.: 3 - B ..I % s N ..[ } } } o.o.} } } [ ] | B m ;.A ] [ 6.W.=X=X=X=X=X=X=X=X=X=X",
"=X=X=X=X=X=X=XOXz.,.E R T Y Y f & i * U } O.H H [ O.} { } 5.Q C | .... . ...g.XX=X=X=X=X=X=X=X=X=X=X",
"=X=X=X=X=X=X=X&XR.1.I M.V.V.3.p p i.c : 5.} O.J } H ^ ) B Z ; ! ] X.[ X.) ( H.*X=X=X=X=X=X=X=X=X=X=X",
"=X=X=X=X=X=X=X=X@X9.R 2X4X4X:Xk d.E.s.> ;.{ [ o.} ) A E E E ; ) X.[ } ..R a T.*X=X=X=X=X=X=X=X=X=X=X",
"=X=X=X=X=X=X=X=X*XR.3.V.4X4X;Xz.@XXX%.u ) ^ {  .{ ; : f a $.U B ..{ ] R # , T.*X=X=X=X=X=X=X=X=X=X=X",
"=X=X=X=X=X=X=X=X=X%X^.f.m.m.m.).*X).#./ ) m D ..=.4.,X>X`.S ~ m ) <.W # & , T.=X=X=X=X=X=X=X=X=X=X=X",
"=X=X=X=X=X=X=X=X=X=X*XoXD.D.U.*X=X~.<.@.` 3 4 1.1X5X6X3X].q A m <.W & . O 1 H.*X=X=X=X=X=X=X=X=X=X=X",
"=X=X=X=X=X=X=X=X=X=X=X*X_.oX=X=X=X).#.<.I % k %.<X5X5X:XN.,.$.m W h r r o O p.&X=X=X=X=X=X=X=X=X=X=X",
"=X=X=X=X=X=X=X=X=X=X=X=X=X=X=X=X=X.Xq d < < f #.'.[.C.N.b.2.T B I X r e o O u.*X=X=X=X=X=X=X=X=X=X=X",
"=X=X=X=X=X=X=X=X=X=X=X=X=X=X=X=X=X+Xl O < f S ;.$.k   e.b.j ( ) U # e e t e i.&X=X=X=X=X=X=X=X=X=X=X",
"=X=X=X=X=X=X=X=X=X=X=X=X=X=X=X=X=X*XR.1 . Z A F -.0 w.b.8 $ T ..Q # y r e e 2.L.=X=X=X=X=X=X=X=X=X=X",
"=X=X=X=X=X=X=X=X=X=X=X=X=X=X=X=X=X=X&Xz.< I ~ V F K 9 9 7   - ~ / R y r r t i l.=X=X=X=X=X=X=X=X=X=X",
"=X=X=X=X=X=X=X=X=X=X=X=X=X=X=X=X=X=X*X#Xa.5 ( { G L w r.c.0   2 _ _ l j p i t d.&X=X=X=X=X=X=X=X=X=X",
"=X=X=X=X=X=X=X=X=X=X=X=X=X=X=X=X=X=X=X=XP.6 U ..H L w.w.}. Xe.@ & a 9.z.h.:.d &.R.&X=X=X=X=X=X=X=X=X",
"=X=X=X=X=X=X=X=X=X=X=X=X=X=X=X=X=X=X=X=X*XH.$.;.} L x x.{.}. X8 O p u.L.&XL.p.q 4.~.=X=X=X=X=X=X=X=X",
"=X=X=X=X=X=X=X=X=X=X=X=X=X=X=X=X=X=X=X=X=X$Xa.6 ^ 5.L y.|.{.N.z c i.u.J.&X*XU.d.2.A.$X=X=X=X=X=X=X=X",
"=X=X=X=X=X=X=X=X=X=X=X=X=X=X=X=X=X=X=X=X=X=X_.A.#.S &.P t.x.r.e.b.R.k.k.I.*X*XU.l.k.L.&X=X=X=X=X=X=X",
"=X=X=X=X=X=X=X=X=X=X=X=X=X=X=X=X=X=X=X=X=X=X=X&XK.K 5 @ @ w.x z x E.~.J.K./.OX&X#X~.J.U.*X=X=X=X=X=X",
"=X=X=X=X=X=X=X=X=X=X=X=X=X=X=X=X=X=X=X=X=X=X=X=X*X).k., @ q =.3 q p.K.+X+X).).oX*X*XU.K.I.*X=X=X=X=X",
"=X=X=X=X=X=X=X=X=X=X=X=X=X=X=X=X=X=X=X=X=X=X=X=X=X*X$X~.p.S ;.;.;.>.J.+X*X*X*X.X+X=X=XU.J.OX=X=X=X=X",
"=X=X=X=X=X=X=X=X=X=X=X=X=X=X=X=X=X=X=X=X=X=X=X=X=X=X=X=X$X_.S.j.h.h.S.~.+X*X*X*X+X=X=X*XH.H.*X=X=X=X",
"=X=X=X=X=X=X=X=X=X=X=X=X=X=X=X=X=X=X=X=X=X=X=X=X=X=X=X=X=X=X=X=X*X+X+X&X*X*X=X=X=X=X=X=X+X+X=X=X=X=X",
"=X=X=X=X=X=X=X=X=X=X=X=X=X=X=X=X=X=X=X=X=X=X=X=X=X=X=X=X=X=X=X=X=X=X=X=X=X=X=X=X=X=X=X=X=X=X=X=X=X=X",
"=X=X=X=X=X=X=X=X=X=X=X=X=X=X=X=X=X=X=X=X=X=X=X=X=X=X=X=X=X=X=X=X=X=X=X=X=X=X=X=X=X=X=X=X=X=X=X=X=X=X"
};
