/* XPM */
static char *result[] = {
/* columns rows colors chars-per-pixel */
"50 50 204 2 ",
"   c #0C090D",
".  c #19050D",
"X  c #130C15",
"o  c #15071D",
"O  c #140D1C",
"+  c #1C0C1C",
"@  c #141411",
"#  c #1B1B17",
"$  c #15111C",
"%  c #1B121B",
"&  c #29110C",
"*  c #2C0614",
"=  c #230B15",
"-  c #230B1A",
";  c #260918",
":  c #2D0D19",
">  c #330713",
",  c #330B14",
"<  c #3B0B15",
"1  c #330D1A",
"2  c #3B0E1D",
"3  c #26151C",
"4  c #2B151D",
"5  c #37131A",
"6  c #3C131C",
"7  c #172515",
"8  c #202017",
"9  c #2F221B",
"0  c #38351B",
"q  c #150E21",
"w  c #1B0E21",
"e  c #1C1423",
"r  c #230E22",
"t  c #2B0F21",
"y  c #3A0C26",
"u  c #2C1122",
"i  c #231D25",
"p  c #291A28",
"a  c #341423",
"s  c #3C1423",
"d  c #331923",
"f  c #3A1B27",
"g  c #3C1528",
"h  c #1E2629",
"j  c #23242B",
"k  c #2A232D",
"l  c #262A2B",
"z  c #382929",
"x  c #223324",
"c  c #3D332A",
"v  c #362E37",
"b  c #392C31",
"n  c #363434",
"m  c #3B3132",
"M  c #440C16",
"N  c #430C1A",
"B  c #4C0C1B",
"V  c #540D19",
"C  c #550E1D",
"Z  c #431619",
"A  c #44131C",
"S  c #4C121C",
"D  c #4A1C1B",
"F  c #541718",
"G  c #54141C",
"H  c #5A131F",
"J  c #69151E",
"K  c #691A1F",
"L  c #49251F",
"P  c #53241F",
"I  c #59211B",
"U  c #453113",
"Y  c #480F24",
"T  c #441523",
"R  c #4B1322",
"E  c #441B24",
"W  c #4B1A24",
"Q  c #44142A",
"!  c #4F172B",
"~  c #451A2A",
"^  c #4B1C2A",
"/  c #541425",
"(  c #5B1524",
")  c #551A26",
"_  c #5B1A25",
"`  c #5B1629",
"'  c #541D2A",
"]  c #5D1B2B",
"[  c #591B32",
"{  c #631525",
"}  c #6C1724",
"|  c #641A25",
" . c #6B1924",
".. c #691728",
"X. c #641B2A",
"o. c #6B1A2A",
"O. c #721522",
"+. c #721A27",
"@. c #651B34",
"#. c #462420",
"$. c #482629",
"%. c #552425",
"&. c #54222C",
"*. c #5E232C",
"=. c #542A2D",
"-. c #543426",
";. c #4B2C34",
":. c #5E2230",
">. c #423237",
",. c #4A3633",
"<. c #4C3B3A",
"1. c #5D3334",
"2. c #563B36",
"3. c #61222A",
"4. c #6C212B",
"5. c #642B2A",
"6. c #76212C",
"7. c #6C332D",
"8. c #75382B",
"9. c #612030",
"0. c #652C33",
"q. c #673733",
"w. c #2B4617",
"e. c #3D4612",
"r. c #33452D",
"t. c #374734",
"y. c #2C6923",
"u. c #3E7C29",
"i. c #455110",
"p. c #44463C",
"a. c #584539",
"s. c #694D3D",
"d. c #734A32",
"f. c #754838",
"g. c #744D3B",
"h. c #69543C",
"j. c #765537",
"k. c #467533",
"l. c #3E6749",
"z. c #5A4245",
"x. c #504C47",
"c. c #4C4553",
"v. c #514355",
"b. c #644B44",
"n. c #6D5947",
"m. c #775743",
"M. c #66535C",
"N. c #7C6041",
"B. c #655764",
"V. c #6C636A",
"C. c #686172",
"Z. c #776872",
"A. c #82352C",
"S. c #813F34",
"D. c #824737",
"F. c #904E3C",
"G. c #885739",
"H. c #96583C",
"J. c #9C643E",
"K. c #A76139",
"L. c #AD693F",
"P. c #A5733E",
"I. c #825E41",
"U. c #8A5E40",
"Y. c #975C40",
"T. c #896544",
"R. c #8C6B46",
"E. c #8E6E48",
"W. c #936241",
"Q. c #9B6440",
"!. c #936C46",
"~. c #986943",
"^. c #9A7349",
"/. c #AB6B41",
"(. c #B16D40",
"). c #AB7443",
"_. c #AD7D4A",
"`. c #B47B45",
"'. c #B87F46",
"]. c #B27E49",
"[. c #916C72",
"{. c #C27F45",
"}. c #508932",
"|. c #57874C",
" X c #5B8B59",
".X c #6EA744",
"XX c #778972",
"oX c #BC8146",
"OX c #B98349",
"+X c #C38346",
"@X c #C28649",
"#X c #C48A49",
"$X c #CB8D4A",
"%X c #CE904B",
"&X c #D5944B",
"*X c #D9974C",
"=X c #958C86",
"-X c #AD8F96",
";X c #A9979A",
":X c #AFB2A5",
">X c #C5ADAF",
",X c #D4CEC9",
"<X c #DEE2D8",
"1X c #F0E6E5",
/* pixels */
"*X*X*X*X*X*X*X*X*X*X*X*X*X*X*X*X*X*X*X*X*X*X*X*X*X*X*X*X*X*X*X*X*X*X*X*X*X*X*X*X*X*X*X*X*X*X*X*X*X*X",
"*X*X*X*X*X*X*X*X*X*X*X*X*X*X*X*X*X*X*X*X*X*X*X*X*X*X*X*X*X*X*X*X*X*X*X*X*X*X*X*X*X*X*X*X*X*X*X*X*X*X",
"*X*X*X*X*X*X*X*X*X*X*X*X*X*X*X*X*X*X*X*X*X*X*X*X*X*X*X*X*X*X*X*X*X*X*X*X*X*X*X*X*X*X*X*X*X*X*X*X*X*X",
"*X*X*X*X*X*X*X*X*X*X*X*X*X*X*X*X*X*X*X*X*X*X*X&X*X*X*X&X*X*X*X*X*X*X*X*X*X*X*X*X*X*X*X*X*X*X*X*X*X*X",
"*X*X*X*X*X*X*X*X*X*X*X*X*X*X*X*X*X*X*X*X*X*X&X&X&X&X&X&X*X*X*X*X*X*X*X*X*X*X*X*X*X*X*X*X*X*X*X*X*X*X",
"*X*X*X*X*X*X*X*X*X*X*X*X*X*X*X*X*X*X*X*X&X+X(.L./.(./.`.$X*X*X*X*X*X*X*X*X*X*X*X*X*X*X*X*X*X*X*X*X*X",
"*X*X*X*X*X*X*X*X*X*X*X*X*X*X*X*X*X*X*X*X`.D.6.6.+. .*.7.Y.$X&X*X*X*X*X*X*X*X*X*X*X*X*X*X*X*X*X*X*X*X",
"*X*X*X*X*X*X*X*X*X*X*X*X*X*X*X*X*X*X*X+XS.o.+.} _ Z , < 5.Y.`.&X*X*X*X*X*X*X*X*X*X*X*X*X*X*X*X*X*X*X",
"*X*X*X*X*X*X*X*X*X*X*X*X*X*X*X*X*X*X%XF.o.+. . .| _ W M 8.D.F.{.&X*X*X*X*X*X*X*X*X*X*X*X*X*X*X*X*X*X",
"*X*X*X*X*X*X*X*X*X*X*X*X*X*X*X*X*X*X+X8.{ o.o.( V | *.*.j.F.H.H.$X*X*X*X*X*X*X*X*X*X*X*X*X*X*X*X*X*X",
"*X*X*X*X*X*X*X*X*X*X*X*X*X*X*X*X*X*X`.) R ] ] E & A E #.P.&X+XQ.+X*X*X*X*X*X*X*X*X*X*X*X*X*X*X*X*X*X",
"*X*X*X*X*X*X*X*X*X*X*X*X*X*X*X*X*X*X/.T 1 a d 3 = A R 5 G.&X*X'.$X*X*X*X*X*X*X*X*X*X*X*X*X*X*X*X*X*X",
"*X*X*X*X*X*X*X*X*X*X*X*X*X*X*X*X*X%XJ.a . X     - Q [ Q -.oX*X%X&X*X*X*X*X*X*X*X*X*X*X*X*X*X*X*X*X*X",
"*X*X*X*X*X*X*X*X*X*X*X*X*X*X*X*X*X#X1.d B.c.c.B.r y @.[ 6 j.$X*X&X*X*X*X*X*X*X*X*X*X*X*X*X*X*X*X*X*X",
"*X*X*X*X*X*X*X*X*X*X*X*X*X*X*X*X&X'.$.3 B.c.v.C.r - Y [ E -.P.&X*X*X*X*X*X*X*X*X*X*X*X*X*X*X*X*X*X*X",
"*X*X*X*X*X*X*X*X*X*X*X*X*X*X*X*X*XL.$.+   o q O w - < ' Q 9 d.P.oX&X*X*X*X*X*X*X*X*X*X*X*X*X*X*X*X*X",
"*X*X*X*X*X*X*X*X*X*X*X*X*X*X*X*X&XD.*.T - w r r = 1 ' ' a - #.*.7.Q.*X*X*X*X*X*X*X*X*X*X*X*X*X*X*X*X",
"*X*X*X*X*X*X*X*X*X*X*X*X*X*X*X*X&X7.] / 1 + + - 1 ' :.E = : W 3.3.7.].*X*X*X*X*X*X*X*X*X*X*X*X*X*X*X",
"*X*X*X*X*X*X*X*X*X*X*X*X*X*X*X*X`.F ] ] ^ ; = : W ] ) , : Q X.o. .%.g.@X&X*X*X*X*X*X*X*X*X*X*X*X*X*X",
"*X*X*X*X*X*X*X*X*X*X*X*X*X*X*XL.8.V / ` R 6 1 R ` X.S , 5 ] o. . . .5.G.$X*X*X*X*X*X*X*X*X*X*X*X*X*X",
"*X*X*X*X*X*X*X*X*X*X*X*X*X&X{.A.o. .{ ( M T 2 / G H ' A M | } } O.O.O.7.).&X*X*X*X*X*X*X*X*X*X*X*X*X",
"*X*X*X*X*X*X*X*X*X*X*X*X*X&XK.O.K  ...X.) T < ( { S S M _ | } } } J O. .f.].&X*X*X*X*X*X*X*X*X*X*X*X",
"*X*X*X*X*X*X*X*X*X*X*X*X*X+Xd.J O.} J X.' A A ` ( S _ ( | } } +.F F  . .) g.$X&X*X*X*X*X*X*X*X*X*X*X",
"*X*X*X*X*X*X*X*X*X*X*X*X*XP.4. . .{ V X.] ) | { | H {  .| } +.{ < < F o.X.q.`.*X*X*X*X*X*X*X*X*X*X*X",
"*X*X*X*X*X*X*X*X*X*X*X&X&XJ.3.X.X.) N / ( X...} } } +. .J  .} C < T F J | 1.].&X*X*X*X*X*X*X*X*X*X*X",
"*X*X*X*X*X*X*X*X*X*X*X*X%XH.X.{ T E 5 2 R X.} +.O.K  . .J K C ( X.X.| } 3.2.OX&X*X*X*X*X*X*X*X*X*X*X",
"*X*X*X*X*X*X*X*X*X*X*X&X%XU.&.B M f a s M / ` } O. . .X./ R N Y ) o.o._ $.I.$X*X*X*X*X*X*X*X*X*X*X*X",
"*X*X*X*X*X*X*X*X*X*X*X*X%XG.&.B ) s - t 2 Y / | K  .@./ , 2 T Q S | { 6 d R.&X*X*X*X*X*X*X*X*X*X*X*X",
"*X*X*X*X*X*X*X*X*X*X*X&X&X!.=.) 2 4 v.= 5 M C  . .{ D E z.z.f ^ X.{ Y = h E.&X&X*X*X*X*X*X*X*X*X*X*X",
"*X*X*X*X*X*X*X*X*X*X*X&X&X_.q.D 4 Z.M.= g M / | | *.[.;X,X:Xx.g { H * O h E.&X*X*X*X*X*X*X*X*X*X*X*X",
"*X*X*X*X*X*X*X*X*X*X*X*X&X@Xh.>.Z.M.3 a a A S B %.=.>X1X<XXXx.f X./ w $ h E.&X&X*X*X*X*X*X*X*X*X*X*X",
"*X*X*X*X*X*X*X*X*X*X*X*X&X$XN.V.M.6 ^ g = 5 Z > $.#.[.-X=Xp.x.f ] ' o O j E.&X*X*X*X*X*X*X*X*X*X*X*X",
"*X*X*X*X*X*X*X*X*X*X*X*X*X*XOX,.a ` 3.~ - d s > %.%.&.z 8 t.n = ~ g q q p ~.&X*X*X*X*X*X*X*X*X*X*X*X",
"*X*X*X*X*X*X*X*X*X*X*X*X*X*XOX2.: ` / R a : T M { | %.9 r.r.# % 4 - q w k !.&X*X*X*X*X*X*X*X*X*X*X*X",
"*X*X*X*X*X*X*X*X*X*X*X*X*X*X&X^.>.T N R ^ * T B _ K P 0 n 7 @ X + w q q j E.&X&X*X*X*X*X*X*X*X*X*X*X",
"*X*X*X*X*X*X*X*X*X*X*X*X*X*X*X$XT.,.$.Q ! > 5 < ) K U w.k.k.# $ + + e q j E.%X*X*X*X*X*X*X*X*X*X*X*X",
"*X*X*X*X*X*X*X*X*X*X*X*X*X*X*X*X$X^.g.=.^ 2 : , _ I i.}.y. Xx $ k r O O j E.%X*X*X*X*X*X*X*X*X*X*X*X",
"*X*X*X*X*X*X*X*X*X*X*X*X*X*X*X*X*X&X_.,.~ a t , %.I i..Xk.|.x O b ,.i $ j !.&X*X*X*X*X*X*X*X*X*X*X*X",
"*X*X*X*X*X*X*X*X*X*X*X*X*X*X*X*X&X*X$XI.>.d u 1 ) D e.k.y. Xt.O 4 s.,.$ i a.#X*X*X*X*X*X*X*X*X*X*X*X",
"*X*X*X*X*X*X*X*X*X*X*X*X*X*X*X*X*X*X&X$XT.<.d 1 T Z 0 w.u.l.h q i b.T.i X m _.*X*X*X*X*X*X*X*X*X*X*X",
"*X*X*X*X*X*X*X*X*X*X*X*X*X*X*X*X*X*X*X&X#XN.$.5 T D L & 7 7 l e 3 n.OXl $ v _.*X*X*X*X*X*X*X*X*X*X*X",
"*X*X*X*X*X*X*X*X*X*X*X*X*X*X*X*X*X*X*X*X*X%XI.E ' _ %.6 k 3 v v i p.E.c $ v _.&X*X*X*X*X*X*X*X*X*X*X",
"*X*X*X*X*X*X*X*X*X*X*X*X*X*X*X*X*X*X*X*X*X&XOXd.&.9.o.:.,.>.<.x.i j n.n.$ m _.*X&X*X*X*X*X*X*X*X*X*X",
"*X*X*X*X*X*X*X*X*X*X*X*X*X*X*X*X*X*X*X*X*X*X&X'.g.0.0.' ;.b.OXa.j <.^.j.i >.].*X*X*X*X*X*X*X*X*X*X*X",
"*X*X*X*X*X*X*X*X*X*X*X*X*X*X*X*X*X*X*X*X*X*X*X&X#XW.1.f.m.m.#X^.T.^.OXa.z.!.$X*X*X*X*X*X*X*X*X*X*X*X",
"*X*X*X*X*X*X*X*X*X*X*X*X*X*X*X*X*X*X*X*X*X*X*X*X*X%X).'.OX#X&X&X%X&XOXh.E.%X&X*X*X*X*X*X*X*X*X*X*X*X",
"*X*X*X*X*X*X*X*X*X*X*X*X*X*X*X*X*X*X*X*X*X*X*X*X*X*X*X&X*X*X*X*X*X*X*X#X%X*X*X*X*X*X*X*X*X*X*X*X*X*X",
"*X*X*X*X*X*X*X*X*X*X*X*X*X*X*X*X*X*X*X*X*X*X*X*X*X*X*X*X*X*X*X*X*X*X*X*X*X*X*X*X*X*X*X*X*X*X*X*X*X*X",
"*X*X*X*X*X*X*X*X*X*X*X*X*X*X*X*X*X*X*X*X*X*X*X*X*X*X*X*X*X*X*X*X*X*X*X*X*X*X*X*X*X*X*X*X*X*X*X*X*X*X",
"*X*X*X*X*X*X*X*X*X*X*X*X*X*X*X*X*X*X*X*X*X*X*X*X*X*X*X*X*X*X*X*X*X*X*X*X*X*X*X*X*X*X*X*X*X*X*X*X*X*X"
};
