/* XPM */
static char *result[] = {
/* columns rows colors chars-per-pixel */
"50 50 203 2 ",
"   c #170F1C",
".  c #1C0D1D",
"X  c #181615",
"o  c #1B121C",
"O  c #220B15",
"+  c #2A0B16",
"@  c #230C1C",
"#  c #2A0C1B",
"$  c #350B17",
"%  c #3B0A15",
"&  c #3B0719",
"*  c #350B1C",
"=  c #3D0D1C",
"-  c #2C121D",
";  c #2D1A1B",
":  c #371618",
">  c #34131E",
",  c #3C131D",
"<  c #391E1C",
"1  c #163C0F",
"2  c #1C271A",
"3  c #28261C",
"4  c #3A251F",
"5  c #303C19",
"6  c #1D0D21",
"7  c #171123",
"8  c #1E1321",
"9  c #1D1D24",
"0  c #240C22",
"q  c #2D0923",
"w  c #3A0E24",
"e  c #231B23",
"r  c #281A24",
"t  c #321722",
"y  c #3B1422",
"u  c #3C122A",
"i  c #3E1A29",
"p  c #2A2123",
"a  c #232921",
"s  c #372724",
"d  c #382625",
"f  c #3E2A23",
"g  c #3E222A",
"h  c #3B292A",
"j  c #293028",
"k  c #373D38",
"l  c #420C16",
"z  c #4C0D16",
"x  c #430D1A",
"c  c #4B0E1C",
"v  c #500E16",
"b  c #540D1D",
"n  c #481617",
"m  c #43131D",
"M  c #4B141E",
"N  c #52131F",
"B  c #57181D",
"V  c #64181F",
"C  c #6C181E",
"Z  c #470E24",
"A  c #4A0D21",
"S  c #431323",
"D  c #4C1423",
"F  c #431C23",
"G  c #4A1925",
"H  c #451629",
"J  c #4C1329",
"K  c #421B2A",
"L  c #4C1A2A",
"P  c #551424",
"I  c #5D1625",
"U  c #541A24",
"Y  c #5C1B24",
"T  c #54172F",
"R  c #5E1628",
"E  c #541C2A",
"W  c #5B1B2B",
"Q  c #4D1A34",
"!  c #531C32",
"~  c #5E1C31",
"^  c #631524",
"/  c #6D1623",
"(  c #641C24",
")  c #6A1A24",
"_  c #63172A",
"`  c #6B162B",
"'  c #641B2A",
"]  c #6A1A2A",
"[  c #721724",
"{  c #711923",
"}  c #701629",
"|  c #422125",
" . c #4A2323",
".. c #472A27",
"X. c #592625",
"o. c #5C212B",
"O. c #5D2C2A",
"+. c #443128",
"@. c #4B332B",
"#. c #5C3926",
"$. c #573529",
"%. c #472831",
"&. c #582133",
"*. c #413836",
"=. c #583739",
"-. c #64222A",
";. c #6A2A2B",
":. c #693C27",
">. c #633A2A",
",. c #70382E",
"<. c #612130",
"1. c #683533",
"2. c #743531",
"3. c #763C34",
"4. c #1E5417",
"5. c #375B1D",
"6. c #2F4B2F",
"7. c #2D5F26",
"8. c #394936",
"9. c #385733",
"0. c #5B422D",
"q. c #4D4136",
"w. c #445938",
"e. c #57593B",
"r. c #68482E",
"t. c #70412B",
"y. c #6C4D31",
"u. c #774135",
"i. c #7A4334",
"p. c #744C32",
"a. c #735333",
"s. c #7A5836",
"d. c #7D5834",
"f. c #477029",
"g. c #457E35",
"h. c #78732E",
"j. c #666833",
"k. c #4D4149",
"l. c #455944",
"z. c #5D4B51",
"x. c #7B484B",
"c. c #5D6047",
"v. c #6A6168",
"b. c #717076",
"n. c #824B36",
"m. c #835734",
"M. c #845D36",
"N. c #8A5B36",
"B. c #91513B",
"V. c #955C3D",
"C. c #8B6036",
"Z. c #87613A",
"A. c #8B6339",
"S. c #936137",
"D. c #91663B",
"F. c #95693B",
"G. c #9A6C3D",
"H. c #99763B",
"J. c #A46D3D",
"K. c #AA753E",
"L. c #B17B3F",
"P. c #9B6E42",
"I. c #A66F41",
"U. c #AD7341",
"Y. c #AD7C44",
"T. c #B17745",
"R. c #B47C43",
"E. c #BA7B45",
"W. c #887B7C",
"Q. c #558933",
"!. c #528D31",
"~. c #558846",
"^. c #6E9D5F",
"/. c #B78245",
"(. c #BC8344",
"). c #9B887E",
"_. c #B28F6E",
"`. c #C18646",
"'. c #C58A47",
"]. c #CA8C47",
"[. c #C48648",
"{. c #C58949",
"}. c #CC8D49",
"|. c #CE904A",
" X c #D5944B",
".X c #D9974C",
"XX c #D9984E",
"oX c #CE9757",
"OX c #D69A57",
"+X c #CA9D73",
"@X c #DBA56B",
"#X c #D9A976",
"$X c #837D87",
"%X c #9B9F8F",
"&X c #A79199",
"*X c #D5AB80",
"=X c #BCC1BB",
"-X c #D7C0A5",
";X c #DFC7BB",
":X c #D7CAC7",
">X c #E5CDC0",
",X c #E0D9DC",
"<X c #ECEAE5",
/* pixels */
".X.X.X.X.X.X.X.XXXXXXX.X.X.X.X.X.X.X.X.X.X.X.X.X.X.X.X.X.X.X.X.X.X.X.X.X.X.X.X.X.X.X.X.X.X.X.X.X.X.X",
".X.X.X.X.X.X.X.XXX.X.X.X.X.X.X.X.X.X.X.X.X.X.X.X.X.X.X.X.X.X.X.X.X.X.X.X.X.X.X.X.X.X.X.X.X.X.X.X.X.X",
".X.X.X.X.X.X.X.X.X.X.X.X.X.X.X.X.X.X.X.XXX.X.X.X.X.X.X.X.X.X.X.X.X.X.X.X.X.X.X.X.X.X.X.X.X.X.X.X.XXX",
".X.X.X.X.X.X.X.X.X.X.X.X.X.X.X.X.X.X.X.X.X.X.X.X.X.X.X.X.X.X.X.X.X.X.X.X.X.X.X.X.X.X.X.X.X.X.X.X.X.X",
".X.X.X.X.X.X.X.X.X.X.X.X.X.X.X.X.X.X.X.X.X.X.X.X.X.X.X.X.X.X.X.X.X.X.X.X.X.X.X.X.X.X.X.X.X.X.X.X.X.X",
".X.X.X.X.X.X.X.X.X.X.X.X.X.X.X.X.X.X.X.X.X.X.X.X.X.X.X.X.X.X.X.X.X.X.X.X.X.X.X.X.X.X.X.X.X.X.X.X.X.X",
".X.X.X.X.X.X.X.X.X.X.X.X.X.X.X.X.X.X.X.X.X.X.X.X.X.X.X.X.X.X.X.X.X.X.X.X.X.X.X.X.X.X.X.X.X.X.X.X.X.X",
".X.X.X.X.X.X.X.X.X.X.X.X.X.X.X.X.X.X.X.X.X.X.X.X.X.X.X.X.X.X.X.X.X.X.X.X.X.X.X.X.X.X.X.X.X.X.X.X.X.X",
".X.X.X.X.X.X.X.X.X.X.X.X.X.X.X.X.X.X.X.X.X.X.X.X.X.X.X.X.X.X.X.X.X.X.X.X.X.X.X.X.X.X.X.X.X.X.X.X.X.X",
".X.X.X.X.X.X.X.X.X.X.X.X.X.X.X.X.X.X.X.X.X.X.X.X.X.X X.X.X.X.X.X.X.X.X.X.X.X.X.X.X.X.X.X.X.X.X.X.X.X",
".X.X.X.X.X.X.X.X.X.X.X.X.X.X.X.X.X.X.X.X X{.[.[.].'.'.'.]..X.X.X X.X.X.X.X.X.X.X.X.X.X.X.X.X.X.X.X.X",
".X.X.X.X.X.X.X.X.X.X.X.X.X.X.X.X.X X.X}.U.n.i.i.n.3.3.i.n.J.T.T.'..X.X.X.X.X.X.X.X.X.X.X.X.X.X.X.X.X",
".X.X.XXX.X.X.X.X.X.X.X.X.X.X.X.X.X}.U.B.;.-.] -.( -.( ( O.O.$.=.m.'..X.X.X.X.X.X.X.X.X.X.X.X.X.X.X.X",
".X.X.X.X.X.X.X.X.X.X.X.X.X.X.X.X XI.;.} ) ) { { ) ( -.;.:.:.m.K.K.`..X.X.X.X.X.X.X.X.X.X.X.X.X.X.X.X",
".X.X.X.X.X.X.X.X.X.X.X.X.X.X.X.X Xi.] ) ] / / V ( U  .N.L.L.]. X.X X.X.X.X.X.X.X.X.X.X.X.X.X.X.X.X.X",
".X.XXX.X.X.X.X.X.X.X.X.X.X.X.X.X X3.D m U ' ' N D = < F. X X.X X.X.X.X.X.X.X.X.X.X.X.X.X.X.X.X.X.X.X",
".X.X.X.X.X.X.X.X.X.X.X.X.X.X.X.X|.1.* . 0 y H H & J > s D. X.X.X.X.X.X.X.X.X.X.X.X.X.X.X.X.X.X.X.X.X",
".X.X.X.X.X.X.X.X.X.X.X.X.X.X.X.X{.1.i 8 9 e @ @ q ~ D O 4 F. X.X.X.X.X.X.X.X.X.X.X.X.X.X.X.X.X.X.X.X",
".X.X.X.X.X.X.X.X.X.X.X.X.X.X.X.X[.x.&Xv.b.$X9   # E E , + 4 F. X.X.X.X.X.X.X.X.X.X.X.X.X.X.X.X.X.X.X",
".X.X.X.X.X.X.X.X.X.X.X.X.X.X.X.XE.=.g ; p r 6   o + , L + o 4 S.(. X.X.X.X.X.X.X.X.X.X.X.X.X.X.X.X.X",
".X.X.X.X.X.X.X.X.X.X.X.X.X.X X[.d.%.# o . @ 6 .   O - i # O t | >.L..X.X.X.X.X.X.X.X.X.X.X.X.X.X.X.X",
".X.X.X.X.X.X.X.X.X.X.X X X|.`.N...K + .   o @ 0 q & %.q o > &.&.F r.L. X.X.X.X.X.X.X.X.X.X.X.X.X.X.X",
".X.X.X.X.X.X.X.X.X X X}.E.V.u.1., G x * @ . # u Q ! S + > E ' ] ^ M :.U. X.X.X.X.X.X.X.X.X.X.X.X.X.X",
".X.X.X.X.X.X.X.X.X XT.V.2.;.' ' l M W W D % , y y H y $ c ' ) / C / ) 2.U..X.X.X.X.X.X.X.X.X.X.X.X.X",
".X.X.X.X.X X X X}.V.2.-.] ) ) ' I b z z U Y M & S S , % U _ ) ) / } } ( 2.L. X.X.X.X.X.X.X.X.X.X.X.X",
".X.X.X X X}.J.S.n.;.` [ } [ ^ E W D N Y Y ( ^ P A c G B ^ ) / ( b R ^ V ) 2.T..X.X.X.X.X.X.X.X.X.X.X",
".XOX X}.Y.a.$.<.] ] ) ) / _ m + i L z _ ) ) ( ' _ ` ^ V / [ C ^ c * l z U o.3.E..X.X.X.XXXXX.X.X.X.X",
"OX*X+X_.z.; F W ` / _ U D G | - O K c ^ C C / ) ` / [ C C C / N $ & E ^ z ^ -.n.(. X.X.X.XXX.X.X.X.X",
"@X>X;X:XW.%.% Y } ` ' , < #.N.p.d K l _ C C C C / } / / _ ' Y x n P ] ] _ ^ ' ,.J. X.X.X.X.X.X.X.X.X",
"OX@X#X-X).=.m Y } } <. .d.(. X'.P.F D ] / ) ) C [ / } ` T L x N X.V ) ) ` P >.J.|..X.X.X.X.X.X.X.X.X",
".X.XXXoXP.;.n U _ ' >.N.L..X.X.X'. .G ' V ^ B V / ( R Z u u = P -.V ( ' P * $.(. X.X.X.X.X.X.X.X.X.X",
".X.X.X.X(.n.X.1.n.J.L.]. X.X.X.X}..., W b ^ B v Y U , t t H T c Y ( o.= @ o 3 D.|. X.X.X.X.X.X.X.X.X",
".X.X.X.X'.J.V.E.]. X.X X.X.X.X.X Xt.: D T l M  .m h v.&XW.< G m P ' w . @   e @.P.}. X.X.X.X.X.X.X.X",
".X.X.X.X.X X X.X X.X.X.X.X.X.X.X X(.#.> &.D l y =.;X<X<X%Xq.: m Z Z . 7 . . 6 0 @.G. X X.X.X.X.X.X.X",
".X.X.X.X.X.X.X.X.X.X.X.X.X.X.X.X.X XK.4 H W W : k =X,X=Xl.c.: o.P q . 7 0 6 . . e +.F. X.X.X.X.X.X.X",
".X.X.X.X.X.X.X.X.X.X.X.X.X.X.X.X.X X].K.t.G L : g z.k.8.6.e.l ' ^ U w   @ ; @.s o o f a.Y.|. X X|..X",
".X.X.X.X.X.X.X.X.X.X.X.X.X.X.X.X.X.X.X X(.p.< 4 g d X j l.3 m ' ) ) G w - @.G.a.0.f p s #.y.Z.G.y..X",
".X.X.X.X.X.X.X.X.X.X.X.X.X.X.X.X.X.X.X.X X(.C.@.h s 3 8.a @ q H ( ( Y X.| @.G.(.'.G.d.d.M.A.A.A.A..X",
".X.X.X.X.X.X.X.X.X.X.X.X.X.X.X.X.X.X.X.X.X X|./.A.a.5 1 9.2 X O , M X.X.#.p.r.A./.'.'.'.'.{./. X X.X",
".X.X.X.X.X.X.X.X.X.X.X.X.X.X X.X.X.X.X.X.X.X X.XOX}.j.4.g.~.9.X o ; M.J./.'.G.r.y.M.M.Z.A.G.R. X X.X",
".X.X.X.X.X.X.X.X.X.X.X.X.X.X.X.X.X.X.X.X.X.X.X.X.X.XH.5.!.!.^.8.3 *.Z.D.D.F.K.L.M.M.M.Z.A.(. X X.X.X",
".X.X.X.X.X.X.X.X.X.X.X.X.X.X.X.X.X.X.X.X.X.X.X.X.XXX|.h.Q.Q.!.w.s.P.P.A.Z.F.(. X|.|.|.].|. X X.X.X.X",
".X.X.X.X.X.X.X.X.X.X.X.X.X.X.X.X.X.X.X.X.X.X.X.X.X.XXX(.h.f.7.w.Y.|.|.].].|..X.X.X.X.X.X.X.X.X.XXX.X",
".X.X.X.X.X.X.X.X.X.X.X.X.X.X.X.X.X.X.X.X.X.XXX.X.X.XXXXX(.P.j.e./.XX.X.X.X.X.X.X.X.X.X.X.X.X.X.X.X.X",
".X.X.X.X.X.X.X.X.X.X.X.X.X.X.X.X.X.X.X.X.X.X.XXX.X.X.X.X.X.X|.'.|..X.X.X.X.X.X.X.X.X.X.X.X.X.X.X.X.X",
".X.X.X.X.X.X.X.X.X.X.X.X.X.X.X.X.X.X.X.X.X.X.X.X.X.X.X.X.X.X.X.XOX.X.X.X.X.X.X.X.X.X.X.X.X.X.X.X.X.X",
".X.X.X.X.X.XXX.X.X.X.X.X.X.X.X.X.X.X.X.X.X.X.X.X.X.X.X.X.X.X.X.X.X.X.X.X.X.X.X.X.X.X.X.X.X.X.X.X.X.X",
".X.X.X.X.X.XXX.X.X.X.X.X.X.X.X.X.X.X.X.X.X.X.X.X.X.X.X.X.X.X.X.X.X.X.X.X.X.X.X.X.X.X.X.X.X.X.X.X.X.X",
".X.X.X.X.X.X.X.X.X.X.X.X.X.X.X.X.X.X.X.X.X.X.X.X.X.X.X.X.X.X.X.X.X.X.X.X.X.X.X.X.X.X.XXX.X.X.X.X.X.X",
".X.X.X.X.X.X.X.X.X.X.X.X.X.X.X.X.X.X.X.X.X.X.X.X.X.X.X.X.X.X.X.X.X.X.X.X.X.X.X.X.X.X.X.X.X.X.X.X.X.X"
};
