/* XPM */
static char *_d375af498f74a6cec00bf01ebae086bQKdepq9CX134d8dF[] = {
/* columns rows colors chars-per-pixel */
"50 50 4 1 ",
"  c #0F2229",
". c #153333",
"X c #2A524C",
"o c #839565",
/* pixels */
"XXXXXXXXXXXXXXXXXXXXXXXXXX.XXXXXXXXXXXXXXXXXXXXXXX",
"XXXXXXXXXXXXXXXXXXXXXXXXXX.XXXXXXXXXXXXXXXXXXXXXXX",
"ooooooXXXXXXXXoooooooooXoX.XoXXXXooooooXXXXXXXXXXX",
"XXXXXXXXXXXXXXXXXXXXXXXXXX..XXXXXX.XXXXXXXXXXXXXXX",
"XXXXXXXXXXXXXXXXXXXXXXXXXX..XXXXXX.XXXXXXXXXXXXXXX",
".............................XXXXXX...............",
"XXXXXXXXXXXX.XXXXXXXXXXXXXXXXXXXXXXXXXXXXXXXXXXX..",
"Xooooooooooo.oooooooooooooXooXXXXXXXXoooXXXXXXXXXX",
"XXXXXXXXXXXX.XXXXXXXXXXXXXXXXXXXXXXXXXXXXXXXXXXXXX",
"XXXXXXXXXXXX.XXXXXXXXXXXXXXXXXXXXXXXXXXXXXXXXXXXXX",
"..................................................",
"XXXXXXXXXXXXXXXXXXXXXXXXXXXXXX...XXXXXXXXXXXXXXXXX",
"XXXXXXXXXXXXXXXXXXXXXXXXXXXXXXX...XXXXXXXXXXXXXX..",
"XXXXXXXXXXXXXXXXXXXXXXXXXXXXXXX...XXXX............",
"..................................................",
"                                                  ",
"                                                  ",
"............. ....................................",
"............  ....................................",
"XXXXXXXXXXXX  .XXXXXXXXXXXXXXXXXXXXXXXXXXXXXXXXXXX",
"XXXXXXXXXXXX  .XXXXXXXXXXXXXXXXXXXXXXXXXXXXXXXXXX.",
"XXXXXXXXXXXX  .XXXXXXXXXXXXXXXXXXXXXXXXXXXX.......",
"............  ....................................",
"............  ....................................",
"XXXXXXXXXX..  ..XXXXXXXXXXXXXXXXXXX...X..XXXXXXXXX",
"XXXXXXXXXX..  ..XXXXXXXXXXXXXXXXXX................",
"XXXXXXXXXX..  ..XXXXXXXXXXXXXXX...................",
"XXXXXXXXXX..  ..XXXXXXXXXXXXX.....................",
"............    ..................................",
"...........     ..................................",
"                                                  ",
"                                                  ",
"                                                  ",
"......................................  ..........",
"XXXXXXXXXXXXXXXXXXXXXXXXX.............  ..........",
"XXXXXXXXXXXXXXXXXXXXXXXXXXXXXXX..XXXX.  ..........",
"XXXXXXXXXXXXXXXXXXXXXXXXXXXXX.........   .....XXXX",
"......XXXXXXXXXXXXXXX..................  .........",
".......................................  .........",
".......................................  .........",
".......................................   ........",
".............. ........................   ........",
".............. ........................   ........",
"                                                  ",
"                                                  ",
".............  ...................................",
".............  ...................................",
"............   ...................................",
"............   ...................................",
"............    .................................."
};
