/* XPM */
static char *key1704823516[] = {
/* columns rows colors chars-per-pixel */
"50 50 70 1 ",
"  c #020205",
". c #090506",
"X c #040907",
"o c #080907",
"O c #030509",
"+ c #09060C",
"@ c #050A0C",
"# c #090B0D",
"$ c #0C100F",
"% c #10110B",
"& c #1C150F",
"* c #1A1B0B",
"= c #040711",
"- c #060D11",
"; c #0A0D11",
": c #100C10",
"> c #071212",
", c #0C1113",
"< c #121315",
"1 c #141915",
"2 c #1B1D14",
"3 c #121418",
"4 c #161A19",
"5 c #1B1C1A",
"6 c #231C14",
"7 c #1F2116",
"8 c #1E211C",
"9 c #27250D",
"0 c #302C0E",
"q c #262415",
"w c #22241D",
"e c #24291C",
"r c #2A2B1C",
"t c #343015",
"y c #3C361A",
"u c #1C1C20",
"i c #1E2122",
"p c #232523",
"a c #252926",
"s c #2D2B23",
"d c #302E26",
"f c #2E302B",
"g c #313425",
"h c #343C26",
"j c #35342A",
"k c #353B29",
"l c #3C3B2B",
"z c #2E3433",
"x c #323532",
"c c #383D36",
"v c #413E25",
"b c #463E29",
"n c #3D461E",
"m c #41402C",
"M c #454A35",
"N c #4D4B31",
"B c #444538",
"V c #44493C",
"C c #4A4B38",
"Z c #5E5D44",
"A c #605F42",
"S c #576041",
"D c #5E634F",
"F c #63654A",
"G c #696D4F",
"H c #6F7745",
"J c #70794E",
"K c #717A5C",
"L c #7F7C75",
"P c #8B976E",
/* pixels */
"     o@X  OO  O@@O       OX        O@@O      OO=@O",
"     ooX OO   O@-OOOOOOO OOOO   O OO--O     OO=-OO",
"    X@@X  O  OO@-@O  OOOOO@@O   O  @@@O     OO=,O ",
"    Xoo       OO@OO OO  OO@@OO     O@@O     OO==-O",
" X  X@@X OOOO @=;@OO@@@OO-;;OO+OO O@;@X X XXOO=3-O",
"XooXo$%@@@@@O@;,,,-@@-;@-,,,;;++OO@,,,@@Xoo@@-,3;@",
"XoXXo$<@@@@@O@=;,;@O@@@@@>,;:+++OO@;,,@@XXXX@@;3;@",
"  X X$@X O    OO@O    O OO@+O  OO  @#@       OO-@O",
"     ooX      OO.        XXX       XXXX       ++O ",
"    X@@X     OO+X         XX       X@oX  O   O+:O ",
"    Xo@     OO+=X         XX       X@$X   O  O+:OO",
"    X%@X     OO+@.   . . XooX      X@oX    O O+;  ",
"    XoXX      ++o     . XX@X1awo   X@oX      O++  ",
"    XooX      ==@X     . X8DMghSe   oo    OOOO+;OO",
" XX X$$ooo..++;:$oX ...oXiC<OXX#V8X@$@o O++++:;<++",
"XXXX@$,$ooo#+;;3,$#o#%:##k71$$o#1Mo$<$#@++=:;;:3;;",
" OOOO;,@ XX OO=;#@  O+.+ l4z3O OOMO@>@@OXOOOOO>,=O",
"  X O,@O X  O===#@  O . Oq@p3    MO@;;OO OOOOO@;@O",
" OO O,>O X   O--=@O  ++ Oj<<awaeOcO@@-O  OOXOO@;O ",
"    O@@OX  O O@=-O  O ..a#mvh; f73 O#@O   O  O@#O ",
"    O@-O  X OOO-@@  OO +scK6e-,B5  O@OO   O  O@;  ",
" O  O@@O  X   O-@@O O +.wPtw,75o  OO@@O    O  @@  ",
" O   @@   X   @@#@O   + xy284      O@@O   O  OO=O ",
"    O@@O OO   X@@@  OO.:H&4,a O   OO@O        O@OO",
" O OO-@OOOO OX@@OOO+OO5G0u@@OO  O OO@@OOOOOOXOO=OO",
"OO@@@,>-@@>@@@-,-==O=<dvz,-;@@@@@OO----@@@@@@@>,-@",
"@O@O-,,>@=@@@@-,>-+=:5Aq,;,>-@@@O@@@>,-@@>-@@@;,,-",
"OOOOO--OOOOO O@--O3O5A9<@@@@OO OOOOO@@@O OOO O@-@O",
"    O##O     OOOOsL<svp. OOOO      OOOO       O+O ",
"    O#:OO OO OO+,NZsK*. OO++O   O  O++O  OOO O++OO",
" OO +#+++O+OOO+:CbrFn<.. +++O OOO O++++O +OOO +;+O",
"    O=+O      +ajhsJ&. . O++O      O+++       +++O",
" OO O;+O   O OO+8%V*@    +++O     OO+#+O      o#  ",
" O  O@+ O    O+OO@$@     OO+O       O@O       Oo  ",
"OOO O@@OOO OO@O@@OO OO  O@O#OO OO OOO@OO  XX O#; O",
"O-@O@>-@#=@@@-;,>>@>@;@@@-,;-@@@O@O@>>>OXXXX@-,,OX",
"@@@O@>;@-@@@@>>,>-@@-#+O@-;,-@@@@@O-->-@XXooX@>,@O",
"OOO O=@OOOOOOO@@@OO OO  O@-@OOO    O@@O  XX XX@>OO",
" O  O#O      OOOO        OOOO      OOOO       @#  ",
" OO O##O  O  ++OOOO  O+  O++O    O O+#+O      o#X ",
" O  O@@       ++OO  O   O@@@OOO    XooX    .. .#XX",
" O   @@O      ++O    +  O@@@O  O   XXX  .  .  oo X",
"  O O@O      O++O   .    O@OO       XX        .o  ",
" O   @@X     OO=OO  .    O@OO      X@X        .o  ",
"O O O@@O X.X O+=@O  O.  OO@@O  O   X@oX .  X  .o  ",
"O+OOO->O ..+O+=;@+O++++ O@@@OOO   XX$ooX.  .. oo  ",
"++++-,,@oo#+=::3;-+++++OO-;-@OO XXXo$$oX..+ooXo$X ",
"+;++@,,#o#+++=:;=::++:#O@@;,#O@XX@o$<,#XoXooo.#:X ",
" +. O;;O      O+OOOOO.  O=@@O     XXooX    . .o#XX",
"     #+O      O+OO O+   OO-O        o@X       ooX "
};
