/* XPM */
static char *a41fad83622e4aeff2cd3f0dc896e535mQVMr2eKlNpXxxnD[] = {
/* columns rows colors chars-per-pixel */
"50 50 220 2 ",
"   c None",
".  c #000126",
"X  c #000A26",
"o  c #00002A",
"O  c #000B2C",
"+  c #0E0626",
"@  c #140A26",
"#  c #1B0C26",
"$  c #14002D",
"%  c #001125",
"&  c #00132D",
"*  c #001B2F",
"=  c #151424",
"-  c #1F1226",
";  c #1F1A2D",
":  c #1D162A",
">  c #000234",
",  c #000038",
"<  c #000E35",
"1  c #001435",
"2  c #001C35",
"3  c #220F25",
"4  c #210128",
"5  c #330927",
"6  c #3B012B",
"7  c #33002A",
"8  c #2C1525",
"9  c #2E1E2F",
"0  c #271526",
"q  c #341724",
"w  c #3B1725",
"e  c #3B1826",
"r  c #341C2B",
"t  c #3A1928",
"y  c #381527",
"u  c #3B0030",
"i  c #2D1F30",
"p  c #3E1E34",
"a  c #012035",
"s  c #0C2134",
"d  c #002038",
"f  c #142134",
"g  c #1D2335",
"h  c #32202F",
"j  c #242234",
"k  c #2A2132",
"l  c #262538",
"z  c #42002C",
"x  c #4C002E",
"c  c #420929",
"v  c #54002E",
"b  c #5C012E",
"n  c #5E082D",
"m  c #431726",
"M  c #4C1727",
"N  c #451926",
"B  c #421229",
"V  c #4B1229",
"C  c #4A1C24",
"Z  c #511727",
"A  c #541728",
"S  c #5D1729",
"D  c #531828",
"F  c #541C24",
"G  c #470030",
"H  c #4B0030",
"J  c #5A0030",
"K  c #4A1B32",
"L  c #63022E",
"P  c #640B2E",
"I  c #6A0B2E",
"U  c #6A032E",
"Y  c #64162B",
"T  c #6C162C",
"R  c #6C182B",
"E  c #681C26",
"W  c #73172D",
"Q  c #78172E",
"!  c #74182D",
"~  c #7A1B2D",
"^  c #781524",
"/  c #7C1930",
"(  c #4B2224",
")  c #582626",
"_  c #492333",
"`  c #5A2E32",
"'  c #562A33",
"]  c #6E2324",
"[  c #6B2B24",
"{  c #662829",
"}  c #7A2227",
"|  c #6B3029",
" . c #7A3324",
".. c #6C3430",
"X. c #703631",
"o. c #752A31",
"O. c #933E1F",
"+. c #851E2C",
"@. c #851A29",
"#. c #90122C",
"$. c #BC0C2B",
"%. c #84242B",
"&. c #8C2C2A",
"*. c #882628",
"=. c #912D2B",
"-. c #982827",
";. c #833522",
":. c #8E3B20",
">. c #943D20",
",. c #9D3D24",
"<. c #933129",
"1. c #9C3528",
"2. c #8F2F31",
"3. c #AA2F26",
"4. c #A52729",
"5. c #BC2A27",
"6. c #B62A29",
"7. c #B72C27",
"8. c #AB3223",
"9. c #A33C26",
"0. c #AD3C26",
"q. c #A5332B",
"w. c #A8332C",
"e. c #B13124",
"r. c #B83B25",
"t. c #B73527",
"y. c #CE1A27",
"u. c #C42529",
"i. c #C82D28",
"p. c #D92925",
"a. c #C33426",
"s. c #CC3326",
"d. c #CC3B25",
"f. c #C73727",
"g. c #DD3524",
"h. c #DB3C24",
"j. c #D13626",
"k. c #E43E23",
"l. c #9B421E",
"z. c #90401E",
"x. c #A3431E",
"c. c #AF4A1C",
"v. c #B54B1B",
"b. c #BA4E1B",
"n. c #BE521B",
"m. c #9B442A",
"M. c #994227",
"N. c #AB4223",
"B. c #A64626",
"V. c #B34425",
"C. c #B94523",
"Z. c #B64F27",
"A. c #BB4B22",
"S. c #BA5025",
"D. c #DE5D0E",
"F. c #C44A1D",
"G. c #C64B1A",
"H. c #D94B1E",
"J. c #CD5616",
"K. c #CE5915",
"L. c #C45219",
"P. c #CC531C",
"I. c #CE5A1E",
"U. c #D15717",
"Y. c #D35A15",
"T. c #DC5C14",
"R. c #D3551C",
"E. c #D3591B",
"W. c #DB5C1C",
"Q. c #DB571A",
"!. c #E64E1E",
"~. c #E94A1C",
"^. c #E25D14",
"/. c #E2521C",
"(. c #EB551B",
"). c #E25A19",
"_. c #ED5A19",
"`. c #EA5A16",
"'. c #F45C16",
"]. c #FB5E16",
"[. c #F2531C",
"{. c #F25919",
"}. c #C77D1E",
"|. c #D66517",
" X c #EC650F",
".X c #FE6E04",
"XX c #F3660C",
"oX c #FD650E",
"OX c #F5690B",
"+X c #FD6A0A",
"@X c #FF7101",
"#X c #FD770A",
"$X c #E46112",
"%X c #ED6413",
"&X c #E46118",
"*X c #F26213",
"=X c #FC6412",
"-X c #F27F1F",
";X c #C44D21",
":X c #CB4C22",
">X c #DA4522",
",X c #D04B23",
"<X c #DB4A20",
"1X c #D14423",
"2X c #C45323",
"3X c #CA5721",
"4X c #E34222",
"5X c #EC4920",
"6X c #C76022",
"7X c #D76122",
"8X c #E97721",
"9X c #C4821F",
"0X c #FE860A",
"qX c #FE8B14",
"wX c #F58618",
"eX c #FE9014",
"rX c #FB9917",
"tX c #F7A21D",
"yX c #DC8123",
"uX c #E78622",
/* pixels */
"                                        e w w w w W W W W /                                         ",
"                                w w w w w w w w w w W W W Y h.-.T Q                                 ",
"                            w w w w w w w q m W q T W W W T ~ ! W W W W                             ",
"                        r r i w w w w w N T q m T W W m Y j.*.W W W Q S Y S                         ",
"                      r r 9 w w w w w q w N T T W W W T L *X1.T W W S q Y S Z                       ",
"                    j j r e w w 0 . 4 R w T W W W W N W L XX&.I W W Z q m S W W                     ",
"              j j g r t e w w # >.OXJ.o R W W W W W q W x %XOX1.T W W M 8 S Q W W Y =               ",
"            j j l r r O . w w q { ,.A.Y.H ! W W W M Y T 5.+XC.~ W W W T N S Y S W ! T W             ",
"            2 d ; r o B.x.. w 8 m n } ;XR.H ! W W 8 ! H *X>XQ.<.T W W W T T T T W W Q W             ",
"            t.d.{ > M.XXOXl.o Y R ! U *..XP.v b W Y v Q.A.#.OX,.I W W W W W W Y S W W W             ",
"          a 2.-.;XE.XX=X!.R.N.J ! T &.).@X+X6.R.b b Q.;X! b /.d.@.W W W W W W R Y W W W W           ",
"        j l a 1 m.A. X/.$.(.+XV.v I 1..XC.;X]._.P.R.P.T W T -.(.q.T W W W W W W R S W W W W         ",
"      j j j j h & o U.(.4X).b.P.V.} P.C.v ! P.k.'.P.I W W W x  XN.I W W W W R Y T Y T Y W W W       ",
"      j j j 9 r e + l.H.H.z.. ;.R.R./.G ! W U 8.6.L W W W S b /.1.I W W W R N m R Q Y w W W W       ",
"    j j j j r 9 t w . C.r.o e 6 =.).<XP W W S w Y W W W W A B j.a.+.W W W Y A N M W T S W W W W     ",
"    j j j j k r e w . K.R.6 q Z %.A.P.L W S q Y W W W W W Q V 3.k.4.T W W W Q R S W W W W W W W     ",
"  j j j j k t 9 t = E F.P.;.X c C.%Xu ! T 8 w M W W W W W W R x <Xq.I W W W W W W W W W W Y W W !   ",
"  j j j j t i r 8 E t.@.x.J.[ 6 0.).b W T q m Q W R Y W R R N b R.;X%.T W W W W T R W W T M W Y W   ",
"  j j j j j t i & d.-.% . v.%X<.r.s.Y W T q w T R q q R w w W ! u &XR.~ T W W W Y M T W W W T m Y   ",
"  j j j j t k r % e.3.N C L.+X+XoXd.P W T N N q q w w m N W W W L P..XR.~ T W T W Y w W ~ 1.1.-.]   ",
"l j j j j j t k t X e.8.L.+XH.1X.XE.b W W W W N N N N W W W W W ! H ;X+X;X+.<.<.=.%. .=.0.+X*Xh.h.! ",
"j j j j j t k t w w . L.].i.,X+XR.H ! W W W W W W W W W W W W W W ! P x 7.'.+X+X'.!.OXOX^.G L Y Y w ",
"j j j j j j t k t w % 4.{.@XR.G I ! W W W W W W W W W W W W W W W M S b R./.u.g.(.T.. . 5 ! W W W W ",
"j j j j j e k t w w 0 e.{..XR.b W W W W W W W W W W W W W W W W W W M z :X.X'.i.:X.XT.. N W W W q w ",
"j j j j j j e k r . P..X(.(.R.z M W W W W W W W W W W W W m R W W W Z S L ;X.XqXuXs.&Xx q N W T w w ",
"j j j j j e k t . J.+X.X(.[.J.. Z W W W W W W W W W W W W m T W W W A 8 S L ;X.XqXrX/.x q N W w W w ",
"j j j j j j e k o U..X(.g.(..XP.. D W W W W W w W W W W W W W W W W Z q q S Q W A.@X+X).v m W W W W ",
"j j j j j j j t . U..X(.g.g.4X(.K.o Q W W T q - W W W W W W W W W W W Z q w m w e <.[.$X. m W W W W ",
"j j j j j j t i 1 I..X~.8XwXp.(..XJ.o L U W ! h.W W W W W W W W W W W W W A 8 q B 4.[.$X. W W W m N ",
"l j j j j j j t o J..XeXyXi.p.g.(..X X%XT.5 h.+.W W W W W W W W W W W W W W T T T I 0.%Xb W w N w e ",
"  j j j j j j k > I.'.,Xd.8XtXuXp.>Xd.(.XX5.] W W W N W W W W W W W W W W W W W I 9.OX^.o Z T q w   ",
"  j j j j j j O n./.4Xu.u._.0X#XoX{.u.a..X`.X N M W R M T W W W W W W W S S W W I N..X$X. w M w w   ",
"  j j j j j l > E.+X!.p.!.+X.X^. .b.oX_.!.XX+ R w M Q q W Z T W W W W W T T W ! b 9.+Xd.$ e w w w   ",
"  j j j j j 1 Z.XX_.(.oXU.O.l.;.. ) x.v.=X X. D q w Z R A 8 R W W W W W W W ! b <.`.5Xh.P.X w w w   ",
"    l 2 2 g , &X@X*X+XW.| . @ 0 w q X N c..XL.0 Y w q A q Y W Q S Z A A Z R L 1.OX%X8.oX$Xo w w     ",
"    a t.a.< S.S.m.%XD.[ & r w w w w 3 M P.{..X. 7 w w q w Z A S m q q q = o 9.Q.v.:.( J.+Xv.# w     ",
"      q.q.2X2X` > m. .& r r 9 r w # F |.qXy.(.L.L.. w w w S m e X . V - *.F.J.O.. # 0 ( J.OX.       ",
"      a 2 S.` 2 l 2 2 j k r r r & ) Y.#XeX-X{.@X.Xb.@ . q S N . x.G.&.-.e.F.O.. w w w 3 ] (.X       ",
"        k 1 2 j j j j j j k t ; | U.].`.n.9XL.n.{..Xb.v.( % . >.XX0X7X6.} . @ w w w w q } h.        ",
"          j j j j j j j j j j & B.oX4.-.. . . -.i._..X@X=.-.x.+XT.}.6X^ % w w w w w w q E           ",
"            j j j j j j j j i O M.$Xo * r r F a.i.(.U.U.s.p.Q.T.[ . . 0 w w w w w w w w             ",
"            j j j j j j j j a ` J.&X> t k i r = a.T.X . t.1XZ . 0 w w w w w w w w w e r             ",
"            j j j j j j j j 1 B..XA.O i e t k t & . w w . +X;.8 w w w w w w w w w e r g             ",
"              j j j j g s 2 ' Z.2X, k t g j t k k t t q E W. .8 t e e t e e t t t r g               ",
"                    f ' o.p B.3X> l j j j j j e e k j & k.K : i j t 9 j r 9 j j                     ",
"                      w.4Xw.2 2 l j j j j j j j j e j a >X] f t w k r 9 j j j                       ",
"                        2 a l j j j j j j j j j j j j 2 OXX.s j j j j j j j                         ",
"                            j j j j j j j j j j j j j i %X..f j j j j j                             ",
"                                j j j j j j j j j j l h._ f j j j j                                 ",
"                                        l j j j j f h._ g l                                         "
};
