/* XPM */
static char *result[] = {
/* columns rows colors chars-per-pixel */
"50 50 177 2 ",
"   c #8B0F0C",
".  c #9C120B",
"X  c #9D1B16",
"o  c #951D1A",
"O  c #A10E0A",
"+  c #AD0D0C",
"@  c #B90B08",
"#  c #BF0908",
"$  c #A21307",
"%  c #A4140B",
"&  c #AD130D",
"*  c #B4130D",
"=  c #BE140C",
"-  c #A91914",
";  c #B61412",
":  c #BA1612",
">  c #B61D11",
",  c #BC1A14",
"<  c #BB1D1A",
"1  c #97211E",
"2  c #AD221E",
"3  c #B7231E",
"4  c #9E2824",
"5  c #9D2E2B",
"6  c #9F322F",
"7  c #9A3935",
"8  c #AA2E29",
"9  c #BD2522",
"0  c #B42824",
"q  c #B72A28",
"w  c #A8302D",
"e  c #B7312E",
"r  c #AB3C39",
"t  c #B63B35",
"y  c #C40406",
"u  c #C70C0D",
"i  c #C3150C",
"p  c #C9190E",
"a  c #CC180E",
"s  c #C31311",
"d  c #CC1311",
"f  c #C51B14",
"g  c #CB1A13",
"h  c #C31D1A",
"j  c #CE1C19",
"k  c #D31712",
"l  c #D21A13",
"z  c #D7200E",
"x  c #C2241E",
"c  c #CA2419",
"v  c #D42418",
"b  c #DB221C",
"n  c #E22916",
"m  c #EC2519",
"M  c #F62319",
"N  c #C72220",
"B  c #C82B27",
"V  c #D42924",
"C  c #DA2825",
"Z  c #C1322F",
"A  c #D4312A",
"S  c #CA3B37",
"D  c #DF3E39",
"F  c #E22723",
"G  c #E92622",
"H  c #F22A20",
"J  c #FC2923",
"K  c #E4322D",
"L  c #F63632",
"P  c #95423D",
"I  c #D6433F",
"U  c #F3453E",
"Y  c #894743",
"T  c #994E4D",
"R  c #985753",
"E  c #B54945",
"W  c #BB4A46",
"Q  c #AF5147",
"!  c #A6524A",
"~  c #B5524B",
"^  c #A15F57",
"/  c #BD5552",
"(  c #A2675E",
")  c #9C7871",
"_  c #A46961",
"`  c #B76C60",
"'  c #A6766B",
"]  c #AD7E75",
"[  c #CD4742",
"{  c #C44944",
"}  c #C34E4A",
"|  c #D84843",
" . c #D9524C",
".. c #C75A55",
"X. c #D75A56",
"o. c #FA4740",
"O. c #F44D47",
"+. c #E5534D",
"@. c #F2524B",
"#. c #EE5E55",
"$. c #F65F59",
"%. c #C0645F",
"&. c #D7645D",
"*. c #DB635C",
"=. c #CA6661",
"-. c #C66D67",
";. c #DE6860",
":. c #CC726E",
">. c #D2716B",
",. c #DC746E",
"<. c #CA7771",
"1. c #DD7870",
"2. c #D87E78",
"3. c #E66760",
"4. c #E26D65",
"5. c #EB6E67",
"6. c #FB6F67",
"7. c #E8726D",
"8. c #F37369",
"9. c #FC7E77",
"0. c #A78576",
"q. c #AD8173",
"w. c #B68977",
"e. c #AF927E",
"r. c #B4937C",
"t. c #B69B7F",
"y. c #BC9B7D",
"u. c #BFA57C",
"i. c #D9974C",
"p. c #D7984F",
"a. c #D8984E",
"s. c #D69A53",
"d. c #D89A52",
"f. c #D49D5A",
"g. c #D3A05E",
"h. c #C99E68",
"j. c #CFA165",
"k. c #CDA46D",
"l. c #CEA96E",
"z. c #D2A264",
"x. c #C2A176",
"c. c #CAA574",
"v. c #C2A57A",
"b. c #C8A778",
"n. c #C7A87B",
"m. c #CAA978",
"M. c #B78D85",
"N. c #AC9482",
"B. c #A9938B",
"V. c #B49884",
"C. c #BD9E81",
"Z. c #B19791",
"A. c #B5A285",
"S. c #B7A587",
"D. c #D78783",
"F. c #DB8D88",
"G. c #E68780",
"H. c #F58A81",
"J. c #EE9D94",
"K. c #C1A780",
"L. c #C6AC81",
"P. c #C8AF89",
"I. c #C3B28E",
"U. c #C1AC93",
"Y. c #DDA096",
"T. c #EEA59B",
"R. c #D7ABA0",
"E. c #DEBBB1",
"W. c #E6B5AA",
"Q. c #ECBAAE",
"!. c #FBB3A5",
"~. c #CEC5AD",
"^. c #CCC7B9",
"/. c #DACCC0",
"(. c #FCD6C9",
"). c #FEE4D4",
"_. c #FDE7D9",
/* pixels */
"i.i.i.i.i.i.i.i.i.i.i.i.i.i.i.i.i.i.i.i.i.i.i.i.i.i.i.i.i.i.i.i.i.i.i.i.i.i.i.i.i.i.i.i.i.i.i.i.i.i.",
"i.i.i.i.i.i.i.i.i.i.i.i.i.i.i.i.i.i.i.i.i.i.i.i.i.i.i.i.i.i.i.i.i.i.i.i.i.i.i.i.i.i.i.i.i.i.i.i.i.i.",
"i.i.i.i.i.i.i.i.i.i.i.i.i.i.i.i.i.i.i.i.i.i.i.i.i.i.i.i.i.i.i.i.i.i.i.i.i.i.i.i.i.i.i.i.i.i.i.i.i.i.",
"i.i.i.i.i.i.i.i.i.i.i.i.i.i.i.i.i.i.i.i.i.i.i.i.i.i.i.i.i.i.i.i.i.i.i.i.i.i.i.i.i.i.i.i.i.i.i.i.i.i.",
"i.i.i.i.i.i.i.i.i.i.i.i.i.i.i.i.i.i.i.i.i.i.i.i.i.i.i.i.i.i.i.i.i.i.i.i.i.i.i.i.i.i.i.i.i.i.i.i.i.i.",
"i.i.i.i.i.i.i.i.i.i.i.i.i.i.i.i.i.i.i.i.i.i.i.i.i.i.i.i.i.i.i.i.i.i.i.i.i.i.i.i.i.i.i.i.i.i.i.i.i.i.",
"i.i.i.i.i.i.i.i.i.i.i.i.i.i.i.i.i.i.i.i.i.i.i.i.i.i.i.i.i.i.i.i.i.i.i.i.i.i.i.i.i.i.i.i.i.i.i.i.i.i.",
"i.i.i.i.i.i.i.i.i.i.i.i.i.i.i.i.i.i.i.i.i.i.i.i.i.i.i.i.i.i.i.i.i.i.i.i.i.i.i.i.i.i.i.i.i.i.i.i.i.i.",
"i.i.i.i.i.i.i.i.i.i.i.i.i.i.i.i.i.i.i.i.i.i.i.i.i.i.i.i.i.i.i.i.i.i.i.i.i.i.i.i.i.i.i.i.i.i.i.i.i.i.",
"i.i.i.i.i.i.i.i.i.i.i.i.i.i.i.i.i.i.i.i.i.i.i.i.i.i.i.i.i.i.i.i.i.i.i.i.i.i.i.i.i.i.i.i.i.i.i.i.i.i.",
"i.i.i.i.i.i.i.i.i.i.i.i.i.i.i.i.i.i.i.i.i.i.i.i.i.i.i.i.i.i.i.i.i.i.i.i.i.i.i.i.i.i.i.i.i.i.i.i.i.i.",
"i.i.i.i.i.i.i.i.i.i.i.i.i.i.i.i.i.i.i.i.i.i.i.i.i.i.i.i.i.i.i.i.i.i.i.i.i.i.i.i.i.i.i.i.i.i.i.i.i.i.",
"i.i.i.i.i.i.i.i.i.i.i.i.i.i.i.i.i.i.i.i.i.i.i.i.i.i.i.i.i.i.i.i.i.i.i.i.i.i.i.i.i.i.i.i.i.i.i.i.i.i.",
"i.i.i.i.i.i.i.i.i.i.i.i.i.i.i.i.i.i.i.i.i.i.i.i.i.i.i.i.i.i.i.i.i.i.i.i.i.i.i.i.i.i.i.i.i.i.i.i.i.i.",
"i.i.i.i.i.i.i.i.i.i.i.i.i.i.i.i.i.i.i.a.p.a.i.i.i.i.i.i.i.i.i.i.i.i.i.i.i.i.i.i.i.i.i.i.i.i.i.i.i.i.",
"i.i.i.i.i.i.i.i.i.i.i.i.i.i.i.i.i.s.g.h.v.n.j.f.d.i.i.i.i.i.i.i.i.i.i.i.i.i.i.i.i.i.i.i.i.i.i.i.i.i.",
"i.i.i.i.i.i.i.i.i.i.i.i.i.i.i.p.f.x.N.) Z.] ' w.x.h.g.p.p.p.i.i.i.i.i.i.i.i.i.i.i.i.i.i.i.i.i.i.i.i.",
"i.i.i.i.i.i.i.i.i.i.i.i.i.i.i.f.A.0.R.7.5.+.b V t ! w.n.g.p.i.i.i.i.i.i.i.i.i.i.i.i.i.i.i.i.i.i.i.i.",
"i.i.i.i.i.i.i.i.i.i.i.i.i.i.p.I.^./.6.J L 9.o.m k , 0 ! r.k.p.p.i.i.i.i.i.i.i.i.i.i.i.i.i.i.i.i.i.i.",
"i.i.i.i.i.i.i.i.i.i.i.i.i.p.j.^.Q.J.O.J M U H.b d d g : w q.u.p.i.i.i.i.i.i.i.i.i.i.i.i.i.i.i.i.i.i.",
"i.i.i.i.i.i.i.i.i.i.i.i.a.a.L./.[ 9 &.@.H $.3.j f p a p , ~ ' m.d.i.i.i.i.i.i.i.i.i.i.i.i.i.i.i.i.i.",
"i.i.i.i.i.i.i.i.i.i.i.i.a.z.~.E.q ; h | 5.7.B h x f i i : %.E q.k.i.i.i.i.i.i.i.i.i.i.i.i.i.i.i.i.i.",
"i.i.i.i.i.i.i.i.i.i.i.i.s.S.M.t * # u N G.I : : f f x Z / -.2 5 C.f.i.i.i.i.i.i.i.i.i.i.i.i.i.i.i.i.",
"i.i.i.i.i.i.i.i.i.i.i.i.k.B.2 * @ # y s X.>.W e < { -.` E - % O ! P.s.i.i.i.i.i.i.i.i.i.i.i.i.i.i.i.",
"i.i.i.i.i.i.i.i.i.i.i.a.u.T * = # y y y u e } =.D.:.w X . $ $ . X ^ K.f.i.i.i.i.i.i.i.i.i.i.i.i.i.i.",
"i.i.i.i.i.i.i.i.i.i.i.p.b.R * i u y u u u - - < F./ 2 2 . . $ $ . X _ b.s.i.i.i.i.i.i.i.i.i.i.i.i.i.",
"i.i.i.i.i.i.i.i.i.i.i.i.z.] < i s u u d + q ..} 2.W.W.Y.e = * & % . o 0.j.i.i.i.i.i.i.i.i.i.i.i.i.i.",
"i.i.i.i.i.i.i.i.i.i.i.i.f.y.0 f d d u [ 9 S A c.T.(._._.8.z * + & % . P S.i.i.i.i.i.i.i.i.i.i.i.i.i.",
"i.i.i.i.i.i.i.i.i.i.i.i.s.u.r < g j j  .I p I *.F 6.(.).!.4.<.>.>...q o e.g.i.i.i.i.i.i.i.i.i.i.i.i.",
"i.i.i.i.i.i.i.i.i.i.i.i.a.c.( X : f A *.;.I &.v n m U #.J.} e V C D &.w 0.l.i.i.i.i.i.i.i.i.i.i.i.i.",
"i.i.i.i.i.i.i.i.i.i.i.i.a.f.A.Y   . & , I I 3 c c v z c ,.< = l b G K 8 0.k.i.i.i.i.i.i.i.i.i.i.i.i.",
"i.i.i.i.i.i.i.i.i.i.i.i.i.a.j.A.) R 7 4 1 1 1 2 1 - > x 1.B f l G L V 6 A.s.i.i.i.i.i.i.i.i.i.i.i.i.",
"i.i.i.i.i.i.i.i.i.i.i.i.i.i.i.s.g.b.u.y.y.t.u.C.w.Q 9 g  .X.l F b N 8 ' c.i.i.i.i.i.i.i.i.i.i.i.i.i.",
"i.i.i.i.i.i.i.i.i.i.i.i.i.i.i.p.i.i.i.i.s.s.d.d.f.n.w.E 0 :...Z W ` e.S.i.i.i.i.i.i.i.i.i.i.i.i.i.i.",
"i.i.i.i.i.i.i.i.i.i.i.i.i.i.i.i.i.i.i.i.i.i.i.i.i.s.h.x.r.V.U.y.c.z.g.s.i.i.i.i.i.i.i.i.i.i.i.i.i.i.",
"i.i.i.i.i.i.i.i.i.i.i.i.i.i.i.i.i.i.i.i.i.i.i.i.i.i.a.s.f.s.f.s.s.i.i.i.i.i.i.i.i.i.i.i.i.i.i.i.i.i.",
"i.i.i.i.i.i.i.i.i.i.i.i.i.i.i.i.i.i.i.i.i.i.i.i.i.i.i.i.i.i.i.i.i.i.i.i.i.i.i.i.i.i.i.i.i.i.i.i.i.i.",
"i.i.i.i.i.i.i.i.i.i.i.i.i.i.i.i.i.i.i.i.i.i.i.i.i.i.i.i.i.i.i.i.i.i.i.i.i.i.i.i.i.i.i.i.i.i.i.i.i.i.",
"i.i.i.i.i.i.i.i.i.i.i.i.i.i.i.i.i.i.i.i.i.i.i.i.i.i.i.i.i.i.i.i.i.i.i.i.i.i.i.i.i.i.i.i.i.i.i.i.i.i.",
"i.i.i.i.i.i.i.i.i.i.i.i.i.i.i.i.i.i.i.i.i.i.i.i.i.i.i.i.i.i.i.i.i.i.i.i.i.i.i.i.i.i.i.i.i.i.i.i.i.i.",
"i.i.i.i.i.i.i.i.i.i.i.i.i.i.i.i.i.i.i.i.i.i.i.i.i.i.i.i.i.i.i.i.i.i.i.i.i.i.i.i.i.i.i.i.i.i.i.i.i.i.",
"i.i.i.i.i.i.i.i.i.i.i.i.i.i.i.i.i.i.i.i.i.i.i.i.i.i.i.i.i.i.i.i.i.i.i.i.i.i.i.i.i.i.i.i.i.i.i.i.i.i.",
"i.i.i.i.i.i.i.i.i.i.i.i.i.i.i.i.i.i.i.i.i.i.i.i.i.i.i.i.i.i.i.i.i.i.i.i.i.i.i.i.i.i.i.i.i.i.i.i.i.i.",
"i.i.i.i.i.i.i.i.i.i.i.i.i.i.i.i.i.i.i.i.i.i.i.i.i.i.i.i.i.i.i.i.i.i.i.i.i.i.i.i.i.i.i.i.i.i.i.i.i.i.",
"i.i.i.i.i.i.i.i.i.i.i.i.i.i.i.i.i.i.i.i.i.i.i.i.i.i.i.i.i.i.i.i.i.i.i.i.i.i.i.i.i.i.i.i.i.i.i.i.i.i.",
"i.i.i.i.i.i.i.i.i.i.i.i.i.i.i.i.i.i.i.i.i.i.i.i.i.i.i.i.i.i.i.i.i.i.i.i.i.i.i.i.i.i.i.i.i.i.i.i.i.i.",
"i.i.i.i.i.i.i.i.i.i.i.i.i.i.i.i.i.i.i.i.i.i.i.i.i.i.i.i.i.i.i.i.i.i.i.i.i.i.i.i.i.i.i.i.i.i.i.i.i.i.",
"i.i.i.i.i.i.i.i.i.i.i.i.i.i.i.i.i.i.i.i.i.i.i.i.i.i.i.i.i.i.i.i.i.i.i.i.i.i.i.i.i.i.i.i.i.i.i.i.i.i.",
"i.i.i.i.i.i.i.i.i.i.i.i.i.i.i.i.i.i.i.i.i.i.i.i.i.i.i.i.i.i.i.i.i.i.i.i.i.i.i.i.i.i.i.i.i.i.i.i.i.i.",
"i.i.i.i.i.i.i.i.i.i.i.i.i.i.i.i.i.i.i.i.i.i.i.i.i.i.i.i.i.i.i.i.i.i.i.i.i.i.i.i.i.i.i.i.i.i.i.i.i.i."
};
