/* XPM */
static char *money_copy1704825612[] = {
/* columns rows colors chars-per-pixel */
"50 50 131 2 ",
"   c #020305",
".  c #040907",
"X  c #080907",
"o  c #030509",
"O  c #09070C",
"+  c #050A0C",
"@  c #090A0D",
"#  c #0D100F",
"$  c #050712",
"%  c #060D10",
"&  c #0A0D12",
"*  c #120811",
"=  c #071212",
"-  c #0C1113",
";  c #111215",
":  c #121B17",
">  c #12151A",
",  c #151C1E",
"<  c #142114",
"1  c #192D17",
"2  c #15231B",
"3  c #1B2E1A",
"4  c #1B301A",
"5  c #161E20",
"6  c #1A2323",
"7  c #1E362F",
"8  c #1F3C33",
"9  c #392C25",
"0  c #3E282B",
"q  c #213C21",
"w  c #362E33",
"e  c #203E33",
"r  c #48333E",
"t  c #234323",
"y  c #22472F",
"u  c #29562B",
"i  c #25592B",
"p  c #2B5929",
"a  c #244B30",
"s  c #275330",
"d  c #36742F",
"f  c #3D7C2E",
"g  c #2F6D37",
"h  c #2A6138",
"j  c #2E6A38",
"k  c #306F37",
"l  c #367934",
"z  c #3A7A32",
"x  c #52502F",
"c  c #684230",
"v  c #7B4F33",
"b  c #675A38",
"n  c #7C5532",
"m  c #427629",
"M  c #666535",
"N  c #6A6235",
"B  c #706D34",
"V  c #787234",
"C  c #484E56",
"Z  c #686243",
"A  c #845931",
"S  c #9C5E3C",
"D  c #9C613E",
"F  c #905E45",
"G  c #9E6547",
"H  c #9B6944",
"J  c #AB724C",
"K  c #AA7C4A",
"L  c #378537",
"P  c #398536",
"I  c #3B8D36",
"U  c #3D9236",
"Y  c #418F2D",
"T  c #49922C",
"R  c #52952B",
"E  c #549E2F",
"W  c #5B9A2B",
"Q  c #4B8B34",
"!  c #429736",
"~  c #4D9335",
"^  c #4B9D35",
"/  c #559934",
"(  c #679D34",
")  c #739335",
"_  c #45A235",
"`  c #4CA334",
"'  c #5CA234",
"]  c #54A934",
"[  c #5BAA33",
"{  c #55B333",
"}  c #5BB332",
"|  c #5DB932",
" . c #63A532",
".. c #64AC32",
"X. c #6CA832",
"o. c #63B232",
"O. c #6BB432",
"+. c #65BA31",
"@. c #6BBB31",
"#. c #71B531",
"$. c #73BC31",
"%. c #7CC62F",
"&. c #7DC92F",
"*. c #6CC131",
"=. c #73C330",
"-. c #7AC830",
";. c #8C8636",
":. c #8EA630",
">. c #8FA832",
",. c #91A730",
"<. c #9CAF31",
"1. c #9EB030",
"2. c #84CC2F",
"3. c #89CD2F",
"4. c #93D42E",
"5. c #9AD72D",
"6. c #9AD82E",
"7. c #6C7581",
"8. c #878789",
"9. c #9E8C88",
"0. c #BAA591",
"q. c #BAADA8",
"w. c #C2A992",
"e. c #C4AE9E",
"r. c #CCBEAE",
"t. c #CEC2B3",
"y. c #B2C4CA",
"u. c #C0CBCB",
"i. c #DAE1DB",
"p. c #DEE9E7",
"a. c #DDEBE9",
/* pixels */
"          X + .   o         o + + o               o o                 o % + o               $ % o o ",
"          X X .     o o o   o % % o o   o o o o . o o o o         o o $ + % o           o o $ % +   ",
"        . + + .   o         o + % + o   o o   .   + + + o o           + % % o           o o $ & o . ",
"        . . X               o $ + o o   o o       o + o o             o o o o           o o $ $ $ o ",
"    .   . + + . o .   o   . + $ & % o o + + + o + $ & & O O o o     o + & + o . .   . . o + $ > % o ",
"X X . . X # # # + + + + o + & - - & % + + % $ % % - - - & $ * O + o % & - - + + . X X + + + & ; & + ",
". . X . + # # + $ + + + o + $ & - & + o + % + + + = - & & O O O o o + & - & + . . . . . + % & ; % o ",
"        . # X .             o o + o             . + + o o             + + + .               $ % + o ",
"        . X . .             o o X                   . . .               X .                 o *     ",
"        . X + .           o o $ X                   . .               . + + .             o o O O   ",
"  .     . + X .           o o O X                   . . : <           . + # X .     o   o o O &   o ",
"        X + +             o o $ X X         X     . X 2 f R 1         . X + .       o o     O O     ",
"          X + .             O O X .           X   - 3 d +.+.Y 1       . . X .             o O & o   ",
"        . X . .             O $ O               - i E +.{ | =.W 1 .   . + X           O o o O * O   ",
"    . . . # # X X X X O O O & & @ X     X X : 4 m O.=.=.=.&.5.4.W 1 X + # # +   o o $ O O @ & ; $ O ",
". . . . + - # # X X X X O & * > ; # # @ # 6 C Z >.5.4.3...{ 2.5.4.R 4 # # # @ + O O * & @ & ; > & & ",
"o o o   + @ % +   . .   o o $ & # @ ; , w 8.y.q.K 1.6.o.U ' 4.4.-.{ T 3 = @ + o   o o o o + % & + $ ",
"    o   + & & +           o $ & ; 2 u z M G 0.a.t.K ,.} ..2.3.+.| ] o.f - & o     o o o o o + & o o ",
"  o     o @ % o   . .     $ - 6 i P o.} ` B D 0.a.t.K :.4.4.-.&.O./ +.f - & o       o o   o @ & o   ",
"    .   o % @ o .   o     > a P _ U ^ | *.#.N D w.p.t.K <.4.2.%.' O.@.d ; + o .     . o . o @ $     ",
"        o % + o     .   & y P ^ ^ U ] 3.2.2.~ b D w.p.r.K :.! [ $.O.O.f - + o           o   o & o   ",
"        o + + o     .   & s I U _ _ -.=.` 2.2. .B D 0.p.r.H ) =.o.O.o.d - $         o       o %     ",
"          + $       . . & a I U U _ *.2.@.3.2.| [ V S r.a.K ;.O.O.$.[ p & +                 $ + o   ",
"        o + +     . o   $ s I U U U ` *.$.-.{ =.O./ n r.i.K A @.=.[ u & % o           o o   o % o o ",
"o       o % % + o o + o & a I U U U U _ ^ o.$...[ ..A e.i.J ;...d q - + + + + . o o o o . o + % $ o ",
"o $ + + $ = - + + % + + & s I U U I ! U _ ^ O.@.*.( v e.u.F x t > % + @ = % + + + + + + + + % = % + ",
"o + $ o @ - = % + @ $ % & 7 g U U U U U P ' 2.*.$.X.v 9.7.0 & % % o + @ = - % % + + @ % + + & - - % ",
"o o o . o & % +   o +   + 5 8 g U U U U P Q =.O.O.X.c r 5 o   o o     o + + o o o + o o   o @ $ + o ",
"        o @ @             o , e j U U U P Q O.O.O. .9 *               o o o o               o O o   ",
"        o $ & o O         o @ , e k I U L Q O.$.[ u ; O O       o     o O $ o       o       O O o   ",
"        o @ @ o o O o o o o O & , 8 k U P Q O.[ u ; O O O     O     O o O $ O     O O   o o O O $ o ",
"    O   o O * o     O       O @ @ , 8 g P ~ o.u - o $ O               o O O O       O       O * o o ",
"o o o   o & O o           O O O o + , 8 h l u ;   o O O         o     O O $ O               X @     ",
"  o     o o O   o             O o . o , 6 6 &     o o o                 o + o               o @     ",
"o o     o % + o o     o o o o % + o o o o o       + @ @ o o   o o     o + + o o     . .   + @ @     ",
"+ + + $ + = = + @ % $ + % % = & = = + + % + o % % % - & % + % + + + + $ % = + + . . . . . @ - - o   ",
"+ + $ + + = & + + % + $ $ % = = = = + + @ @ O O $ = - - % + $ + o + o % % % + + . . . X + . = : + . ",
". o o   o + +   o o o   o + + + + o o . o         + + @ o o           o + % o .   . .   . . + % o o ",
"          @ O             o o o o                   o O                 o O o               o + . . ",
"  o O   o $ @ o           o O O o o     o o   O   o O $ o           o O $ @ o o           X @ $   . ",
"        o + + o             o O o o     o       o o @ + o     o         X .           X     X * .   ",
"  o     o + o               O O o o       O     o + + + o     o       . . . .               X X .   ",
"  o       + +               O $ o       O         o $ + o             . . .           X       X     ",
"  o       + o .           o o $ o               o o o + o               @ . .                 X     ",
"  o     o + + o     X       $ $ + o   o o O     . o + + o o           . X X .         O       *     ",
"O O O o + % % +   O X O o O $ * @ o o o O o o     + % % o o o       . . # @ .   X     X X   X X .   ",
"O @ $ O @ - - @ X X @ @ O & * ; & @ O O * O O o + @ % $ + +   . . . . X # # X X X X X X X X X *     ",
"O @ $ o & = - @ X X X @ O $ & ; & @ o O * * O o + @ & & + o o . X + + # ; ; X X X   X X X X X # .   ",
"O   O   O & @ o             O o o o   O O o     o $ $ + o             X X + X .             X X O X ",
"          X @ o               O o o o   o o       o + + X               + X .             X X X .   "
};
