/* XPM */
static char *_d92df16a0904478beb2dbd3a746ac5dnC1G75UQWvX6tMhj[] = {
/* columns rows colors chars-per-pixel */
"50 50 251 2 ",
"   c #080118",
".  c #1B0819",
"X  c #170E0D",
"o  c #240608",
"O  c #3D0E03",
"+  c #370A0A",
"@  c #391506",
"#  c #27141B",
"$  c #3B141D",
"%  c #371516",
"&  c #2B1115",
"*  c #070A26",
"=  c #0B132B",
"-  c #171426",
";  c #0C1536",
":  c #170D2B",
">  c #251828",
",  c #3A1B26",
"<  c #311735",
"1  c #192236",
"2  c #363927",
"3  c #342833",
"4  c #392617",
"5  c #451A05",
"6  c #42191B",
"7  c #561F00",
"8  c #651800",
"9  c #4A280C",
"0  c #552707",
"q  c #472719",
"w  c #552816",
"e  c #58381C",
"r  c #6C320A",
"t  c #773602",
"y  c #653918",
"u  c #743917",
"i  c #712B06",
"p  c #451C2A",
"a  c #451923",
"s  c #401833",
"d  c #4B252A",
"f  c #542828",
"g  c #5B3527",
"h  c #4C2536",
"j  c #552C32",
"k  c #5B3437",
"l  c #483832",
"z  c #663626",
"x  c #733F27",
"c  c #7B4201",
"v  c #774900",
"b  c #79481A",
"n  c #674B1B",
"m  c #77492A",
"M  c #704F32",
"N  c #2D1F40",
"B  c #172642",
"V  c #2C2A45",
"C  c #372841",
"Z  c #383D51",
"A  c #4D3A47",
"S  c #3D4061",
"D  c #56524B",
"F  c #7B5949",
"G  c #70564E",
"H  c #77654C",
"J  c #6B5C6E",
"K  c #736A74",
"L  c #535B7F",
"P  c #883B03",
"I  c #933E02",
"U  c #874605",
"Y  c #964F00",
"T  c #885A03",
"R  c #955903",
"E  c #84471C",
"W  c #985818",
"Q  c #955017",
"!  c #A65C02",
"~  c #A95502",
"^  c #A85A12",
"/  c #A84D09",
"(  c #986603",
")  c #9B7900",
"_  c #976818",
"`  c #936F14",
"'  c #A46201",
"]  c #A86903",
"[  c #BC740B",
"{  c #A77719",
"}  c #B07410",
"|  c #875A2A",
" . c #915C29",
".. c #955525",
"X. c #865A32",
"o. c #8D4E2D",
"O. c #A65A28",
"+. c #956329",
"@. c #8A6436",
"#. c #976837",
"$. c #916A29",
"%. c #A56825",
"&. c #BA692B",
"*. c #AA7727",
"=. c #B97A25",
"-. c #A96A34",
";. c #B86C39",
":. c #A97638",
">. c #B67938",
",. c #C4791A",
"<. c #D2750A",
"1. c #C57C2B",
"2. c #C57734",
"3. c #D17231",
"4. c #8A5942",
"5. c #986C44",
"6. c #947A56",
"7. c #947252",
"8. c #A56C45",
"9. c #AB7944",
"0. c #AA7B59",
"q. c #B67243",
"w. c #8E7867",
"e. c #AD7A66",
"r. c #C67F41",
"t. c #998500",
"y. c #B88715",
"u. c #B29315",
"i. c #B78628",
"p. c #BA8638",
"a. c #B18933",
"s. c #C98717",
"d. c #D4871A",
"f. c #D19313",
"g. c #E5981A",
"h. c #F18D1D",
"j. c #D3B118",
"k. c #EDBC18",
"l. c #FAB91C",
"z. c #E4A117",
"x. c #DA872C",
"c. c #C79324",
"v. c #CB8C3C",
"b. c #CA8837",
"n. c #D5893A",
"m. c #C8953E",
"M. c #D7963B",
"N. c #D08C26",
"B. c #E88927",
"V. c #F48C35",
"C. c #EE9131",
"Z. c #D7A72B",
"A. c #D5A939",
"S. c #EAAC21",
"D. c #E8B726",
"F. c #FEBE24",
"G. c #FEBE29",
"H. c #F9B428",
"J. c #EBB938",
"K. c #FAAC33",
"L. c #FDCA1D",
"P. c #FAC41B",
"I. c #EBCD1F",
"U. c #FEC423",
"Y. c #FDCB24",
"T. c #FEC52A",
"R. c #F6C72A",
"E. c #ECC536",
"W. c #FAC735",
"Q. c #F4CE30",
"!. c #998058",
"~. c #A6834A",
"^. c #B98549",
"/. c #B98856",
"(. c #BF9059",
"). c #B08952",
"_. c #8A846F",
"`. c #B68761",
"'. c #B19364",
"]. c #BBAA7F",
"[. c #CC8D44",
"{. c #C88848",
"}. c #D28E44",
"|. c #D98A4C",
" X c #CD9244",
".X c #CD944B",
"XX c #CC9B4B",
"oX c #C69749",
"OX c #D59445",
"+X c #DA9645",
"@X c #D59A45",
"#X c #DB9945",
"$X c #D5964D",
"%X c #D9974B",
"&X c #D6994B",
"*X c #DB9A4B",
"=X c #C68C56",
"-X c #CC9253",
";X c #CC9A54",
":X c #C99859",
">X c #D49652",
",X c #DB9650",
"<X c #D49B53",
"1X c #DC9B53",
"2X c #D39B5B",
"3X c #DB9C5A",
"4X c #D4965B",
"5X c #D18D57",
"6X c #E59A48",
"7X c #E29C52",
"8X c #E39957",
"9X c #F1904B",
"0X c #D9A14B",
"qX c #D9A156",
"wX c #D2A84A",
"eX c #F9B647",
"rX c #E2A358",
"tX c #EAA846",
"yX c #C89964",
"uX c #D39963",
"iX c #CD9978",
"pX c #D7A062",
"aX c #C8A76D",
"sX c #F7C945",
"dX c #FFC259",
"fX c #585E80",
"gX c #5B6687",
"hX c #686A8C",
"jX c #65718E",
"kX c #656C9B",
"lX c #687497",
"zX c #787493",
"xX c #75778A",
"cX c #6C6FA1",
"vX c #887B8E",
"bX c #958E8C",
"nX c #B0A284",
"mX c #C79F93",
"MX c #DAA989",
"NX c #DCAB98",
"BX c #EBB798",
"VX c #C7B2B2",
"CX c #E7B8A1",
"ZX c #F0BBAB",
"AX c #DFC89C",
"SX c #E5C296",
"DX c #E8C8A7",
"FX c #F5C6AA",
"GX c #F3CDB1",
"HX c #DACBAA",
"JX c #F0DDCE",
/* pixels */
"%X%X%X%X%X%X%X%X%X%X%X%X%X%X%X%X8X8X+X+X3X-XXXoXp.p.9.E E c c v *.a.^.:X:XyX-X.X.X&XM.M.#X*X%X1X%X%X",
"%X%X%X%X%X%X%X%X%X%X%X%X%X%X%X%X8X%Xv.rX{.;Xp.*.T T c ^.-Xp.p.m.` T T $.^.uXoXp.{.&X@XM.*X%X%X*X%X%X",
"%X%X%X%X%X%X%X%X%X%X%X%X%X%X%X%XOX+XrXoXoX*.R *.v.M.6Xb.=.R v v { i.i.*.*._ %._ W .X%XOX*X,X1X%X%X%X",
"%X%X%X%X%X%X%X%X%X%X%X%X%X%X%X%XOX@XoXoX{ { 0Xn.n.x.d.Y R y.A.A.t.( ) T ( *.*.p.Q -X$XOX<X$X1X%X%X%X",
"%X%X%X%X%X%X%X%X%X%X%X%X%X%X%X&X&XXXoX{ u.A.tXx.6Xx.' f.Z.E.sXsXJ.W.D.f.y.T ( T {.2X.X<X3X$X$X*X%X%X",
"%X%X%X%X%X%X%X%X%X%X%X%X%X%X%X$X$XXX^.T wXc.Y ! ,.,.s.D.Q.R.W.W.W.R.Q.R.J.A.} T >.-X3X<X>X,X%X%X%X%X",
"%X%X%X%X%X%X%X%X%X%X%X%X%X%X%X$X>X;XT i.{ ( [ [ ! ] J.E.Q.L.F.G.U.P.k.Y.W.sXE.Z.{ >.<X$X.X8X#X+X%X%X",
"%X%X%X%X%X%X%X%X%X%X%X%X%X%X%X$X<X>.{ ` _ @XtXdXeXy.) j.I.L.U.F.l.Y.L.L.k.Q.R.sXM.{ i.$X3X8Xv.#X%X%X",
"%X%X%X%X%X%X%X%X%X%X%X%X%X%X%X%X$X*._ _ :.>.1.M.eXW.u.t.k.P.T.l.F.P.L.P.Y.Y.k.W.sXM.] i.*XOX#X*X%X%X",
"%X%X%X%X%X%X%X%X%X%X%X%X%X%X%X%X7X$Xc ^.b E >.1.N.J.E.) f.D.l.T.T.U.L.P.L.L.P.R.J.eXc.' v.*XOXOX%X%X",
"%X%X%X%X%X%X%X%X%X%X%X%X%X%X%X%X7X[.+.b ).`.i 2.M.d.eXZ.T J.Q.Y.T.U.U.P.Y.P.Y.P.S.J.eX( =.*X1X*X%X%X",
"%X%X%X%X%X%X%X%X%X%X%X%X%X%X%X%X%XrX^.| aXm r i &.n.x.tXR Z.E.R.T.F.U.U.T.l.Y.U.S.s.J.c.R &X$X$X$X%X",
"%X%X%X%X%X%X%X%X%X%X%X%X%X%X%X%X|.{./.@.'.n m r 8 &.9Xn.=.} E.Q.T.U.U.T.H.z.G.W.z.' s.tXU  X[.3X$X%X",
"%X%X%X%X%X%X%X%X%X%X%X%X%X%X%X%X8X3X/.X.'.M e m u t |.|.N.' J.Z.T.U.T.G.g.f.S.W.g.Y s.M.{ %.-X3X$X%X",
"%X%X%X%X%X%X%X%X%X%X%X%X%X%X%X%X+X[.uX#.6.H q g 7.o.O.n.x.! ! d.S.U.T.H.d.d.g.eXeX] s.,.b.c -X{.>X%X",
"%X%X%X%X%X%X%X%X%X%X%X%X%X%X%X%X+X1X-X5.6.nX& o k 4.E n.x.~ I M.f.G.W.H.d.B.d.K.eX[ ! b.=.U 2X2X&X%X",
"%X%X%X%X%X%X%X%X%X%X%X%X%X%X%X&X@Xv.<X(.M w.2 # D M y :.+XP ~ x.d.K.K.h.B.B.B.B.eX,.Y 1.b.W *.&X&X%X",
"%X%X%X%X%X%X%X%X%X%X%X%X%X%X%X&X@X&X>X=X@.!.2 D VXVX4.+.&XU ~ 6Xs.eXK.<.V.V.V.<.d.,.t b.[.W %..X&X%X",
"%X%X%X%X%X%X%X%X%X%X%X%X%X%X%X$X.X<X{.-.).].H nXJXGXMXQ }.^ / 9X&.~ <.h.V.B.9X~ ! b.i W >.U >.>X&X%X",
"%X%X%X%X%X%X%X%X%X%X%X%X%X%X%X$X<X4X{. .SXAXnXHXDXFXiX..r.I 3.9X2.P B.h.h.V.9X/ ^ {.U P W Q 4X2X>X%X",
"%X%X%X%X%X%X%X%X%X%X%X%X%X%X%X%X3X5X{. .FXSXDXGXFXFXiXE -.I 3.9X;.I B.h.C.V.n.Q ;.;.O.-.O.>.2X4X>X%X",
"%X%X%X%X%X%X%X%X%X%X%X%X%X%X%X%X5X4X^.+.MXDXGXCXGXBXBXu E P ^ 9XO.Q x.C.B.B.2.P 5XQ q.5X{.>X<X>X$X%X",
"%X%X%X%X%X%X%X%X%X%X%X%X%X%X%X%X,XrX-X#./.CXNXCXZXFXCXiXe.E &.|...;.6Xd.~ x.&.U >.Q {.-XrXOX&X&X&X%X",
"%X%X%X%X%X%X%X%X%X%X%X%X%X%X%X%X7X}.-X:.5.0.7.ZXZXZXmXG w m =X%.7  .v.=.Y 2.P %.c :.<X>X%X#X+XOX%X%X",
"%X%X%X%X%X%X%X%X%X%X%X%X%X%X%X%X7XOX.X^.@.`.MXNXmXF l , # G m 5 @ X.T U %.%.-.oXp. X&X*X+X#X#X+X%X%X",
"%X%X%X%X%X%X%X%X%X%X%X%X%X%X%X%XOXOX&X;X:.X.x 5 q % > > . # o o 9 !.~.+.r 8.=X:Xm.XX*X%X+X#X#X+X%X%X",
"%X%X%X%X%X%X%X%X%X%X%X%X%X%X%X%X1X1X&X<X:X/.0.F 4 # - = ;     2 w.7.6.@.o.@./.2XXX0X*X%X*X*X#X%X%X%X",
"%X%X%X%X%X%X%X%X%X%X%X%X%X%X%X%X%X$X XoX2X:XiXw.l 3 =   ; = = 3 _.l e O o.4.=X:XXX@X&X%X%X%X%X%X%X%X",
"%X%X%X%X%X%X%X%X%X%X%X%X%X%X%X%X1X*XqX<X3X:XyXF K xXgX; * ; ; * Z & @ y 8.uXuX-X&X@X$X%X%X,X<X$X%X%X",
"%X%X%X%X%X%X%X%X%X%X%X%X%X%X%X%X%X[.OXOX$X2X`.H xXlXlXZ * = B 1 bXG @.yX=XuX4X3X&X&X*X,X%X,X>X>X$X%X",
"%X%X%X%X%X%X%X%X%X%X%X%X%X%X%X%X#X#X*XOX1X4X5.H zXjXlXgXV * * 1 A G ~.XX$X%X7X[.%X%X%X%X*X%X$X>X$X%X",
"%X%X%X%X%X%X%X%X%X%X%X%X%X%X%X%XM.6X*X X<X=XF vXlXkXlXgXV - * 1 > w.yXXX@XM.#X#X%X%X%X%X+XOX&X<X$X%X",
"%X%X%X%X%X%X%X%X%X%X%X%X%X%X%X%X%X*X%X&X-X7.J zXkXkXlXjXfX= = - , M /.2X@X#X#X+X%X%X,X%X%X&X&X&X&X%X",
"%X%X%X%X%X%X%X%X%X%X%X%X%X%X%X%X%X8Xv.XXaXH J cXcXkXlXlXL ; - . o g yX:X&XM.6X#X%X,X,X%X&X&X&X&X%X%X",
"%X%X%X%X%X%X%X%X%X%X%X%X%X%X%X%X%X*XOXXX~.n vXhXcXkXjXjXS *   . , f 5./.0XM.#X#X%X,X%X*X&X&X&X&X%X%X",
"%X%X%X%X%X%X%X%X%X%X%X%X%X%X%X%X+X+X0X;X~.e bXvXlXhXhXhXV   - 3 A f y (.<X0Xv.#X%X%X%X%X&X&X&X&X%X%X",
"%X%X%X%X%X%X%X%X%X%X%X%X%X%X%X%X*X%X@XXX).@ l K zXzXhXJ <   . 3 h j 5 yX<X&XOX*X%X%X%X%X%X%X%X%X%X%X",
"%X%X%X%X%X%X%X%X%X%X%X%X%X%X%X%X7XOX@XoX5.@ o > C 3 N C . . # , h k 9 5.;X X*X%X%X%X%X%X%X%X%X%X%X%X",
"%X%X%X%X%X%X%X%X%X%X%X%X%X%X%X%X$XOX&X:Xm f h # . . . . . & o o h j w b ;X&X%XOX%X%X%X%X%X%X%X%X%X%X",
"%X%X%X%X%X%X%X%X%X%X%X%X%X%X%X%X}.rX X=Xz d k , , , < < , p $ $ $ 6 w u 2XqX X*X%X%X%X%X%X%X%X%X%X%X",
"%X%X%X%X%X%X%X%X%X%X%X%X%X%X%X%X%X%X<X^.w j d % d d h s h h $ $ o + O | pX.X1XOX%X%X&X&X%X%X%X%X%X%X",
"%X%X%X%X%X%X%X%X%X%X%X%X%X%X%X%X1X}..X .w k d % $ j p h p a k $ a @ 5 E 2X[.[.7X%X%X&X&X%X%X%X%X%X%X",
"%X%X%X%X%X%X%X%X%X%X%X%X%X%X%X%X,X,X3X .w k p p o k j a f a , j f O b ^.<X1X1X}.%X%X&X@X#X%X%X%X%X%X",
"%X%X%X%X%X%X%X%X%X%X%X%X%X%X%X%X}.1X>X9.0 g p h 6 + g f f d , f e.0.yX-X.X%X$X1X,X%X&X@X#X%X%X%X%X%X",
"%X%X%X%X%X%X%X%X%X%X%X%X%X%X%X%X*X%X[.=Xy g j h f 5 w e f d d % X.=X2X$X*X#XOX%X%X%X&X@X@X&X%X%X%X%X",
"%X%X%X%X%X%X%X%X%X%X%X%X%X%X%X%X7X*X&X-X| 5 p a + w m w w 6 % @ #.:X&X*X#X+X8X,X,X%X%X@X@X@X%X%X%X%X",
"%X%X%X%X%X%X%X%X%X%X%X%X%X%X%X%X+X+X&XoX9.9 + + + z `.@.e @ % @ | qXv.b.6X#Xn.8X,X%X%X@X@X@X%X%X%X%X",
"%X%X%X%X%X%X%X%X%X%X%X%X%X%X%X%X+X#XOX&XyXX.+ % O 0.uX(.0.5 % @ +..X&X*XM.6X*X%X%X%X%X&X&X&X%X%X%X%X",
"%X%X%X%X%X%X%X%X%X%X%X%X%X%X%X%X%X#XOX$X<X9.x O 0 ^.-XpX^.m 5 5 -.{.&X&X%X*X*X%X%X%X%X%X%X%X$X$X%X%X",
"%X%X%X%X%X%X%X%X%X%X%X%X%X%X%X%XOX#X%X%XqXuX8.m #.uX.X<X3X^.M m /.<X1X$X%X*X%X%X%X%X%X%X%X%X$X$X%X%X"
};
