/* XPM */
static char *fc213f9b73424773c546ad93b6fb6d06vxSaNJh1cstd8T7P[] = {
/* columns rows colors chars-per-pixel */
"50 50 21 1 ",
"  c #300303",
". c #191A1A",
"X c #21262B",
"o c #2A1B11",
"O c #660505",
"+ c #3B414A",
"@ c #171414",
"# c #3F2613",
"$ c #D0D0E0",
"% c #1F2328",
"& c #523119",
"* c #F8F8F8",
"= c #490404",
"- c #3E2819",
"; c gray23",
": c #EEC39A",
"> c #54321C",
", c #960D0D",
"< c gray36",
"1 c #C9956E",
"2 c None",
/* pixels */
"222222222$2222222222222222222222222222222222222222",
"222222222$2222222222222222222222222222222222222222",
"222222222*$222222222222222222222222222222222222222",
"222222222*$222222222222222222222222222222222222222",
"222222222*$$2222222222222222;;.2222222222222222222",
"2222222222*$222222222222222;;...222222222222222222",
"2222222222*$$2222222222.;;;O....222222222222222222",
"22222222222*$222222222.;;;..O....22222222222222222",
"22222222222*$$22222222.::...O....22222222222222222",
"222222222222*$22222222::::..22...22222222222222222",
"222222222222*$22222222O:O ..222...2222222222222222",
"2222222222222*$2222222::::..22222..222222222222222",
"2222222222222*$2222222::::1.2222222222222222222222",
"22222222222222*$222222,::11,,O22222222222222222222",
"22222222222222*$22222,,111,,O==2222222222222222222",
"222222222222222*$2222O,,,,,O==O2222222222222222222",
"222222222222222*$222OOO,,OO=OOOO222222222222222222",
"2222222222222222*$2==OOOOO=====OO22222222222222222",
"2222222222222222*$2%#=====&&#oX==22222222222222222",
"22222222222222222*$%#&&&&&&&#oXXX22222222222222222",
"22222222222222222*$%#&&&&&&&#XX++22222222222222222",
"222222222222222222*$#&##&&&#oXX++22222222222222222",
"222222222222222222*$..#####oXX+++22222222222222222",
"222222222222222222.*$..&&&..XX++O22222222222222222",
"22222222222222222..*..&&..;;.X+ O22222222222222222",
"222222222222222222...##..;;;.X   O2222222222222222",
"222222222222222222@####..;;#o    O2222222222222222",
"2222222222222222222@##.#####o    O2222222222222222",
"222222222222222222222...O<<<<     O222222222222222",
"222222222222222222222<..O<<+++    O222222222222222",
"222222222222222222222%%..+++XX     O22222222222222",
"22222222222222222222%%%..+++XX     O22222222222222",
"22222222222222222222%%%%%+++XXX     O2222222222222",
"2222222222222222222%%%%@@++++XX     O2222222222222",
"2222222222222222222%%%@@@@+++XX      O222222222222",
"222222222222222222%%%@@@2 +++XX      O222222222222",
"222222222222222222%%@@@22  +++XX      O22222222222",
"222222222222222222@@@@2222 +++XXX     O22222222222",
"222222222222222222@@@@o22222+XXXXX     O2222222222",
"222222222222222222ooooo222222XXXXX-22   O222222222",
"222222222222222222@ooo@2222222XXX---22222222222222",
"2222222222222222222@@@222222222----o22222222222222",
"2222222222222222222ooo2222222222ooo>>2222222222222",
"2222222222222222222ooo22222222222>>>>>222222222222",
"2222222222222222222ooo222222222222>>>>222222222222",
"2222222222222222222ooo2222222222222>>>>22222222222",
"222222222222222222@@@o2222222222222ooo>22222222222",
"22222222222222222oooo@222222222222----o22222222222",
"22222222222222222ooooo222222222222-----22222222222",
"22222222222222222222222222222222222222222222222222"
};
