/* XPM */
static char *_5a794689126431584595efef4bf99b4CImA05ASCPoq7Ube[] = {
/* columns rows colors chars-per-pixel */
"50 50 166 2 ",
"   c #D9974C",
".  c #651927",
"X  c #691A21",
"o  c #D7954C",
"O  c #D7964C",
"+  c #D5944B",
"@  c #D6954B",
"#  c #D8964C",
"$  c #D8974C",
"%  c #6E1824",
"&  c #230917",
"*  c #691826",
"=  c #320A15",
"-  c #D3934B",
";  c #CF904A",
":  c #351622",
">  c #170F1F",
",  c #440B19",
"<  c #5D1A2A",
"1  c #C38949",
"2  c #571825",
"3  c #AF7D49",
"4  c #150F17",
"5  c #711523",
"6  c #4C121D",
"7  c #621726",
"8  c #471125",
"9  c #621B25",
"0  c #471621",
"q  c #401521",
"w  c #6B1621",
"e  c #5C1525",
"r  c #6B1A27",
"t  c #3D111C",
"y  c #B67B45",
"u  c #390B15",
"i  c #320F1E",
"p  c #551E28",
"a  c #471927",
"s  c #936B46",
"d  c #390F20",
"f  c #210C1C",
"g  c #1A131E",
"h  c #6E362D",
"j  c #591221",
"k  c #541426",
"l  c #D2924A",
"z  c #5B1824",
"x  c #631D29",
"c  c #C98B49",
"v  c #5E1E28",
"b  c #5E1E31",
"n  c #511929",
"m  c #27101E",
"M  c #4D3735",
"N  c #1B0C1E",
"B  c #441924",
"V  c #22252B",
"C  c #AD6A40",
"Z  c #520F1B",
"A  c #311A26",
"S  c #CC8E4A",
"D  c #44121A",
"F  c #4D1D2A",
"G  c #3E0C18",
"H  c #10080F",
"J  c #401D26",
"K  c #372F33",
"L  c #BC8247",
"P  c #55141B",
"I  c #60232B",
"U  c #2C0D18",
"Y  c #681E2C",
"T  c #8E6E47",
"R  c #986340",
"E  c #96583D",
"W  c #4E4352",
"Q  c #B78046",
"!  c #54212C",
"~  c #452423",
"^  c #4E2525",
"/  c #34462F",
"(  c #5B463F",
")  c #AD7242",
"_  c #732028",
"`  c #794836",
"'  c #63141F",
"]  c #845E41",
"[  c #643033",
"{  c #C38647",
"}  c #47212A",
"|  c #642A2C",
" . c #AB7744",
".. c #8A513A",
"X. c #3C1726",
"o. c #27212B",
"O. c #74553D",
"+. c #4B4C42",
"@. c #28171D",
"#. c #483036",
"$. c #251D25",
"%. c #1B1912",
"&. c #233226",
"*. c #201825",
"=. c #C27F45",
"-. c #754D38",
";. c #432C2F",
":. c #793F32",
">. c #4F0A16",
",. c #895A39",
"<. c #5A352E",
"1. c #2C0611",
"2. c #74676E",
"3. c #675F6D",
"4. c #14081D",
"5. c #785E44",
"6. c #581F1A",
"7. c #9B7349",
"8. c #292119",
"9. c #684D3F",
"0. c #43772F",
"q. c #172515",
"w. c #6A533E",
"e. c #493E3C",
"r. c #362B31",
"t. c #824135",
"y. c #9B6841",
"u. c #603D37",
"i. c #BAB0AA",
"p. c #E7E4DF",
"a. c #695660",
"s. c #62515D",
"d. c #866647",
"f. c #A5733E",
"g. c #58282A",
"h. c #A07648",
"j. c #512E28",
"k. c #AB9398",
"l. c #5A4145",
"z. c #8C6542",
"x. c #6A8C68",
"c. c #4E1F1B",
"v. c #38341A",
"b. c #3D6648",
"n. c #41321F",
"m. c #58874F",
"M. c #A76139",
"N. c #82352C",
"B. c #601936",
"V. c #393C34",
"C. c #8A676D",
"Z. c #D4CEC9",
"A. c #987176",
"S. c #958C86",
"D. c #2E4A12",
"F. c #455110",
"G. c #508932",
"H. c #434A11",
"J. c #27421C",
"K. c #496241",
"L. c #3D4612",
"P. c #524230",
"I. c #2A6525",
"U. c #2D6D20",
"Y. c #6EA744",
"T. c #967147",
/* pixels */
"                                                                                                    ",
"                                                                                                    ",
"                                                                                                    ",
"                                            # # # # # # #                                           ",
"                                          # @ + - - - - o #                                         ",
"                                      # # ; y C C C C C L + #                                       ",
"                                    # @ c R h v Y _ _ _ t.y + #                                     ",
"                                    - y E | u = D z r % r t.=.# $                                   ",
"                                  + =...:.h D 0 v 9 r % 5 r E S                                     ",
"                                $ c E E ....g.v 9 >.e * * 7 h { $                                   ",
"                                # 1 R { o f.~ B 0 1.a < < 6 p y O                                   ",
"                                # c y # l ,.: 0 q & m A : = q ) @ #                                 ",
"                                $ + ; # Q <.a b 8 & H H H H : R l $                                 ",
"                                  # @ S O.J n B.d m 3.W W a.: <.1                                   ",
"                                # o - f.j.a b 8 & g 3.W W 3.m ~ L #                                 ",
"                                ; L  .-.: q p u & > H 4.4.H f } C o                                 ",
"                            $ @ y.h | ~ f i ! n i & m f N f 8 b ` +                                 ",
"                          $ # 3 h v x a U & a b F = & N f = k < h l $ $                             ",
"                        # o { -.I X r x 0 U = 2 v F U f & a b < 6.y +                               ",
"                      $ O S ,.I X % r * < u u 6 9 < 0 = t 6 e P Z h ) + #                           ",
"                      $ +  .[ % 5 5 w % 7 G D p z Z k t a , j . x r N.=.o #                         ",
"                      @ 3 :.x 5 w w 5 % . v , D 6 e j u q n . * w % _ M.l #                         ",
"                  $   c -.p X X P P % 5 * 9 z z 6 e e D D p . ' w w X :.{ # #                       ",
"                  # # y [ Y X P t G . 5 % X * * j . . < 2 < Y >.' % X | ) + o                       ",
"                  # # y [ . ' Z 0 u Z w % X % % * % % * . e k , 2 x * I R l O                       ",
"                  # # Q u.I w . x < j j ' X X r % 5 5 * x 6 G i J 0 7 x E ; o                       ",
"                  $ # ; ] } z r . 2 8 , 6 2 . * X % % 7 k G d : X.G >.p ,.; o                       ",
"                    O - s $.t 7 . 6 a q d = k Y * X . k 8 d i m t 2 Z F ] ; @                       ",
"                    O - T V & , . 9 a J l.l.q D * % r Z , d & W m G n g.y.l o                       ",
"                    O - T V 4 1.j . X.+.i.Z.k.C.I 9 9 P , X.f s.2.@.J u.3 + #                       ",
"                    O - T V g f k . J +.x.p.p.i.j.! , 6 q : : @.a.2.K 9.1 @                         ",
"                    O - s o.> 4.n < X.+.+.S.k.A.^ ^ = t : & X.! q s.2.5.S O                         ",
"                    O - s A > > d a f V./ 8.~ ! c.! u t A & a x 2 : M 3 @ #                         ",
"                    O - s A N > f m 4 %./ / 8.^ x < , q U i 8 j 2 i M L @ #                         ",
"                    O - T o.> > N N 4 4 q./ v.^ r 7 , 0 1.F 8 , J ;.7.- #                           ",
"                    O - T V > g > > 4 %.K.0.D.n.9 z G t = n 8 } M d.S                               ",
"                    O - T V > > *.o.4 &.m.U.G.H.6.p = U d F ^ -.h.S # $                             ",
"                    o - s o.> *.M r.4 &.m.0.Y.F.6.v = m i } M  .@ # #                               ",
"                  # O 1 ( *.4 M 9.@.4 / x.I.0.L.c.n = : A ;.] c # $                                 ",
"                  $ # 3 K 4 $.z.9.@.g &.b.b.J.v.B B = A M z.c O                                     ",
"                  # # 3 K 4 r.3 w.g g &.q.q.%.~ 0 0 i ;.5.1 O $                                     ",
"                  # # 3 K g n.7.e.*.r.K %.8.q 2 < p J ] S # $                                       ",
"                  # # 3 K g w.5.V $.( e.#.#.I Y b ! ` L # #                                         ",
"                  # # 3 #.$.O.T.e.V ( 3 ( #.! | [ ` Q @                                             ",
"                      S s ( P.Q h.d.7.1 O.O.` <.R 1 + $                                             ",
"                      o ; s w.1 + l + + 1 { Q  .S # $                                               ",
"                      # o ; c @ o @ O $ # # o     #                                                 ",
"                              $         # #     $                                                   ",
"                                                                                                    ",
"                                                                                                    "
};
