/* XPM */
static char *_7f7c6d16b874243ce131b3fba25b1a4Wa5epH6aveto98Lt[] = {
/* columns rows colors chars-per-pixel */
"50 50 160 2 ",
"   c #D9974C",
".  c #631B23",
"X  c #6E1720",
"o  c #D3934A",
"O  c #D8974C",
"+  c #D8954B",
"@  c #D7954B",
"#  c #D8964C",
"$  c #D8964B",
"%  c #D6944B",
"&  c #CE9049",
"*  c #6E1523",
"=  c #6C1A23",
"-  c #681A25",
";  c #D1914A",
":  c #6A1628",
">  c #1A0D1D",
",  c #5D1A25",
"<  c #19101D",
"1  c #31121E",
"2  c #691721",
"3  c #C58847",
"4  c #CC8D49",
"5  c #4D0C17",
"6  c #220C17",
"7  c #8B6239",
"8  c #671C28",
"9  c #672029",
"0  c #400B17",
"q  c #41141E",
"w  c #621929",
"e  c #370917",
"r  c #3B101D",
"t  c #B67D43",
"y  c #1D0B1C",
"u  c #C98B48",
"i  c #9A6D3E",
"p  c #5F1525",
"a  c #B98144",
"s  c #774033",
"d  c #6B1829",
"f  c #290B17",
"g  c #581721",
"h  c #5D3C29",
"j  c #3B2622",
"k  c #200B1E",
"l  c #4A1421",
"z  c #95693B",
"x  c #701628",
"c  c #5A1B2B",
"v  c #641B2C",
"b  c #5C2527",
"n  c #491827",
"m  c #45101D",
"M  c #651621",
"N  c #330A1C",
"B  c #B07A41",
"V  c #7D4534",
"C  c #51131F",
"Z  c #865F36",
"A  c #441527",
"S  c #412126",
"D  c #4E3227",
"F  c #835C36",
"G  c #906539",
"H  c #261B23",
"J  c #3E0F24",
"K  c #591F2D",
"L  c #1B171C",
"P  c #391222",
"I  c #551121",
"U  c #A9753F",
"Y  c #492127",
"T  c #C08444",
"R  c #501A21",
"E  c #6B3433",
"W  c #8B5B37",
"Q  c #5F1F2A",
"!  c #3E1928",
"~  c #280C1F",
"^  c #BE8646",
"/  c #664B32",
"(  c #755332",
")  c #551925",
"_  c #423027",
"`  c #4A0E23",
"'  c #392928",
"]  c #391419",
"[  c #511B30",
"{  c #AE7242",
"}  c #743731",
"|  c #985F3B",
" . c #5C3029",
".. c #61342F",
"X. c #C68A47",
"o. c #7C5936",
"O. c #4E1827",
"+. c #27141F",
"@. c #A36F3C",
"#. c #54172D",
"$. c #341C1E",
"%. c #232B1F",
"&. c #6C2B2C",
"*. c #B17744",
"=. c #A66E40",
"-. c #724A31",
";. c #824E37",
":. c #A3693D",
">. c #C48C46",
",. c #DBA66F",
"<. c #DFCAC1",
"1. c #693C27",
"2. c #4C0F1E",
"3. c #4C3633",
"4. c #282021",
"5. c #4E5E3D",
"6. c #63653A",
"7. c #3B5632",
"8. c #354933",
"9. c #4F3E3F",
"0. c #C3BEBC",
"q. c #8B5336",
"w. c #472A2A",
"e. c #714F32",
"r. c #64994D",
"t. c #96793A",
"y. c #79712E",
"u. c #3D1C1C",
"i. c #325D21",
"p. c #51842B",
"a. c #302224",
"s. c #528B3D",
"d. c #6D6165",
"f. c #442C2F",
"g. c #457D35",
"h. c #887A7C",
"j. c #333C29",
"k. c #4A5341",
"l. c #ECEAE5",
"z. c #D2995B",
"x. c #7B484B",
"c. c #DA9A53",
"v. c #717076",
"b. c #D5AB80",
"n. c #A97F46",
"m. c #AA8999",
"M. c #CA9D73",
"N. c #837D87",
"B. c #CE9757",
"V. c #B28F6E",
"C. c #9B887E",
"Z. c #D7C0A5",
"A. c #477029",
"S. c #1E5417",
"D. c #163C0F",
"F. c #5D4B51",
"G. c #A49899",
"H. c #9B9F8F",
"J. c #E0D9DC",
"K. c #63174A",
/* pixels */
"                                                                                                    ",
"                                                                                                    ",
"                                                                                                    ",
"                                                                                                    ",
"                                                                                                    ",
"                                                                                                    ",
"                                                                                                    ",
"                                                                                                    ",
"                                          # # # # #                                                 ",
"                                  # #     # + + + $ $ $ $ # #                                       ",
"                              O # # # # @ 4 3 3 3 3 3 3 u @ # # O                                   ",
"                              O # X.t *.=.;.V s s s s s ;.{ 4 @ #                                   ",
"                                X.o.h  . .b 9 8 8 8 8 - 9 &.q.{ ;                                   ",
"                              @ 3 U @.q.1.1.b Q 8 = = X = = 9 &.:.%                                 ",
"                              $ o % % u t t 7 Y ) . M = = - - 8 V o                                 ",
"                                # $ @ $ O ; G $.r l C v w ) m l s ;                                 ",
"                                    O # ; z j 1 n e A A P f 6 N E &                                 ",
"                                  $ $ % z j f l v N k k H H H ! E u                                 ",
"                                # # % z j 6 r ) O.~ > H N.v.d.m.x.X.                                ",
"                              O % T G j 6 f Y q f < < > H 4.H S ..a @ $ #                           ",
"                            O % B h S 1 6 6 ! 1 6 > > k k < < ~ w.o.3 @ @ # #                       ",
"                          # % B h n K [ 1 6 1 Y r N ~ k > < y f ! w.W T & % # #                     ",
"                          @ U 1.R . d v [ 1 f J [ [ P ~ y 6 N J n ] ..V | t 4 @ O                   ",
"                          { } . X X X 2 w 2.e q A P P r e l c c 2.0 Q 8 9 } W *.o O                 ",
"                    # @ { } 9 X x * 2 - - I e r A J 0 2.c g 5 5 I p v d * 8 9 E | 4 % @ #           ",
"                  O % *.} . . p p I M 2 d w R R ` ` I w . , g C C c c p x * d - &.;.| @.u @ #       ",
"                O % t s Q ) 5 0 N 2.M * * = . - : w v - - - 8 5 O.! f m : : d : d 9 b  .( B & % O # ",
"              # @ a V 9 p 5 , c e e C 2 * X X X * d 2 2 X 2 - 5 ! 6 +.S n l C w * x w q $./ V.M.b.z.",
"              # o =.E 9 p : d d g l 0 , v v X * x * X 2 X X - 0 S j -.W h u.q Q : x , e f.h.<.<.<.,.",
"              # @ 4 =. .c d d - . Q C 0 n #.: x X * X = = = 8 m S i X.; ^ ( Y Q d x , q 3.C.Z.,.,.c.",
"                # % T D 1 O., . . 9 g 0 J J ` p - = M g . p w n Y 3 $ @ # t W ..b 8 g m ..i B.O     ",
"              # @ & z a.< f r K . , 2.#.A 1 1 ] ) , 5 g g 5 c r D 4   # # % 4 B :.V E b V T O O     ",
"              @ & i _ L > y k P w C q n $.h.G.d.f.q R l 0 #.l 1 -.o       # @ @ % u t | =.u # #     ",
"            # ; i D +.> y k < k ` ` q ] 9.H.l.l.0.9.u.0 O.K P h a $         O $ $ #   o o %         ",
"          # ; z _ +.> y k k < y N 2.K ] 6.5.0.J.0.3.] K c A j U %                 # #               ",
"  ; @ % & B ( _ L < j D $.y > 1 ) p 9 0 k.8.j.9.F.' 1 O.n s U & #                                   ",
"  e.i Z / h ' 4._ h ( i D +.1 R - d v m 4.k.%.L a.' $.S -.T @ #                                     ",
"  7 7 7 7 F F o.i ^ ^ z D S K . 8 . ` ~ < %.8.%.' ' D F a % $                                       ",
"  o & a 3 X.X.X.X.t 7 / e.h b b q r 6 L %.7.D.j.( G t ; @ $                                         ",
"  @ % a i 7 Z F F / / @.X.a @.W $.< L 7.s.g.S.6.; # # @ #                                           ",
"    $ o a G Z Z Z Z B U z G z 7 3.H 8.r.s.p.i.t.@ @ #                                               ",
"      $ @ ; & & & & @ ^ G F 7 z i o.5.g.r.p.y.&                                                     ",
"        # # # $ $ $   @ & 4 & ; o n.7.i.A.y.>.                                                      ",
"                              O O ^ 5.6.t.>.#                                                       ",
"                                # & >.& @ #                                                         ",
"                                                                                                    ",
"                                                                                                    ",
"                                                                                                    ",
"                                                                                                    ",
"                                                                                                    "
};
