/* XPM */
static char *result[] = {
/* columns rows colors chars-per-pixel */
"50 50 143 2 ",
"   c #D9974C",
".  c #51131F",
"X  c #6A1724",
"o  c #CA8B49",
"O  c #D5944B",
"+  c #D7954B",
"@  c #591B29",
"#  c #D9964C",
"$  c #D8964B",
"%  c #D8974C",
"&  c #1A0E1E",
"*  c #681A24",
"=  c #641B24",
"-  c #47111E",
";  c #3A0B18",
":  c #D1924B",
">  c #661C29",
",  c #320915",
"<  c #5F1C2D",
"1  c #230A1C",
"2  c #39131E",
"3  c #2D0812",
"4  c #350E1F",
"5  c #4B1321",
"6  c #5F1A26",
"7  c #B17D44",
"8  c #490C16",
"9  c #5A131D",
"0  c #4A1726",
"q  c #2C091A",
"w  c #2C111C",
"e  c #521A2D",
"r  c #CE904A",
"t  c #211218",
"y  c #431525",
"u  c #45161E",
"i  c #BC8548",
"p  c #68212D",
"a  c #CB8D4A",
"s  c #151124",
"d  c #571720",
"f  c #1A0A1C",
"g  c #511F30",
"h  c #520F1B",
"j  c #3C1722",
"k  c #250911",
"l  c #431025",
"z  c #421C26",
"x  c #2D151C",
"c  c #1E161F",
"v  c #531F25",
"b  c #4C0E1C",
"n  c #C38246",
"m  c #A87647",
"M  c #875F40",
"N  c #711628",
"B  c #8C5A3A",
"V  c #534033",
"C  c #6B182A",
"Z  c #5E232B",
"A  c #3D0D1F",
"S  c #5C2A33",
"D  c #6F4838",
"F  c #40121D",
"G  c #5C4337",
"H  c #321A1E",
"J  c #52232E",
"K  c #641724",
"L  c #181317",
"P  c #291F1F",
"I  c #4F1B27",
"U  c #2C0E15",
"Y  c #0F110D",
"T  c #9E663F",
"R  c #B98147",
"E  c #785539",
"W  c #1C0916",
"Q  c #120C17",
"!  c #9C6F42",
"~  c #44232F",
"^  c #491C2D",
"/  c #681420",
"(  c #312C2D",
")  c #412B33",
"_  c #452221",
"`  c #3A2918",
"'  c #3C7326",
"]  c #874C37",
"[  c #A46D42",
"{  c #B37643",
"}  c #C48748",
"|  c #803733",
" . c #41322F",
".. c #624C39",
"X. c #641728",
"o. c #6E171E",
"O. c #603A36",
"+. c #5F1622",
"@. c #6A2A30",
"#. c #C2894A",
"$. c #784638",
"%. c #36222C",
"&. c #410B19",
"*. c #6E4137",
"=. c #7A3B35",
"-. c #4D2B29",
";. c #66332D",
":. c #50332D",
">. c #7D4E3D",
",. c #4F773E",
"<. c #4E3B30",
"1. c #26321C",
"2. c #2F3F2C",
"3. c #854437",
"4. c #564C5B",
"5. c #8B533C",
"6. c #453C4A",
"7. c #90673E",
"8. c #956542",
"9. c #5E7C57",
"0. c #313E12",
"q. c #274F13",
"w. c #6D7661",
"e. c #A88684",
"r. c #404B3A",
"t. c #CBB7B8",
"y. c #824837",
"u. c #715B6E",
"i. c #68616E",
"p. c #816E7C",
"a. c #7A5F43",
"s. c #41533F",
"d. c #375B1D",
"f. c #4C8D2F",
"g. c #5EA241",
"h. c #5A5343",
"j. c #3B452D",
"k. c #CDB3B4",
"l. c #DCD1CB",
"z. c #B8A49F",
"x. c #DECFC7",
"c. c #9D9791",
"v. c #F7E7E6",
/* pixels */
"                                                                                                    ",
"                                                                                                    ",
"                                          $ $ # # # $ $ %                                           ",
"                                      # % r } n n n n a +   %                                       ",
"                                    % # o B =.| | | | ] R + %                                       ",
"                                    $ o 5.J 5 . +.X N p $.R $                                       ",
"                                  $ r 8.J 4 , u d * N N p ] o %                                     ",
"                                  $ a >.j , 5 < K K X N C p T $                                     ",
"                                  $ o >.~ 2 g @ h h > C C h ] O                                     ",
"                                  $ o >.~ U x z 3 w I @ 0 &.$.r                                     ",
"                                $   o D x 3 0 ^ k t c x w ; *.a                                     ",
"                                $ % } G t F < e q Q Y Q L q O.R                                     ",
"                                $ $ 7 -.U 0 < l 1 4.i.6.p.~ z [                                     ",
"                                  : E t 4 g l q f 6.4.) u.%.H T $                                   ",
"                              % % #.V f 4 J &.1 & Q Q f W W x B O                                   ",
"                                  ! %.1 w J . , W s s & 1 1 z =.n %                                 ",
"                                r $.4 1 t z > . 3 Q s & W U g p { +                                 ",
"                              O 8.S e j k 4 @ < u w f & U 0 < Z T : $                               ",
"                            $ i D Z = v 2 q l @ @ 0 q k j < @ u ;.{ O $                             ",
"                            a B Z * o.= @ A q 0 < @ - ; u v &.8 @ $.} + %                           ",
"                        % O m ;.X o.o./ h e l &.. . 9 . F - 8 = * @.T + $                           ",
"                        $ a B Z C C X.d 8 6 6 b . h 9 . 3 . C * * = =.n + $                         ",
"                        $ i D v b - l , , v > > < - 9 6 . h X.X 9 = p y.} $ %                       ",
"                      $ : ! S d u 2 q q U F 6 C > 5 d X X +.6 K 8 d > @.[ +                         ",
"                      $ : M < / 6 ; 0 @ A 3 - K X = X X X = +.b - @ K > ] a $                       ",
"                      $ r M < N / 8 6 X.@ 5 b b +.X o.X = @ b b b 6 * * 3.o + #                     ",
"                      $ : M u X.* +.* X * 6 @.S J p / * h 0 ; . . d > > 3.o + #                     ",
"                      $ O 7.x A @ = * * 9 v e.t.k.e.@.= - y ; ; F - d p 5.r $                       ",
"                      % O m P 1 2 @ K * 5 <.w.l.v.x.D Z 5 A A A j y 5 Z T O $                       ",
"                      $ $ i G & 1 F 6 > u h.j.c.t.z.G _ e A ^ 0 u ; l S [ O $                       ",
"                        % : M & f q e < u <.r.( ) O.) U 0 2 2 5 > . A -.m $ %                       ",
"                          O ! %.& 1 4 e I U 2.r.P _ z 3 y x k 8 X * I -.{ $ $                       ",
"                          $ #.V & & 1 4 I 2 Y 2.1.-.v ; y w U I * = J :.7 + $                       ",
"                            r E c s & q ^ H 1.,.q.0._ - l 3 2 5 . @ z D o $ $                       ",
"                            O 7 ( s s 1 w t w.' ' d.` F 2 , g 5 8 v :.m $ $                         ",
"                              i  .s & & t Y 9.' g.,.` U w 4 e 5 9 S M r $ $                         ",
"                              i ) & & c L Y 9.' f.' ` q w 4 g 5 d ;.m + $                           ",
"                              a E H & ( ( Y s.,.d.0.` 3 4 ; ^ 2 _ E o $ %                           ",
"                              $ 7  .c P  .c L 2.1.P H 3 - - j t ..R + %                             ",
"                                : 7.P  .V c L Y P H j , - g ~ <.7 O $                               ",
"                              %   R V V ..P c L x z y , y ^ -.m O %                                 ",
"                                  + 7 G V G ( t w g ^ , j z B :                                     ",
"                                  % O 7 ..a...H j S g q w O.o % %                                   ",
"                                    + r ! ! ! :.O.J ~ _ D 7 + $                                     ",
"                                      $ : : a M G *.B [ o + $                                       ",
"                                        $ $ $ i E 7 $ $ O $                                         ",
"                                              O i #.$ $ $                                           ",
"                                                $ O                                                 ",
"                                                                                                    ",
"                                                                                                    "
};
