/* XPM */
static char *_b9b5651c9bd4b46da4a17d5c8852f6eVxVwx7RfYgqDAQag[] = {
/* columns rows colors chars-per-pixel */
"50 50 2 1 ",
"  c #d9974c",
". c #d9974c",
/* pixels */
" .. . ...... .    ..  ..    . .....   ..  ....... ",
" .. . ...... .    ..  ..    . .....   ..  ....... ",
" .. . ...... .    ..  ..    . .....   ..  ....... ",
" .. . ...... .    ..  ..    . .....   ..  ....... ",
" .. . ...... .    ..  ..    . .....   ..  ....... ",
" .. . ...... .    ..  ..    . .....   ..  ....... ",
" .. . ...... .    ..  ..    . .....   ..  ....... ",
" .. . ...... .    ..  ..    . .....   ..  ....... ",
" .. . ...... .    ..  ..    . .....   ..  ....... ",
" .. . ...... .    ..  ..    . .....   ..  ....... ",
" .. . ...... .    ..  ..    . .....   ..  ....... ",
" .. . ...... .    ..  ..    . .....   ..  ....... ",
" .. . ...... .    ..  ..    . .....   ..  ....... ",
" .. . ...... .    ..  ..    . .....   ..  ....... ",
" .. . ...... .    ..  ..    . .....   ..  ....... ",
" .. . ...... .    ..  ..    . .....   ..  ....... ",
" .. . ...... .    ..  ..    . .....   ..  ....... ",
" .. . ...... .    ..  ..    . .....   ..  ....... ",
" .. . ...... .    ..  ..    . .....   ..  ....... ",
" .. . ...... .    ..  ..    . .....   ..  ....... ",
" .. . ...... .    ..  ..    . .....   ..  ....... ",
" .. . ...... .    ..  ..    . .....   ..  ....... ",
" .. . ...... .    ..  ..    . .....   ..  ....... ",
" .. . ...... .    ..  ..    . .....   ..  ....... ",
" .. . ...... .    ..  ..    . .....   ..  ....... ",
" .. . ...... .    ..  ..    . .....   ..  ....... ",
" .. . ...... .    ..  ..    . .....   ..  ....... ",
" .. . ...... .    ..  ..    . .....   ..  ....... ",
" .. . ...... .    ..  ..    . .....   ..  ....... ",
" .. . ...... .    ..  ..    . .....   ..  ....... ",
" .. . ...... .    ..  ..    . .....   ..  ....... ",
" .. . ...... .    ..  ..    . .....   ..  ....... ",
" .. . ...... .    ..  ..    . .....   ..  ....... ",
" .. . ...... .    ..  ..    . .....   ..  ....... ",
" .. . ...... .    ..  ..    . .....   ..  ....... ",
" .. . ...... .    ..  ..    . .....   ..  ....... ",
" .. . ...... .    ..  ..    . .....   ..  ....... ",
" .. . ...... .    ..  ..    . .....   ..  ....... ",
" .. . ...... .    ..  ..    . .....   ..  ....... ",
" .. . ...... .    ..  ..    . .....   ..  ....... ",
" .. . ...... .    ..  ..    . .....   ..  ....... ",
" .. . ...... .    ..  ..    . .....   ..  ....... ",
" .. . ...... .    ..  ..    . .....   ..  ....... ",
" .. . ...... .    ..  ..    . .....   ..  ....... ",
" .. . ...... .    ..  ..    . .....   ..  ....... ",
" .. . ...... .    ..  ..    . .....   ..  ....... ",
" .. . ...... .    ..  ..    . .....   ..  ....... ",
" .. . ...... .    ..  ..    . .....   ..  ....... ",
" .. . ...... .    ..  ..    . .....   ..  ....... ",
" .. . ...... .    ..  ..    . .....   ..  ....... "
};
