/* XPM */
static char *result[] = {
/* columns rows colors chars-per-pixel */
"50 50 179 2 ",
"   c #181614",
".  c #1A1917",
"X  c #1D1C19",
"o  c #211F1A",
"O  c #24221D",
"+  c #2A251C",
"@  c #2A2A1D",
"#  c #332A1E",
"$  c #392D1F",
"%  c #2E311E",
"&  c #31351E",
"*  c #272621",
"=  c #282721",
"-  c #2C2A23",
";  c #2F2E28",
":  c #312F26",
">  c #3B2F20",
",  c #312F29",
"<  c #333225",
"1  c #3E3121",
"2  c #393E21",
"3  c #35332A",
"4  c #39362B",
"5  c #3C3A2E",
"6  c #3D3B31",
"7  c #433422",
"8  c #443A24",
"9  c #4C3A25",
"0  c #413D2E",
"q  c #513E26",
"w  c #413E32",
"e  c #474F25",
"r  c #4A4D2E",
"t  c #574228",
"y  c #5C4529",
"u  c #4E5529",
"i  c #535D2C",
"p  c #595C28",
"a  c #454234",
"s  c #494536",
"d  c #4C4A34",
"f  c #46443A",
"g  c #4A4639",
"h  c #4E4A3A",
"j  c #514D3D",
"k  c #545635",
"l  c #55513E",
"z  c #58543F",
"x  c #60472A",
"c  c #644A2C",
"v  c #6C4F2D",
"b  c #6E502E",
"n  c #6F5A31",
"m  c #765630",
"M  c #785731",
"N  c #7D5A32",
"B  c #5A6729",
"V  c #5D6634",
"C  c #6A7A2E",
"Z  c #626939",
"A  c #6C7837",
"S  c #6B733C",
"D  c #797A37",
"F  c #717C3B",
"G  c #4F4D41",
"H  c #504F42",
"J  c #545244",
"K  c #5A5642",
"L  c #5E5A44",
"P  c #575548",
"I  c #5D5A4B",
"U  c #615D46",
"Y  c #635E4A",
"T  c #625F50",
"R  c #646244",
"E  c #696946",
"W  c #66614A",
"Q  c #6A654D",
"!  c #6E684E",
"~  c #706E4D",
"^  c #6D7343",
"/  c #74734D",
"(  c #7A7B4D",
")  c #6B6754",
"_  c #6D6952",
"`  c #6E6C5A",
"'  c #736D53",
"]  c #746F59",
"[  c #767055",
"{  c #797455",
"}  c #7B7559",
"|  c #7E785C",
" . c #757260",
".. c #7A7664",
"X. c #7B7965",
"o. c #855F34",
"O. c #8A6436",
"+. c #8F6C38",
"@. c #966B39",
"#. c #9A6E3A",
"$. c #9E703C",
"%. c #A3733D",
"&. c #A9773E",
"*. c #AA783F",
"=. c #827C5E",
"-. c #B17C41",
";. c #857E61",
":. c #778735",
">. c #7B8D37",
",. c #75823B",
"<. c #798739",
"1. c #7D8C3B",
"2. c #7F9236",
"3. c #7A8440",
"4. c #7F8647",
"5. c #81883C",
"6. c #829537",
"7. c #85963C",
"8. c #859938",
"9. c #8B9C3C",
"0. c #90923C",
"q. c #A29C3D",
"w. c #8DA537",
"e. c #93AA37",
"r. c #A4A13C",
"t. c #A9A73C",
"y. c #838D45",
"u. c #808649",
"i. c #878658",
"p. c #A88C42",
"a. c #B48644",
"s. c #BA8343",
"d. c #B69144",
"f. c #878062",
"g. c #8B8465",
"h. c #8F8867",
"j. c #85836B",
"k. c #8E896B",
"l. c #938C6B",
"z. c #97906D",
"x. c #9A926F",
"c. c #9D986E",
"v. c #8E8A72",
"b. c #918C71",
"n. c #979477",
"m. c #9E9672",
"M. c #A19A75",
"N. c #A49D7A",
"B. c #A3A26E",
"V. c #A9A27F",
"C. c #C18745",
"Z. c #C48946",
"A. c #C98C47",
"S. c #CB8E48",
"D. c #CD9349",
"F. c #D5944B",
"G. c #D9974C",
"H. c #9D9A81",
"J. c #A29E82",
"K. c #A5A185",
"L. c #ACA683",
"P. c #ACA887",
"I. c #A9A68A",
"U. c #AEAC8A",
"Y. c #B2AB8A",
"T. c #B5B08E",
"R. c #B6B191",
"E. c #BAB594",
"W. c #BCB999",
"Q. c #C1BD9C",
"!. c #C4C0A0",
"~. c #CDCCA3",
"^. c #D4D3A9",
"/. c #D8D7AD",
"(. c #E0DFB2",
"). c #E3E2B5",
"_. c #EEEDBE",
"`. c #F5F5C4",
"'. c #F8F7C6",
/* pixels */
"G.G.G.G.G.G.G.G.G.G.G.G.G.d.>.t.D.+.w.F.G.G.F.O.# o o > *.G.G.G.G.G.G.G.G.G.G.G.G.G.G.G.G.G.G.G.G.G.",
"G.G.G.G.G.G.G.G.G.G.G.G.d.p.>.e.5.6.r.F.G.s.t X e R L = o b G.G.G.G.G.G.G.G.G.G.G.G.G.G.G.G.G.G.G.G.",
"G.G.G.G.G.G.G.G.G.D.d.F.0.p.2.8.:.B @ O # X @ C ,.[ U U a X x &.O.b Z.G.G.G.G.G.G.G.G.G.G.G.G.G.G.G.",
"G.G.G.G.G.G.G.G.G.F.0.r.1.q.>.C & X u i e B ,.r s [ ' ' [ j + . o o # -.G.G.G.G.G.G.G.G.G.G.G.G.G.G.",
"G.G.G.G.G.G.G.G.G.G.p.8.2.p % o % C <./ w.( ' 5 4 z ' [ [ [ ' Y Y ! o 7 A.G.G.G.G.G.G.G.G.G.G.G.G.G.",
"G.G.G.G.G.G.G.G.G.G.G.p.D . 4 i :.E U ( 9.h.m.' 4 L [ [ ' ' [ [ [ h , = m G.G.G.G.G.G.G.G.G.G.G.G.G.",
"G.G.G.G.G.G.G.G.G.G.G.G.@.. W 7.S [ ' / ^ =.g.} 0 ( { } l w ! [ [ w , ..* -.F.G.G.G.G.G.G.G.G.G.G.G.",
"G.G.G.G.G.G.G.G.G.G.F.A.7 - ( 2.^ [ [ } R 5 w d j 9.y.[ [ - 0 U ' w = J.3 c F.G.G.G.G.G.G.G.G.G.G.G.",
"G.G.G.G.G.G.G.G.G.G.S.y o R ,.2.^ ' y.{ h h W K ! ( =.~ h.[ # < 4 3 : N.;.O -.F.G.G.G.G.G.G.G.G.G.G.",
"G.G.G.G.G.G.G.G.G.F.v o P 8.S 2.^ ' [ ' l Q <.2 j } [ =.c.m.} w 1 w ;.M.I.G > S.G.G.G.G.G.G.G.G.G.G.",
"G.G.G.G.G.G.G.G.G.%.o j ( w.^ ,.~ [ s j [ y.B Y E.M.z.m.c.M.m.m.x.m.m.m.M.J.= 9 A.G.G.G.G.G.G.G.G.G.",
"G.G.G.G.G.G.G.G.F.q O ! / w.,.,.[ h K j [ 8.u { Y.M.m.m.m.;.m.m.m.m.M.m.l.Y.H.= 9 S.G.G.G.G.G.G.G.G.",
"G.G.G.G.G.G.G.G.D.+ X W } 9.>.,.~ w l.W ' 4.Z 5 M.M.l.m.m.l.m.M.m.m.M.m.R.Y.!.J.O M G.G.G.G.G.G.G.G.",
"G.G.G.G.G.G.G.G.#.o % K ] ( ,.E ! ' ;.s U / A # =.g.[ z.m.m.c.m.N.m.m.m.L.J.Q.!.P 7 F.G.G.G.G.G.G.G.",
"G.G.G.G.G.G.G.G.q & p a } } ' [ W Q ' w Y u.D s w x.l.m.m.c.c.B.J.M.m.m.M.N.Q.!.I 7 F.G.G.G.G.G.G.G.",
"G.G.G.G.G.G.G.G.+ < Z < s h 5 h ~ ' K ! ' 3./ U - =.x.M.m.M.x.M.M.x.M.z.N.Q.!.Q.4 b G.G.G.G.G.G.G.G.",
"G.G.G.G.G.G.G.A.. : z F V U z - - ! Y ' / k W =.' l.M.N.M.m.m.m.m.N.m.m.Y.!.!.H.o -.F.F.G.G.G.G.G.G.",
"G.G.G.G.G.G.G.A.X 4 d ' 5.E R L : s ' } 5 , o 3 ' M.M.Y.M.m.M.M.P.L.M.M.W.K...H > F.G.G.G.G.G.G.G.G.",
"G.G.G.G.G.G.G.F.+ O a l L Z ~ ' j 3 [ ' O | k.I - , _ l.M.m.m.m.M.m.g.Y 3 * , . x F.G.G.G.G.G.G.G.G.",
"G.G.G.G.G.G.G.G.&.1 O 4 R 8.' } [ : [ j X 0 l ' =.Y 3 : Y g.m.g.K 3 - w ` h.) . x G.G.G.G.G.G.G.G.G.",
"G.G.G.G.G.G.G.G.F.q @ 4 S 5.[ =.Q j [ U 0 5 : O 4 K | ] f O W h = _ ;.' H , * o q G.G.G.G.G.G.G.G.G.",
"G.G.G.G.G.G.G.G.F.7 3 4 ,.F ~ } U j [ Y w : j Y h @ * g } j w Y = K , O 4 I ` - q G.G.G.G.G.G.G.G.G.",
"G.G.G.G.G.G.G.G.F.7 5 0 s ~ R h.l.: W U - 4 - X 3 z K 3 X o 4 g.: = P ` J - X   v G.G.G.G.G.G.G.G.G.",
"G.G.G.G.G.G.G.G.F.y : W z ' [ [ =.Q 0 W - j.~.P.) 3 O 3 g a W m.) f - * H b.4   @.G.G.G.G.G.G.G.G.G.",
"G.G.G.G.G.G.G.G.G.%.o < s a R S / Q L ! - ] (.^.^.~.U...w X ` c.` o n.!.^.~.= + S.G.G.G.G.G.G.G.G.G.",
"G.G.G.G.G.G.G.G.G.F.#.q > + & Z s h l [ 5 4 ).`.`.)./.^.n.O k.c.;.o U.(._.J.o O.G.G.G.G.G.G.G.G.G.G.",
"G.G.G.G.G.G.G.G.G.G.G.F.S.c & F s Y =.i.S @ I (.`.'.`.W.- I m.m.x.a w !.U., 9 F.G.G.G.G.G.G.G.G.G.G.",
"G.G.G.G.G.G.G.G.G.G.G.G.G.v & 1.=.[ { w.A O X = J ` H O h | m.m.M.l.w o = 3 > G.G.G.G.G.G.G.G.G.G.G.",
"G.G.G.G.G.G.G.G.G.G.G.G.G.y < 7.~ U ( 9.w j < s s w f ' l.} x.m.M.l.: 3 J. .# G.G.G.G.G.G.G.G.G.G.G.",
"G.G.G.G.G.G.G.G.G.G.G.G.G.q & ,.Y a ! 1.a ' j ' [ f.w - [ m.m.m.z.U = = g J # G.G.G.G.G.G.G.G.G.G.G.",
"G.G.G.G.G.G.G.G.G.G.G.G.G.x O k U 0 0 Z U 5 4 < 3 - O 3 @ P s 4 , * = w , o # F.G.G.G.G.G.G.G.G.G.G.",
"G.G.G.G.G.G.G.G.G.G.G.G.G.Z.q o < s j U Q } ! ! Y - - 3 w G Y ) ' ] } ] g . 7 G.G.G.G.G.G.G.G.G.G.G.",
"G.G.G.G.G.G.G.G.G.G.G.G.G.G.G.#.7 O . a [ ' Y ' ' : U ' Y j w : - o o X . . q G.G.G.G.G.G.G.G.G.G.G.",
"G.G.G.G.G.G.G.G.G.G.G.G.G.G.G.G.F.n . . 3 L H 4 3 + . X . . . . . . o o > q -.G.G.G.G.G.G.G.G.G.G.G.",
"G.G.G.G.G.G.G.G.G.G.G.G.G.G.G.G.$.@ B i 5 . X o . X . . o o w T O X v A.F.G.G.G.G.G.G.G.G.G.G.G.G.G.",
"G.G.G.G.G.G.G.G.G.G.G.G.G.G.G.D.q B 5.S ~ @ | ;.] K U H w ! N.Q., s + Z.F.G.G.G.G.G.G.G.G.G.G.G.G.G.",
"G.G.G.G.G.G.G.G.G.G.G.G.G.G.G.@.O :./ } z.: K x.M.m.M.x.l.x.N.Q., b.3 @.G.G.G.G.G.G.G.G.G.G.G.G.G.G.",
"G.G.G.G.G.G.G.G.G.G.G.G.G.G.S.8 5 6.[ g.k.T + s } l.M.x.M.M.V.!.w ` ..: Z.G.G.G.G.G.G.G.G.G.G.G.G.G.",
"G.G.G.G.G.G.G.G.G.G.G.G.G.d.d.> d E ;.m.N.f j _ ' l.M.M.N.N.Q.!.X., 6 6 -.F.G.G.G.G.G.G.G.G.G.G.G.G.",
"G.G.G.G.G.G.G.G.G.G.G.G.G.a.C o J ' ;.M.E.4 ] } =.M.M.x.N.N.Q.Q.!.H.; w v F.G.G.G.G.G.G.G.G.G.G.G.G.",
"G.G.G.G.G.G.G.G.G.G.G.G.G.G.O.X - 0 = j ] = 0 ;.m.x.x.m.N.M.T.E.!. .o = = -.G.G.G.G.G.G.G.G.G.G.G.G.",
"G.G.G.G.G.G.G.G.G.G.G.G.G.G.-.@ u s 5 4 =   , x.m.x.M.M.M.M.R.Y.I.= ; } g m G.G.G.G.G.G.G.G.G.G.G.G.",
"G.G.G.G.G.G.G.G.G.G.G.G.G.G.s.@ F [ z.L.J.G 3 M.l.x.M.x.m.=.M.J.J , o - o m G.G.G.G.G.G.G.G.G.G.G.G.",
"G.G.G.G.G.G.G.G.G.G.G.G.G.F.C.O h ' =.L.E.; J m.m.m.g.z.M.M.m.N.= ] ' T 6 o.G.G.G.G.G.G.G.G.G.G.G.G.",
"G.G.G.G.G.G.G.G.G.G.G.G.G.G.F.O.+ 0 Y =.k.= w [ x.x.x.x.m.h.m.E.4 f w , 7 Z.G.G.G.G.G.G.G.G.G.G.G.G.",
"G.G.G.G.G.G.G.G.G.G.G.G.G.G.G.F.o.o + - o o = : ! =.h ' =.=.v.v., > b @.S.G.G.G.G.G.G.G.G.G.G.G.G.G.",
"G.G.G.G.G.G.G.G.G.G.G.G.G.G.G.G.F.%.-.m o - 0 s = o = o = - - : ; o.G.G.G.G.G.G.G.G.G.G.G.G.G.G.G.G.",
"G.G.G.G.G.G.G.G.G.G.G.G.G.G.G.G.G.G.G.O.: Y [ k.l.;.U - _ ' =.N.T m G.G.G.G.G.G.G.G.G.G.G.G.G.G.G.G.",
"G.G.G.G.G.G.G.G.G.G.G.G.G.G.G.G.G.G.G.v 3 Y ' =.h.Y j . W [ g.M.T q G.G.G.G.G.G.G.G.G.G.G.G.G.G.G.G.",
"G.G.G.G.G.G.G.G.G.G.G.G.G.G.G.G.G.G.G.N O < - + + $ + . : 5 j Y Y o S.G.G.G.G.G.G.G.G.G.G.G.G.G.G.G."
};
