/* XPM */
static char *result[] = {
/* columns rows colors chars-per-pixel */
"50 50 173 2 ",
"   c #1B1917",
".  c #1D1B19",
"X  c #211F1A",
"o  c #24221D",
"O  c #2B251D",
"+  c #27281B",
"@  c #2B2D1D",
"#  c #33291E",
"$  c #3A2D1F",
"%  c #3E301F",
"&  c #272520",
"*  c #292621",
"=  c #2C2A23",
"-  c #312E26",
";  c #3A2E20",
":  c #302F29",
">  c #333126",
",  c #353229",
"<  c #39362C",
"1  c #3C3A2D",
"2  c #3E3C32",
"3  c #443422",
"4  c #483724",
"5  c #4D3A25",
"6  c #403D2E",
"7  c #533E27",
"8  c #413E32",
"9  c #3E4521",
"0  c #474726",
"q  c #424924",
"w  c #43432C",
"e  c #474A2B",
"r  c #534227",
"t  c #564128",
"y  c #5B4429",
"u  c #4C532C",
"i  c #454234",
"p  c #4A4636",
"a  c #494A31",
"s  c #454339",
"d  c #4D493A",
"f  c #514D3B",
"g  c #565639",
"h  c #55523E",
"j  c #5B5B3C",
"k  c #63492C",
"l  c #6A4E2D",
"z  c #6D512E",
"x  c #7B5932",
"c  c #566128",
"v  c #5E6C2A",
"b  c #64722A",
"n  c #71752E",
"m  c #6A6A36",
"M  c #63673D",
"N  c #667234",
"B  c #6D7A34",
"V  c #6B733D",
"C  c #6E7A3A",
"Z  c #767B36",
"A  c #737E3D",
"S  c #4E4D41",
"D  c #504E42",
"F  c #555344",
"G  c #5A5642",
"H  c #5D5944",
"J  c #585649",
"K  c #5D5B4C",
"L  c #615C46",
"P  c #635E48",
"I  c #636342",
"U  c #686647",
"Y  c #6B6D46",
"T  c #66614B",
"R  c #6A654D",
"E  c #6D694D",
"W  c #726F4E",
"Q  c #6D7244",
"!  c #747A44",
"~  c #74764A",
"^  c #7B7C4D",
"/  c #656351",
"(  c #6B6650",
")  c #6F6A50",
"_  c #736D53",
"`  c #767055",
"'  c #787455",
"]  c #7E7B57",
"[  c #75725D",
"{  c #7C765A",
"}  c #7E795C",
"|  c #7B7865",
" . c #815D34",
".. c #8D6536",
"X. c #926838",
"o. c #9A6E3A",
"O. c #9E703B",
"+. c #A4743D",
"@. c #A9773E",
"#. c #AB793F",
"$. c #827B5E",
"%. c #AF7B40",
"&. c #B27D41",
"*. c #837E62",
"=. c #827F6B",
"-. c #6F822C",
";. c #71822F",
":. c #748436",
">. c #7C8F35",
",. c #758439",
"<. c #7A863D",
"1. c #7B8641",
"2. c #7C8249",
"3. c #838B3A",
"4. c #829636",
"5. c #859C34",
"6. c #84943A",
"7. c #85983A",
"8. c #8A9D3E",
"9. c #9E953D",
"0. c #A7823E",
"q. c #8CA239",
"w. c #96A639",
"e. c #808A45",
"r. c #81874A",
"t. c #889642",
"y. c #A48C42",
"u. c #AE8945",
"i. c #BC8444",
"p. c #A99141",
"a. c #B39244",
"s. c #BA9146",
"d. c #878062",
"f. c #8C8566",
"g. c #8F8867",
"h. c #8E8769",
"j. c #938C6A",
"k. c #97906D",
"l. c #99916E",
"z. c #8F8B73",
"x. c #908E76",
"c. c #9E9672",
"v. c #999578",
"b. c #A09E6B",
"n. c #A19A75",
"m. c #A49C7A",
"M. c #C18745",
"N. c #C58A46",
"B. c #CA8D47",
"V. c #CC8E48",
"C. c #C69148",
"Z. c #CD9249",
"A. c #D4944A",
"S. c #D9974C",
"D. c #A29E83",
"F. c #A4A284",
"G. c #ABA583",
"H. c #AFA987",
"J. c #A7A489",
"K. c #ABA688",
"L. c #B2AC8B",
"P. c #B1AD90",
"I. c #B6B592",
"U. c #BBB695",
"Y. c #BEB998",
"T. c #C3BF9F",
"R. c #C5C1A1",
"E. c #CDCCA3",
"W. c #D3D2A9",
"Q. c #DBDAAF",
"!. c #DEDDB1",
"~. c #E8E7B9",
"^. c #F3F2C2",
/* pixels */
"S.S.S.S.S.S.S.S.S.S.S.S.S.S.S.S.S.S.A.A.S.S.S.S.S.S.S.S.S.S.S.S.S.S.S.S.S.S.S.S.S.S.S.S.S.S.S.S.S.S.",
"S.S.S.S.S.S.S.S.S.S.S.S.S.S.S.S.S.S.s.a.A.S.S.S.S.S.S.S.S.S.S.S.S.S.S.S.S.S.S.S.S.S.S.S.S.S.S.S.S.S.",
"S.S.S.S.S.S.S.S.S.S.S.S.S.S.S.S.S.A.3.p.S.A.s.A.S.S.S.S.S.S.S.S.S.S.S.S.S.S.S.S.S.S.S.S.S.S.S.S.S.S.",
"S.S.S.S.S.S.S.S.S.S.S.S.S.S.S.S.A.s.>.w.u.3.9.A.S.S.V...k z i.A.S.S.S.S.S.S.S.S.S.S.S.S.S.S.S.S.S.S.",
"S.S.S.S.S.S.S.S.S.S.S.S.S.S.a.Z.y.y.>.5.:.5.0.N.B.o.# X , = $ &.S.S.S.S.S.S.S.S.S.S.S.S.S.S.S.S.S.S.",
"S.S.S.S.S.S.S.S.S.S.S.S.S.A.y.w.6.9.4.:.q o o o O O c <.W j - X %.S.A.S.S.S.S.S.S.S.S.S.S.S.S.S.S.S.",
"S.S.S.S.S.S.S.S.S.S.S.S.S.S.Z.6.>.0 @ o + -.,.B N Z u h ` R _ < O ..%...A.S.S.S.S.S.S.S.S.S.S.S.S.S.",
"S.S.S.S.S.S.S.S.S.S.S.S.S.S.S.C.m . a v ,.M ' q.$._ 6 6 R ` ` ` 8 & . X k A.S.S.S.S.S.S.S.S.S.S.S.S.",
"S.S.S.S.S.S.S.S.S.S.S.S.S.S.S.A.7 < 2.:.W E ' <.j.l.L 6 _ ` ` ` ` _ _ h X X.A.S.S.S.S.S.S.S.S.S.S.S.",
"S.S.S.S.S.S.S.S.S.S.S.S.S.S.V.k o I 7.C _ ' ' U L ` f j $.W P j ` ` _ - 6 3 A.S.S.S.S.S.S.S.S.S.S.S.",
"S.S.S.S.S.S.S.S.S.S.S.S.S.V.7 o I V 6.Q _ r.` p i d p ^ t.` E ; h ` ( O | & %.A.S.S.S.S.S.S.S.S.S.S.",
"S.S.S.S.S.S.S.S.S.S.S.S.S.k * E t.V 6.Q ` _ _ p ^ V G E ^ ` h.f , 8 d = [ L 4 A.S.S.S.S.S.S.S.S.S.S.",
"S.S.S.S.S.S.S.S.S.S.S.S.&.. d _ 8.C A ` R < E _ 4.1 $.g.*.*.n.l.d * * 6 l.v.X &.S.S.S.S.S.S.S.S.S.S.",
"S.S.S.S.S.S.S.S.S.S.S.S.k . d ' t.>.1.E 1 L _ 2.n G T.n.n.c.l.n.c.h.h.c.c.H.8 y S.S.S.S.S.S.S.S.S.S.",
"S.S.S.S.S.S.S.S.S.S.S.i.o q i ` ^ A Y P $.` L ^ B i n.n.n.n.f.l.c.c.c.c.c.l.D.X ..S.S.S.S.S.S.S.S.S.",
"S.S.S.S.S.S.S.S.S.S.S. .O N 1 $.] _ W F ' d a ' A < g.$.$.n.l.n.c.c.c.c.n.m.T.=.X @.S.S.S.S.S.S.S.S.",
"S.S.S.S.S.S.S.S.S.S.A.7 O j e < 8 1 P ` R H E e.! 8 _ g.j.c.c.c.b.m.n.l.n.T.L.R.D 7 A.S.S.S.S.S.S.S.",
"S.S.S.S.S.S.S.S.S.S.A.$ - h r.A U i * P L ) ` ~ ` f < n.c.c.c.c.n.m.n.n.b.l.L.R.| % A.S.S.S.S.S.S.S.",
"S.S.S.S.S.S.S.S.S.S.S.$ O f P ! I _ 6 1 ` ` a O G d.h.c.n.c.c.c.n.l.c.c.j.L.T.R.D 7 S.S.S.S.S.S.S.S.",
"S.S.S.S.S.S.S.S.S.S.S.@.O - p ! Q ` P , ` E o | i > ` c.H.m.n.c.n.m.D.n.m.T.T.D.X o.S.S.S.S.S.S.S.S.",
"S.S.S.S.S.S.S.S.S.S.S.M.O < p 5._ { _ 1 ` < - P } _ = i j.c.c.c.m.G.n.n.K.J.v.J 5 S.S.S.S.S.S.S.S.S.",
"S.S.S.S.S.S.S.S.S.S.S.#.X 6 j 4._ $.P I _ f < = = F { H = L j.c.*.[ G 6 : 2 :   o.S.S.S.S.S.S.S.S.S.",
"S.S.S.S.S.S.S.S.S.S.S.O.o f 8 Q T g.L h _ f = f L - * L *.D = *.X 8 / ` *.*.f   &.S.S.S.S.S.S.S.S.S.",
"S.S.S.S.S.S.S.S.S.S.S.#.X L L _ _ $.f.- E < - 8 = f f = > T o $.X R G 8 = & -   &.S.S.S.S.S.S.S.S.S.",
"S.S.S.S.S.S.S.S.S.S.S.A.y X > < U V { d _ 1 K E.F.F o 8 p * * j.8 & s K / K s X V.S.S.S.S.S.S.S.S.S.",
"S.S.S.S.S.S.S.S.S.S.S.S.S.o.l X c a G i ` > J ~.W.W.I./ = < R c.R s < = : 2   4 A.S.S.S.S.S.S.S.S.S.",
"S.S.S.S.S.S.S.S.S.S.S.S.S.S.Z.o v G f ' $.g * Q.^.~.!.W.I.X _ c.R 8 D.T.E.|    .S.S.S.S.S.S.S.S.S.S.",
"S.S.S.S.S.S.S.S.S.S.S.S.S.S.M.. ;.d.' ` w.B o p W.^.^.!.F 2 c.c._ - Q.~.!.2 ; V.S.S.S.S.S.S.S.S.S.S.",
"S.S.S.S.S.S.S.S.S.S.S.S.S.S.+.. :._ G ^ 7.i > = * s S = 2 *.c.c.j.- [ U.F ; B.S.S.S.S.S.S.S.S.S.S.S.",
"S.S.S.S.S.S.S.S.S.S.S.S.S.S...o V j 1 Y V F L f R _ H { g.{ c.c.n.[ - : 8 3 A.S.S.S.S.S.S.S.S.S.S.S.",
"S.S.S.S.S.S.S.S.S.S.S.S.S.S.N.; = G d e Y p p i d G = * { c.n.c.j.= * z.=.4 A.S.S.S.S.S.S.S.S.S.S.S.",
"S.S.S.S.S.S.S.S.S.S.S.S.S.S.S.N.t . = p E { ( P G * . o = 8 6 1 :   X * 8 k S.S.S.S.S.S.S.S.S.S.S.S.",
"S.S.S.S.S.S.S.S.S.S.S.S.S.S.S.S.A.Z 0   P _ T _ E o T P P ( ( ( T _ | 8 . x A.S.S.S.S.S.S.S.S.S.S.S.",
"S.S.S.S.S.S.S.S.S.S.S.S.S.S.S.S.S.C.0   O 8 8 < 8 o , , : = = = = = = o   X.S.S.S.S.S.S.S.S.S.S.S.S.",
"S.S.S.S.S.S.S.S.S.S.S.S.S.S.S.S.S.%.* 9 G o o o . . . o X . .   . X X X 3 N.S.S.S.S.S.S.S.S.S.S.S.S.",
"S.S.S.S.S.S.S.S.S.S.S.S.S.S.S.S.A.t v ,.` [ = _ _ F d , < [ D.= . X.&.M.A.S.S.S.S.S.S.S.S.S.S.S.S.S.",
"S.S.S.S.S.S.S.S.S.S.S.S.S.S.S.S.S.t b ^ $.f.=.i c.c.c.k.k.c.Y.2 = ..A.S.S.S.S.S.S.S.S.S.S.S.S.S.S.S.",
"S.S.S.S.S.S.S.S.S.S.S.S.S.S.S.S.A.5 w <.$.j.K.- f c.c.c.m.m.R.s X O.S.S.S.S.S.S.S.S.S.S.S.S.S.S.S.S.",
"S.S.S.S.S.S.S.S.S.S.S.S.S.S.S.S.A.r > A { c.K.J . _ c.c.m.Y.R.x.8 x A.S.S.S.S.S.S.S.S.S.S.S.S.S.S.S.",
"S.S.S.S.S.S.S.S.S.S.S.S.S.S.S.S.S.l X j _ i = o = = k.G.c.L.R.T.=.z S.S.S.S.S.S.S.S.S.S.S.S.S.S.S.S.",
"S.S.S.S.S.S.S.S.S.S.S.S.S.S.S.S.C.n + < , - d G.P.& g.c.n.Y.P.T.F X.S.S.S.S.S.S.S.S.S.S.S.S.S.S.S.S.",
"S.S.S.S.S.S.S.S.S.S.S.S.S.S.S.S.N.0 a . u _ j.G.I.d H c.k.m.K.=.; A.S.S.S.S.S.S.S.S.S.S.S.S.S.S.S.S.",
"S.S.S.S.S.S.S.S.S.S.S.S.S.S.S.S.N.O M < 9 Y _ _ P - _ n.j.c.m.= y A.S.S.S.S.S.S.S.S.S.S.S.S.S.S.S.S.",
"S.S.S.S.S.S.S.S.S.S.S.S.S.S.S.S.B.O u -   o O o & P j.c.k.c.P.& * &.S.S.S.S.S.S.S.S.S.S.S.S.S.S.S.S.",
"S.S.S.S.S.S.S.S.S.S.S.S.S.S.S.S.A.;   - X * X < *.( ) h.f.v.D.= / 5 B.A.S.S.S.S.S.S.S.S.S.S.S.S.S.S.",
"S.S.S.S.S.S.S.S.S.S.S.S.S.S.S.S.S.l - L d 6 L F & 3 7 X & O o o h.D 3 A.S.S.S.S.S.S.S.S.S.S.S.S.S.S.",
"S.S.S.S.S.S.S.S.S.S.S.S.S.S.S.S.A.z = d _ l.n.K.- &.A.3 i _ E { P , 7 A.S.S.S.S.S.S.S.S.S.S.S.S.S.S.",
"S.S.S.S.S.S.S.S.S.S.S.S.S.S.S.S.S.V. .3 & d ) [ ; A.A.%.= G 6 O k +.A.A.S.S.S.S.S.S.S.S.S.S.S.S.S.S.",
"S.S.S.S.S.S.S.S.S.S.S.S.S.S.S.S.S.S.S.S.B. .$ O # A.S.i.O O l M.A.S.S.S.S.S.S.S.S.S.S.S.S.S.S.S.S.S.",
"S.S.S.S.S.S.S.S.S.S.S.S.S.S.S.S.S.S.S.S.S.S.A.i.M.S.S.A.M.B.S.S.S.S.S.S.S.S.S.S.S.S.S.S.S.S.S.S.S.S."
};
