/* XPM */
static char *result[] = {
/* columns rows colors chars-per-pixel */
"50 50 178 2 ",
"   c #181716",
".  c #1A1917",
"X  c #1E1C19",
"o  c #221D17",
"O  c #211E1A",
"+  c #24221D",
"@  c #2C251C",
"#  c #2B2B1D",
"$  c #342A1E",
"%  c #2F321D",
"&  c #33371E",
"*  c #262520",
"=  c #292721",
"-  c #2C2A23",
";  c #2E2D28",
":  c #312E26",
">  c #3A2E20",
",  c #302F28",
"<  c #2F3021",
"1  c #323224",
"2  c #3E3121",
"3  c #35332A",
"4  c #39362C",
"5  c #3D3A2D",
"6  c #393730",
"7  c #3D3B31",
"8  c #433422",
"9  c #4D3B25",
"0  c #413D2F",
"q  c #533E27",
"w  c #413E31",
"e  c #3C411F",
"r  c #3D4224",
"t  c #464C26",
"y  c #47492C",
"u  c #564128",
"i  c #5B4429",
"p  c #4D5525",
"a  c #51592C",
"s  c #454233",
"d  c #494636",
"f  c #4B4A34",
"g  c #46443A",
"h  c #49473A",
"j  c #4D4A3A",
"k  c #524E3C",
"l  c #515432",
"z  c #595C37",
"x  c #55513E",
"c  c #59563E",
"v  c #644A2C",
"b  c #694D2D",
"n  c #6F512E",
"m  c #71522F",
"M  c #7B5831",
"N  c #57622A",
"B  c #5D662C",
"V  c #5F653A",
"C  c #666E2D",
"Z  c #68772E",
"A  c #676E35",
"S  c #656B3C",
"D  c #687335",
"F  c #6C7B35",
"G  c #6C763D",
"H  c #4E4C40",
"J  c #514E42",
"K  c #555242",
"L  c #5A5542",
"P  c #5E5945",
"I  c #575548",
"U  c #5D5B4A",
"Y  c #615D46",
"T  c #635E48",
"R  c #656247",
"E  c #6B6D43",
"W  c #66614A",
"Q  c #6A654D",
"!  c #6D6B4B",
"~  c #706D4E",
"^  c #6E7244",
"/  c #717644",
"(  c #717842",
")  c #73744B",
"_  c #7A7C4C",
"`  c #656353",
"'  c #6A6653",
"]  c #6F6951",
"[  c #726D53",
"{  c #716E5C",
"}  c #767055",
"|  c #797455",
" . c #7B755A",
".. c #7F795C",
"X. c #777361",
"o. c #7D7963",
"O. c #805D33",
"+. c #8B6436",
"@. c #946939",
"#. c #956A39",
"$. c #9F713C",
"%. c #A4743D",
"&. c #AA783F",
"*. c #817B5D",
"=. c #AE7B40",
"-. c #B37E41",
";. c #857E61",
":. c #73862E",
">. c #758437",
",. c #7B8D37",
"<. c #798739",
"1. c #7D8B3B",
"2. c #7E9237",
"3. c #7B8443",
"4. c #7E8942",
"5. c #98893F",
"6. c #809436",
"7. c #849837",
"8. c #82933B",
"9. c #8A9D39",
"0. c #909235",
"q. c #A29F3C",
"w. c #89A036",
"e. c #8EA33B",
"r. c #97A737",
"t. c #818A47",
"y. c #9F8E40",
"u. c #869342",
"i. c #889742",
"p. c #A88D42",
"a. c #B58243",
"s. c #BD8444",
"d. c #B38843",
"f. c #AC9242",
"g. c #B89244",
"h. c #878165",
"j. c #8B8464",
"k. c #89846A",
"l. c #938C6B",
"z. c #9D9C66",
"x. c #99926F",
"c. c #8C8A71",
"v. c #908D76",
"b. c #9E9672",
"n. c #989679",
"m. c #98967B",
"M. c #A09773",
"N. c #A19975",
"B. c #A49D7A",
"V. c #C18745",
"C. c #C48A46",
"Z. c #C98C47",
"A. c #CB8E48",
"S. c #C39347",
"D. c #CE9349",
"F. c #D5954B",
"G. c #D9974C",
"H. c #ABA584",
"J. c #AFA987",
"K. c #A7A489",
"L. c #B2AC8A",
"P. c #B6B08F",
"I. c #B2AE91",
"U. c #B6B290",
"Y. c #BAB595",
"T. c #BBB996",
"R. c #BEBA9A",
"E. c #C1BD9D",
"W. c #C4C29D",
"Q. c #C5C1A1",
"!. c #C9C7A2",
"~. c #D2D1A7",
"^. c #D5D4AA",
"/. c #DBDAAF",
"(. c #E6E5B7",
"). c #EBEABC",
"_. c #F5F4C4",
"`. c #F8F7C7",
/* pixels */
"G.G.G.G.G.G.G.G.G.G.G.G.F.G.F.C.>.r.g.8.9.S.G.F.F.Z.@.b M s.G.G.G.G.G.G.G.G.G.G.G.G.G.G.G.G.G.G.G.G.",
"G.G.G.G.G.G.G.G.G.G.G.G.f.F.5.p.,.9.>.,.0.s.F.Z.+.> + 3 @ $ -.F.G.G.G.G.G.G.G.G.G.G.G.G.G.G.G.G.G.G.",
"G.G.G.G.G.G.G.G.G.G.G.G.y.r.8.q.6.,.C % X O $ @ O p <.[ Y = + $.F.G.G.G.G.G.G.G.G.G.G.G.G.G.G.G.G.G.",
"G.G.G.G.G.G.G.G.G.G.G.G.d.8.6.C t & X & :.C t N >.B Y [ Y W 3 @ =.D.V.F.G.G.G.G.G.G.G.G.G.G.G.G.G.G.",
"G.G.G.G.G.G.G.G.G.G.G.G.G.f.C   - e C <.^ 3.8. .K 2 k [ [ } [ : o $ . 8 C.G.G.G.G.G.G.G.G.G.G.G.G.G.",
"G.G.G.G.G.G.G.G.G.G.G.G.G.F.v + ) ,.) T ] u.t.b.j.d 0 Q [ | } [ Y j K O i F.G.G.G.G.G.G.G.G.G.G.G.G.",
"G.G.G.G.G.G.G.G.G.G.G.G.F.@.+ k t.>.) } [ / } j.l.k x } } } [ [ } } ] * O $.G.G.G.G.G.G.G.G.G.G.G.G.",
"G.G.G.G.G.G.G.G.G.G.G.F.O.O 7 G 9.G [ } *.! w 5 L 0 _ u.} W 5 Q } | d , h q F.G.G.G.G.G.G.G.G.G.G.G.",
"G.G.G.G.G.G.G.G.G.G.G.M o d 4.G 7.G [ ) _ c j Y c T t.i.[  .4 5 Y [ s = v.+ -.G.G.G.G.G.G.G.G.G.G.G.",
"G.G.G.G.G.G.G.G.G.G.%.o d [ e.^ 1.^ } ] Q T R 1.t d ~ } | l.*.= 5 w 5 = L.4 m G.G.G.G.G.G.G.G.G.G.G.",
"G.G.G.G.G.G.G.G.G.G.u . Y | e.F >.[ ' 4 d [ u.N Y H.x.j.l.M.b.} - * ,  .B.X.@ Z.G.G.G.G.G.G.G.G.G.G.",
"G.G.G.G.G.G.G.G.G.&.+ + P  .i.<.3.[ 3 *.T | w.5 k.P.N.M.b.b.b.b.b.b.M.b.M.K.- m G.G.G.G.G.G.G.G.G.G.",
"G.G.G.G.G.G.G.G.G.v & r K | t.G ! Q  .j.k [ 7.f T M.b.b.b.j.l.M.b.b.b.b.b.H.X.O %.G.G.G.G.G.G.G.G.G.",
"G.G.G.G.G.G.G.G.C.@ t a w *. .[ ~ P ~ W 5 [ 3.z w x.*.*.b.x.M.M.b.b.b.b.b.B.R.I @ -.G.G.G.G.G.G.G.G.",
"G.G.G.G.G.G.G.G.%.X 5 S r 3 3 3 T | Q Y T | 7.R 3 j.j.l.b.b.b.z.H.b.M.b.L.P.R.Y.3 b G.G.G.G.G.G.G.G.",
"G.G.G.G.G.G.G.G.+.o 0 W t.( ~ s O L Y Y [ / ) [ 3 T M.b.b.b.M.z.L.b.b.b.b.b.R.Q.` 8 F.G.G.G.G.G.G.G.",
"G.G.G.G.G.G.G.G.+.X 3 T ! / z ~ 0 3 [ } ! 5 f ..[ ..b.N.b.b.b.b.b.b.b.l.N.L.E.Q.H q G.G.G.G.G.G.G.G.",
"G.G.G.G.G.G.G.G.V.u X 5 k E ~ } k 4 ] *.4 H h = Q b.b.L.B.b.b.b.b.N.b.b.L.Q.Q.I.* +.G.G.G.G.G.G.G.G.",
"G.G.G.G.G.G.G.G.G.O.o 4 x 9.[ | } 4 [ Y + ] ;.} 1 4 h.N.b.b.b.B.J.H.B.b.E.Q.!.I > Z.G.G.G.G.G.G.G.G.",
"G.G.G.G.G.G.G.G.F.i : 4 A 8.| *.] d [ k + O 7 W ..K + P b.b.b.b.b.b.l. .` 6 w O +.G.G.G.G.G.G.G.G.G.",
"G.G.G.G.G.G.G.G.D.8 0 4 S ^ ! *.L Y } Y d k w * 4 ] o.w ; ! b.I w ; = 3 K o.- o V.G.G.G.G.G.G.G.G.G.",
"G.G.G.G.G.G.G.G.D.8 s x s [ Q l.*.3 [ k O + s T s * w  .] *  .  L o... .W j * o A.G.G.G.G.G.G.G.G.G.",
"G.G.G.G.G.G.G.G.G.m O c Q } } ^ j.w T d - n.j X 7 L 7 o 7 + *.O s 7 * . - g 4 @ F.G.G.G.G.G.G.G.G.G.",
"G.G.G.G.G.G.G.G.G.A.q O X + S G [ K [ k , !.~.U.U + 3 k 1 ; l.P ; g ` { ` H + 8 G.G.G.G.G.G.G.G.G.G.",
"G.G.G.G.G.G.G.G.G.G.F.a.+.o D 5 x s } s = ^.(.^.~.T.X.; ; Q b.] 3 ; = 3 K ;   M G.G.G.G.G.G.G.G.G.G.",
"G.G.G.G.G.G.G.G.G.G.G.F.&.X F W c  .j.E # c._._.)./.~.K.+  .b.o.* K.R.!.W.; o C.G.G.G.G.G.G.G.G.G.G.",
"G.G.G.G.G.G.G.G.G.G.G.G.@.# 2.*.[ } e.1.1 X c.).`.`.Q., j b.b.h.+ Y.(.).m.. M F.G.G.G.G.G.G.G.G.G.G.",
"G.G.G.G.G.G.G.G.G.G.G.G.n # ,.] L _ 9.s 5 = + * h r X h l.b.b.x.w U /.I.* m F.F.G.G.G.G.G.G.G.G.G.G.",
"G.G.G.G.G.G.G.G.G.G.G.F.u 1 G c 0 E <.w ! w T Q K x | h. .b.b.b.;.; + ; . +.G.G.G.G.G.G.G.G.G.G.G.G.",
"G.G.G.G.G.G.G.G.G.G.G.G.@.O 5 T s f E j d j L T W - 5 x.x.b.b.b.H * U I.+ =.G.G.G.G.G.G.G.G.G.G.G.G.",
"G.G.G.G.G.G.G.G.G.G.G.G.F.@.+ + 7 k T | T j h 7 . 1 + L ] ] ] Q + 3 = ;.O =.G.G.G.G.G.G.G.G.G.G.G.G.",
"G.G.G.G.G.G.G.G.G.G.G.G.G.G.a.p # o Q  .[ } [ s * 7 6 3 6 6 6 3 7 g 7 . @ s.G.G.G.G.G.G.G.G.G.G.G.G.",
"G.G.G.G.G.G.G.G.G.G.G.G.G.G.G.p.p . 6 Q P x K d 1 ] W T U T T U T T J . > Z.F.G.G.G.G.G.G.G.G.G.G.G.",
"G.G.G.G.G.G.G.G.G.G.G.G.G.G.G.Z.$ X # . X . + * . . X . . .     X . . X q F.G.G.G.G.G.G.G.G.G.G.G.G.",
"G.G.G.G.G.G.G.G.G.G.G.G.G.G.G.v e F ) 7 3 Q s + . . . . , 7 X . @ 9 q v s.G.G.G.G.G.G.G.G.G.G.G.G.G.",
"G.G.G.G.G.G.G.G.G.G.G.G.G.G.G.$ :.( } b.6 j b.j.j.[ J ] B.Q.7 = m G.F.G.G.G.G.G.G.G.G.G.G.G.G.G.G.G.",
"G.G.G.G.G.G.G.G.G.G.G.G.G.G.G.$ Z _ ..*.n.; j.b.b.b.b.b.b.R.w w q G.G.G.G.G.G.G.G.G.G.G.G.G.G.G.G.G.",
"G.G.G.G.G.G.G.G.G.G.G.G.G.G.F.@ l 4.j.l.H.6 d j.b.b.N.B.H.Q.H + b F.G.G.G.G.G.G.G.G.G.G.G.G.G.G.G.G.",
"G.G.G.G.G.G.G.G.G.G.G.G.G.G.D.$ y ^ *.b.J.{ . P b.b.N.B.E.Q.K.' 8 D.F.G.G.G.G.G.G.G.G.G.G.G.G.G.G.G.",
"G.G.G.G.G.G.G.G.G.G.G.G.G.G.G.u = W } s 5 X . * l.b.J.b.U.Q.E.m.8 F.G.G.G.G.G.G.G.G.G.G.G.G.G.G.G.G.",
"G.G.G.G.G.G.G.G.G.G.G.G.G.F.f.C + s 1 * 3 k.c.*  .b.M.N.Y.L.Q.` v G.G.G.G.G.G.G.G.G.G.G.G.G.G.G.G.G.",
"G.G.G.G.G.G.G.G.G.G.G.G.G.G.d.t + # y } l.U.R.; Y M.M.l.H.J.v.X %.G.G.G.G.G.G.G.G.G.G.G.G.G.G.G.G.G.",
"G.G.G.G.G.G.G.G.G.G.G.G.G.G.a.+ a + F }  .j.l.K 7 b.b.k.b.B.7 O =.F.G.G.G.G.G.G.G.G.G.G.G.G.G.G.G.G.",
"G.G.G.G.G.G.G.G.G.G.G.G.G.G.V.X V < = h x x 6 +  .l.b.b.b.J.= O C.F.G.G.G.G.G.G.G.G.G.G.G.G.G.G.G.G.",
"G.G.G.G.G.G.G.G.G.G.G.G.G.G.D.o + . . + . O s h.j.l.M.l.B.Y.7 - m F.G.G.G.G.G.G.G.G.G.G.G.G.G.G.G.G.",
"G.G.G.G.G.G.G.G.G.G.G.G.G.G.G.b o 4 ; o O - - g @ , w w h g . { = =.F.G.G.G.G.G.G.G.G.G.G.G.G.G.G.G.",
"G.G.G.G.G.G.G.G.G.G.G.G.G.G.G.#.= L [ ' l.b.;.X -.b = k k j [ l.T > C.G.G.G.G.G.G.G.G.G.G.G.G.G.G.G.",
"G.G.G.G.G.G.G.G.G.G.G.G.G.G.G.%.O 3 L } b.l.o.8 F.s.@ K } [ [ k = 8 Z.G.G.G.G.G.G.G.G.G.G.G.G.G.G.G.",
"G.G.G.G.G.G.G.G.G.G.G.G.G.G.G.G.&.v 2 $ 4 k K $ G.G.2 0 s @ $ b =.F.G.G.G.G.G.G.G.G.G.G.G.G.G.G.G.G.",
"G.G.G.G.G.G.G.G.G.G.G.G.G.G.G.G.G.G.D.s.@.v 8 b G.G.M $ i %.A.G.F.F.G.G.G.G.G.G.G.G.G.G.G.G.G.G.G.G."
};
