/* XPM */
static char *result[] = {
/* columns rows colors chars-per-pixel */
"50 50 105 2 ",
"   c #D9974C",
".  c #403D30",
"X  c #201E1A",
"o  c #23211B",
"O  c #2B2922",
"+  c #736E53",
"@  c #1B1A17",
"#  c #D8964B",
"$  c #9E9672",
"%  c #767055",
"&  c #27251E",
"*  c #9F9773",
"=  c #D8974C",
"-  c #5A5642",
";  c #2D2C24",
":  c #2A271F",
">  c #625E48",
",  c #312F27",
"<  c #25231D",
"1  c #706B51",
"2  c #7C765B",
"3  c #9C9572",
"4  c #5E5A46",
"5  c #504D3C",
"6  c #69654E",
"7  c #434134",
"8  c #363329",
"9  c #65614C",
"0  c #D6954B",
"q  c #3A2E1F",
"w  c #4D4939",
"e  c #787355",
"r  c #827C60",
"t  c #C48946",
"y  c #3C3A2E",
"u  c #39372C",
"i  c #A29B76",
"p  c #D3934A",
"a  c #707B39",
"s  c #868063",
"d  c #CC8F48",
"f  c #474332",
"g  c #98916F",
"h  c #C4C0A0",
"j  c #908968",
"k  c #BBB795",
"l  c #494637",
"z  c #748436",
"x  c #A7A384",
"c  c #938D6D",
"v  c #574128",
"b  c #8D6536",
"n  c #787B49",
"m  c #6D743F",
"M  c #6D684E",
"N  c #4E3B25",
"B  c #49492B",
"V  c #84963A",
"C  c #AEA886",
"Z  c #555140",
"A  c #565441",
"S  c #BC8443",
"D  c #CF9349",
"F  c #62492B",
"G  c #8D8667",
"H  c #808841",
"J  c #B2AD8D",
"K  c #A69F7D",
"L  c #A5753D",
"P  c #9C6E3A",
"I  c #687233",
"U  c #809037",
"Y  c #414725",
"T  c #453522",
"R  c #7C5932",
"E  c #B48141",
"W  c #6C6D47",
"Q  c #76735E",
"!  c #DEDDB1",
"~  c #AD7A3F",
"^  c #B59144",
"/  c #694D2C",
"(  c #B27D41",
")  c #65663A",
"_  c #8FA339",
"`  c #676646",
"'  c #7B8247",
"]  c #889C39",
"[  c #7C7A54",
"{  c #4D522E",
"}  c #D3D2A9",
"|  c #6D502E",
" . c #966B39",
".. c #A88B42",
"X. c #595C37",
"o. c #5E6C2A",
"O. c #A1943E",
"+. c #F3F2C2",
"@. c #EAE9BB",
"#. c #A6A53B",
"$. c #556027",
"%. c #CDCCA3",
"&. c #CD9749",
"*. c #B88D46",
"=. c #401E1B",
/* pixels */
"                                                          = D 0                                     ",
"                                                      #   = ^ ^ =                                   ",
"                                      = # # # #     p ^ D = #.H 0                                   ",
"                                    # S | F b d #   # O.H ..#.z *.D = #                             ",
"                                  # E q O 8 < :  .d t E ] z ] U ..O.&.^ =                           ",
"                            # # # ~ X , - % z $.& & < o o Y z V O.U _ ..#                           ",
"                          0 b P b : u 1 6 % Z { a I a z z ; X ; B U U D                             ",
"                        p F o < & f + % % 6 7 . % [ _ e ) n o.f X ) d                               ",
"                      #  .@ Z 1 + % % % % 1 . 4 3 c H e 1 + z H 8 N p =                             ",
"                      p q . ; 1 % % - 9 % [ 4 5 % > ` e % % m V ` o / d #                           ",
"                    # L : 2 : M % Z , 6 % ] ' l w 7 f e H 1 m V I ) < v d =                         ",
"                    0 N 4 Q O w f 8 5 j % [ M - m [ l + + % m V m V 6 & F #                         ",
"                  = ( X 3 g y : O w g 3 s r j r . V + M u 6 % a a ] % w @ ( =                       ",
"                  p v 7 C $ 3 G j $ $ $ $ $ i k 4 a ' % - y 1 ' U V e w @ F #                       ",
"                # b < x 3 $ $ $ $ $ g G $ $ $ 3 f a n 4 % s > W a n % f Y o S #                     ",
"              # L X s k i * $ $ $ * $ 3 * s s j u z e l w % A + + 2 r y I : R #                     ",
"              0 N 5 h J k i * $ K i $ $ $ j j 1 . n H 6 4 6 % > . 7 y B X.: N #                     ",
"              p q Q h C $ $ $ $ K i * * $ $ * u 5 % n e 6 4 > & f ` a ' A , q #                     ",
"              # v 5 h h J g 3 $ $ $ $ $ * i $ G s - & B e e y . + > m 9 5 : q #                     ",
"              = P o x h h K * x i * $ * i C $ % , l 2 < 6 e 8 > % m n f O & L =                     ",
"                # T 4 g x C i * x K $ $ $ j 7 O 1 r > , 8 % y 1 2 + _ f u < t                       ",
"                # P @ , y , y - % s $ c > ; 4 2 Z ; O u 5 + > > 2 + U X.. X ~ #                     ",
"                # ( @ w r r % 9 . X r ; 5 s 4 : , > w : 5 + Z > j 9 W 7 5 o P #                     ",
"                # E @ , : O . - 6 o r & 9 , O { 5 O 7 , u 1 , G [ % 1 4 > X ~ #                     ",
"                  t o 7 4 6 > 7 & . c & O l y < A x %.> y 1 w 2 m ` u , X v p                       ",
"                  p T @ u , O u l 6 3 6 u O 9 k } } @.- , + f - B $.X | P 0 =                       ",
"                  # b @ Q %.k x 7 6 $ + o k } ! @.+.! O A r e 5 - o.o p #                           ",
"                    D q u ! @.! ; % $ 3 . A ! +.+.} l < a _ e % s z X t #                           ",
"                      t q A k Q , c $ $ s . ; 5 7 : ; , 7 V n 4 + z X L =                           ",
"                      p T 7 , , 2 $ $ $ 2 j 2 - 1 M 5 > A m W . - I o b #                           ",
"                      0 N 2 c & O c * * $ 2 & O - w f l l W B l - ; q t                             ",
"                      # F . O X @ 8 y . . O & @ O - > 6 2 M l O @ v t #                             ",
"                      # R @ . r + 9 6 6 6 > > 9 & M 1 9 + > @ Y a p #                               ",
"                      #  .@ X O O O O ; ; , 8 8 < . u . . < @ f d                                   ",
"                        t q o o X @ @ @ @ X o @ @ @ o & o - Y & ~                                   ",
"                          p S E b X ; K e u 8 w - % + ; Q e a o.v #                                 ",
"                              # b O u k * g g $ $ 3 f r G 2 n I v #                                 ",
"                              # P o 7 h i i * $ 3 Z ; C c r H Y N 0                                 ",
"                              # R 7 c h k i * $ + @ - C $ 2 a 8 B 0                                 ",
"                              # | r h h J * x c ; ; < ; 7 + 4 X | #                                 ",
"                              # b Z h J k $ * j & J x 5 , 8 u : I D                                 ",
"                                d q s C K g $ 4 w k x j + { @ B B t =                               ",
"                                # F ; i $ c $ + O 6 % 1 W Y y ) & t                                 ",
"                              # ( & < J 3 g 3 g 9 < o O < @ , { & d                                 ",
"                            = d N 9 O x 3 s G 1 M s u X O o ; @ q 0                                 ",
"                            d T Z G o < & & X N T < Z 4 y w 4 ; / #                                 ",
"                            d v 8 6 2 M + f T 0 E ; J 3 g + 5 O | #                                 ",
"                              p L v & . - O L # 0 q 2 M w : q R D                                   ",
"                                # # t / : : S # p O & q R S # #                                     ",
"                                    # = t t #   = S S p # #                                         "
};
