/* XPM */
static char *result[] = {
/* columns rows colors chars-per-pixel */
"50 50 114 2 ",
"   c #D9974C",
".  c #211F1A",
"X  c #1A1816",
"o  c #353328",
"O  c #D8964C",
"+  c #1E1C18",
"@  c #24221C",
"#  c #9E9672",
"$  c #D8964B",
"%  c #757054",
"&  c #524E3D",
"*  c #2A2821",
"=  c #9F9773",
"-  c #736D53",
";  c #777256",
":  c #9C9471",
">  c #3E3B2F",
",  c #29251E",
"<  c #706A51",
"1  c #39362C",
"2  c #4A4738",
"3  c #7B755A",
"4  c #68644E",
"5  c #434033",
"6  c #2E2D24",
"7  c #D2934A",
"8  c #5B5743",
"9  c #413E31",
"0  c #888263",
"q  c #615C47",
"w  c #3B392E",
"e  c #313026",
"r  c #98916F",
"t  c #D6954B",
"y  c #807A5C",
"u  c #4E4A3B",
"i  c #66614B",
"p  c #928B6A",
"a  c #6C674E",
"s  c #B0AB8A",
"d  c #635F47",
"f  c #585442",
"g  c #5E5A46",
"h  c #83933A",
"j  c #A39C7A",
"k  c #6E7541",
"l  c #464335",
"z  c #413321",
"x  c #B98343",
"c  c #936938",
"v  c #C4C1A0",
"b  c #8E8666",
"n  c #55513F",
"m  c #31291E",
"M  c #636B31",
"N  c #C98C47",
"B  c #C18745",
"V  c #AAA585",
"C  c #AE7A40",
"Z  c #BBB896",
"A  c #6A6E40",
"S  c #392D1F",
"D  c #684C2C",
"F  c #768635",
"G  c #A29A76",
"H  c #6E6C4C",
"J  c #71522E",
"K  c #B6B190",
"L  c #73744A",
"P  c #474B29",
"I  c #533E26",
"U  c #8A6336",
"Y  c #A4743D",
"T  c #594328",
"R  c #62482B",
"E  c #6A7635",
"W  c #C1BD9C",
"Q  c #7A7B4D",
"!  c #87993A",
"~  c #808845",
"^  c #8CA13A",
"/  c #C98F47",
"(  c #7E8E3B",
")  c #A7A07E",
"_  c #3D4223",
"`  c #8D8B73",
"'  c #7C8B3A",
"]  c #C8C6A2",
"[  c #847D60",
"{  c #E9E8BA",
"}  c #7E7A63",
"|  c #F6F5C5",
" . c #9E703B",
".. c #D5D4AA",
"X. c #58612E",
"o. c #A99041",
"O. c #3C3D27",
"+. c #6F7D36",
"@. c #7A5831",
"#. c #4E522D",
"$. c #505929",
"%. c #798341",
"&. c #B89244",
"*. c #9AA438",
"=. c #4B3924",
"-. c #9D9C66",
";. c #AB8A42",
":. c #46462F",
">. c #D1D0A7",
",. c #DBDAAF",
"<. c #805D33",
"1. c #98893F",
"2. c #847F3D",
"3. c #765630",
/* pixels */
"                                      O x @.D c N $ O   / ! 2.&.*.+./ 7   t O                       ",
"                                    O C S , e @ S U N 7 x h h F ^ ( o.o.t o.O                       ",
"                              $   $  .@ * 8 % F $.. , S @ + o M ( h *.' *.1.$                       ",
"                          O 7 B 7 C , o 4 g % d X.F X.P M F O.+ o P M h h &.O                       ",
"                        O N z + m + e < % % - & 1 f 3 h ~ A F M _ * X M o.$                         ",
"                        7 T @ n u g - % % % 4 9 2 0 : ~ ( a d L ( L @ R t                           ",
"                      $ Y . @ < % % % < - % % n u p b ; k % % L F ~ & . c $                         ",
"                      7 I 2 e 2 ; % 4 w i % h Q 9 8 w 9 a y ; % E ! k 9 . U t                       ",
"                    $ x . ` * l - d > 1 3 % h ~ d f q u 8 Q L - k ! E ~ 2 + @.t                     ",
"                    $ J 1 s * w 5 w * 3 p ; ; - 2 P ' i q 4 < % k ( k ^ % 2 + Y O                   ",
"                  $ N , ; ) 3 6 @ 6 ; # # p 0 r V g X.h % l 1 4 % F +.^ ; g X T O                   ",
"                  $ J * V # # = r = # # # # # = K b 9 ^ % d y o H %.' ! ; g . @ C O                 ",
"                O  .+ 3 ) # # # # # # p b # : : # q P h - & b 3 4 H E Q ; n _ e R t                 ",
"              O x m f W j G # = = = = # : # 0 y : 5 X.%.< > d < 8 % % 3 y 5 $.P , B                 ",
"              $ D o Z Z K s # = # ) -.# # # p 0 b o a h Q d q a ; q 1 o o _ M w + Y $               ",
"              7 z 4 v Z = = # # = s -.# # # # = q o - L L % g q 8 @ 5 H k ( 4 > . U $               ",
"              t T & v W s = r # # # # = # # = # y - 3 2 _ a % - o w < d L H q 1 . U $               ",
"              $ c @ s v v s : = j # # = # j K : : a * 2 u 1 y < o n % H A & w + I B O               ",
"                / S f ] v W # ) ) s j # # # G 0 w e % [ < @ g - o 3 ; % ! n w . <.$                 ",
"                O U + 9 w 4 3 b : = # # # r 8 . n y i > . @ & ; 2 < y % ( A w 6 T $                 ",
"                $ B . * } n 1 * 6 9 8 r H 6 5 } < w @ 9 & u g ; g 8 y a k M 1 > z 7                 ",
"                  / . @ & 4 ; y 3 f X ; @ < 3 9 @ l q l @ @ & - o y p 4 - l n 5 z 7                 ",
"                  7 @ 1 l * . , > l @ [ @ > . w 8 > . & r * u i > 0 k % - a f . J $                 ",
"                  $ z @ 2 i - 4 2 6 8 p 6 e & o @ g K >.] e u < f - A A @ + + I N                   ",
"                  O @.X 6 n 1 * e 1 < : 4 6 e ; Z >...{ ..* l % l & > E + U x t                     ",
"                  $ B + 6 v ] Z j * } # 3 . V >.,.{ | | ` * A 0 3 f d +.. C $                       ",
"                    $ @.X = { { Z , 0 # : u o ] | | { ` . e ' ^ ; % [ h , c $                       ",
"                      7 J @ s ,.g 9 r # # p l + 9 2 @ @ * w 5 ^ Q 8 < ' 6 J O                       ",
"                      O c + 6 , 6 [ # # # y 0 ; n n 4 d 5 a 9 %.A 9 f k o I t                       ",
"                      O  .@ K q , u # # # r r > * i q f u 2 u A :.l q 9 . c $                       ",
"                        C . } * o . 4 a < < 8 . o + 9 2 u q % d & > @ @ c t                         ",
"                      O x , + > l > 1 1 1 1 o 1 w , l - - - 3 4 . 6 #.x O                           ",
"                        / m X & i i 8 g q q d i a e 2 f n 8 4 1 X $.;.                              ",
"                        t I X X X X X X X X X . + X , @ + + + * + m N O                             ",
"                          x D I =.m X + > e X X X X . 9 i o > H E _ R $                             ",
"                          O $ $ $ J * w v j a & - b b = u w = ; k F m                               ",
"                                  =.> 5 W = : : # : : b 6 r [ y Q E S $                             ",
"                                O D @ u v V j G = # 0 l w V r 0 ~ #., 7                             ",
"                                7 z 4 V v W j = # = 8 X - s = y k :.6 7                             ",
"                                t z : v v K # s # p , X . w l % i * T $                             ",
"                                O R 4 v s Z = # # 3 , ` 0 1 , e 5 @ M &.t                           ",
"                                O  .+ ` V V r # # q 6 W K p - P * @ P ;.t                           ",
"                                O Y + > j # b # : > n p 0 3 % +.@ #.. x $                           ",
"                                O N . * s = : # r 3 . > & & 2 * e M . B $                           ",
"                                O J * w Z j p # r 0 0 l . X . X + @ . 7 O                           ",
"                              O C m % X l 2 > 5 e , 5 * * . . 6 1 + D O                             ",
"                            O B m i r < 2 n & * D C + 0 : p a < f , c $                             ",
"                              N =.* & < - % n , x $ z } r # ; f o . Y O                             ",
"                                7 Y D S * 5 > z $ $ z n u 1 m S R C $                               ",
"                                  O O /  .T S 3.O $ D z R c x 7 O                                   "
};
