/* XPM */
static char *result[] = {
/* columns rows colors chars-per-pixel */
"50 50 110 2 ",
"   c #D9974C",
".  c #1A1917",
"X  c #28251E",
"o  c #9F9773",
"O  c #1D1C19",
"+  c #201F1A",
"@  c #292821",
"#  c #9E9672",
"$  c #D8964B",
"%  c #767055",
"&  c #36332A",
"*  c #645F49",
"=  c #D5944A",
"-  c #6D674F",
";  c #333128",
":  c #716B51",
">  c #5D5945",
",  c #302F25",
"<  c #736E54",
"1  c #39372D",
"2  c #2E2921",
"3  c #9B9472",
"4  c #756F54",
"5  c #605C47",
"6  c #68634B",
"7  c #454234",
"8  c #413E32",
"9  c #4A4637",
"0  c #2D2C24",
"q  c #7A7458",
"w  c #3C3A2E",
"e  c #24211C",
"r  c #98916F",
"t  c #948D6C",
"y  c #8F896A",
"u  c #AEA887",
"i  c #514D3D",
"p  c #3E3C2C",
"a  c #4D493A",
"s  c #595543",
"d  c #8B8564",
"f  c #A59D7A",
"g  c #CB8D47",
"h  c #543F27",
"j  c #A29B76",
"k  c #C4C1A0",
"l  c #474437",
"z  c #847D5F",
"x  c #829638",
"c  c #7E8E3A",
"v  c #77823C",
"b  c #392D1F",
"n  c #4E4B39",
"m  c #976C39",
"M  c #A7A283",
"N  c #7E785C",
"B  c #53503F",
"V  c #BFBB9B",
"C  c #717D37",
"Z  c #6C4F2D",
"A  c #6C723F",
"S  c #77774F",
"D  c #A6753D",
"F  c #423322",
"G  c #C48946",
"H  c #60472A",
"J  c #72714D",
"K  c #57533F",
"L  c #D09249",
"P  c #878163",
"I  c #32361F",
"U  c #4B3A24",
"Y  c #6E773E",
"T  c #B9B493",
"R  c #75725D",
"E  c #B2AE8D",
"W  c #817A5D",
"Q  c #6C6956",
"!  c #BA8343",
"~  c #8FA637",
"^  c #788838",
"/  c #785831",
"(  c #F4F3C2",
")  c #858945",
"_  c #56612B",
"`  c #8A9B3B",
"'  c #7C7E4C",
"]  c #515928",
"[  c #D2D1A7",
"{  c #E2E1B4",
"}  c #AF8D44",
"|  c #BC9145",
" . c #A5A13C",
".. c #626341",
"X. c #5F6733",
"o. c #7B7864",
"O. c #616D2E",
"+. c #8B6436",
"@. c #886135",
"#. c #755530",
"$. c #494F29",
"%. c #6A6947",
"&. c #9F9B81",
"*. c #90923B",
"=. c #A48B41",
"-. c #535635",
";. c #B17C40",
":. c #D7D6AC",
">. c #C9C8A0",
",. c #A3A26E",
/* pixels */
"                                      $ = ;.F O O 2 +.= $   L ` ) L  .c }                           ",
"                              $ $ $ $ $ Z + X > ..$.O h ! $ =  .x v ~ ^ =.|                         ",
"                              G Z +.D H O l 5 > 4 v C X O 2 e X _ ^ x x =.*.= | =                   ",
"                          $ ! 2 e + O X i % 4 4 % 9 $.v _ $.] ] + p C c  .c  .*.=                   ",
"                          g F O 6 6 * : % % % < s 1 p : S ~ S ^ C , + , ] x x } $                   ",
"                        $ #.@ 0 n % % % < < % % > 1 % 3 d ` S 5 %.v _ & . C } $                     ",
"                      $ ! e R & 8 % % - 7 B q S S 8 q d W Y J < 4 Y x 6 . m $                       ",
"                      = H & M X 8 : 5 p 2 % 4 ) ` n 9 8 p 5 q % % A x S 0 F g $                     ",
"                    $ D + P f , & 1 & 0 % y 4 ' ' - > 6 n n q ) - A c C ..+ h g $                   ",
"                  $ g b l u # P 7 ; 8 q # 3 W q q i p ^ 6 B 4 % < A x A ` s + Z =                   ",
"                $ g U @ M j # # # r 3 # # # # r j T * _ ) 4 i 9 % J v Y ~ q i + D $                 ",
"                g U X &.u t # o o # # # P 3 # # o u % $.x % i s a % v C ~ S - e h =                 ",
"              $ / e M k u T o o # # o # r # # t # o w X.c : * t 7 : v c ` q * O X L $               ",
"              = F > k V f u # o # f j # # # r % d W , Y S > l P < - %.v S % s , + m $               ",
"              = U > k V f # # # # u ,.o o # # y 3 l 9 v ) * 7 : - 6 J 4 q N 7 _ I h $               ",
"              $ Z & V k V f r # # # # # # # # # N @ 5 J v % 6 s : - n w a 7 I X.; X =               ",
"              $ D + &.k k E # o f # # o # o f # t 4 z 6 -.S : * - 0 0 K ..X.C > , O g $             ",
"                L b i o.M T j j u u j # # j E # # % & + , w q % 9 ; > * %.c 4 9 & O g $             ",
"                $ H . ; X & 5 d 3 j o # # # r : , @ > y N e < % & n : J ..> K 7 e X =               ",
"                $ H . - y Q 7 @ & s d # y * 0 & * N : K p O i % ; % q < x 6 1 + F D $               ",
"                $ U + e ; B < z Q X a * @ l 4 N > & e 0 w 8 > % n 6 z % c A 1 @ h =                 ",
"                $ h 0 Q 5 1 e & s @ * p i R 9 X @ a * i & 8 * % B 5 N : Y v 1 ; F =                 ",
"                $ Z . . @ B Q s X ; d 1 + O & s K & O @ 1 @ > 6 0 y y * J 9 p w F =                 ",
"                  m . 1 r B X 2 l - r 6 l a & + & Q u [ d @ 6 w - z J % : K 6 , h =                 ",
"                $ g e @ >.[ k 3 + Q o : O 8 o.E [ [ :.{ R @ - > 6 J A * 7 9 ; + D $                 ",
"                  $ @.+ M ( { E + z # y e 3 [ :.{ ( ( { 1 w 4 K n a X.I e b h m =                   ",
"                    = U , E >.8 l r # # 5 @ V ( ( ( { 5 2 A d z * 9 Y I H g = $                     ",
"                    $ b & @ e 8 y # # 3 W a + B < s X O X Y ~ q % z c I Z $                         ",
"                      2 R &.; & t # # r q t < l 8 9 n ; n 8 ~ S 5 : x I H $                         ",
"                    $ 2 s a 2 X 5 r 3 # # < 0 8 P % - B % 8 ^ %.7 5 C I h $                         ",
"                    $ b O ; 8 @ X , 1 9 s @ 1 + 2 ; ; 1 w * O.8 p 5 -.e H $                         ",
"                    $ b . 9 % q < < Q 5 i 8 & @ @ * - - q - 5 i l & O h G $                         ",
"                    $ h . . . O e @ ; 8 i * < > , : : * : q 7 . + F m L $                           ",
"                    $ ! h 2 + O . . . . . . . O @ & & B > & . . / = $                               ",
"                        $ = G Z O e 6 8 O O . . . . O + . w ] O.@ m $                               ",
"                          $ G X 9 , V f - 7 B > > 4 P N X < A c O.U L                               ",
"                          $ m & t & V j 3 t # o # # r s ; t q J ^ e m $                             ",
"                          G b o.Q 8 k M o o # # t q 9 X * y d % c p U L                             ",
"                          m 1 w & o.k V f f # # t % - B l j # z A n b | | $                         ",
"                        $ #.l 0 3 k k V j M o # # z N 4 1 T o W 4 K e O.}                           ",
"                      $ ;.2 @ + R k T E o f o # 3 3 z w X R n @ w 2 O +.$                           ",
"                      $ / 9 q 0 @ u u T j # # # 3 # 3 ; . X 1 w 9 ] @ D $                           ",
"                        / O 0 O ; B M o P o # # r t # 1 a M u t % C @ ! $                           ",
"                      $ @.1 5 4 < @ f # # # r d # # 3 K 0 E u z < n X G $                           ",
"                        G b , 8 9 1 T # y # 3 # # 3 < 7 @ y q * w X @.=                             ",
"                          G m Z b ; y y N z : n q - & X O e 2 X + +.=                               ",
"                          $ $ $ / , 0 2 0 @ + X e @ 9 w 2 + #.! D g                                 ",
"                              $ #.* M W 4 : 2 > W t y 4 6 2 +.$ $                                   ",
"                              $ H * # d % 6 . i * d W < 5 & Z $                                     ",
"                            $ g + 5 * n 1 , O e b X X 2 ; X /                                       "
};
