/* XPM */
static char *cd5e8cba134e4272ac7e77f2aa1f6f3eQRP1IwSzCwhbpccL[] = {
/* columns rows colors chars-per-pixel */
"50 50 133 2 ",
"   c None",
".  c #041204",
"X  c #0C1404",
"o  c #121504",
"O  c #1B1704",
"+  c #1F1804",
"@  c #281204",
"#  c #241904",
"$  c #2D1C05",
"%  c #361204",
"&  c #391705",
"*  c #321E05",
"=  c #3B1C05",
"-  c #362005",
";  c #3D2206",
":  c #421D07",
">  c #422506",
",  c #472807",
"<  c #492B07",
"1  c #472608",
"2  c #4E2609",
"3  c #472908",
"4  c #4C2B09",
"5  c #522E0A",
"6  c #4D3209",
"7  c #5C3D06",
"8  c #55320B",
"9  c #59360B",
"0  c #553C0A",
"q  c #5C3B0C",
"w  c #603F0D",
"e  c #5D410C",
"r  c #64440D",
"t  c #68470D",
"y  c #66490D",
"u  c #6C4C0E",
"i  c #6A4A0E",
"p  c #6A520F",
"a  c #6E510E",
"s  c #6D520E",
"d  c #6D500E",
"f  c #70590E",
"g  c #745F0E",
"h  c #674B10",
"j  c #6E5211",
"k  c #705210",
"l  c #705310",
"z  c #715310",
"x  c #725210",
"c  c #735511",
"v  c #735611",
"b  c #705612",
"n  c #745611",
"m  c #745711",
"M  c #755711",
"N  c #765711",
"B  c #725511",
"V  c #715910",
"C  c #735B10",
"Z  c #745811",
"A  c #755811",
"S  c #775C13",
"D  c #765C13",
"F  c #785E13",
"G  c #795F13",
"H  c #7B5C17",
"J  c #795E13",
"K  c #7B551B",
"L  c #71620A",
"P  c #796013",
"I  c #7B6114",
"U  c #7C6314",
"Y  c #7E6615",
"T  c #7C6314",
"R  c #7B6811",
"E  c #7B6812",
"W  c #7D6912",
"Q  c #7E6814",
"!  c #826B16",
"~  c #846A16",
"^  c #846B16",
"/  c #856B16",
"(  c #836C17",
")  c #856C16",
"_  c #856C17",
"`  c #846D17",
"'  c #866C17",
"]  c #866D17",
"[  c #876E17",
"{  c #826B16",
"}  c #816119",
"|  c #806218",
" . c #84641A",
".. c #856A18",
"X. c #8A6D1C",
"o. c #8A7019",
"O. c #8C701A",
"+. c #91731F",
"@. c #92731F",
"#. c #90701E",
"$. c #895E21",
"%. c #8F6621",
"&. c #946C23",
"*. c #9B6F26",
"=. c #937320",
"-. c #9C7225",
";. c #9C7026",
":. c #9C7027",
">. c #9A7623",
",. c #9F7826",
"<. c #9F7128",
"1. c #A07927",
"2. c #A07228",
"3. c #A27329",
"4. c #A5752A",
"5. c #A17229",
"6. c #A57B29",
"7. c #AB7E2C",
"8. c #B1822F",
"9. c #B78531",
"0. c #B98731",
"q. c #B98633",
"w. c #BD8934",
"e. c #BE8934",
"r. c #BE8935",
"t. c #BE8935",
"y. c #C38C37",
"u. c #C38C37",
"i. c #C78E38",
"p. c #C68D38",
"a. c #C88F39",
"s. c #C88F39",
"d. c #CA9039",
/* pixels */
"                                                                                                    ",
"                                                                                                    ",
"O.o.~ x N ] ] ] ] ] ] ~ ~ ~ ~ ~ ~ ~ ~ ~ ~ ~ ~ ~ ~ ~ ~ ~ ] ] ] ] ] ] ] ] ] ] ] ] ] ] ] ] ~ ] P 6 @ o ",
"0.-.a u u c c c c N x t r r r t t t t t t t t t t t t t x Z N N N c c c c c c c c c N u e e 0 , $ o ",
"a.2.r t i t t t t i t 9 8 9 9 8 2 2 2 5 5 5 5 5 5 5 2 5 q r w w r t t t t t t t t t i q : % & > * o ",
"y.2.r t i i i i i i i i i i i r 8 8 8 8 8 8 8 8 8 8 8 8 8 8 8 8 q i i i i i i i i i u t 8 3 ; > $ o ",
"y.2.r t i i i i i i i i i i i i r t q 8 2 4 8 8 8 8 8 8 8 8 8 8 8 q t i i i i i i i u t 8 5 2 > $ o ",
"y.2.r t i i i i i i i i i i i i u u t 8 > > 8 8 8 8 8 8 8 8 8 8 8 5 r u i i i i i i u r 8 8 8 > $ o ",
"y.2.r y i i i i i i i i i i i i i u r 8 > > 8 8 8 8 8 8 8 8 8 8 8 8 r u i i i i i i u r 8 8 8 > $ o ",
"i.2.r y i i i i i i i i i i i i i i i r 8 4 8 8 8 4 5 8 8 8 8 8 8 8 q r i u i i i i i t r q 5 > $ o ",
"w.*.r i i i i i i i i i i t i i i i i i w 8 8 8 8 > , 8 8 8 8 8 8 8 5 9 t i i i i i i i u w 4 > $ o ",
"+.| t i i i i i i i i i w 9 i u i u i i i r 8 8 8 > ; , 8 8 8 8 8 8 8 8 , q u i i i i u i q 4 > $ o ",
"f a i i i i i i i i i i r q r r r r t i u i w 9 8 4 > ; 5 8 8 8 8 8 8 8 1 6 e i u i i i i q 4 > $ o ",
"i i i i i i i i i i i i i i 9 5 8 5 q i i i u q 5 8 4 > 5 8 8 8 8 8 8 8 8 4 > r i i i i i q 4 > $ o ",
"U Z i i i i i i i i i u t q 8 8 8 8 9 q q w u q > 8 8 5 8 8 8 8 8 8 8 8 8 8 4 4 q u u u u q 5 8 ; X ",
"] F i i i i i i i i i t q 5 8 8 8 8 8 5 5 9 t 8 ; 8 9 8 8 8 8 8 8 4 8 8 8 8 8 = 4 r r r r q 8 9 ; . ",
"{ S i i i i i i i u t 9 8 8 8 8 8 8 8 8 8 8 8 4 > 8 8 8 8 8 8 8 5 > 4 8 8 8 8 > ; > > > > 4 8 8 ; X ",
"E C i i i i i i i r q 8 5 9 r q 5 8 8 8 8 8 8 5 4 4 4 8 8 8 8 8 4 ; > 4 8 8 8 5 4 ; ; ; ; > 4 4 - X ",
"=.| t i i t i i i q 5 8 8 9 t t 9 8 8 8 8 8 8 8 8 > > 8 8 8 8 8 5 , ; > 8 8 8 9 4 > > > > > ; > $ o ",
"w.-.r i r 9 t u i q 5 8 8 8 8 w i q 5 8 8 8 8 8 8 > ; > 8 8 8 8 8 8 , > 8 8 8 8 4 > > > > > > > $ o ",
"d.4.r r q 8 q t i t q 8 8 8 5 9 w r q 8 5 8 8 8 8 4 > ; , 4 8 8 8 8 5 4 4 5 8 8 4 ; > > > > > > $ o ",
"w.-.r 9 5 8 5 9 t u i q 8 8 8 8 9 t t 9 9 9 8 8 8 8 4 > > 4 8 8 8 8 8 8 > 4 8 8 4 > > > > > > > $ o ",
"+.H 8 8 8 8 8 8 9 r i i q 5 5 q t i i t i r 8 5 5 8 8 8 5 8 8 8 8 8 8 8 > ; 4 8 8 5 > ; > > > > $ o ",
"W p 2 5 8 8 8 9 q t i i r q 5 q u i i i u i q q q q q 8 8 8 8 4 4 8 8 8 4 > ; 4 8 8 4 ; > > > > $ o ",
"( c 5 8 8 8 5 q i i i i u i 9 q i i i i i i i i i u r 8 8 8 8 > > 8 8 8 8 4 > ; 4 8 , ; > > > > $ o ",
"E C r 9 5 8 8 9 q r x I Y F t r i i i i i i u u u u r 5 8 8 8 > ; , 5 9 8 8 4 > > , > > > > > > $ o ",
">. .i q 9 8 8 8 5 q u I { { Z u i i i i i i t r t i t q 8 8 8 4 > ; 4 8 8 9 8 4 > ; > > > > > > $ o ",
"u.<.r i r 8 8 8 8 8 q t F { { S i i i i i t 9 5 9 i u i q 5 8 8 5 > ; , 8 8 8 8 4 ; > > > > > > $ o ",
"i.2.r i r 5 8 8 8 8 8 9 i F { { S u t t i r 8 5 8 q t u t q 8 8 8 4 > ; 4 4 4 4 4 4 > > > > > > $ o ",
"y.5.y i r 9 8 8 8 8 8 5 9 i F { { Z u j x u q 8 8 5 q t i r 8 8 8 8 4 > ; ; ; ; 4 8 , ; ; ; > > $ o ",
"u.6.g u t t q 5 8 8 8 8 8 9 t F { { Y Y { I i 9 5 8 9 9 9 9 8 8 8 8 8 5 > ; > > > > > - + ; > > $ o ",
"i.9.,.T i i r q 8 8 8 8 q r t a S { ] ] ] { F u 9 8 5 8 8 5 4 8 8 8 8 8 4 > ; ; ; ; > - X # ; > * o ",
"0.u.w.>.P u u t 9 8 8 8 w i i t i S Y Y Y { { F i q 8 8 8 4 ; 4 8 8 8 8 8 4 > > > > > ; + X # > * o ",
"X.7.i.w.1.g u t t q 5 8 9 q i u i 0 6 0 t S { { F i 9 5 8 4 ; > 4 8 8 8 8 8 5 8 4 > > > ; + + > * o ",
"L +.8.i.w.1. .a i r q 8 5 8 q i i q > % 3 t F { { F i 9 8 5 4 > > 4 8 8 4 8 9 9 4 ; > > > * $ - # o ",
"{ E ..8.u.w.>.g u i t 9 8 8 5 q i u r > = 4 t F { { F i q 8 8 4 ; > 4 8 > 4 8 8 4 > > > > > ; O o O ",
"8.&.a K $.%.X.{ I x t t q 8 8 9 q i i r 3 = 4 q j { { F u q 8 8 4 ; > , > > 4 8 8 4 > > > > ; o X O ",
"a.2.7 > > 7 c { ] I j i q 8 8 8 8 r i u q 3 ; : 9 c { { c w 5 8 8 4 > ; > ; > 8 9 8 , ; > > ; # O o ",
"y.2.r 9 5 9 r N { ] I q 5 8 8 8 8 8 q i u r > 4 8 5 j { c q 5 8 8 8 4 ; > ; > 8 9 8 , ; > > > > $ o ",
"y.2.r 9 5 8 9 e y y e 4 2 8 8 5 4 > 8 q q 8 > > 2 5 q j F I c e 5 8 4 ; > > > , 5 8 5 4 > > > > * o ",
"y.2.r 9 5 8 8 2 & % & ; 4 8 8 4 > ; > 5 > = > ; > 5 2 8 Z ] ] t 2 8 4 ; > > > ; , 8 9 5 > ; > > $ o ",
"y.2.r 9 5 5 8 4 > ; > > > , 8 8 8 > ; > > > > > > > 2 8 9 j ( h 2 8 4 ; > > > > > > 8 8 > > > > * o ",
"y.2.r q q q r q 4 > ; > ; > 4 8 8 5 > $ ; > > > > ; > 4 2 q c i q w 8 > > > > > > > 4 4 > * $ * # o ",
"y.2.r i i i i t 9 4 > > > > ; 4 8 9 3 O * > ; > > > ; > 5 5 5 r u u r 8 > > > > > > > > > $ o o o o ",
"a.2.r y u u r 9 8 8 4 > > > > > 3 3 > ; $ # # ; > > > > > > > 8 r i i r 8 > ; ; ; ; > > > ; * O o o ",
"8.&.r i i r 9 5 8 9 8 > ; > > ; * ; > > # . X # ; - ; > > ; ; 1 8 r t r 9 4 4 4 4 4 > ; > > ; O o o ",
"{ S i i r 8 8 8 8 8 8 > ; > > * o ; > > $ o o o o o $ > > > > > , 8 8 8 8 8 8 8 8 8 , ; > > ; O o o ",
"Q Y F a t r 9 5 8 8 8 > ; > > * . + * > ; * o X o o # $ # * > > > , 3 3 4 4 4 4 4 8 8 4 ; > ; ; # o ",
"{ ] { c i u r 9 8 8 8 4 > > > ; # o # ; > > $ O o o o X . # ; ; ; ; > > > > ; ; , 8 8 8 3 > > > * X ",
"~ ] { z i u u t 9 8 8 8 4 > > > ; # X O ; > > $ o o o o o O O o # > > > > > > > > > 8 9 8 4 > > * o "
};
