/* XPM */
static char *a4f645c5bbc84ed4800d5509db1ace69txUPh4klcq9DoWe7[] = {
/* columns rows colors chars-per-pixel */
"50 50 170 2 ",
"   c #C66F20",
".  c #C87323",
"X  c #CE7929",
"o  c #D27D2D",
"O  c #C88735",
"+  c #CD8B37",
"@  c #C4883F",
"#  c #C98D39",
"$  c #D68333",
"%  c #D68B3A",
"&  c #DB8C3D",
"*  c #CE913D",
"=  c #BC8E40",
"-  c #BE9042",
";  c #C28640",
":  c #C78B42",
">  c #C88C43",
",  c #CD9445",
"<  c #C79A45",
"1  c #CA9C47",
"2  c #CF954B",
"3  c #CD9C4B",
"4  c #D49442",
"5  c #DC9344",
"6  c #D39946",
"7  c #D1964A",
"8  c #D39C4C",
"9  c #DB9C4B",
"0  c #CE9D51",
"q  c #D49E52",
"w  c #D99E51",
"e  c #E0974A",
"r  c #E39C4E",
"t  c #CFA14D",
"y  c #D2A24E",
"u  c #DCA14E",
"i  c #CFA050",
"p  c #D5A453",
"a  c #DBA455",
"s  c #D5A853",
"d  c #DAAA56",
"f  c #D6A659",
"g  c #DBA659",
"h  c #D7A95B",
"j  c #DCAC5C",
"k  c #DEB15D",
"l  c #E3A454",
"z  c #E2AA57",
"x  c #E4A659",
"c  c #E9A759",
"v  c #E2AC5C",
"b  c #E9AE5D",
"n  c #E3B15E",
"m  c #E9B15F",
"M  c #D7AC62",
"N  c #DCAE63",
"B  c #DEB164",
"V  c #DDB46A",
"C  c #DFB86C",
"Z  c #DEB771",
"A  c #DFBA74",
"S  c #E2AE62",
"D  c #E9AE61",
"F  c #E3B364",
"G  c #EAB563",
"H  c #E6B965",
"J  c #EBBA66",
"K  c #E3B76C",
"L  c #E7B76D",
"P  c #E6B66C",
"I  c #E6B76F",
"U  c #E3B66A",
"Y  c #E9B569",
"T  c #E9B56A",
"R  c #E8B76B",
"E  c #EAB66B",
"W  c #E8B66D",
"Q  c #ECB668",
"!  c #E7BA69",
"~  c #E6B86B",
"^  c #E6B86D",
"/  c #E5BA6C",
"(  c #E6BB6C",
")  c #E7B96E",
"_  c #E6BA6F",
"`  c #E5BC6D",
"'  c #E7BC6D",
"]  c #E5BA6B",
"[  c #E9BA68",
"{  c #EBBB69",
"}  c #EABA68",
"|  c #E9BA6A",
" . c #EABB6B",
".. c #ECBD6B",
"X. c #E8B86C",
"o. c #E9B96D",
"O. c #EAB96C",
"+. c #EBBA6D",
"@. c #E9B96F",
"#. c #E8BA6F",
"$. c #EABD6C",
"%. c #E8BD6E",
"&. c #EEBF6D",
"*. c #EDBC6F",
"=. c #EBBC6B",
"-. c #F0B966",
";. c #F0BD69",
":. c #E1B671",
">. c #E5B970",
",. c #E7B870",
"<. c #E5BB71",
"1. c #E4BA72",
"2. c #E4BD70",
"3. c #E6BC70",
"4. c #E5BE73",
"5. c #E7BD75",
"6. c #E6BC74",
"7. c #E6BF74",
"8. c #E4BC76",
"9. c #E7BF77",
"0. c #E4BC73",
"q. c #EABA70",
"w. c #EABC71",
"e. c #EABF70",
"r. c #E8BC73",
"t. c #EBBD72",
"y. c #E9BD74",
"u. c #E9BD76",
"i. c #E9BF77",
"p. c #EBBF76",
"a. c #EABE77",
"s. c #EDBF74",
"d. c #E9BE73",
"f. c #E6BE78",
"g. c #E7BF79",
"h. c #E5BF79",
"j. c #E9BE79",
"k. c #EDC06D",
"l. c #EDC06F",
"z. c #EFC06E",
"x. c #EFC26F",
"c. c #ECC16E",
"v. c #F1C46F",
"b. c #E7C173",
"n. c #ECC270",
"m. c #EDC273",
"M. c #EFC573",
"N. c #ECC374",
"B. c #E6C17B",
"V. c #E9C179",
"C. c #EAC078",
"Z. c #EBC179",
"A. c #E9C17B",
"S. c #ECC079",
"D. c #EBC37C",
"F. c #EFC97B",
"G. c #F0C674",
"H. c #F1C573",
"J. c #F2C876",
"K. c #F1C67C",
"L. c #F3CA7B",
"P. c #E7C482",
"I. c #EBC682",
"U. c #EDC985",
"Y. c #EDCA89",
"T. c #F1C681",
"R. c #F1CA84",
"E. c #FBCD80",
"W. c #F1CC89",
"Q. c #FBD082",
/* pixels */
"  . X $ % % % + O # * 6 6 6 * # * * * * , , 7 3 3 0 q p a a w w p p q q 8 3 3 3 , 8 u 8 , , 6 6 4 4 ",
"o $ $ & & 5 4 4 4 6 9 u u u 9 6 u u 9 u a g g g f g g g v g g g g g g g d g g s s z z a 8 8 8 8 9 9 ",
"$ & & & 5 5 9 9 l z z z b b b z z z z z z v S S S F U Y Y F D S S S F F S F F F S F D z g g s p a a ",
"& & 5 5 5 9 l b m m m m G G F m b b v v v N F F P ( P P E E E T F F F F U U U U F F F D F F S g b b ",
"e r r r l l b Q G G J J [ [ H F G J F F F U U K 1.1.P 1.,.#.q.q.( ( ( ( #.#.#.#.#.#.T U #...#.Y Y Y ",
"l l l l l v m J J [ ..c.n.c.$.! [ [ ! ! ! ( ( 2.1.1.1.1.1.7.a.a.7.7.7.7.7.e.a.a.a.e.e.#.e.s.e.U T J ",
"c v c v b G J [ ..c.n.M.M.M.n.e.$.' ( ' ' 2.2.7.A.7.g.7.7.g.g.A.g.g.g.g.A.A.A.A.a.Z.Z.a.a.a.a.( U T ",
"b b D G { ;.H.H.n.n.n.M.M.J.M.M.n.2.e.2.2.b.b.V.F.D.A.B.g.B.B.B.B.B.P.F.I.I.I.I.B.I.T.F.D.K.F.Z.w...",
"D G Q { ;.....c.G.G.J.M.N.n.n.N.F.C V.D.D.D.B.D.I.D.D.D.I.I.I.P.P.I.I.I.I.U.U.R.I.U.R.R.I.F.D.Z.e.s.",
"D G Q { ......c.c.n.M.M.N.N.N.M.F.2.D.D.D.F.B.A.D.B.B.B.I.I.I.I.I.Y.U.Y.W.W.W.W.U.R.R.R.I.I.I.F.( #.",
"b G G J ......c.c.n.N.N.M.n.M.M.D.V.R.D.D.K.V.V.A.b.g.B.B.I.I.I.P.Y.Y.Y.Y.Y.Y.U.U.U.R.U.U.I.I.T.a.e.",
"b G G J ......c.n.n.n.c.c.n.n.N.b.D.K.b.V.K.V.A.a.7.7.g.B.P.I.P.P.P.I.Y.Y.U.I.I.U.U.U.U.I.I.I.T.Z.N.",
"m m G J ........M.c.[ ! ! c.M.M.2.D.K.2.N.L.e.V.e.2.7.7.B.B.P.P.I.Y.Y.Y.Y.Y.U.I.U.U.U.I.I.P.F.F.A.s.",
"b m G -.;.;.....c.! H H ! c.H.G.V.F.J.n.L.J.B K e.1.2.g.B.B.P.P.I.I.Y.Y.I.I.I.I.U.U.U.I.I.B.B.B.A.N.",
"b m G -.;.;.....[ H H H [ c.H.H.N.K.J.N.E.n.0 p U ( 1.j.B.I.I.P.I.I.I.I.I.I.I.I.U.U.R.R.I.B.B.A.Z.Z.",
"b m G -.;.;.;...[ H H [ ......$.N.D.D.M.Q.( = - U P 1.A.F.I.I.P.Y.Y.Y.I.I.U.U.U.U.R.W.R.I.B.B.A.Z.Z.",
"l b G J -.-.{ ..{ H [ v.v.[ [ x.N.N.M.J.L.G.K j ( 1.a.Z.F.I.I.I.I.U.U.U.U.I.U.U.I.I.R.R.R.T.F.B.j.A.",
"l z b m G J J { { H [ v.k.[ ! c.' b.M.L.L.J.e.K U ( e.V.A.B.B.B.B.P.U.U.U.U.I.I.U.R.R.R.R.I.B.A.a.A.",
"z z z v m G J { { [ [ k.[ H H [ ' n.F.L.J.N.$.! F U ( 2.7.g.g.g.A h.I.U.R.U.D.B.U.R.R.R.I.F.A.7.7.a.",
"G m b b G J J ..{ [ [ ..[ H H ! ' b.N.G.G.n.! F B F U ( 7.7.7.g.8.g.I.U.U.I.B.B.I.I.I.F.F.B.A.a.1.e.",
"Q Q G G [ J J J [ [ [ [ [ F F H K K ' N.J.J...H N B U ( 1.7.7.8.B.B.I.I.D.B.B.B.B.B.F.F.F.D.Z.A.e.e.",
"Q J J J G G G G F F [ [ [ F F F ' ` ' M.L.J.$.F N B V K 1.1.8.8.B.B.B.B.B.B.B.D.F.F.F.F.K.F.D.Z.s.s.",
"G J { [ m m G J j n F H H F n F ' b.M.G.J.n.F j j N B U :.:.:.:.g.g.B.B.g.B.A.B.B.A.Z.Z.Z.Z.Z.N...[ ",
"G J { J n n G ;.d j n F F F n k B ] n.G.M.c.H B h j B V K K :.Z 8.8.g.B.B.B.A.A.A.A.A.A.a.a.a.q.[ F ",
"m J J J F G G G n n n [ H n n n B K $.M.H.[ n d f f h M N V C C A 8.8.8.7.7.A.A.Z.Z.V.2.e.a.1.F F F ",
"n G J J G G G G k j n F F n j k B K $.n.c.H j d f f h j N V C C C Z A A :.7.7.7.a.a.2.1.1.1.( F U J ",
"d v G F F G G F k j j n n j j j B B ! c.c.H j s p p f h M N V V V V V C A :.1.1.K 1.( U U K U B U H ",
"y d m m m F F m n j j k j d j k B B ! n.c.H j p i p f h M N M M V V V C C C K K V U U U U U U B F F ",
"y d n F n F F n m v v v v d d j B F [ M.c.[ j s p f f h M N N N V V C C K K V V U K ( U F U U F F F ",
"s j F H F [ F F m n v n v j d k k H c.H.H.[ j s d d j N N B V V V V C K K K V V U ( ( K U K K U #.#.",
"d n H H F F F n m v v v v d d j k B [ H.v.[ n d d d h M N B V V V V C K K K U U K ' $.( K K U U #.#.",
"d n F F F F n n m v v v v d d j j B ! H.H.[ n d s d f h h M N V N B V K K K K K K $.e.( U U ! U Y Y ",
"8 f n H H F F F F S S F F j d j B V ' n.G.H.H d s f d h h h M M N B B B F U ( ' ' ' #.H U H F j Y F ",
"s d F F F F F Y S N N F F j d j M V ' M.G.n.n p p s f f h h M M N N B F F K ( $.K ( ! H H F S d D D ",
"j k F F B N U U F N N F F j j j B C n.J.L.H.n y 8 p p f f h h h N N F F U K ( e.U ! ! H H H F d v v ",
"j k F F N N F U F N N F F j j j B C n.G.L.H.F p 3 y p f f f h h N N F F F U ! ' U ! [ ! T T F v v v ",
"j j N B B B N N N N N B B j d j M B U ' n.c.k t 3 y p f f f h h N F F F F F K ( F ! [ [ T T F v D D ",
"f j N B B B N N N M M N M h f f j B B ( n.c.n p 3 3 p f f d h j N N F F F F U K F F H H J T F b G Q ",
"j j M B B B N N N M M N N h f f M B F $.G.H.F y 1 3 y p f f h h h j N B B F H ! F F H F J J G b Q G ",
"B N N N B B N N N N B B B j h j h M F $.H.v.k 3 < 1 3 p f f f h g h j N F F H [ F H H H J { J G G D ",
"B M M N F U U N N N M N F F j f j N F $.H.H.F p y y p s g d g f p S U F F ! $.$.k F H H J Q Q Q Q G ",
"B M j M N F F N N N N B F F N h h N F [ H.H.F s 1 3 y f d j N g g F U F F [ c...j F H F G J G G G D ",
"F k g h g N S F S N F F U F j d h j F ! H.H.H d < 1 y f j v S S d S F F H ..c.[ j F F F G J Q G v l ",
"F F j g h g N F N S F F H F j d d j B H c.v.[ k 3 t f d v v g g g v S F H ..c.[ n F H F G J Q G b v ",
"[ G m j d g N S S D F H H F v j j j F H c.v.[ n y y d j v v z g v v j F ! ....[ k F F m m m G m b x ",
"G n m v d d N S F F F F F m m n v j F F [ c.[ n s s d j v v v g v v j F H [ [ H F H G m m m m b x l ",
"z v v v d d v v D D F b v v v n v v n n H [ ! k d d d j v v z g g g j S F F F F n F F v j v b z b x ",
"a d v v z d v v v v v d d d d v v v v k n H H k k j j j v g g s g g d g j j j j d d d s p a u 9 a w ",
"y g g g z g g z z d g g g a a a y s d j d d j j j j d f p q p p p p p a p 8 q a 7 7 6 , , 7 7 , 2 2 ",
"2 q 8 8 a q 8 a a a 8 8 8 8 6 6 3 8 p p y y y s t y 3 3 3 3 q q 2 , , 6 , , , 7 , , > @ @ : : @ ; ; "
};
