/* XPM */
static char *plain_black_background1704821995[] = {
/* columns rows colors chars-per-pixel */
"50 50 21 1 ",
"  c #010204",
". c #090304",
"X c #040907",
"o c #090907",
"O c #030509",
"+ c #09060C",
"@ c #050A0C",
"# c #0A0B0D",
"$ c #110D0E",
"% c #0C100F",
"& c #040611",
"* c #070E11",
"= c #0B0D11",
"- c #100D12",
"; c #051111",
": c #0C1214",
"> c #0E1118",
", c #111414",
"< c #111319",
"1 c #18171C",
"2 c #10181A",
/* pixels */
"     o@   O   O@OO        O        O&@O       &*+O",
"     %%X OO  O+**#  OOOO O@@O     O#=*@O    OO&>@ ",
"    X;o       &***O OOOOOO@@O      O*@O     OO&>O ",
"     Xo        O*O  OO  XO@O       O#O        &=@ ",
"     %oX  O   O#=#OOO@#OO@=*&+O+  O#=@@ X  XXO=>*O",
"X;oX%,,o+***@#=<2=*#=*=*;:>>-=+=@@@:>>=X;o#;@:><=*",
"Xoo o,:;O**+O@==>*#O#*#O@;::=++=OO@:>:;XXXoo##*>=@",
"    X;o       O&#       OO#+O  .   O#@X       &*@O",
"     o;       OOX        XXX       XXo        +#  ",
"     %%X      &OX     ..  XX       o;#X      O+=  ",
" XX X%;X     O+&X         XX      Xoo;X  OOO. +-OO",
"     o%X     O++#X   ..  o##X      o#oX   O  O+=  ",
"     oX       ++#X   ...XXooX X     Xo     O  +=  ",
"     #oX     .&&X         XX        o%   OOO.+&-O ",
" XXXX%%Xoooo++=-%o  X...Xo%%XXX  XXo%%X ++&++#=<&=",
"ooXX%,,#$oo#==><,,$#%$$%;,,,%%%%XX#%,:#++==-#-<1--",
" OOOO::O XX  O&&#O  .OO  O#OO    OO#**OO OOOOO*:@O",
" OO O=;O    O&&>;X  OO+.OO*OOO  O O&*=@O OOOOO@:OO",
" OO O:=O X   O&**&  .OO. @@@O      @=@@  OOOOO*=OO",
"    O#*O XO  O+&=O   +OOOO@@O  O  O@##O   O   #=  ",
"  O O*#O  X  OO*@#  OOO.OO@@O  O   O*@O   O  O*=  ",
"     *#O XX   @**O  OOO. O&@@      O#@O       O=  ",
"    O#@O XX   X@@@  O++ OO@@O  O   O@@       OO*  ",
"     @# OOOO  X;=O  OO..OO#&OO     OO@O       O*O ",
"    O;*OOXOO XO@&O   O  XO@@O      O@@O XOOO  @*@O",
"O@@O*::@@@@@@@*:*&*&&=&+@;:;@@@*@@@*;;*@@@@@@@;:;@",
"@#@@#2>;&*==@*:>:**&=-++@;>:;@@@*&*=>::*@;**@*=>:*",
" OO O=;OOOO O @*&O  O+  O@@#OO OO  O#@OOOOOO O#=* ",
"     ##       O+O         +O        O+        O+O ",
"    O==OOOOO .+#XX  .... ++=+      O+&O.  OO  &+& ",
" O  O-=+ OOO O#-o.  ... O++++OOOO. +#=+OOOOO. +-+O",
"   .O#&. .+O  +o   .....OO++O      +++O .O+O  +++O",
"O&+.+==.    OO&+@O  OO . O&+O   OOO+=#+O      o-  ",
"     @#       O+OX   .    ++        +O        o#  ",
" O  O*& OO  OO+=@O O O  OO##OO O   O@#OO  XX  ==  ",
"@**O@::@******::;;;@*=*+*;::;@**@O@*:;;@ X;XX;:2OO",
"@**O&:=@;@*&@;::;;*@*=#+**::**&*@@&*;:*@XX#o;;:2OO",
" O  O** OOO OO@**OOOO   OO@#OO     OO#O X    X@%XO",
"     #+       OOO         ++        @+O       X=XX",
" +OO+== +  .OOO#+  OOO.  O#+O   O O+=&+O     .+= X",
"OO  O*@   .  .O&OO .O.  O@&#OO O   X#X  X X.X  $X ",
"     @@       +=OO  .O   @@@O  O   XXo  X  .X X$  ",
" O   @@       O&OO  ..  OO#@O  O    oX     .   $  ",
" O  O@@      .&+O  . O   O@@O      X;X  .      #  ",
" OO O*@O  .. O&+@O O.+O OO@@O       @oX .  o.  $  ",
"O++OX:;O.oO+O+=-@+OO++O O@*@OOOO  Xo%%o o  oX X$  ",
"+#+O@>:Xo###+&->==+++++O@#:=#OOOX o;%%#XoX.oo o$  ",
"+-=+@2:%o#-++-><>+$+--#O#@:=*#XoXo%%,%%o#oo##.#,XX",
".O   =#       OOOO O+.  O&&@O      XooX    X  o#X ",
" +. O==       OOOOO O+  OO@@        ;o       .o% X"
};
