/* XPM */
static char *result[] = {
/* columns rows colors chars-per-pixel */
"50 50 51 1 ",
"  c #000000",
". c #241508",
"X c #2C1A0D",
"o c #321E0E",
"O c #341F10",
"+ c #34200F",
"@ c #3C2512",
"# c #402715",
"$ c #442A16",
"% c #4A2D17",
"& c #472C18",
"* c #492D19",
"= c #4F311B",
"- c #54341C",
"; c #5B391E",
": c #5E3A23",
"> c #633E24",
", c #674026",
"< c #6B4326",
"1 c #6E4529",
"2 c #714626",
"3 c #724826",
"4 c #714729",
"5 c #754A2B",
"6 c #7B4D2E",
"7 c #7F502D",
"8 c #7E4F30",
"9 c #7E5030",
"0 c #81522E",
"q c #88572F",
"w c #845431",
"e c #895732",
"r c #8C5933",
"t c #935E35",
"y c #966036",
"u c #9A6237",
"i c #9D6438",
"p c #A1673A",
"a c #A56A3B",
"s c #AC6E3D",
"d c #AE703E",
"f c #B1723F",
"g c #AF7243",
"h c #B37442",
"j c #B87743",
"k c #BA7947",
"l c #BD7B48",
"z c #C47F4A",
"x c #C5804A",
"c c #C9824C",
"v c None",
/* pixels */
"vijjkjjkjkjkkkjkkkkkjkkjkkkkkkkkkkjkkkjkkjkglkhfyv",
"qefcxxcccxxxxxxxzxzzxxxxzzxxzzxlxxxxxxxxxcccxccdrr",
"hy5afdi7pfsddddddssgddddsdddddddddddddddfi7iffa5yf",
"klq5aj1 0fsddaddddssdddddssssdssdssssdadd< 6fi3yfi",
"kkdy5si1afddhfdfddddddgddgddddfdgdffddfffi3is5yfsu",
"kkddy3adaaaaaaaaaaaaasaaaaagaaaaaaaaaaaaasfa5yffsi",
"kk<-at50656656w0779w7w9079777777000075755675yi%7di",
"kk@ us3eyiiii3*-=====-=====-=---=--*5iuuii77jy ,di",
"kzuydy0afypflh,:51<:191111<<:,9<<5:1glfayfarlftadu",
"kkffdy6aa @fdlh55w81wr89999956y9w45hkdd, riejfffsu",
"kxsddy7aa;3fsslf119,8r59666615r9,5hksdf0*iiekfafsi",
"kfdddi5pfdffdsdlg4<18r55666615t15hkssdddffyrkhsfsi",
"kksddu7iaffsddsdlg4:we6885661595gksddddffsrrjhsfsu",
"kksddu5qaafdsdfsglg16r5556665,8glsddddddai7elhsfsi",
"kkdddu7%rpafdddssdlg56988588,1glsddddddaiw$0lfsfsi",
"kkdddu0+%riafddddsdlg51958915hkgsdddddaiw%orlfsfsu",
"lksdsiw<@&eaadddddsdkg51w615hksdfsdddaie$*,rkfsfsi",
"jksdsi955@&eiadddddsdlg4115hlssddsddaie$@64rkhsfsi",
"klsdsi7575o%raagdsddsdlh55gkssddsfgaiw$%691rlfsfsi",
"kksgsi9566>@&eiafgdddsghpglssddddsaiw$$0w61rkhsfai",
"kkfdsi7565<8$$riadsddfssklssddddgaiw&O1t981tlgsfsi",
"kksdsi0566,r9O*rppfdddggjsddddddaiw$&,4r961rlhsfsi",
"flsfsi9585,er1@&eiafssjkdsddsddair$@551r96<rlhsfsi",
"zksdsi7586,ew55@*rpasjkssgdddhaiw$#5w14rw61rjgsfsi",
"jzsssu0585,ew595@*wpjldssddddaiw&@58814rw64rlfsfai",
"jksfdu0588,ew5585@4jksdsdddsaii1#598814rw61rlfsfsi",
"jlsdsu0585,ew58845hlssddddfauahh44w5844r861rlfsfsi",
"klsfsu0595,ew8914hldssdddfaiasglh11w511r964rlfsfsi",
"kksfsu0595,rw814hlssdddddpuaddddlg41w14rw61rkhsfai",
"jlsssi0595,ew15hlggsddddaissdddsslg4451r961rkhsfgi",
"klsfsi0585>r81jlssssddfaiasdddddsslg5>5r981rkhsfai",
"jlsfsi6585165hlsdddddfaiwwppddddssglh,,t981rkfshsi",
"lksfdu0566>5glsddddddaie$&eiihddddddkg36w61rkhgssi",
"klsdsi05911hlsddddddaiq&@$*eiadddddddkh54w1rkhahai",
"kfsdsu7654hlsddddddaiq$@55@&riahsddddskg454rlhsfsi",
"kzsddu0,5hlsdddddgaie&@5765@&riidddddsdkg5:tjhsfsi",
"lksfsi62hlddddddgaiw$@596694@&eiiddddddskh,elfsfsi",
"jzssfy6szaddddsgaie$&9956689<o=riadddddssliqlhsfsi",
"jksfsu6addhddddaie$+6r58658551&&riaddddgfhurlfsfsi",
"klsfsy6ad7edddaiw$@>wr58665815w@&riadddy5siekhafsu",
"jkdddy6si Xddaiq$@5<9r559558<6r5+*riidd; qpejhdfsu",
"jkssdy6ad7rfsiq$@59,9r66899516r95@=raafu6sielfaddu",
"lk;.ui7idffda0$+195,9e565556<5q671+&qiaddfurlu 3di",
"kk- is,<556551135565565556655565565<166555,3du 3di",
"jlssa1uljjjhjlkjjkkjkjjjkjkkkkkkjjkkkhjjhkkr5adddu",
"lkds1yseghgdhfhgfdghghhdgghggddhghhgffgfjpydy5sfdi",
"jlp<uj3 7fddddddddddddddddsdddssddddddddd< 7fr5afi",
"fd<yfdu;iddddddddddddddddddddddgddddddddfy<iffr5ff",
"a6ydasssssasasssassasssasassasssasssadaadsdsasdr0a",
"3tduuiuuuuiiiuuiuuiiuiiuiiuiiuuiuuiuuiiiiuuuiuidr1"
};
