/* XPM */
static char *result[] = {
/* columns rows colors chars-per-pixel */
"50 50 223 2 ",
"   c #281B19",
".  c #31201F",
"X  c #28272E",
"o  c #342928",
"O  c #38332E",
"+  c #6F1B18",
"@  c #4E2F19",
"#  c #792F0F",
"$  c #693919",
"%  c #773716",
"&  c #743C1C",
"*  c #7D3F1D",
"=  c #472927",
"-  c #572E2A",
";  c #43342B",
":  c #49352A",
">  c #4D3A2C",
",  c #563426",
"<  c #52322A",
"1  c #5C322C",
"2  c #543B2A",
"3  c #5A3C2A",
"4  c #4D3F31",
"5  c #573A33",
"6  c #662C2C",
"7  c #7A2727",
"8  c #752E2E",
"9  c #653624",
"0  c #663A25",
"q  c #6A3A25",
"w  c #63332C",
"e  c #69322F",
"r  c #623B2B",
"t  c #6B3D2A",
"y  c #733C22",
"u  c #7D3F20",
"i  c #76362B",
"p  c #6C2A30",
"a  c #7D2F30",
"s  c #6A3734",
"d  c #743131",
"f  c #7D3130",
"g  c #773D37",
"h  c #7B3B35",
"j  c #68401F",
"k  c #7C411D",
"l  c #5B422C",
"z  c #5A472C",
"x  c #4E4636",
"c  c #5C4334",
"v  c #584938",
"b  c #64442D",
"n  c #6A482D",
"m  c #7D4123",
"M  c #76452B",
"N  c #7C4A2B",
"B  c #7A572B",
"V  c #654432",
"C  c #674633",
"Z  c #6B4C35",
"A  c #6D4E38",
"S  c #754836",
"D  c #7B4B33",
"F  c #6E5137",
"G  c #6B5239",
"H  c #745236",
"J  c #785636",
"K  c #77523B",
"L  c #7C523B",
"P  c #745939",
"I  c #7A5D3B",
"U  c #7B612F",
"Y  c #6D613D",
"T  c #77633B",
"R  c #243543",
"E  c #383C48",
"W  c #2E465E",
"Q  c #39475B",
"!  c #264369",
"~  c #2A4A78",
"^  c #334F7B",
"/  c #444447",
"(  c #5C4E45",
")  c #59524C",
"_  c #4F5054",
"`  c #685948",
"'  c #705441",
"]  c #675A59",
"[  c #735953",
"{  c #756258",
"}  c #465262",
"|  c #5C5F62",
" . c #585E65",
".. c #4F5F79",
"X. c #5B6166",
"o. c #57627A",
"O. c #666669",
"+. c #796C67",
"@. c #696E74",
"#. c #747575",
"$. c #823A1E",
"%. c #862A29",
"&. c #85342C",
"*. c #823231",
"=. c #8B3333",
"-. c #883A37",
";. c #943535",
":. c #983737",
">. c #81411E",
",. c #88451F",
"<. c #844523",
"1. c #854826",
"2. c #844A2B",
"3. c #8B4C2C",
"4. c #924F2B",
"5. c #8E582C",
"6. c #91532E",
"7. c #844835",
"8. c #8B4F31",
"9. c #895334",
"0. c #85533B",
"q. c #8A563B",
"w. c #825C3A",
"e. c #8C593D",
"r. c #945434",
"t. c #9B5937",
"y. c #945639",
"u. c #955939",
"i. c #9C5C3C",
"p. c #A05F3F",
"a. c #866C2F",
"s. c #876536",
"d. c #8E6736",
"f. c #83633C",
"g. c #8C663B",
"h. c #91653C",
"j. c #936C3F",
"k. c #99693C",
"l. c #967532",
"z. c #A2603E",
"x. c #A17936",
"c. c #8C5D4F",
"v. c #9E5F40",
"b. c #A05F40",
"n. c #8A6742",
"m. c #9B6546",
"M. c #946D41",
"N. c #9A6D40",
"B. c #9B7342",
"V. c #9A764D",
"C. c #856D58",
"Z. c #8A7053",
"A. c #9F7054",
"S. c #A26141",
"D. c #A47643",
"F. c #A47943",
"G. c #AC7C44",
"H. c #A87D4C",
"J. c #B47E43",
"K. c #847668",
"L. c #9A7766",
"P. c #897A77",
"I. c #AD804A",
"U. c #B68245",
"Y. c #BC8446",
"T. c #BC874A",
"R. c #AE8555",
"E. c #B88A55",
"W. c #BF905A",
"Q. c #94836F",
"!. c #98877F",
"~. c #A08C75",
"^. c #AD9070",
"/. c #C18746",
"(. c #C38947",
"). c #C48B49",
"_. c #CB8F49",
"`. c #CD904A",
"'. c #D5954B",
"]. c #D9974C",
"[. c #18538F",
"{. c #295489",
"}. c #335689",
"|. c #295697",
" X c #3D608B",
".X c #1B58A5",
"XX c #275BA6",
"oX c #2A5EAA",
"OX c #2A60AE",
"+X c #2C64B8",
"@X c #787D84",
"#X c #2B69C4",
"$X c #7E8288",
"%X c #85878C",
"&X c #9A938D",
"*X c #8A8D92",
"=X c #9B9A9B",
"-X c #A9978A",
";X c #A7A29E",
":X c #B5A697",
">X c #9B9FA6",
",X c #9CA0A7",
"<X c #A6A5A6",
"1X c #B1B1B3",
"2X c #B4B5B6",
"3X c #B9B8B8",
"4X c #CAB2AF",
"5X c #C2BDB9",
"6X c #C6C0BC",
"7X c #BDBEC1",
"8X c #C9C8C8",
"9X c #CBCACD",
"0X c #CECED1",
"qX c #CFD0D3",
"wX c #D3D3D6",
"eX c #DDDAD7",
"rX c #D6D6D8",
"tX c #DBDADB",
"yX c #E0D7D5",
"uX c #DFDFE0",
"iX c #E4E4E5",
"pX c #EAEAEB",
"aX c #F3F3F3",
/* pixels */
"].].].].].].].].].].].].].].].].].].].].].].].].].].].].].].].].].].].].].].].].].].].].].].].].].].",
"].].].].].].].].].].].].].].].].].].].].].].].].].].].].].].].].].].].].].].].].].].].].].].].].].].",
"].].].].].].].].].].].].].].].].].].].].].].].].].].].].].].].].'.].'.'.].].].].].].].].].].].].].].",
"].].].].].].].].].].].].].].].].].].].].].].].].].].].].].].].].].'.'.'.].].].].].].].].].].].].].].",
"].].].].].].].].].].].].].].].].].].].].].].].].].].].'.].].]._.`._.`.'.'.'.].].].].].].].].].].].].",
"].].].].].].].].].].].].].].].].].].].].].].].].].].].'.].].Y.T T ` I._.'.'.'.].].].].].].].].].].].",
"].].].].].].].].].].].].].].].].].].].].].].].].].'.).g.I I J 7.7.-.0.P P B.'.'.].].].].].].].].].].",
"].].].].].].].].].].].].].].].].].].].].].].].]./.g.q.S h S h ;.-.=.f g S 0.B._.].].].].].].].].].].",
"].].].].].].].].].].].].].].].].].].].'._.I.T.Y.k.g f ;.:.:.:.;.%.7 h ;.;.-.K D._.].'.].].].].].].].",
"].].].].].].].].].].].].].].].].].].].`.V.K.L.n.i :.:.:.:.;.=.%.7 [ ] h %.f h K D._.].'.].].].].].].",
"].].].].].].].].].].].].].].].].].].].Y.` <X2Xc.+ -.d e e w 6 + P.3X@Xs 7 *.a d L D.'.'.].].].].].].",
"].].].].].].].].].].].].].].].].].'.].U.> 1XqX+.. s t 9 q t ,   >XtX#.- 7 *.*.*.h D B.'.'.].].].].].",
"].].].].].].].].].].].].].].].].].].].(.' ;X!.A 0 0.y.y.r.y.i o ;XeX#.< 8 f a *.*.h K B.'.'.'.].].].",
"].].].].].].].].].].].].].].].].].].].`.H.{ K 9.t.i.i.z.b.i.v.P.qXuX%X5 - e a a *.f S f._.'.].].].].",
"].].].].].].].].].].].].].].].].].].].'.G.j <.i.i.i.u.i.t.4.A.8XaXrXP.V 9 9 e a *.f C Y _.'.'.].].].",
"].].].].].].].].].].].].].].].].].'.'.).T N 6.r.r.r.r.i.4.1.m.4XyX:Xc.>.* 9 w f *.f 5 x G.'.'.].].].",
"].].].].].].].].].].].].].].].].].].].T.[ &Xm.3.3.,.t.L.-XP.g &.L.1.# $ 1 9 8 f *.f w 3 D U.`.].].].",
"].].].].].].].].].].].].].].].].].].].).C.5X&XK # % C.6X8X%XV # 7 $.q w e 8 a a 8 6 w M 1.S F.'.].].",
"].].].'.].].].].].].].].].].].].].].Y.w.' C.[ D k ,.L +.] ' t $.u $.w w f f a *.d w t y.i.2.J D.].'.",
"].].].'.].'.].].].].].].].].].'.].T.g.N r.q.r.y.t.r.8.M q q m <.m 0 w 8 *.a f f w r 7.i.b.i.Z M.].].",
"'.'.(.G.I.Y.].].].].'.].].].].'.].F.P N q.y.e.n.u.r.3.$.$.>.<.* q 6 d a f a a a - 3 r.b.b.b.A j.].'.",
"].`.x.G C s.U.U.U.U._.'.].].].'.].I.P 3 V 5 5 4 c M * <.m k u q w d a a a f a 8 - t y.b.b.b.H M.'.].",
"'.`.B.P z z x x v x j.U.).`.'.'.'.Y.P O z O X X ; 3 y $.u y q w d a a a f f f w 9 N r.b.S.b.F j.].'.",
"'.'.).n.( ) | X.X.X._ x v f.U.U.T.).U.s.l.X X v U z q y 9 1 1 8 f a f *.f a f 1 9 $.4.b.S.v.F M.].].",
"'.]._.s.+.=X<X,X,X,X$XX.X.) x ) ` ' g.l.x.U U s.n < < < e d d a *.a a a a a d = q * <.4.u.3.n j.].'.",
"(.d.a.Z.;X9X9X9X9X9X1X,X=X$XX.X.` C l z l.x.a.n p 8 d d *.=.*.a a a *.a *.8 6 ; 9 * <.4.r.1.b j.].'.",
"H.C.K.;X8XrXrXrXrXrX0X0X9X1X>X,X{ l : o n B n 1 6 f *.;.;.;.=.*.*.a d e 6 w q < 9 1.r.i.u.8.C j.].'.",
"L.2X0XwXrXwXwXrXwXwXwXrXwXwX7X<X{ l l z @ = < 3 < < e f *.*.=.=.*.d 6 < < 9 y q 0 8.b.S.S.p.A M.].'.",
"R.&XeXrXwXrXwXwXwXrXwXwXrXqX&Xv k.x.G C C V 2 < 3 3 3 2 2 2 w f i - 0 y u * * q , S S.S.S.S.G M.'.'.",
"W.~.eXpXtXwXqXrXwXwXrXwXwX0X,X' U.I.' 0.u.8.M 3 ; O ; 2 2 3 3 2 2 : n M q q 0 9 3 7.b.k.S.S.A M.'.].",
"'.W.:X8XuXpXiXqXqXwXqXwXiXpXtX!.E.G.T N ,.,.<.M z 4 3 V r , : > 2 l b l 3 3 3 1 t r.b.b.v.0.n.G.'.].",
"].`.).^.:X3XwXpXpXpXpXiXwX3X2X@.R.).M.M 0 0 M h.g.c D q.2.q w n b : > 2 3 l b > t 3.t.b.v.Z m._.].].",
"].].'.(.R.^.:X6X6X6X6X5X:XQ.^.n.T.'./.h.w.w.h.J.Y.w.D v.4.u % u N c C V : . 3 O 0 2.t.b.v.c w.Y.'.'.",
"].].].].].`.I.C.Z.C.+.Z.I.'.`.`.'.].].'.`.'.'.].'.J.Z 8.<.y $ & 2.i.r.N ,   o @ q 5.k.z.u.5 4 I J.).",
"].].].].].].'.`.`.'.`.'.'.].].].].].].].].].].].].).S & ' ]  .| [ 1.% $ C O.) $ * 3.y.u.D 4 4 c Z f.",
"].].].].].].].].'.].].].].].].].].].].].].].].].].`.Z.+.#.@X$X%X%XO.O.@.#.@._ = , w r M J f.I H Z w.",
"].].].].].].].].].].].].].].].].].].].].].].].].].T.) X.@.$X%X*X%X| X.O...! < t D c c k.J.)./.D.N.Y.",
"].].].].].].].].].].].].].].].].].].].].].].].'./.n._ {. X..X.o.o.~ }.{.|.! @ r.v.0.I D.`.'.]._._.].",
"].].].].].].].].].].].].].].].].].].].].].'.].Y.N.0.( [..X|.}.}.|..X.X.X[./ $ 6.S.v.c.d._.'.].].].].",
"].].].].].].].].].].].].].].].].].].].].].'.'.N.K i.5.! XX#X#X#X+XOXoXXX~ @ $ 1.t.S.y.w.Y.'.'.].].].",
"].].].].].].].].].].].].].].].].].].].].].].).N.q.z.5.W |.+X#X#XoXoXoXXX~ R E $ <.t.i.q.M._.].].].].",
"].].].].].].].].].].].].].].].].].].].].'.'.l.0.8.z.u.5 ^ oX+X+XoXoXoX|.~ ~ ! $ $.r.i.w.N._.].].].].",
"].].].].].].].].].].].].].].].].].].].].'.].D.J M 4.1.& Q |.+XOXoXoXoX~ R Q E $ k 2.2.D B._.'.].].].",
"].].].].].].].].].].].].].].].].].].].].].'.T.j.V 3 b j / Q } } } } Q _ ` M.j.C l 2 > 5 N._.].'.].].",
"].].].].].].].].].].].].].].].].].].].].].'.].G.P x z K s.a.d.d.d.d.g.j.F.'._.f.v x x v D.`.].].].].",
"].].].].].].].].].].].].].].].].].].].].].].]./.D.n.M.F._.].].].].].].].].'.'.J.N.j.N.N.Y.'.].].].].",
"].].].].].].].].].].].].].].].].].].].].].].].'.'._.'.'.].].].].'.'.'.'.].].'.'.'.`.'._.'.'.'.].].].",
"].].].].].].].].].].].].].].].].].].].].].].].].'.'.'.'.].].].].].'.].].].].].].'.].'.'.].].].].].].",
"].].].].].].].].].].].].].].].].].].].].].].].].].].].].].].].].].].].].].].].].].].'.].].].].].].].",
"].].].].].].].].].].].].].].].].].].].].].].].].].].].].].].].].].].].].].].].].].].].].].].].].].]."
};
