/* XPM */
static char *result[] = {
/* columns rows colors chars-per-pixel */
"50 50 155 2 ",
"   c #08161A",
".  c #121413",
"X  c #121817",
"o  c #1C1913",
"O  c #342B1D",
"+  c #0B232E",
"@  c #15242E",
"#  c #0D313D",
"$  c #17333C",
"%  c #232420",
"&  c #343226",
"*  c #3A3526",
"=  c #293736",
"-  c #373C33",
";  c #4B3C27",
":  c #33433C",
">  c #4A4534",
",  c #574831",
"<  c #634726",
"1  c #6B4C29",
"2  c #71532E",
"3  c #624F34",
"4  c #645035",
"5  c #745733",
"6  c #7A5A32",
"7  c #7A5E39",
"8  c #01374D",
"9  c #173A46",
"0  c #133D4B",
"q  c #023952",
"w  c #093B51",
"e  c #213D45",
"r  c #02445E",
"t  c #324741",
"y  c #3C4542",
"u  c #3B4A49",
"i  c #2E4C59",
"p  c #394E53",
"a  c #35515B",
"s  c #014B65",
"d  c #0B4A62",
"f  c #014C6B",
"g  c #005268",
"h  c #09526C",
"j  c #1A5469",
"k  c #0D5472",
"l  c #0A5A75",
"z  c #06567C",
"x  c #005B7B",
"c  c #135D78",
"v  c #275668",
"b  c #345D6E",
"n  c #395B68",
"m  c #0A627E",
"M  c #10617C",
"N  c #3F6369",
"B  c #2E6379",
"V  c #396577",
"C  c #464C46",
"Z  c #405D68",
"A  c #4C6567",
"S  c #49676D",
"D  c #466C7C",
"F  c #4A717D",
"G  c #815D33",
"H  c #8B6334",
"J  c #8B6436",
"K  c #8C6639",
"L  c #9A6C37",
"P  c #936A3A",
"I  c #A7753D",
"U  c #B47E3F",
"Y  c #A87941",
"T  c #BE8544",
"R  c #C08746",
"E  c #C48946",
"W  c #CB8E47",
"Q  c #C68C49",
"!  c #CC8F48",
"~  c #CE914A",
"^  c #D5954B",
"/  c #D9974C",
"(  c #015B87",
")  c #006381",
"_  c #026B8B",
"`  c #056895",
"'  c #006798",
"]  c #01739C",
"[  c #07799B",
"{  c #2C6D82",
"}  c #3D6E82",
"|  c #006EA3",
" . c #0070A5",
".. c #0677A5",
"X. c #027BB4",
"o. c #457183",
"O. c #487588",
"+. c #517C8C",
"@. c #527F90",
"#. c #0485AB",
"$. c #0692BB",
"%. c #0C92BB",
"&. c #588795",
"*. c #5C95AC",
"=. c #659FAF",
"-. c #609BB4",
";. c #65A4BB",
":. c #0486C3",
">. c #028CC4",
",. c #028CCB",
"<. c #059BC7",
"1. c #0294CB",
"2. c #0191D4",
"3. c #0095DB",
"4. c #0098DD",
"5. c #04A2CE",
"6. c #04A4D1",
"7. c #01AADA",
"8. c #04B2DF",
"9. c #0099E0",
"0. c #00A6EC",
"q. c #01A9EE",
"w. c #04B8E6",
"e. c #06B5EA",
"r. c #05B9EA",
"t. c #01ADF2",
"y. c #03BDF2",
"u. c #6CABC1",
"i. c #74B8CD",
"p. c #76BED9",
"a. c #00C0EF",
"s. c #03C1F4",
"d. c #01C3FC",
"f. c #00C9FD",
"g. c #11C2F6",
"h. c #3FC3E8",
"j. c #65C2DE",
"k. c #79C3DB",
"l. c #7AC6E3",
"z. c #7EC9E1",
"x. c #7DCBE9",
"c. c #85BABF",
"v. c #83B8C1",
"b. c #81CFE3",
"n. c #80CFE9",
"m. c #98D9EC",
"M. c #83D5F3",
"N. c #87D8F6",
"B. c #85D7F9",
"V. c #86D9FC",
"C. c #8ADEFC",
"Z. c #A2E6F7",
"A. c #A5E9F7",
"S. c #A2E6FA",
"D. c #A6EAFB",
/* pixels */
"/ / / / / / / / / / / / / / / / / / / / / / / / / / / / / / / / / / / / / / / / / / / / / / / / / / ",
"/ / / / / / / / / / / / / / / / / / / / / / / / / / / / / / / / / / / / / / / / / / / / / / / / / / ",
"/ / / / / / / / / / / / / / / / / / / / / / / / / / / / / / / / / / / / / / / / / / / / / / / / / / ",
"/ / / / / / / / / / / / / / / / / / / / / / / / / / / / / / / / / / / / / / / / / / / / / / / / / / ",
"/ / / / / / / / / / / / / / / / / / / / / / / / / / / / / / / / / / / / / / / / / / / / / / / / / / ",
"/ / / / / / / / / / / / / / / / / / / / / / / / / / / / / / / / / / / / / / / / / / / / / / / / / / ",
"/ / / / / / / / / / / / / / / / / / / / / / / / / / / / / / / / / / / / / / / / / / / / / / / / / / ",
"/ / / / / / / / / / / / / / / / / / / / / / / / / / / / / / / / / / / / / / / / / / / / / / / / / / ",
"/ / / / / / / / / / / / / / / / / / / / / / / / / / / / / / / / / / / / / / / / / / / / / / / / / / ",
"/ / / / / / / / / / / / / / / / / / / / / / / / / / / / / / / / / / / / / / / / / / / / / / / / / / ",
"/ / / / / / / / / / / / / / / / / / / / / / / / / / / / / / / / / / / / / / / / / / / / / / / / / / ",
"/ / / / / / / / / / / / / / / / / / / / / / / / / / / / / / / / / / / / / / / / / / / / / / / / / / ",
"/ / / / / / / / / / / / / / ^ / ~ ~ ~ ~ ^ ! ! ~ ~ ^ ~ ~ ~ ~ ~ ~ ~ ^ ^ / / / / / / / / / / / / / / / ",
"/ / / / / / / / / / / / / ^ W G & : t t t t t - O O : t t t t t t * H ~ ^ / / / / / / / / / / / / / ",
"/ / / / / / / / / / / / ^ ! 7 # 8 <.7.7.7.7.5.d a i l 6.7.7.7.7.%.9 t P ^ ^ / / / / / / / / / / / / ",
"/ / / / / / / / / / / / ~ 5 0 1.g #.d.d.d.r.m } x.l.V _ r.d.d.d.%.&.v.y H ~ / / / / / / / / / / / / ",
"/ / / / / / / / / / ^ W 6 9 ,.t.] x a.s.e.l V n.B.V.l.b ( y.d.g.h.m.A.v.y P ~ / / / / / / / / / / / ",
"/ / / / / / / / / ^ W 6 0 ,.q.q.3.s 6.8.d V M.C.V.V.V.x.n h r.5.*.D.D.A.c.y J ^ ^ / / / / / / / / / ",
"/ / / / / / / / / ^ 6 0 >.q.0.0.t.x _ l D n.M.B.B.B.B.B.b.Z M m +.D.Z.S.A.c.y G ^ / / / / / / / / / ",
"/ / / / / / / / / H X q f f f f f 8   @ n n N S S n N N O.j.{ + p S A S A A u o L / / / / / / / / / ",
"/ / / / / / / / / I % z  . . . . .| 8 _ $.$.%.$.$.%.$.$.<.g...n ;.;.;.;.;.;.o.O Y / / / / / / / / / ",
"/ / / / / / / / / ^ G 0 :.9.9.9.4.9.' ] f.f.f.d.f.d.f.d.d.y.k -.C.C.C.C.C.i.y P / / / / / / / / / / ",
"/ / / / / / / / / ^ ~ 6 w ,.3.3.3.3.,.1.d.y.d.d.d.d.d.d.d.5.v k.V.V.V.V.p.p K / / / / / / / / / / / ",
"/ / / / / / / / / / / Q 3 k ,.3.4.3.3.:.7.y.d.d.d.d.d.d.s.#.O.M.V.V.V.x.S 7 ! ^ / / / / / / / / / / ",
"/ / / / / / / / / / ^ ^ R ; ( 2.3.3.3.' ) s.y.d.d.d.d.d.w.c u.V.V.C.n.F < Q ^ / / / / / / / / / / / ",
"/ / / / / / / / / / / / / Y ; ( 3.3.4.:.s 7.d.d.d.d.d.d.<.v z.V.V.B.@.; T / ^ / / / / / / / / / / / ",
"/ / / / / / / / / / / / / ^ I = | 3.2.4.f ..f.d.d.d.d.d.[ O.V.V.C.*.> Y ^ / / / / / / / / / / / / / ",
"/ / / / / / / / / / / / / / ^ L e X.3.4.| g d.d.y.d.d.e.j u.V.B.u.C Y ^ / / / / / / / / / / / / / / ",
"/ / / / / / / / / / / / / / / ^ G 0 :.3.2.r <.d.d.d.d.$.n N.B.i.u L / / / / / / / / / / / / / / / / ",
"/ / / / / / / / / / / / / / / ^ ~ 5 w ,.9.( ) d.d.d.d.m *.C.k.p 6 ^ / / / / / / / / / / / / / / / / ",
"/ / / / / / / / / / / / / / / / ^ E 3 f 2.X.s w.d.d.7.j k.x.N 2 ~ ^ / / / / / / / / / / / / / / / / ",
"/ / / / / / / / / / / / / / / / ^ ^ R > ( ,.s $.d.d.[ o.b.+.4 R / / / / / / / / / / / / / / / / / / ",
"/ / / / / / / / / / / / / / / / / / / U - ` ' ) y.w.l =.&., R / / / / / / / / / / / / / / / / / / / ",
"/ / / / / / / / / / / / / / / / / / ^ / I = ( f 8.6.B &.> Y / / / / / / / / / / / / / / / / / / / / ",
"/ / / / / / / / / / / / / / / / / / / ^ ^ P $ # #...i - I ^ ^ / / / / / / / / / / / / / / / / / / / ",
"/ / / / / / / / / / / / / / / / / / / / ^ ~ G . s d X P ^ ^ / / / / / / / / / / / / / / / / / / / / ",
"/ / / / / / / / / / / / / / / / / / / / / / ~ 1 X X 6 ~ / / / / / / / / / / / / / / / / / / / / / / ",
"/ / / / / / / / / / / / / / / / / / / / / / / ~ < 1 ! ^ / / / / / / / / / / / / / / / / / / / / / / ",
"/ / / / / / / / / / / / / / / / / / / / / / / / ^ ~ / / / / / / / / / / / / / / / / / / / / / / / / ",
"/ / / / / / / / / / / / / / / / / / / / / / / / / / / / / / / / / / / / / / / / / / / / / / / / / / ",
"/ / / / / / / / / / / / / / / / / / / / / / / / / / / / / / / / / / / / / / / / / / / / / / / / / / ",
"/ / / / / / / / / / / / / / / / / / / / / / / / / / / / / / / / / / / / / / / / / / / / / / / / / / ",
"/ / / / / / / / / / / / / / / / / / / / / / / / / / / / / / / / / / / / / / / / / / / / / / / / / / ",
"/ / / / / / / / / / / / / / / / / / / / / / / / / / / / / / / / / / / / / / / / / / / / / / / / / / ",
"/ / / / / / / / / / / / / / / / / / / / / / / / / / / / / / / / / / / / / / / / / / / / / / / / / / ",
"/ / / / / / / / / / / / / / / / / / / / / / / / / / / / / / / / / / / / / / / / / / / / / / / / / / ",
"/ / / / / / / / / / / / / / / / / / / / / / / / / / / / / / / / / / / / / / / / / / / / / / / / / / ",
"/ / / / / / / / / / / / / / / / / / / / / / / / / / / / / / / / / / / / / / / / / / / / / / / / / / ",
"/ / / / / / / / / / / / / / / / / / / / / / / / / / / / / / / / / / / / / / / / / / / / / / / / / / ",
"/ / / / / / / / / / / / / / / / / / / / / / / / / / / / / / / / / / / / / / / / / / / / / / / / / / "
};
