/* XPM */
static char *_3221bb6ad5f4957f79221b0ec68b135vUEQttrjgnDwkF4T[] = {
/* columns rows colors chars-per-pixel */
"50 50 191 2 ",
"   c #010305",
".  c #050807",
"X  c #080807",
"o  c #030509",
"O  c #09060C",
"+  c #050A0C",
"@  c #0A0B0D",
"#  c #120D0E",
"$  c #0C100F",
"%  c #070D10",
"&  c #0A0E11",
"*  c #130D11",
"=  c #0D1213",
"-  c #121415",
";  c #181917",
":  c #131518",
">  c #161A1A",
",  c #191C1C",
"<  c #1C201E",
"1  c #29231E",
"2  c #32251F",
"3  c #39281F",
"4  c #1C1F21",
"5  c #1E2121",
"6  c #242524",
"7  c #272926",
"8  c #232628",
"9  c #262929",
"0  c #2A2C2B",
"q  c #352C26",
"w  c #2E312F",
"e  c #2E3130",
"r  c #323433",
"t  c #3D3731",
"y  c #363936",
"u  c #3A3A36",
"i  c #373938",
"p  c #3B3C3B",
"a  c #6E391F",
"s  c #713A1B",
"d  c #783F1E",
"f  c #402D28",
"g  c #45342C",
"h  c #4C3B2E",
"j  c #583A27",
"k  c #463C33",
"l  c #4D3E34",
"z  c #513E33",
"x  c #683B24",
"c  c #3C403E",
"v  c #6A441F",
"b  c #4E432E",
"n  c #5A432C",
"m  c #4E4234",
"M  c #43433F",
"N  c #524434",
"B  c #5C4331",
"V  c #564A35",
"C  c #5B4C37",
"Z  c #544638",
"A  c #594D39",
"S  c #6B4522",
"D  c #6F4923",
"F  c #684529",
"G  c #774422",
"H  c #734A2A",
"J  c #7D4F2C",
"K  c #6B4731",
"L  c #6A5137",
"P  c #6A553C",
"I  c #7C5535",
"U  c #3E4140",
"Y  c #434543",
"T  c #454944",
"R  c #484A47",
"E  c #4B4D4A",
"W  c #564E42",
"Q  c #4E524E",
"!  c #51544E",
"~  c #58594E",
"^  c #4C5755",
"/  c #535652",
"(  c #565A53",
")  c #5A5C55",
"_  c #555F5E",
"`  c #5B5C5A",
"'  c #6C5643",
"]  c #665649",
"[  c #6B5D49",
"{  c #755E4D",
"}  c #5F6056",
"|  c #5D625B",
" . c #796048",
".. c #62645E",
"X. c #62685F",
"o. c #746657",
"O. c #71695C",
"+. c #7B6B5A",
"@. c #7D715D",
"#. c #5E6564",
"$. c #5E6968",
"%. c #646661",
"&. c #646A63",
"*. c #6A6C65",
"=. c #6A6D66",
"-. c #656C6A",
";. c #6C6E6A",
":. c #6B7166",
">. c #6D726B",
",. c #737367",
"<. c #72746D",
"1. c #71756E",
"2. c #74796F",
"3. c #7B796E",
"4. c #6A7372",
"5. c #6D7975",
"6. c #737571",
"7. c #757771",
"8. c #757A73",
"9. c #797A73",
"0. c #7A7C75",
"q. c #7A7D76",
"w. c #7D7E74",
"e. c #757B7A",
"r. c #7B7E79",
"t. c #884B25",
"y. c #824D2B",
"u. c #85502F",
"i. c #8D522D",
"p. c #93542C",
"a. c #98572B",
"s. c #9A5A2D",
"d. c #835534",
"f. c #8E5A35",
"g. c #875A39",
"h. c #945B34",
"j. c #9D5D33",
"k. c #905C39",
"l. c #A15F33",
"z. c #976036",
"x. c #9A623B",
"c. c #A56335",
"v. c #A96536",
"b. c #AE6B37",
"n. c #A56539",
"m. c #AB663A",
"M. c #A7683A",
"N. c #AC6C3C",
"B. c #B26835",
"V. c #B26D3B",
"C. c #AD703E",
"Z. c #B3723E",
"A. c #BA723F",
"S. c #8A6446",
"D. c #8D6A4E",
"F. c #966B45",
"G. c #9C6D4B",
"H. c #9B7048",
"J. c #8C6E57",
"K. c #9E795D",
"L. c #A46D44",
"P. c #AC6E41",
"I. c #A26E48",
"U. c #AC7144",
"Y. c #A5744B",
"T. c #AC714B",
"R. c #B27141",
"E. c #BC7542",
"W. c #B37349",
"Q. c #B7794C",
"!. c #BC7C4D",
"~. c #A97A56",
"^. c #A97C57",
"/. c #B37C52",
"(. c #BD7E52",
"). c #B17E59",
"_. c #807E70",
"`. c #C17643",
"'. c #C27D4B",
"]. c #C07E51",
"[. c #7D8076",
"{. c #7D817A",
"}. c #AF815D",
"|. c #B6835A",
" X c #82847C",
".X c #A68264",
"XX c #B28562",
"oX c #7F8082",
"OX c #818381",
"+X c #888B84",
"@X c #868989",
/* pixels */
"          X X         .     o @ @ o             . . o                 + @ @ o               o % @ o ",
"        . @ @ .     o .     o @ @ + o . o , e y y y y y 9 &         o @ @ @ o           o o % & o   ",
"        . @ X .             o @ @ X o . = / r.[. X Xw.w.=.r o       . X @ @ o       . . o o % & o   ",
"          X X               o @ @ + .   > %.q.w.w.w.1.&.&.p o         o @ + o         .   o % & + o ",
"        . @ @ .   o o o . . o @ & @ + o , ) 9.q.q.r.7.&.%.0 O o     o @ @ @ o .   . . . o o % = % o ",
". X X . @ = = @ @ @ @ @ X @ & = = & @ @ - T 8.9.q.q.7.;...9 & @ o o @ & = = @ X . X X X @ % = : & @ ",
". . . . X = = @ @ @ @ X X = = & & & - 8 0 T >.q.1.q.8.7.&.Y 0 , = @ @ & : = @ o . . . X X @ & = & @ ",
"        . @ @ .     . . 4 T y - - w E #.-.^ &.6.=.8.8.9...;.=.` Q 8 = 5 U 8 @               o % @ o ",
"        . X X       . 6 ` 7...p ! 1.>.4.4.^ &.r.q.{.8.9.X.8.1.:.1.&.E =.r.-.0 .             o O     ",
"        . @ @ .     6 | 1.7.1.&.=.q.r.q.1.} ..3.3.7.6.;...8.1.1.1.| >.+X X{.%.5             o @     ",
"        . @ @ .   . p 6.6.8.8.8.| =.3.@. .P ' +.W r r Y Y ..;.1.;.X.[. X X Xr.p     o     o @ @     ",
"        . @ @ .     - Q 8.8.1.2.1.~ [ S.F.F.F.K.k X @ = - , y ! ) q. X[.[.{.) -           o O @     ",
"          X X .     ; T %.6.1.3.o.n F ~.!.C.U.).h . X X . . . ; M ;.2.[.w.&.Q >           o O @     ",
"        . X X .   @ M q.$.$.>.[ F H d./.Q.b.U.}.h . . . .       = r ( &...>.8.Y &   o o   o @ & o   ",
"  . . . . $ @ X X 0 ;.q.e.( W n d.k.h./.!.V.U.}.m X @ @ . . . . . - y T 1. X X-.9 @ O O O @ & - @ @ ",
". X X . @ = = @ - E 8.8.{.O.n d.x.x.h.!.'.V.N.}.Z = = = $ @ @ @ X X - p ;. X Xq.E - @ @ @ & - : & & ",
". o o . X & & X 6 ! &.6._.P g.T.M.n.j.!.'.Z.N.XXN X @ @ o . . . . . o > E 7.8.=.Q , @ o o + & & @ @ ",
"  . .   o & & @ T >.-.:.+.I L.E.V.n.s.Q.'.V.P.XXm o @ @ o           o @ 8 / &.=.%.y @ o o o @ & o o ",
"  . .   o & & > ) 8.8.,.P H.U.E.V.v.a.Q.'.N.U.XXl o @ X o           o @ > R =.8.1.Q = o . o @ & o   ",
"        o @ & 8 =.4.6.O.L I.E.E.V.v.a.!.!.P.L..Xk o @ X o           . + = p &.>.1.=.8 . . o @ @     ",
"        o @ & 8 ..-.-.] H U.C.Z.B.m.s.|.!.U.I..Xt o @ + o             o @ 8 ) &.=.%.8     . @ @     ",
"        o : 9 R 6.e.7.A S P.v.Z.N.m.s.(.!.P.G.J.q o @ + o             o @ 4 T >.>.>.! 6 - o X @     ",
"        o r %.1.1.e.q.A D N.B.A.V.m.s.!.!.U.I { 0 o @ + o             o @ = p 9.r. X8.%.T - X @ .   ",
"        . Y 9.8.8.;.>.A D N.V.E.V.v.a.!.(.L.g.o.r o @ + o             o X X i 9.8.{.q.9.) > + @ o . ",
"    .   o Y q.q. XOX1.A D R.A.E.B.c.a.!.(.Y.D.] i o @ + o .           o + + p q.8.[.q.q.` > + @ + o ",
"o @ + + & U >.2.q.e.7.A D R.E.E.N.c.a.(.(.Y.D.+.p @ & & @ + + + @ o + @ % % c [.8.8.8.1./ , % = & @ ",
"o @ @ + = p ....%.-.;.V D R.`.E.v.c.s.(.(.L.I ' 6 % = = @ @ + @ @ @ @ @ & = p 6.&.&.&...E > & = = @ ",
"    o . @ 8 p Y ! ` / b D R.E.V.c.n.j.].].P.J  .t + @ @ o o . . . . o o @ @ 0 / ) / T i 0 = @ & @ o ",
"          & = 9 6.@X8.V v R.E.b.c.N.c.].'.N.x..Xl . o o                 o o r 6.{.=.0 @ o   o @ o   ",
"        o @ & 9 9.@Xq.A v Z.E.V.c.P.j.Q.'.b.N.^.l o O O o             o @ O i 9.1.=.0       o @ o   ",
"        o @ & 8 ;.oXq.A v C.A.b.v.V.j.!.!.P.L.^.l o O O o             o @ @ i 9.1.:.9 o   o O @ O o ",
"        o @ @ 8 %.r.7.A v C.E.Z.V.V.l.(.].P.P.}.l o O o o             o o O i >.&.| 9       o @ o   ",
"  o o   o @ @ 8 =.6.=.V D U.E.V.b.N.j.!.'.V.N.).z o O O o             o O @ r >...| 7       X @     ",
"        o & & 6 ) ` ! b S P.A.b.c.M.s.Q.'.V.N./.h   o o                 o o w | | ( 7 X X . o @     ",
"  o o   o 9 E ..1.1.&.N v N.A.Z.n.n.s.E.'.V.N.Y.g X @ @ o o   .       o @ @ w %.>.:.) E u = @ &     ",
"+ @ + + @ p 6.q. XOXw.V D P.E.V.c.n.s.W.'.N.L.D.q % = = % @ @ @ X + + @ & & p 8.>.1.q.w.) , = = o . ",
"+ @ + + + U 7.2.w.7.1.V S P.R.m.s.j.p.W.!.U.S.N - % = = % @ + @ X + + + % & c >.X.1. Xw.) < = = + o ",
"  o o   o Y q.q. X7.;.V v N.m.N.a.j.p.W./.G.h * o X @ @ o o   .     . o @ @ p {.1.q.{.q.) , @ & o o ",
"          U q.9.[.7.;.V D n.s.j.i.h.i.T.G.z #       o o                 o o p {.r.[.q.1.) ; o @ o . ",
"  o     o p 1.9.1.=.X.N D z.p.i.t.i.u.S.z *       o O O o             o @ @ i 6.8.1.q.;.E - @ @ . . ",
"        o 8 Y E ( _ ( m S f.t.y.d y.K g *       o X @ @ o     .       . X X 9 / | ) Q p 0 @ . @ . . ",
"        o & = 6 &.e.>.V F f.G G x K 3 O         . o @ @ o     .       . X . r 6.q.-.0 X X . . X .   ",
"          @ @ 5 %.5.8.A F f.d a j q X             o @ + o             . X . i q.1.-.7 .     . X     ",
"          @ @ 6 :.6.1.C S y.s x 2 @               o + + o             . X . i 9.6.>.7 .     . X     ",
"  o o   o @ @ 6 1.8.,.A F J x f = o o   o o     . o @ @ o             . X X i 1.8.6.0 . .   . X     ",
"o O o o X % & 8 =.-.%.m j B 2 : & o o O O O o   o @ @ @ X . . .     . X @ $ y >.9.q.0 X .   . @     ",
"O @ O o @ = = 6 / _ ^ u 1 6 - & & @ O O O O o o o @ & & @ o o o . . X @ = - r | &.%.7 X X . X @ .   ",
"O @ @ O @ = = = 5 5 5 : @ @ & & & @ O O O @ O o @ @ & & @ X o o . . X @ = - > < 5 < - X X . X @ . . ",
"        o & @ o           o o o + o     O o       o @ @ o           . X @ X .       . .   . X @ . . ",
"        o @ @ o                 + o     o o       o + @ .             . X X .             . X X . . "
};
