/* XPM */
static char *_9fd31fd5e0345cfcaea1dc6a478c13bxGaenZDIOnOIrdfj[] = {
/* columns rows colors chars-per-pixel */
"50 50 224 2 ",
"   c #010305",
".  c #050807",
"X  c #090806",
"o  c #030509",
"O  c #09070C",
"+  c #050A0C",
"@  c #0A0B0D",
"#  c #0E100F",
"$  c #11110F",
"%  c #070B10",
"&  c #0B0D11",
"*  c #100B10",
"=  c #0D1214",
"-  c #121315",
";  c #131519",
":  c #16191A",
">  c #1B1C1D",
",  c #20211E",
"<  c #1A1E20",
"1  c #1E2223",
"2  c #222424",
"3  c #242728",
"4  c #272B28",
"5  c #2C2D2C",
"6  c #312B24",
"7  c #2F302F",
"8  c #31302F",
"9  c #2E3130",
"0  c #333533",
"q  c #363A37",
"w  c #373938",
"e  c #3B3D3A",
"r  c #44261B",
"t  c #44291C",
"y  c #4A2A1E",
"u  c #5C331B",
"i  c #4A2B20",
"p  c #512C23",
"a  c #493C2B",
"s  c #573A26",
"d  c #6C3A24",
"f  c #683B28",
"g  c #733C25",
"h  c #7B3E24",
"j  c #723D2B",
"k  c #7A3F2B",
"l  c #3E413E",
"z  c #57472D",
"x  c #5D432C",
"c  c #42433E",
"v  c #4C433E",
"b  c #524435",
"n  c #5C4534",
"m  c #584939",
"M  c #65442B",
"N  c #794327",
"B  c #73412B",
"V  c #7A422C",
"C  c #614431",
"Z  c #644A32",
"A  c #6B4934",
"S  c #6A4C37",
"D  c #764C33",
"F  c #7A4835",
"G  c #64543E",
"H  c #7B5539",
"J  c #7B543A",
"K  c #3D4240",
"L  c #434543",
"P  c #464945",
"I  c #4B4A45",
"U  c #4B4D4A",
"Y  c #574D44",
"T  c #47504E",
"R  c #4E514C",
"E  c #5B5243",
"W  c #51524E",
"Q  c #5C5B4D",
"!  c #4F5250",
"~  c #535552",
"^  c #545952",
"/  c #5A5C55",
"(  c #5B5D5A",
")  c #625544",
"_  c #6B5A42",
"`  c #685947",
"'  c #755848",
"]  c #675C55",
"[  c #735E51",
"{  c #57605C",
"}  c #5C625B",
"|  c #73604E",
" . c #62645B",
".. c #686659",
"X. c #796858",
"o. c #5E6962",
"O. c #646661",
"+. c #6C6760",
"@. c #656A64",
"#. c #6C6D65",
"$. c #656D69",
"%. c #6C6E6A",
"&. c #746D64",
"*. c #7A6E62",
"=. c #726F6C",
"-. c #67726B",
";. c #6C7368",
":. c #6E736C",
">. c #737366",
",. c #7B7467",
"<. c #73746D",
"1. c #74796E",
"2. c #79786B",
"3. c #6D7472",
"4. c #6F7873",
"5. c #747672",
"6. c #747A73",
"7. c #7A7C74",
"8. c #777979",
"9. c #7B7E79",
"0. c #833F2B",
"q. c #84442B",
"w. c #884528",
"e. c #884929",
"r. c #91472D",
"t. c #924B2C",
"y. c #95522C",
"u. c #9B562E",
"i. c #874D37",
"p. c #8B4C32",
"a. c #934E31",
"s. c #984F35",
"d. c #895535",
"f. c #865935",
"g. c #835A3C",
"h. c #8B5B3A",
"j. c #9C5434",
"k. c #985835",
"l. c #925D3D",
"z. c #9D5C3B",
"x. c #A3562E",
"c. c #A15734",
"v. c #A45C33",
"b. c #AA5E37",
"n. c #A55C39",
"m. c #9A6138",
"M. c #AA6234",
"N. c #A76639",
"B. c #A4653C",
"V. c #AB633B",
"C. c #AC693D",
"Z. c #B66C37",
"A. c #B1663C",
"S. c #B46C3B",
"D. c #BC6E3E",
"F. c #B77039",
"G. c #BB733C",
"H. c #BF783F",
"J. c #C2743E",
"K. c #C37A3F",
"L. c #885842",
"P. c #985D40",
"I. c #A15E44",
"U. c #8C6744",
"Y. c #986546",
"T. c #9E744B",
"R. c #977757",
"E. c #A36644",
"W. c #A46B43",
"Q. c #AB6D44",
"!. c #B46E43",
"~. c #B36A46",
"^. c #BB6E43",
"/. c #AD7244",
"(. c #AB7549",
"). c #B57244",
"_. c #BD7542",
"`. c #BE7843",
"'. c #B2724B",
"]. c #B9774B",
"[. c #BD7A49",
"{. c #A47550",
"}. c #B37A58",
"|. c #83796B",
" X c #827D7C",
".X c #C27544",
"XX c #C47B43",
"oX c #CB7D45",
"OX c #C67648",
"+X c #C47B4B",
"@X c #CB7D4A",
"#X c #D17E47",
"$X c #D17E49",
"%X c #778276",
"&X c #7E8176",
"*X c #7D827A",
"=X c #BA8354",
"-X c #82847C",
";X c #86887B",
":X c #9F877C",
">X c #A58464",
",X c #C68145",
"<X c #CC8246",
"1X c #C6824B",
"2X c #CD824B",
"3X c #CF884B",
"4X c #D28345",
"5X c #D2854B",
"6X c #D48A4D",
"7X c #D8884B",
"8X c #DA8B4D",
"9X c #DD914F",
"0X c #CC8551",
"qX c #C88853",
"wX c #D18651",
"eX c #D58B53",
"rX c #DB8C52",
"tX c #DC9052",
"yX c #E29359",
"uX c #7E8480",
"iX c #868982",
"pX c #918E87",
"aX c #AB9485",
"sX c #B9A089",
/* pixels */
"          + +               o + + o                 o                 + + + o             o o % + o ",
"        . @ @       o       o + @ + o   + 4 ~ ~ W ~ ^ W R q @       o + @ + o             o % & + o ",
"          @ +               o + @ + o   @ ~ 7.&X&X&X7.#.#./ :         + + + o           o o % & o   ",
"          + +               o + + +     @ P 6.7.7.6.%X@.#.U -         o + + o             o + & + o ",
"          @ @ .     o o   o + + & + o o + 0 <.7.7.6.%X#.#.L * o     o + @ + o       .   o o & = + + ",
". X X . @ = = @ + + + + + & & = = & & : > 0 %.7.7.7.7.1.<.R 8 > & @ + & - = & + . + + + + @ = ; & + ",
". . . . + = = @ + + + + : 0 2 = = < 0 ^ } R  .5.=.<.8.8.:./ 6.@.I 5 - = 3 9 - o . . . + + + & = & + ",
"          @ @         : ! :.R 3 0 } $.:.:.^ ^ 8.5.8.8.6.-.o.*X:.5.%.L q ( :.L =             O % + o ",
"          + +       - ~ :.6.%.^ $.*X6.6.1.} / -X X-X-X7.@.;.6.-.-.6.} #.iX-X5.P @           o O o   ",
"          @ @     + l %.5.6.6.1.} 4.7.2.*.` E X.X.X.X.X.` X.2.1.4.$.} -XiX-X-X<.7 o         o @ o   ",
"          @ @ .   . 9 @.6.6.1.6.:. .*.X.A M D L.J g.U.g.J A ' X.&.} 7.&X-X*X-X%.3 o o o   o @ @ o   ",
"          @ @       # P 1.5.1.1.2.E n D p.k.z.E.d.m.).V.Q.I.L.D n ] ;X&X&X&X:.c O     o   o @ @     ",
"          + +       4 ( } 4.1.2.` s D Y.n.b.A.!.N.S.oXD.D.^.~.P.i.A | >.&X-.} / , o       o O @     ",
"          + +     - / &X$.{ #.E M d.d.Q.V.^..X+XS..XeXoXoXXX[.B.E.l.M ) / o.6.7.I * o o o o @ & o   ",
"        . # # + $ c 1.5.6./ b x g.l.z.[..X@X@X0XG.@XyX5X5X2X2X!.!.'.h.s E 7.*X-X:.5 & O O @ & - @ O ",
". + + . @ = = @ , / 6.8.9.X.s h.W.B.N.2X@X5X5XwX`.2XyX8X5X5XeX_.[.+X'.l.A *.-XuX6.I ; @ @ & - ; & & ",
"  o o   + & & + 0 ( $.5.|.Z f.B.!.).Z.5X4X5X6XeXXX5XyX8X5X5X5XXX2X2X.X).f.' 2.5.@.! 1 + o + & & + + ",
"        o & & - / 4.3.%.[ B m.D.XX_.F.8X4X6X6XtXXX2XyX6X4X5X4XK.<X5XoX.XQ.D ` @.3.$.q + o o + & o o ",
"        o & & 2 @.6.8.&.S h.C..X2XXXJ.8X7X8X6X6XK.5XtX4X4X<X5XK.oX5XoXOX).h.S <.6.4.U &   o + & o   ",
"        o @ @ q :.4.<.X.J B._.@X2XXXK.8X8X9X5X5XJ.4X9X4X<X<X3XXX,X6X<XoX[.W.J *.:.4.} 1   o + @     ",
"        o + & e @.$.+._ f.).XX2X0X1XK.6X6X8X2X5X.X<X9X4X<X2X6XXX,X6X2X@XXX).g.` %.$.( 2   o + @     ",
"        o - 4 ( 1.5.&.C m.+X2XwXeX2XXXtX6X6X<XwX_.<X9X7X5X6XeX,X<X6X5X2X@X[.f.m >.%.@.P 2 : @ +     ",
"        + w @.6.6.9.7.Z C.2X2X6XeX2XXXtX6X6X5X6XXX<X9X8X8XrXeX,X2X6X5X5X5X2Xm.G 7.*X-X5.O.U : @     ",
"        = ~ 8.1.:.#.#.Z /.2X2X6X6X<XK.tX5X5X5X3XXX<X9X8X8X8XeX,X6X8X5X5X5X0XW.) 7.7.*X8.5.( > + o   ",
"        = ( 7.7.-X9.#.Z /.2X5X6X5X,XK.tX5X5X2X5X`.,X9X8XrX5X5XXX6X6X5X5X2XwX(.` 7.6.9.7.7.} 1 @ + o ",
"o + + + ; / 8.7.7.*X>.Z /.2X2X5X2X,XK.rX5X5X2XwXH.,X9X7XrX5X2XK.6X6X5X5X2XeX(._ -X6.7.8.5.( 2 = & + ",
"+ + + + : R #.#.#.:.&.Z /.@XoX5X2X,XK.rX4X5X2X5X_.,X8X7XrX5X3XK.6X5X<X2X2XeX]._ &X:.:.<.#.~ 2 = = + ",
"  o o   & e R ^ / } / x /.2X2X5X2X,XXXrX<X2X2X2XG.XX8X4X8X5X3XXX6X5X5X@X2XeX(.z  .} ( / R L > & + o ",
"        o - > l  .#.( C /.2X2X5X2XXXG.rXoXoX@X2XS.XX8X#X5X5X2XH.2X5X@X@X@XwX/.z  .#.( 0 : ; @ @ o   ",
"        o @ & L iXpX7.Z /.2X2X5X2XXXG.eXoXoXoX0XD.XX8XoX$X5X2XG.,X2XoXoXoX3X/.G ;X*X%.5     o @ o o ",
"        o @ & c 9.iX<.Z /.2X2X5X2XXXH.6X<X<XoX3XG.XX6XoX@X@X@XH.2XoXOX+X+X0X/._ ;X6.%.5   o O @ O o ",
"        o @ @ e :.9.<.Z /.2X2X5X2XXXXX6X,X<XoX2X_.oX4XoX@X@X@X.X<XXX'.}.=X=X{._ |.%.@.5     o @ o   ",
"  o o   o @ & e %.9.%.Z /.2X2X2X@XOXH.6X,X<XoX2XH.oX4XoX2X@X@X.X2X).Y.sXsX>XR.` >...} 4     O @     ",
"          @ @ e %.#. .Z /.2X@XoX@XOXG.6X,XoX$X5XF.XX6XoX2X4X5X_.1X/.x ..,.X.R.E >...} 4     o @     ",
"  o o   + - - 0 R R c x /.2X@X@X@XXXG.eX2X#X$XwXG.XXeX@X2X4X4XH.qXT.|.5.pXaX' v ~ ~ T 4 = : = &     ",
"+ + + + = l @.8.*X7.&.Z /.@X@XoX@XXXH.eX5X#X$XwX_.1XeXoX5X4X4X_.=XU.|.e v :X' Y 8.5.4.@.O.W 1 = o . ",
"+ + + + = ~ 8.7.*X*X<.Z /.@X@XoXOXXXS.eX5X$X$XwXS._.eXoX<X4X4X_.=Xf.| ~ I X.n ] 8.%.5.7.*X .2 = + o ",
"  o o   = ~ 8.7.7.1.#.Z Q.@X@X@XOX_.M.eX$X$X$XwXC.S.eXOX@X<XoXS.=Xf.[ 7.*.| s Q 1. .2.;X&X .2 & o o ",
"        - ( 9.&X&X1.+.Z Q.+X.X.X_.D.M.eXoX#XoX2XS.F.5X.X+XoXOXC.[.k.u C C M Z Q ;X2.7.7.7. .2 & o   ",
"  o o   - ( 9.7.&X1...Z W.+X.X^.S.M.v.@X.XOX@XOXM.G.5X_.+X[.[.M.).C.z.l.h.{.U.E ;X7.9.7.<. .2 &     ",
"        = ~ 5.8.<.#...Z E.].!.S.~.v.v.@XD..X.XOXv.S.@XS.^.!.).v.C.C.!.).B.}.U.m 7.6.5.8.%.~ > @     ",
"        @ 0 U ~ ~ / E x Y.'.V.V.V.k.u.+XS.D.D.^.v.A..XM.A.A.S.u.V.v.v.v.y.B.h.a ^ } / ~ L 0 - @     ",
"        o & = e %.6...x d.n.c.c.c.y.u.^.b.S.V.A.u.M.^.x.v.n.n.y.n.y.y.y.e.k.f.b 1.6.@.9 @ + + +     ",
"          + + e %.8.2.n i.j.j.j.j.t.t.~.v.M.v.V.y.b.A.x.c.c.j.t.z.t.w.w.N d.f.E -X1.#.4     . +     ",
"  o o   o + @ e <.1.>.n F p.t.r.a.w.w.n.j.j.j.n.t.j.b.t.a.a.a.w.a.w.h h h p.J Q -X1.#.4 .   . +     ",
"o O o o + % % l 5.5.>.n B q.q.q.q.h h j.r.r.a.s.w.a.j.w.q.q.q.h q.N g V g V M E 7.6.>.5 .   X @     ",
"O @ O o + = = K 5.%. .b f V V V k d g i.0.q.p.p.h p.p.h h V V d j B g g g B f Y 5.6.7.8 X . + @ .   ",
"O @ @ O @ = = e @.@.} b f j d j d f d i.k V F V g i.i.g j j j d d j d d d d M Y :.5.<.5 X . + # .   ",
"        o & & 2 q q 0 6 i y t y t r r p p y p p y p s y y y t r r t r r t t t 6 q e e :   . + @     ",
"        o @ @ o .   . . O @ @ & @ @ O O * @ O + @ & = & X X X X X X + @ $ # @ .   . X .   . + +     "
};
