/* XPM */
static char *c5bc13682fa84463bcd4f20b12c957d6EHtjriFc5D3kILIC[] = {
/* columns rows colors chars-per-pixel */
"50 50 32 1 ",
"  c None",
". c #1B1108",
"X c #1D130C",
"o c #151519",
"O c #191A1A",
"+ c #300303",
"@ c #3A0303",
"# c #25180E",
"$ c #2B1C12",
"% c #3F2613",
"& c #3E2819",
"* c #1F2328",
"= c #21262B",
"- c #2C2C35",
"; c gray23",
": c #490404",
"> c #660505",
", c #523119",
"< c #54321C",
"1 c #3A414B",
"2 c gray27",
"3 c gray33",
"4 c gray35",
"5 c #68696A",
"6 c #960D0D",
"7 c #C70014",
"8 c #F00018",
"9 c #FF4D00",
"0 c #FF8000",
"q c #EAFB00",
"w c #C9956E",
"e c #EEC39A",
/* pixels */
"                                         9        ",
"                                      7  9        ",
"                                     78 8q0       ",
"                                     7888q0       ",
"                    O;;               780q0       ",
"                   OOO;;              79q08       ",
"                   OOOO>;;;O          90q08       ",
"                  OOOO>OO;;;O     7   9q08        ",
"                 OOOOO>OOOeeO    787 90q0         ",
"                OOO    OOeeee    78899q00         ",
"               OO      OO@>e>   788990q0          ",
"                       OOeeee   78990q08          ",
"                       Oweeee    7900q08          ",
"                     >66wwee6    790q08           ",
"                    ::>66www66   890q08           ",
"                    >::>66666>   80q08            ",
"                   >>>>:>>66>>>  80q0             ",
"                  >>:::::>>>>>::89q0              ",
"                  ::=#%,,:::::%*90q0              ",
"                  ===#%,,,,,,,%*0q0               ",
"                  11==%,,,,,,,%*0q0               ",
"                  11==#%,,,%%,%0q0                ",
"                  111==#%%%%%OO0q0                ",
"                  >11==OO,,,OO0q0                 ",
"                 >++1=O;;OO,,OOq0O                ",
"                 >+++=O;;;OO%%OOO                 ",
"                 >++++#%;;OO%%%%.                 ",
"                >+++++#%%%%%O%%.                  ",
"                >+++++3355>OOO                    ",
"               >+++++22244>OO4                    ",
"               >+++++==111OO**                    ",
"              >++++++==111OO***                   ",
"              >+++++===111*****                   ",
"             >++++++==1111o*****                  ",
"            >+++++++==111ooo****                  ",
"           >+++++++-==111++oo****                 ",
"           >++++++ ==111+   oo***                 ",
"          >+++++  -==111     oo**                 ",
"          >+++   -===11      oooo                 ",
"          >++    =====      $oooo                 ",
"          >     &=====      $$$$$                 ",
"               &&&===       X$$$X                 ",
"               $&&&&         XXX                  ",
"              <<$$$          $$$                  ",
"             <<<<<           $$$                  ",
"             <<<<   9        $$$                  ",
"            <<<<   9         $$$                  ",
"           9<$$$9999999999999$XXX99               ",
"         99 $&&&&            X$$$$ 99             ",
"        9   9&&&&       9    $$$$$   9            "
};
