/* XPM */
static char *result[] = {
/* columns rows colors chars-per-pixel */
"50 50 215 2 ",
"   c #5B3B16",
".  c #553A19",
"X  c #5E3C1B",
"o  c #603E1A",
"O  c #68391D",
"+  c #723D1F",
"@  c #523925",
"#  c #6C3920",
"$  c #5E401C",
"%  c #61401A",
"&  c #7D421E",
"*  c #4E402E",
"=  c #5A4024",
"-  c #544532",
";  c #584835",
":  c #594A35",
">  c #5B4D3B",
",  c #69472A",
"<  c #794524",
"1  c #784829",
"2  c #77512E",
"3  c #674C33",
"4  c #764C32",
"5  c #6B5336",
"6  c #795437",
"7  c #7B5A3B",
"8  c #564F44",
"9  c #5B5142",
"0  c #53544E",
"q  c #545954",
"w  c #555A55",
"e  c #5C5D54",
"r  c #5E5E59",
"t  c #675945",
"y  c #6D5C45",
"u  c #795B45",
"i  c #625F59",
"p  c #5D625A",
"a  c #62655C",
"s  c #6A6558",
"d  c #64685F",
"f  c #746958",
"g  c #7B6E5C",
"h  c #5F6662",
"j  c #656761",
"k  c #666963",
"l  c #6B6B64",
"z  c #626B68",
"x  c #6D6E68",
"c  c #746E62",
"v  c #716E68",
"b  c #6D7166",
"n  c #6D716B",
"m  c #6E786F",
"M  c #747163",
"N  c #7D7465",
"B  c #73746D",
"V  c #7A766C",
"C  c #74796E",
"Z  c #7C796C",
"A  c #6E7672",
"S  c #737671",
"D  c #7A7672",
"F  c #767A72",
"G  c #7B7C74",
"H  c #757E7B",
"J  c #7B7E7A",
"K  c #844C28",
"L  c #8C522C",
"P  c #94552D",
"I  c #9B5729",
"U  c #9A5B2D",
"Y  c #855335",
"T  c #855537",
"R  c #8D5A35",
"E  c #8C5D3A",
"W  c #945934",
"Q  c #945C35",
"!  c #9C5E32",
"~  c #A35E2D",
"^  c #A35E33",
"/  c #8E623B",
"(  c #9E6135",
")  c #966138",
"_  c #9B6239",
"`  c #9E6A3B",
"'  c #A5622E",
"]  c #A56235",
"[  c #AA6534",
"{  c #AC6936",
"}  c #A6663B",
"|  c #A9653A",
" . c #A36B3C",
".. c #AB6B3C",
"X. c #B26C3D",
"o. c #AE703E",
"O. c #B5713F",
"+. c #885E45",
"@. c #866345",
"#. c #956845",
"$. c #996B43",
"%. c #896C57",
"&. c #89765D",
"*. c #987458",
"=. c #9C7E5B",
"-. c #A46A41",
";. c #A96C43",
":. c #B46E41",
">. c #AD7244",
",. c #AC744E",
"<. c #A6794C",
"1. c #B37242",
"2. c #BB7342",
"3. c #BC7847",
"4. c #B4754A",
"5. c #BF764A",
"6. c #B57C4F",
"7. c #BC7C4C",
"8. c #A77754",
"9. c #B27552",
"0. c #B47D53",
"q. c #BB7E53",
"w. c #B47D5A",
"e. c #827764",
"r. c #827967",
"t. c #8C7B63",
"y. c #827A6C",
"u. c #8C7D6A",
"i. c #837E74",
"p. c #817F79",
"a. c #C17644",
"s. c #C27947",
"d. c #C27C4B",
"f. c #C17F50",
"g. c #7C8076",
"h. c #778079",
"j. c #7D817A",
"k. c #9F805B",
"l. c #BE824E",
"z. c #A4845D",
"x. c #AE825D",
"c. c #BD8053",
"v. c #B4835D",
"b. c #B9855B",
"n. c #B58C5D",
"m. c #BA8C5C",
"M. c #BC915E",
"N. c #88816E",
"B. c #998466",
"V. c #94846D",
"C. c #848175",
"Z. c #8D8374",
"A. c #83847C",
"S. c #87877D",
"D. c #8B897E",
"F. c #948773",
"G. c #9C8B73",
"H. c #938B7D",
"J. c #9A8D7B",
"K. c #9D937F",
"L. c #A48562",
"P. c #A58863",
"I. c #AB8B65",
"U. c #A58C6C",
"Y. c #AD8E6A",
"T. c #B48564",
"R. c #B58C67",
"E. c #AC906E",
"W. c #BB9363",
"Q. c #B4946D",
"!. c #BA9468",
"~. c #BC946C",
"^. c #A28D72",
"/. c #AB9476",
"(. c #A79479",
"). c #B59571",
"_. c #BE9A73",
"`. c #B49B7D",
"'. c #BC9D7A",
"]. c #C2804D",
"[. c #CD934F",
"{. c #D4954D",
"}. c #D9974C",
"|. c #D7984F",
" X c #D8984F",
".X c #C28253",
"XX c #C38F50",
"oX c #C69153",
"OX c #CB9353",
"+X c #C3955E",
"@X c #C89458",
"#X c #CC995D",
"$X c #D39651",
"%X c #D69955",
"&X c #D89A53",
"*X c #D29A5B",
"=X c #D89C58",
"-X c #C39561",
";X c #CB9A63",
":X c #C89967",
">X c #C39A6A",
",X c #D29E64",
"<X c #C29973",
"1X c #C19A75",
"2X c #D5A164",
"3X c #C9A479",
"4X c #7F8182",
"5X c #838681",
"6X c #878A86",
"7X c #8C8B83",
"8X c #928E82",
"9X c #9B9385",
"0X c #969289",
"qX c #A89883",
"wX c #B09980",
/* pixels */
"}.}.}.}.}.}.}.}.}.}.}.}.}.}.}.}.}.}.}.}.@X`.A.S.A.S.C.G B Z /.$X}.}.}.}.}.}.}.}.}.}.}.}.}.}.}.}.}.}.",
"}.}.}.}.}.}.}.}.}.}.}.}.}.}.}.}.}.}.}.}.@XJ.G G G Z J x j B B.$X}.}.}.}.}.}.}.}.}.}.}.}.}.}.}.}.}.}.",
"}.}.}.}.}.}.}.}.}.}.}.}.}.}.}.}.}.}.}.}.OXU.J Z G G j.x j B R.}.}.}.}.}.}.}.}.}.}.}.}.}.}.}.}.}.}.}.",
"}.}.}.}.}.}.}.}.}.}.}.}.}.}.}.}.}.}.}. X{.I.G H G F J B B v k.|.}.}.}.}.}.}.}.}.}.}.}.}.}.}.}.}.}.}.",
"}.}.}.}.}.}.}.}.}.}.}.|.%X}.}.}.}.}.%X2X~.N n S G B J S S l g 3X2X=X X X X&X&X X}.}.}.}.}.}.}.}.}.}.",
"}.}.}.}.}.}.}.}.}.}.}.*X`._.$X{.#X!.'.K.C.q h S n n G F J a V 9X(.`.Q.OX X2X3X;X}.}.}.}.}.}.}.}.}.}.",
"}.}.}.}.}.}.}.}.}.}.*X`.D.C.z.M.(.H.G n x w w h.C G G F G a C G b G S.V.Q.qX0XqX+X}.}.}.}.}.}.}.}.}.",
"}.}.}.}.}.}.}.}. X;XwXA.F C b M j.g.h.F F a p J g.g.J G A a G B b b m p A.7XS.j.K.+X}.}.}.}.}.}.}.}.",
"}.}.}.}.}.}.}.}.*X`.A.S F C C b e g.g.&.g t > f e.F.(.Z.i.M S.V Z S p k S.S.A.5XA./.$X}.}.}.}.}.}.}.",
"}.}.}.}.}.}.}.}.{.Y.i.S C C C g.e s g f 6 7 7 *.E.*X$X$X*X#X_.(.i.v p S.g.A.g.A.A.E.|.}.}.}.}.}.}.}.",
"}.}.}.}.}.}.}.}. XOX&.n H m B i.f : , #.k.>.$.x._.=X}.}.}.}.}.=XW.u.G A.j.A.j.F e.oX}.}.}.}.}.}.}.}.",
"}.}.}.}.}.}.}.}.}.-Xy.p A n Z c : $ 2 x.l.>.;.v.>X%X}.}.}.}.}.}.|.#XU.V C j.S a B W.|.}.}.}.}.}.}.}.",
"}.}.}.}.}.}.}.}.OX(.4XA p n s 3 , 2 R l.7.o. .v.<X=X}.}.}.}.}.}.}.}.*XB.l a p F A.Z.@X}.}.}.}.}.}.}.",
"}.}.}.}.}.}.}.|.Q.S.A H p 8 = , / E R l.7.1. .v.<X=X}.}.}.}.}.}.}.}.}.*X=.e G j.A.A.U.|.}.}.}.}.}.}.",
"}.}.}.}.}.}.}.[.Z.H H g.N : 4 T ` ) Q l.].1. .b.<X&X}.}.}.}.}.}.}.}.}.|.*X^.A.A.5XG F.#X}.}.}.}.}.}.",
"}.}.}.}.}.}.}.R.k b C N.y 3 <.-.-.( U l.d.1.} c.<X=X}.}.}.}.}.}.}.}.}.}.}.#XG.J G m V I.&X}.}. X}.}.",
"}.}.}.}.}.}.$X/.n h b N 5 / 6...:.^ ! 7.d.1.| b.<X=X}.}.}.}.}.}.}.}.}.}.}.}.>XZ x a k G.%X}.}.}.}.}.",
"}.}.}.}.}.}.;XZ.H h.C 5 /  .3.O.:.^ U 7.d.:...v.1X%X}.}.}.}.}.}.}.}.}.}.}.}.$Xu.k F B N.+X X}.}.}.}.",
"}.}.}.}.}. XW.C.A A b 5 #.<.l.O.X.] U l.f.:.-.R.1X=X|.}.}.}.}.}.}.}.}.}.}.}.}.Q.C B B C ~.&X X}.}.}.",
"}.}.}.}.}.&XQ.G A S M 5 ` 4.3.O.:.^ U l.d.4.-.8._.%X}.}.}.}.}.}.}.}.}.}.}.}.}.+XC B B G /.&X}.}.}.}.",
"}.}.}.}. X$XV.a p r 8 . >...O.X.X.^ U .Xd.4.-.Y.'.$X}.}.}.}.}.}.}.}.}.}.}.}.}.OXr.r p p N [.}.}.}.}.",
"}.}.}.=X>X1XK.j.5XA.9    .' O.{ X.| ! c.c.>.#.%.=.$X}.}.}.}.}.}.}.}.}.}.}.}.}.[.=.G G C 8X_.:X,X}.}.",
"}.}.}.-XJ.G S n S J > X  .{ a.X.:.| U 7.q.4.Y 7 L.$X}.}.}.}.}.}.}.}.}.}.}.}.}.{.k.G G A.A.J C.G.*X}.",
"}.}.}.M.9XD J S n V > o ..{ s.X.:.^ I q.q.,.T %.<.$X}.}.}.}.}.}.}.}.}.}.}.}.}.{.P.j.F g.j.G V y.OX}.",
"}.}.}.n.8XF j.5X4XD ; $  .O.s.X.X.^ U c.9.,.*.+.<.&X}.}.}.}.}.}.}.}.}.}.}.}.}.[.P.S.C g.G J D e.OX}.",
"}.}.|.M.D.Z G H J D > X  .2.s.X...! U q.q.,.*.f U.%X}.}.}.}.}.}.}.}.}.}.}.}.}.{.I.D.G G G S S N OX}.",
"}.}.}.M.i.k b x A D > %  .2.d.X.| ^ ! q.w.9.T &.&.{.|.}.}.}.}.}.}.}.}.}.}.}.}.[.P.S.S n B x j N OX}.",
"}.}.}.+Xu.s p q r a - X  .5.s.[ | ! ! .Xq.,.1 5 *.%X|.}.}.}.}.}.}.}.}.}.}.}.}.{.z.x a r r a l u.@X}.",
"}.}.}.%XW.z.f p z i - X } a.a.~ | | ^ .Xl.>.Q #._.=X}.}.}.}.}.}.}.}.}.}.}.}.}.{.z.d d d e k.W.-X$X}.",
"}.}.}.}.}.OXV.6X0Xi.>    .O.a.[ ....^ .Xd..._ x._.%X}.}.}.}.}.}.}.}.}.}.}.}.}.{.Y.D.A.C N oX}.}.}.}.",
"}.}.}.}.}.[.V.A.6XJ >   ` O.a.' X...~ s.d.X.} w.R.=X}.}.}.}.}.}.}.}.}.}.}.}.}.{.Y.7XF C Z OX}.}.}.}.",
"}.}.}.}.|.OXt.G A.C.> $  .O.O.] ..;.U 7.d.:.-.w.).%X}.}.}.}.}.}.}.}.}.}.}.}.}.{.I.S.C B r.OX}.}.}.}.",
"}.}.}.}.}.OXt.D J D > . ` 2.].{ 1.;.( .Xd.:.-.w.1X%X}.}.}.}.}.}.}.}.}.}.}.}.}.{.w.J k d N OX}.}.}.}.",
"}.}.}.}.}.[.t.V n v > X  .1.a.[ .. .! ].d.1. .w.<X%X}.}.}.}.}.}.}.}.}.}.}.}.}.{.L.D d p M oX}.}.}.}.",
"}.}.}.}.$XoXt.k j w @ ,  .2.2.' ..} U 7.d.O.| 0.>X%X}.}.}.}.}.}.}.}.}.}.}.}.}.{.L.x j p g XX|.|.}.}.",
"}.}.}.*X!.Y.N i r 0 @ X ` 1.3.[ ..] I 5.d.1.{ 0.>X%X X}.}.}.}.}.}.}.}.}.}.}.{.{.z.s p e p B.!.!.%X}.",
"}.|.}.M.qXD.8X7X6XS.> X ` :.d.-.-.} P 7.7.4.} 8.~.%X}.}.}.}.}.}.}.}.}.}.}.}.}.{.I.S.g.g.h.C.D.F.@X}.",
"}.}.}.m.H.B V G G F - X  .1.2.! ^ ! P 3.7.4.#.T.:X&X}.}.}.}.}.}.}.}.}.}.}.}.}.{.I.Z d b h.C.g.r.OX}.",
"}.}.}.n.H.F i.p.B B :   } :.2.~ ! W P 4.7.,.8.<X&X}.}.}.}.}.}.}.}.}.}.}.}.}.}.{.I.A.d C S.A.C N OX|.",
"}.}.}.n.0XF i.p.B v : X } ^ :.I P W W 9.w.T.-X&X}.}.}.}.}.}.}.}.}.}.}.}.}.}.}.{.U.8Xg.h.h.G G N OX}.",
"}.|.}.n.8XS i.G S l ; o _ P ..K P W L 8.T.<X&X}.}.}.}.}.}.}.}.}.}.}.}.}.}.}.}.[.P.A.J J j.F S y.@X}.",
"}.}.}.m.H.D G b k j - X ) L ^ & K L Y T.,X&X}.}.}.}.}.}.}.}.}.}.}.}.}.}.}.}.}.{.L.G G S F F j N oX}.",
"}.}.}.;X^.u.a 0 q q * X Q K W + K Y #.#X&X}.}.}.}.}.}.}.}.}.}.}.}.}.}.}.}.}.}.{.=.q 0 0 e c g B.$X}.",
"}.}.}.%X$XoXu.F H B ; X E < K # 4 +.b.$X}.}.}.}.}.}.}.}.}.}.}.}.}.}.}.}.}.}.}.{.z.i.J G M b.OX$X}.}.",
"}.}.}.}.}.[.V.m H J 8 X E < < O +.+X&X}.}.}.}.}.}.}.}.}.}.}.}.}.}.}.}.}.}.}.}.{.Y.7XS S r.OX}.}.}.}.",
"}.}.}.}. X[.V.S A D 3 X T < + 6 b.&X}.}.}.}.}.}.}.}.}.}.}.}.}.}.}.}.}.}.}.}.}.[.Y.7XS S Z OX}.}.}.}.",
"}.}.}.}.|.[.V.h.m M 3 . Y O +.R. X}.}.}.}.}.}.}.}.}.}.}.}.}.}.}.}.}.}.}.}.}.}.{.I.g.S F y.oX}.}.}.}.",
"}.}.}.}.|.{.F.j.n M > @ u @.-X$X}.}.}.}.}.}.}.}.}.}.}.}.}.}.}.}.}.}.}.}.}.}.}.{.I.C F J Z.OX}.}.}.}.",
"}.}.}.}.}.$XV.A z j 8 y L.b.%X}.}.}.}.}.}.}.}.}.}.}.}.}.}.}.}.}.}.}.}.}.}.}.}.}.z.C G j.Z.OX}.}.}.}.",
"}.}.}.}.}.|.P.t.e.&.=.XX%X X}.}.}.}.}.}.}.}.}.}.}.}.}.}.}.}.}.}.}.}.}.}.}.}.}.}.v.&.t.t.U.$X}.}.}.}."
};
