/* XPM */
static char *a5c3901dbc654b899384d8f3c3c31351lB1wMaeyhjhjjH78[] = {
/* columns rows colors chars-per-pixel */
"50 50 219 2 ",
"   c #1A070D",
".  c #090A17",
"X  c #0B0D16",
"o  c #160E1A",
"O  c #21080F",
"+  c #230B13",
"@  c #240B15",
"#  c #2D0C16",
"$  c #310F17",
"%  c #2B121B",
"&  c #281618",
"*  c #38171A",
"=  c #3D2318",
"-  c #0A0E24",
";  c #091628",
":  c #0A122C",
">  c #151423",
",  c #091936",
"<  c #281E29",
"1  c #331522",
"2  c #3B1A25",
"3  c #3B1B25",
"4  c #00292C",
"5  c #182537",
"6  c #26212F",
"7  c #382626",
"8  c #212637",
"9  c #372D37",
"0  c #3C323A",
"q  c #4F2D13",
"w  c #663C11",
"e  c #783E18",
"r  c #441723",
"t  c #441D2C",
"y  c #481E2E",
"u  c #491F30",
"i  c #452322",
"p  c #4D2426",
"a  c #4D2528",
"s  c #552D22",
"d  c #54252B",
"f  c #5B2A2D",
"g  c #4D3322",
"h  c #543422",
"j  c #593B24",
"k  c #4D2030",
"l  c #582632",
"z  c #473938",
"x  c #6B3726",
"c  c #642C35",
"v  c #682D35",
"b  c #703836",
"n  c #0E5723",
"m  c #724B06",
"M  c #674A1D",
"N  c #784619",
"B  c #6A5314",
"V  c #7A5917",
"C  c #7A6211",
"Z  c #644324",
"A  c #684A25",
"S  c #734E26",
"D  c #724C29",
"F  c #775229",
"G  c #684131",
"H  c #7D4536",
"J  c #6E5338",
"K  c #7C5738",
"L  c #427032",
"P  c #07244A",
"I  c #112344",
"U  c #052956",
"Y  c #32364C",
"T  c #463E46",
"R  c #5C3A41",
"E  c #3B425E",
"W  c #3F4F6B",
"Q  c #584646",
"!  c #5B504A",
"~  c #6A5A4B",
"^  c #7D5E44",
"/  c #406851",
"(  c #78624B",
")  c #525B7F",
"_  c #5C6077",
"`  c #706E74",
"'  c #813C18",
"]  c #864B17",
"[  c #8E4D19",
"{  c #8B5110",
"}  c #885716",
"|  c #93531A",
" . c #98581A",
".. c #9E591C",
"X. c #A35B1C",
"o. c #886817",
"O. c #966916",
"+. c #8F7113",
"@. c #977618",
"#. c #AB641F",
"$. c #AD6D1C",
"%. c #B4681E",
"&. c #A57A19",
"*. c #B5711B",
"=. c #865828",
"-. c #8E4F32",
";. c #865E37",
":. c #8A6524",
">. c #976628",
",. c #8D6132",
"<. c #88633D",
"1. c #956837",
"2. c #9C6D35",
"3. c #9D6D39",
"4. c #9E7134",
"5. c #A76223",
"6. c #B56E22",
"7. c #BB6C21",
"8. c #A06F38",
"9. c #A67338",
"0. c #A4723A",
"q. c #AE793C",
"w. c #B37C3E",
"e. c #C36C21",
"r. c #C96823",
"t. c #C77722",
"y. c #CA7522",
"u. c #D87324",
"i. c #D37B25",
"p. c #DC7C26",
"a. c #E37D26",
"s. c #E97B27",
"d. c #F07A28",
"f. c #9C4F49",
"g. c #885449",
"h. c #B25853",
"j. c #87684A",
"k. c #946F57",
"l. c #A97741",
"z. c #B67F41",
"x. c #8D7960",
"c. c #967763",
"v. c #C6635C",
"b. c #9C8417",
"n. c #AB8419",
"m. c #B98D1A",
"M. c #B8971B",
"N. c #B7803E",
"B. c #C5881D",
"V. c #C29A1C",
"C. c #D5981E",
"Z. c #CEAD1D",
"A. c #D5AB1E",
"S. c #DBAF1E",
"D. c #DFB51F",
"F. c #E5B81F",
"G. c #DB8823",
"H. c #DA9823",
"J. c #E38325",
"K. c #E58D23",
"L. c #EB8428",
"P. c #E98929",
"I. c #F38429",
"U. c #F58528",
"Y. c #F38A2A",
"T. c #FB8B2A",
"R. c #EB9424",
"E. c #FA922C",
"W. c #D5BC21",
"Q. c #EBA622",
"!. c #F2AF22",
"~. c #E6B921",
"^. c #F3B322",
"/. c #F4BB21",
"(. c #F9BF21",
"). c #EDC221",
"_. c #F4C521",
"`. c #FDC521",
"'. c #F7CB22",
"]. c #BC8341",
"[. c #BB8445",
"{. c #AB866C",
"}. c #B4896F",
"|. c #B78775",
" X c #C28744",
".X c #C58946",
"XX c #CA8D47",
"oX c #CD8E48",
"OX c #CF9048",
"+X c #D5944A",
"@X c #D9974C",
"#X c #D58975",
"$X c #E1967F",
"%X c #5A648B",
"&X c #5D6891",
"*X c #666B82",
"=X c #7E7D80",
"-X c #606A94",
";X c #646F9B",
":X c #65719D",
">X c #6B769E",
",X c #777E9C",
"<X c #6C76A0",
"1X c #737DA1",
"2X c #7D829F",
"3X c #8A938E",
"4X c #B6A29C",
"5X c #848AA6",
"6X c #C6A68A",
"7X c #D5A689",
"8X c #E8A088",
"9X c #E9BB99",
"0X c #F7BC9B",
"qX c #FAC19F",
"wX c #EAC5A5",
"eX c #FCC3A0",
"rX c #F7CDB0",
"tX c #B6BDC7",
"yX c #EDDCD6",
/* pixels */
"@X@X@X@X@X@X@X@X@X@X@X@X@X@X+X X].8.M M M M S q.]..X@X@X@X@X@X@X@X@X@X@X@X@X@X@X@X@X@X@X@X@X@X@X@X@X",
"@X@X@X@X@X@X@X@X@X X].@X+X].4.V B +.B.B.B.G.B.V B V q. X+X@X@X@X@X@X@X@X@X@X@X@X@X@X@X@X@X@X@X@X@X@X",
"@X@X@X@X@X@X@X@XoX:.o.2.2.@.b.M.m.&.V N ..r.s.P.R.C.@.:.9.OX@X@X@X@X@X@X@X@X@X@X@X@X@X@X@X@X@X@X@X@X",
"@X@X@X@X@X@X@X@XOX=.m.&.$.o.V o.o.&.Z.Z.n.} | p.I.a.K.A.@.8.+X@X@X@X@X@X@X@X@X@X@X@X@X@X@X@X@X@X@X@X",
"@X@X@X@X@X@X@X@X@X X=.O.V n.M.F.)._._._._.D.n. .L.T.L.R.~.n.4.@X@X@X@X@X@X@X@X@X@X@X@X@X@X@X@X@X@X@X",
"@X@X@X@X@X@X@X@X@X].V +.F._.`.`.`.`.`.`.`.`.'.M.t.y. .| V.W.o.].@X@X@X@X@X@X@X@X@X@X@X@X@X@X@X@X@X@X",
"@X@X@X@X@X@X@X@X].:.A.'.`.`.`.`.`.`.`.`.`.`.`.~.O.} b.b.o.@.n.=.@X@X@X@X@X@X@X@X@X@X@X@X@X@X@X@X@X@X",
"@X@X@X@X@X@X@X].:.A._.`.`.`.`.`.`.`.`.`.`.`.D.+.M.F.'.!.H.@.@.@.q.@X@X@X@X@X@X@X@X@X@X@X@X@X@X@X@X@X",
"@X@X@X@X@X@X].:.A._.`.`.`.`.`.`.`.`.`.`.`.F.@.V._.(.K.a.e.*.@.o.2.@X@X@X@X@X@X@X@X@X@X@X@X@X@X@X@X@X",
"@X@X@X@X@XoX>.M.'.`.`.`.`.`.`.`.`.`.`.`._.m.@._.(.K.L.7.G K $.S +X@X@X@X@X@X@X@X@X@X@X@X@X@X@X@X@X@X",
"@X@X@X@X@XN.o.).^.Q.`.`.`.`.`.`.`.`.`.`.F.o.S.`.K.L.t.x |.{.N =.@X@X@X@X@X@X@X@X@X@X@X@X@X@X@X@X@X@X",
"@X@X@X@X+X:.M./.G.^.`.`.`.`.`.`.`.`.`._.A.V /.K.L.7.s f H 7X^ ].@X@X@X@X@X@X@X@X@X@X@X@X@X@X@X@X@X@X",
"@X@X@X@X+XM Q.J.| A.`.`.Q.^.`.`.`.`.`._.+.m.R.I.%.q w { m {.j.].@X@X@X@X@X@X@X@X@X@X@X@X@X@X@X@X@X@X",
"@X@X@X@X1.&.K.s.} Z._.^.J.R.`.`.`.`.Q.~.C B.d.Y.w x N x g.}.<.+X@X@X@X@X@X@X@X@X@X@X@X@X@X@X@X@X@X@X",
"@X@X@X@XZ B.a.e.O./.(.J.d.J.`.`.`.Q.s...O.J.Y.X.-.h.c 7 g.k.3.@X@X@X@X@X@X@X@X@X@X@X@X@X@X@X@X@X@X@X",
"@X@X@X+XA B.a.#.&.`./.a.U.a.!.`.(.K.I.' } U.a.] f.R ; ; 4Xc.3.@X@X@X@X@X@X@X@X@X@X@X@X@X@X@X@X@X@X@X",
"@X@X@X3.@.i.p.] e.(.R.d.T.d.K.`./.a.T.[ e T.y.q Q W 4 n c.j. X@X@X@X@X@X@X@X@X@X@X@X@X@X@X@X@X@X@X@X",
"@X@X@X,.| a.i.e u.B.%.Y.T.T.a.^.~.p.T...[ Y.5.j.4XtX/ n x.K .X@X@X@X@X@X@X@X@X@X@X@X@X@X@X@X@X@X@X@X",
"@X@X@X9.N p.| q L.| | E.T.T.U.J.O.e.E...| P.=.6XrXyX3XL 6X}.1.+X@X@X@X@X@X@X@X@X@X@X@X@X@X@X@X@X@X@X",
"@X@X@X@XD X.N N G.X.| E.T.T.T.L.e 7.E.y.] p.=.6XqXqXwX6X0XwX^ ].@X@X@X@X@X@X@X@X@X@X@X@X@X@X@X@X@X@X",
"@X@X@X@X].=.1.2.#.e.[ J.T.T.T.P.] 7.T.i.e X.=.6XeXeXqXeX0XwX^ ].@X@X@X@X@X@X@X@X@X@X@X@X@X@X@X@X@X@X",
"@X@X@X@X@XXXOX9.| P.N y.T.I.T.P.[ %.E...b -.j 7XeXeXeXeXqX9X^  X@X@X@X@X@X@X@X@X@X@X@X@X@X@X@X@X@X@X",
"@X@X@X@X@X@X@X+X=.6.N 5.i.| G.Y.t.] P.7.H v.#X0XeXeX9X7XwX{.1.@X@X@X@X@X@X@X@X@X@X@X@X@X@X@X@X@X@X@X",
"@X@X@X@X@X@X@X@Xw.M ,.N i.[ e.L...= #.P.N i f.$X0XeX9Xc.c.k.9.@X@X@X@X@X@X@X@X@X@X@X@X@X@X@X@X@X@X@X",
"@X@X@X@X@X@X@X@X@Xz..Xq.>.#.] | =.7 & ] N , I z g.$X8X7X}.K XX@X@X@X@X@X@X@X@X@X@X@X@X@X@X@X@X@X@X@X",
"@X@X@X@X@X@X@X@X@X@X@X+X8.w =.q.z.7 - - > , P U I 7 s G J l.+X@X@X@X@X@X@X@X@X@X@X@X@X@X@X@X@X@X@X@X",
"@X@X@X@X@X@X@X@X@X@X@X.X( ~ ,.].j.=X9 . . : : , U 5 D ].].@X@X@X@X@X@X@X@X@X@X@X@X@X@X@X@X@X@X@X@X@X",
"@X@X@X@X@X@X@X@X@X@X@X.Xj.! & g z ` 9 O + X . > 8 z w.@X@X@X@X@X@X@X@X@X@X@X@X@X@X@X@X@X@X@X@X@X@X@X",
"@X@X@X@X@X@X@X@X@X@X@X@X+X2.Z & < T > : o O & ) 2X` ,.@X@X@X@X@X@X@X@X@X@X@X@X@X@X@X@X@X@X@X@X@X@X@X",
"@X@X@X@X@X@X@X@X@X@X@X@X@X@XOX;.` 3XP P : o Y ;X>X,X~  X@X@X@X@X@X@X@X@X@X@X@X@X@X@X@X@X@X@X@X@X@X@X",
"@X@X@X@X@X@X@X@X@X@X@X@X@X@X@X[.~ Y U , - 5 -X:X;X1X` 1.@X@X@X@X@X@X@X@X@X@X@X@X@X@X@X@X@X@X@X@X@X@X",
"@X@X@X@X@X@X@X@X@X@X@X@X@X@X@X+X3.5 P : - Y ;X;X;X:X,X( .X@X@X@X@X@X@X@X@X@X@X@X@X@X@X@X@X@X@X@X@X@X",
"@X@X@X@X@X@X@X@X@X@X@X@X@X@X@XoXJ P , : - ) :X;X;X;X>X_ l.@X@X@X@X@X@X@X@X@X@X@X@X@X@X@X@X@X@X@X@X@X",
"@X@X@X@X@X@X@X@X@X@X@X@X@X@X@X Xj , : - > %X:X;X:X;X<X*X<.OX@X@X@X@X@X@X@X@X@X@X@X@X@X@X@X@X@X@X@X@X",
"@X@X@X@X@X@X@X@X@X@X@X@X@X@X@X9.i r o . . E :X;X;X;X;X1XQ ].@X@X@X@X@X@X@X@X@X@X@X@X@X@X@X@X@X@X@X@X",
"@X@X@X@X@X@X@X@X@X@X@X@X@X@XoXh f v k @ . 8 ;X:X;X:X1X5Xz ].@X@X@X@X@X@X@X@X@X@X@X@X@X@X@X@X@X@X@X@X",
"@X@X@X@X@X@X@X@X@X@X@X@X@X@XXX= v c k %   6 &X&X>X1X*XT & z.@X@X@X@X@X@X@X@X@X@X@X@X@X@X@X@X@X@X@X@X",
"@X@X@X@X@X@X@X@X@X@X@X@X@X@X9.i v l 2   @ o 6 < 9 0 & O * 3.+X@X@X@X@X@X@X@X@X@X@X@X@X@X@X@X@X@X@X@X",
"@X@X@X@X@X@X@X@X@X@X@X@X@X@Xj f c k % % +           $ d d Z oX@X@X@X@X@X@X@X@X@X@X@X@X@X@X@X@X@X@X@X",
"@X@X@X@X@X@X@X@X@X@X@X@X@X@XF i 2 1 @ t t 2 2 2 2 t y v d Z XX@X@X@X@X@X@X@X@X@X@X@X@X@X@X@X@X@X@X@X",
"@X@X@X@X@X@X@X@X@X@X@X@X@X@X,.$ +   % y u u u y l d 1 k f h w.@X@X@X@X@X@X@X@X@X@X@X@X@X@X@X@X@X@X@X",
"@X@X@X@X@X@X@X@X@X@X@X@X@X@XD * r * 2 y y y y y f 2 1 u v p ,.@X@X@X@X@X@X@X@X@X@X@X@X@X@X@X@X@X@X@X",
"@X@X@X@X@X@X@X@X@X@X@X@X@X@XXXD + j h t y y y l d & u y v p ,.@X@X@X@X@X@X@X@X@X@X@X@X@X@X@X@X@X@X@X",
"@X@X@X@X@X@X@X@X@X@X@X@X@X@X@XXXw.9.g t y y k v * 2 u k c p 9.@X@X@X@X@X@X@X@X@X@X@X@X@X@X@X@X@X@X@X",
"@X@X@X@X@X@X@X@X@X@X@X@X@X@X@X@X@X,.2 y k l c f * t u l d Z XX@X@X@X@X@X@X@X@X@X@X@X@X@X@X@X@X@X@X@X",
"@X@X@X@X@X@X@X@X@X@X@X@X@X@X@X@X@X,.+ 1 r f p F i % 2 a i F +X@X@X@X@X@X@X@X@X@X@X@X@X@X@X@X@X@X@X@X",
"@X@X@X@X@X@X@X@X@X@X@X@X@X@X@X@X@X,.$ # # h 1..Xj $ # @ = ].@X@X@X@X@X@X@X@X@X@X@X@X@X@X@X@X@X@X@X@X",
"@X@X@X@X@X@X@X@X@X@X@X@X@X@X@X@X@X,.* r * q.@X@Xq.* r # ;.+X@X@X@X@X@X@X@X@X@X@X@X@X@X@X@X@X@X@X@X@X",
"@X@X@X@X@X@X@X@X@X@X@X@X@X@X@X@X@X1.* * D +X@X@X X= * h ].@X@X@X@X@X@X@X@X@X@X@X@X@X@X@X@X@X@X@X@X@X",
"@X@X@X@X@X@X@X@X@X@X@X@X@X@X@X@X@XOXF D XX@X@X@X@X3.Z w.@X@X@X@X@X@X@X@X@X@X@X@X@X@X@X@X@X@X@X@X@X@X"
};
