/* XPM */
static char *e097dea7c4ad41fdf70c40713a72609ad68ITRNY3VRSPXUp[] = {
/* columns rows colors chars-per-pixel */
"50 50 207 2 ",
"   c #010305",
".  c #050807",
"X  c #030509",
"o  c #09070C",
"O  c #050A0C",
"+  c #0A0B0D",
"@  c #090806",
"#  c #0E100F",
"$  c #1D130B",
"%  c #11110F",
"&  c #070B10",
"*  c #0B0D11",
"=  c #0D1214",
"-  c #121315",
";  c #151519",
":  c #16191B",
">  c #191A1A",
",  c #100B10",
"<  c #300303",
"1  c #3A0303",
"2  c #25180E",
"3  c #2B1C12",
"4  c #20211E",
"5  c #3F2613",
"6  c #3E2819",
"7  c #1A1E20",
"8  c #1E2223",
"9  c #1F2328",
"0  c #222424",
"q  c #21262B",
"w  c #2C2D2C",
"e  c #272B28",
"r  c #31302F",
"t  c #2F2F30",
"y  c #333533",
"u  c #363A37",
"i  c #3B3C3B",
"p  c #373938",
"a  c #2F2F2C",
"s  c #490404",
"d  c #660505",
"f  c #44271A",
"g  c #44291B",
"h  c #4B2B1E",
"j  c #53311A",
"k  c #5C331B",
"l  c #4E2D20",
"z  c #512C23",
"x  c #563926",
"c  c #493C2B",
"v  c #6B3A24",
"b  c #673C26",
"n  c #733C25",
"m  c #7B3E24",
"M  c #783F2B",
"N  c #3E413E",
"B  c #5D432C",
"V  c #57472D",
"C  c #42433E",
"Z  c #4C433E",
"A  c #5D4534",
"S  c #564838",
"D  c #65452B",
"F  c #7A422B",
"G  c #774228",
"H  c #644A33",
"J  c #6B4934",
"K  c #674835",
"L  c #774A35",
"P  c #64543E",
"I  c #7C5439",
"U  c #3A414B",
"Y  c #3D4240",
"T  c #444543",
"R  c #4B4A45",
"E  c #4A4C49",
"W  c #554C45",
"Q  c #4E514D",
"!  c #47504E",
"~  c #5B5243",
"^  c #51524E",
"/  c #5C5B4D",
"(  c #4F5250",
")  c #535552",
"_  c #565853",
"`  c #5A5C55",
"'  c #5B5C5A",
"]  c #6B5A42",
"[  c #675947",
"{  c #755848",
"}  c #675C55",
"|  c #735E51",
" . c #5C625B",
".. c #57605C",
"X. c #73604E",
"o. c #62645B",
"O. c #696759",
"+. c #786758",
"@. c #5E6962",
"#. c #646661",
"$. c #646964",
"%. c #6C6D65",
"&. c #656D69",
"*. c #6C6D6A",
"=. c #6C6760",
"-. c #746D64",
";. c #7A6F63",
":. c #67726B",
">. c #6E736C",
",. c #6D7166",
"<. c #727266",
"1. c #73746D",
"2. c #75786E",
"3. c #7A7568",
"4. c #6C7472",
"5. c #6F7873",
"6. c #747673",
"7. c #747A73",
"8. c #7A7C74",
"9. c #7B7E79",
"0. c #777979",
"q. c #960D0D",
"w. c #833F2B",
"e. c #83442B",
"r. c #884528",
"t. c #874829",
"y. c #924B2B",
"u. c #91472D",
"i. c #95512C",
"p. c #9B562E",
"a. c #8A4C32",
"s. c #884D37",
"d. c #924D30",
"f. c #984F35",
"g. c #865935",
"h. c #8A5B39",
"j. c #875637",
"k. c #9D5433",
"l. c #925D3D",
"z. c #985937",
"x. c #A3562E",
"c. c #A45C33",
"v. c #A45B3A",
"b. c #AA5E37",
"n. c #9A6138",
"m. c #AA6235",
"M. c #A4653C",
"N. c #AC643B",
"B. c #AB6A3D",
"V. c #A9693B",
"C. c #B3663C",
"Z. c #B46B3A",
"A. c #BB6E3E",
"S. c #BB743C",
"D. c #B77038",
"F. c #C67B3E",
"G. c #945A41",
"H. c #A15E44",
"J. c #8B6742",
"K. c #986546",
"L. c #977757",
"P. c #9E744B",
"I. c #A66A44",
"U. c #BB6D44",
"Y. c #B26D46",
"T. c #AD7243",
"R. c #AA7749",
"E. c #B57343",
"W. c #BD7542",
"Q. c #BD7A48",
"!. c #B6754B",
"~. c #B37A58",
"^. c #A47550",
"/. c #83796B",
"(. c #C27544",
"). c #C37A44",
"_. c #CC7D45",
"`. c #C47B4A",
"'. c #CB7D4A",
"]. c #C67648",
"[. c #7E8176",
"{. c #7D827A",
"}. c #778276",
"|. c #BA8354",
" X c #82857D",
".X c #86887B",
"XX c #9F877C",
"oX c #A58464",
"OX c #CC824B",
"+X c #C7834A",
"@X c #D2844B",
"#X c #D48A4D",
"$X c #D08447",
"%X c #CA8752",
"&X c #D38B53",
"*X c #D48A53",
"=X c #C9956E",
"-X c #7E8480",
";X c #858881",
":X c #918E87",
">X c #AB9485",
",X c #B9A089",
"<X c #EEC39A",
"1X c #D0D0E0",
"2X c #D0D0E0",
"3X c #F8F8F8",
"4X c #F8F8F8",
/* pixels */
"          . .               X O O X                 X                 . O O X   2X        X X & O X ",
"        . + +       X       X O + . X   . e ) ) ^ ) _ ^ Q u +       X O + O X   2X        X & * O X ",
"          + O               X O + . X   O ) 8.8.[.[.8.%.%.' >         . O O X 2X4X        X & * X   ",
"          . .               X O O .     + T 8.8.8.7.}.$.%.E -         X O . X 2X4X        X & * O X ",
"        . + + .     X X   X . O * O X > i i 1.8.8.7.}.,.%.T , X     X O + O 2X2X4X  . X X o * = O O ",
". @ @ . + = = + O O O O O * * = = * > > > i i 8.8.8.8.2.1.Q r > * + O * - = 2X4X. . . O O * = ; * O ",
". . . . O = = + O O O . : y 0 = = 7 > > > > d i i i > 8.>.' 7.$.E w - = q 2X2X4X. . . . . O * = * O ",
"          + +         : ( >.Q q y > > > > d > > i i i > :.@.}.>.6.*.T u ' 2X4X=           X o & O X ",
"          O O       - ) >.7.*._ &.> > > > d > > > <X<X> $.:.7.:.:.7. .%.2X2X4XT +           X o X   ",
"          + +     O N *.6.7.7.2...> > > ;.[ > > <X<X<X<X[ +.3.2.5.&. . X2X4X X1.t X         X + X   ",
"        . + + .   . r $.7.7.2.7.> > > +.J D > > 1 d <Xd I J { +.-.' 9.[.2X4X X*.q X X X   X + + X   ",
"          + +       # R 2.6.2.> > ~ A L a.z.> > <X<X<X<XI.H.G.L A } .X2X4X[.>.C o     X   X + +     ",
"          . .       e '  .5.2.3.[ x L K.v.b.> =X<X<X<X<XA.U.Y.G.s.J X.2X4X:. .` 3 X       X o +     ",
"          . .   . ; ` [.&...%.~ D j.h.Y.d q.q.=X=X<X<Xq._.).Q.M.I.l.2X4X` @.8.9.R , X X X X + * X   ",
"        . # # . % C 2.6.7.` S B j.l.z.s s d q.q.=X=X=Xq.q.OXOXE.Y.!.2X4X~ 8.{. X>.w * + o + * - + o ",
". . . . + = = + 4 _ 7.0.9.+.x h.I.M.m.d s s d q.q.q.q.q.d @X*XW.Q.2X4Xl.K ;. X-X7.E ; + + * - ; * * ",
"  X X   . * * O y ' &.6./.K g.M.Y.E.d d d d s d d q.q.d d d @X).OX2X4XE.h.{ 3.6.$.( 8 . X O * * O O ",
"        X * * - ' 5.4.*.| J n.A.).d d s s s s s d d d d d s s F.2X4X_.(.I.L [ $.4.&.u O X X O * X X ",
"        X * * 0 $.7.0.-.J h.B.(.OXs s q 2 5 j j s s s s s 5 9 F.2X4X_.].E.h.P 3.7.5.E * X X O * X   ",
"        X + * u >.4.1.+.I M.W.'.OXq q q 2 5 j j j j j j j 5 9 2X4X#X$X_.W.I.I ;.>.4. .8   X O +     ",
"        X O * i $.&.=.] g.E.(.OX%XU U q q 5 j j j j j j j 5 9 2X4X#XOX'.).!.h.[ *.&.' 0   X O +     ",
"        X - e ' 2.6.<.D n.`.OX@X&XU U q q 2 5 j j j 5 5 j 5 2X4X+X#X@XOX'.Q.h.S <.*.$.T 0 : + O     ",
"        O p $.7.7.9.8.H B.OXOX#X&XU U U q q 2 5 5 5 5 5 > > 2X4XOX#X@X@X@X+Xn.P 8.{. X6.#.E : +     ",
"        = ) 8.2.>.%.%.H T.OXOX#X#Xd U U q q > > j j j > > 2X4X> #X#X@X@X@X%XI.[ 9.9.{.9.6.' > O X   ",
"        = ' 9.9. X9.%.H T.OX@X#X@Xd < U q > i i > > j j > > 4X> > #X@X@XOX&XR.] 8.7.9.9.9. .8 + O X ",
"X O O O ; _ 8.9.9.{.<.H T.OXOX#Xd < < < q > i i i > > 5 5 > > > #X#X@X@XOX&XR.]  X7.9.8.6.' 0 = * O ",
"O O O O : Q %.%.%.>.-.H T.'._.@Xd < < < < 2 5 i i > > 5 5 5 5 $ #X@X$XOXOX&X!.] [.>.>.1.%.) 0 = = O ",
"  X X   * i Q _ `  .` B T.OXOX@Xd < < < < 2 5 5 5 5 5 > 5 5 $ ).#X@X@X'.OX&XR.V o. .' ` Q T > * O X ",
"        X - > N o.%.' D T.OXOXd < < < < < ) ) &.&.d > > > @XOXS.OX@X'.'.'.&XT.V o.%.' y > ; + + X   ",
"        X + * T ;X:X8.H T.OXOXd < < < < T T T ' ' d > > ' @XOXS.+XOX_._._.OXT.P .X{.*.w     X + X X ",
"        X + * C 9.;X1.H T.OXd < < < < < q q U U U > > 9 9 '.'.S.OX_.].`.`.%XT.] .X7.*.w   X o + o X ",
"        X + + i >.9.1.H T.OXd < < < < < q q U U U > > 9 9 9 '.(.$X).!.~.|.|.^.] /.,.$.w     X + X   ",
"  X X   X + * i *.9.*.H T.d < < < < < q q q U U U 9 9 9 9 9 '.(.OXE.K.,X,XoXL.[ 3.o. .e     o +     ",
"          + + i *.*.o.H T.d < < < < < q q U U U U ; ; 9 9 9 9 W.+XT.B =.3.+.L.~ <.o. .e     X +     ",
"  X X   . - - y Q Q C B d < < < < < < q q U U U ; ; ; ; 9 9 9 W.%XP./.6.:X>X{ Z ) ) ! e = : = *     ",
"O O O O = N $.8.{.9.%.H d < < < < < < q q U U U < +X; ; ; 9 9 9 |.J./.i Z XX{ W 0.6.5.$.#.^ 8 = X . ",
"O O O O = ) 8.9.{.{.1.d < < < < < < q q U U U < < W.&X; ; ; 9 9 |.g.X.) R +.A } 8.*.6.9.{.o.0 = O X ",
"  X X   = ) 8.8.9.2.%.d < < < < < q q q U U U < V.Z.*X].; ; ; ; |.g.| 8.;.X.x / 2.O.2..X[.o.0 * X X ",
"        - ' 9.[.[.2.d < < < < < q q q q q U '.OXZ.D.@X3 ; ; ; ; Q.z.k D D D H / .X2.8.8.8.o.0 * X   ",
"  X X   - ' 9.9.[.d < < < `.(.6 q q q q q ].'.].m.S.@X3 3 3 3 3 E.V.l.l.l.^.J.~  X9.9.9.1.o.0 *     ",
"        = ) 6.8.1.%.o.H I.!.6 6 6 q q q A.(.(.].c.Z.'.$ 3 3 3 $ B.B.Y.Y.M.~.J.S 8.7.6.0.*.) > + .   ",
"        + y E ) ) ' ~ B K.Y.3 6 6 6 6 `.Z.A.A.U.c.C.(.m.$ $ $ p.m.c.c.c.i.M.h.c _  .` ) T y - +     ",
"        X * = i *.7.O.B j.j j 3 3 3 p.U.b.C.N.C.p.m.U.x.3 3 3 i.b.i.i.i.t.z.g.S 2.7.$.a + O O O     ",
"          O O i *.8.3.A j j j j j y.y.Y.c.m.b.N.i.b.C.x.3 3 3 y.z.y.r.r.G j.g.~  X2.%.e     . O     ",
"  X X   X O + i 1.2.<.A j j j j d.r.r.v.k.k.k.v.y.k.b.y.3 3 3 r.d.t.m G m a.I [  X2.%.e .   . O     ",
"X o X X . & & N 6.6.<.j j j j e.e.m m k.u.y.d.f.r.d.k.r.3 3 3 m e.F n G n F D ~ 8.7.<.w .   @ +     ",
"o + o X O = = Y 6.*.$.j 3 3 3 F M v n s.w.e.a.a.m a.a.m 3 $ $ $ M G n n n G b W 6.7.8.r @ . O +     ",
"o + + o + = = i $.$. .3 6 6 6 6 v b v s.M F L F n s.s.n $ 3 3 3 3 n v v v v D W >.6.1.a @ . O # .   ",
"        X * * 0 u u y 6 6 6 6 6 g f f z z h l l h z x h 3 3 3 3 3 f f f f f g a u i i >   . O +     ",
"        X + + X .   . . o + + * + + o o , + o O + * = * @ @ @ @ @ @ O + % # + .   . @ .   . O O     "
};
