/* XPM */
static char *_5973b6506324ed999e448d26673de394Tp48ju8ffNlBXeW[] = {
/* columns rows colors chars-per-pixel */
"50 50 28 1 ",
"  c None",
". c #1B1108",
"X c #1D130C",
"o c #151519",
"O c #191A1A",
"+ c #300303",
"@ c #3A0303",
"# c #25180E",
"$ c #2B1C12",
"% c #3F2613",
"& c #3E2819",
"* c #1F2328",
"= c #21262B",
"- c gray23",
"; c #490404",
": c #660505",
"> c #523119",
", c #54321C",
"< c #3A414B",
"1 c gray27",
"2 c gray33",
"3 c gray35",
"4 c #68696A",
"5 c #960D0D",
"6 c #C9956E",
"7 c #EEC39A",
"8 c #D0D0E0",
"9 c #F8F8F8",
/* pixels */
"                                        8         ",
"                                        8         ",
"                                       89         ",
"                                       89         ",
"                   O--                889         ",
"                  OOO--               89          ",
"                  OOOO:---O          889          ",
"                 OOOO:OO---O         89           ",
"                 OOOO:OOO77O        889           ",
"                 OOO  OO7777        89            ",
"                OOO   OO@:7:        89            ",
"               OO     OO7777       89             ",
"                      O67777       89             ",
"                    :5566775      89              ",
"                   ;;:5566655     89              ",
"                   :;;:55555:    89               ",
"                  ::::;::55:::   89               ",
"                 ::;;;;;:::::;; 89                ",
"                 ;;=#%>>;;;;;%* 89                ",
"                 ===#%>>>>>>>%*89                 ",
"                 <<==%>>>>>>>%*89                 ",
"                 <<==#%>>>%%>%89                  ",
"                 <<<==#%%%%%OO89                  ",
"                 :<<==OO>>>OO89O                  ",
"                 :+<=O--OO>>OO9OO                 ",
"                :+++=O---OO%%OOO                  ",
"                :++++#%--OO%%%%.                  ",
"                :++++#%%%%%O%%.                   ",
"               :+++++2244:OOO                     ",
"               :++++11133:OO3                     ",
"              :+++++==<<<OO**                     ",
"              :+++++==<<<OO***                    ",
"             :+++++===<<<*****                    ",
"             :+++++==<<<<oo****                   ",
"            :++++++==<<<oooo***                   ",
"            :++++++==<<<+ ooo***                  ",
"           :++++++==<<<++  ooo**                  ",
"           :+++++===<<<+    oooo                  ",
"          :+++++=====<     $oooo                  ",
"         :+++  &=====      $$$$$                  ",
"              &&&===       X$$$X                  ",
"              $&&&&         XXX                   ",
"             ,,$$$          $$$                   ",
"            ,,,,,           $$$                   ",
"            ,,,,            $$$                   ",
"           ,,,,             $$$                   ",
"           ,$$$             $XXX                  ",
"           $&&&&            X$$$$                 ",
"           &&&&&            $$$$$                 ",
"                                                  "
};
