/* XPM */
static char *_f93a3ab1bf54a0ea81ee5d578390557EqCCziP3cERvcC9e[] = {
/* columns rows colors chars-per-pixel */
"50 50 113 2 ",
"   c #030203",
".  c #07050D",
"X  c #0B050D",
"o  c #09090F",
"O  c #10050F",
"+  c #070712",
"@  c #0C0712",
"#  c #070915",
"$  c #0C0A15",
"%  c #060F19",
"&  c #0D0C1B",
"*  c #110612",
"=  c #110916",
"-  c #120C1C",
";  c #0B1017",
":  c #0C121C",
">  c #0C191F",
",  c #11101E",
"<  c #0E0D22",
"1  c #090F28",
"2  c #120D22",
"3  c #190E24",
"4  c #120F28",
"5  c #0D1423",
"6  c #011D21",
"7  c #0D1A25",
"8  c #0D1529",
"9  c #0D1C2A",
"0  c #121223",
"q  c #111A27",
"w  c #13152A",
"e  c #1A142D",
"r  c #121B2C",
"t  c #0D1D31",
"y  c #131631",
"u  c #191730",
"i  c #141C33",
"p  c #1A1A35",
"a  c #151D38",
"s  c #1A1D39",
"d  c #201F3F",
"f  c #0D212D",
"g  c #11212D",
"h  c #0D2532",
"j  c #0D2A35",
"k  c #0E2638",
"l  c #0E293A",
"z  c #0A2F3A",
"x  c #0D2C3A",
"c  c #0E2A3C",
"v  c #0D2E3D",
"b  c #112032",
"n  c #132333",
"m  c #142034",
"M  c #112836",
"N  c #152439",
"B  c #16243B",
"V  c #17273E",
"C  c #1A203A",
"Z  c #1C213D",
"A  c #122B3A",
"S  c #102D39",
"D  c #112D3F",
"F  c #0C3038",
"G  c #13313F",
"H  c #1E2240",
"J  c #1A2640",
"K  c #1C2640",
"L  c #1C2543",
"P  c #1E2746",
"I  c #182D42",
"U  c #1F2847",
"Y  c #1A274A",
"T  c #1E2648",
"R  c #1D2B49",
"E  c #0E3240",
"W  c #0F3742",
"Q  c #0D3745",
"!  c #0F3844",
"~  c #123341",
"^  c #113643",
"/  c #1A3047",
"(  c #133C4C",
")  c #153E4D",
"_  c #1D3351",
"`  c #1E3453",
"'  c #163E53",
"]  c #1A3C52",
"[  c #1D3A55",
"{  c #202042",
"}  c #212346",
"|  c #242649",
" . c #202D4D",
".. c #252C52",
"X. c #242D53",
"o. c #242B54",
"O. c #263059",
"+. c #29305A",
"@. c #213F5A",
"#. c #213F5B",
"$. c #283761",
"%. c #293763",
"&. c #2D3E64",
"*. c #13414E",
"=. c #0A4652",
"-. c #0C4551",
";. c #134955",
":. c #1E445E",
">. c #144B58",
",. c #134E5A",
"<. c #1A4A60",
"1. c #0F5867",
"2. c #264A6F",
/* pixels */
"w i 5 # # + @ # & 0 i C U J 0 r ) >.^ W G 9 : 5 7 & & $ # 5 8 t 9 < W =.$.Y < i r 0 % % 8 5 y i 0 8 ",
"w 0 < & # @ @ . @ . & 0 s H w r r * S W j h 5 7 f 5 : :   K &.t t 9 -.1.% 5 7 & r r 0 5 5 a T o.p w ",
"e $ & & & $ @ @ $ $ $ & - w r w f F j : > 9 f 9 : : # 5 % r U k z #.' h b 5 5 f B w q 0 & w O.+.p e ",
"3 - - & - - & $ $ $ @ @ $ & , r 8 j F $ $ $ : 5 # # # : : : 6 E j b k f h 9 b B m 0 2 - 2 P O.{ e e ",
"- - - 2 2 2 - & & $ $ @ # & & - q g j 5 & $ $ # & : % # # 8 f h 9 7 l c j h m i V I i w C ..} e e 3 ",
"3 - - 2 4 4 2 - - $ $ $ $ : q q 9 h 5 : $ $ # # & : : # # & 5 5 9 v E D Q j B s _ <.] / Z p 0 0 3 3 ",
"- = - 2 3 3 2 - - $ @ @ $ : & g q j j 9 & $ & & # # & % % 5 5 5 & l A i ( A V #.2.:.:.[ 2 = - = - - ",
"- = - 3 2 2 2 - & $ @ . @ $ @ & : 9 f 7 7 & & # & & & 8 w 5 8 5 & 9 f w w w 0 m  .` ' q O 2 - = 0 - ",
"2 0 - - = - 2 - & # $ @ . @ $ $ & & : 7 5 # $ % # & 5 8 8 5 5 8 5 8 5 & & & w r B D j ; * = = = - - ",
"0 w - - - - - - & # @ # @ @ $ $ $ $ & : : @ & % 8 5 5 5 # & & 0 7 : : & # & & - , $ . 7 $ = = = = - ",
", 0 - - = = = & $ @ # @ # $ @ $ : : & : % # % # % : & & & 5 - , & & & & # # @ # @ : : : @ $ * * = = ",
"* * * = = = = & & & # $ & # $ : : : 5 : # # # # # & 5 : & & - - - - : & $ # # @ # # : $ : $ X X @ * ",
"$ X * = = = = = = & i B 9 7 & f f 5 7 & & # @ @ # # : 5 < & & , - , : & # # & $ @ @ : > > @ . . X = ",
"$ * * * = = = $ $ $ r 9 8 9 8 f 7 & & : : # # @ & # # & & & & - - 0 - & & & 5 & ; : ; > : $ . . X $ ",
"* * * * $ $ $ & $ & 5 5 w P r 5 5 & & 7 5 @ # # # & & @ & & - - - 0 - - - & $ $ : : # # > ; @ o $ $ ",
"* * * X @ $ $ & & $ & 2 0 0 2 2 5 & & 5 % # $ # & $ & $ & & $ $ & 0 - $ $ # . @ & 5 7 : : > : $ $ $ ",
"$ * * @ X $ = & & & = - - - - - - - & & & & $ $ & $ & $ $ $ @ @ $ & & @ . @ & : : 9 f 7 f : $ $ @ $ ",
"@ X = $ @ @ $ & & & - - - - - 2 - - 2 2 & & - & & & & $ $ $ = $ $ & & $ @ @ $ : 7 7 f q g , * $ . & ",
"X $ $ @ @ $ $ = & & & & 2 - - 2 - - 2 2 - & - & - & = $ @ @ & - & & & $ @ @ @ 7 M r b q & , - : & $ ",
"X X X . . @ @ @ $ & - 4 4 2 0 2 2 - & 4 2 & = = - = & & $ @ & = @ & i 0 @ : : r i M 5 q 0 - - q 0 @ ",
"X . . . . @ @ @ $ = - 4 4 2 2 2 & & & < < & 2 - & & = $ - & & & $ & s p $ : : r g h 8 7 q - & : & X ",
". . . . . . @ * $ - - 2 2 - 2 - & & & & < 4 4 2 & - - = - - $ $ $ - u s - $ & r g h q b S 0 5 - = . ",
"X . . . @ . $ & $ & - w - 3 w = - & & & < 4 < 2 & & - - & & $ $ = 2 { d 0 0 - 0 0 S G ^ S r 0 , $ @ ",
"X @ @ @ . @ # & < 5 q @ & w w 0 & & # & < < 4 4 & < < $ & & $ $ = - p { | p q m b G D M B w = - & @ ",
"X & # @ & # 8 $ K Y . T B w i w - & & & 2 < w 5 < 8 8 # & & # & & 2 w s ..R m m 0 *.,.b r M 0 q 5 $ ",
"% # $ # 5 8 i 9 < ! =.$.Y < i r 0 % % 8 5 y i 0 8 w i 5 # # + @ # & 0 i C U J 2 r ) >.^ W x 9 : 5 7 ",
"5 & &   K &.9 t 9 -.1.% 5 7 & r r 0 5 8 a T o.p w u 0 < & # @ @ . @ . & 0 s H w r r * S W j h 5 7 f ",
"% # 5 % r U k z #.' h b 5 5 9 m w q 0 & w O.+.p u u @ & & & @ @ @ $ $ $ & - w r w f F j : > 7 f 9 : ",
"# # : : : 6 E j b k f h 9 b B m 0 2 - 2 P +.{ e e 3 - - & - - & $ $ $ @ @ $ & , r 8 j F $ $ $ : 5 # ",
": % # # 8 f h 9 7 l c j h m i V I i w C ..} e e 3 - - - 2 2 2 - & & $ $ @ # & & - q g j 5 & $ # # & ",
": : # # & 5 5 9 v E D Q j B s _ <.] / Z p 0 0 3 e 2 - - 2 4 4 2 = - $ $ $ $ : q q 9 h 5 : $ $ # # & ",
"# & % % 5 5 5 & l A i ( A V [ 2.:.:.[ 2 = - = - - - = - 2 3 3 2 - - @ @ @ $ : & g q j j 9 & $ & & # ",
"& & 8 w 5 8 5 & 9 f w w w q m  .` ) q O - - - 0 - - = - 3 2 2 2 2 & $ @ . @ $ @ & : 9 f 7 7 & & & # ",
"& 5 8 8 5 5 8 5 8 5 & & & r r B D j ; $ = = - - - 0 0 - - - - 2 - & $ @ . . @ $ $ & & : 7 : $ & % & ",
"5 8 5 % : & 0 7 : : & # & & - : $ . 7 $ = = = - - 0 w - - - - - - & @ @ # @ @ @ $ $ $ & : : @ & % 1 ",
"% & & % : - , & & & & # # @ # @ : : : X $ * * = = - 0 - = = = = & $ @ @ @ # $ @ $ : : & : % # % # % ",
"& 5 : & & - - - - : & $ # # @ # # : $ : $ X X @ * * * * = = = = & & & # $ & # $ : > > : ; # # # # # ",
"# 5 5 & - & - - , : & # $ & $ @ @ ; > : @ X . X = $ X * = = = = = $ & i B 9 7 & f f 5 7 & $ # @ # # ",
"# # & & & & - - 0 - & & & 5 & ; : ; > > $ . . X * $ * * * = = = $ $ $ r 9 8 9 8 f 7 : & : : # # @ & ",
"& & @ & & - - - 0 - - - & & & : : $ $ > ; @ o $ $ * * * * $ $ $ & $ & 5 5 w P r 5 5 & & 7 5 @ # # # ",
"$ & $ & & $ * $ 0 - $ $ @ @ @ & 5 7 : : > : $ $ $ @ * * O @ $ $ & & $ & 2 0 0 2 2 5 & & 5 % # # # & ",
"@ & $ $ $ @ @ $ & & @ . @ $ : : 9 f 7 f : $ $ o $ $ * * @ X $ = & & & = - - - - - - - & & & & $ $ & ",
"& - $ = = & $ $ & & $ @ @ $ : 7 7 f q g , O $ . & $ X = $ @ @ $ & & & - - - - - 2 - - 2 2 & & - & & ",
"& = $ @ @ & - = & & $ @ @ @ 7 M r b q & , - : & $ X $ $ $ @ $ $ = & & & & 2 - - 2 - - 2 2 - & - & - ",
"= & & $ $ & & @ & i 0 @ : : r i M 5 q 0 - - q , @ X X X . . @ @ @ $ & - 4 4 2 0 2 2 - & 4 2 & = - - ",
"& = $ - & & & $ & s p $ : : r g h 8 7 q - - , & X . . . . . @ @ @ $ = - 4 4 2 2 2 & & & < < & 2 - & ",
"- - = - & $ $ $ & u s - $ & r g h q b S q 5 - = X . . . . . . @ * = - - 2 2 - 2 - & & & & < 4 4 2 & ",
"& - - & & $ $ $ 2 { d 0 0 - 0 0 S D ~ A r 0 , $ X . . . . @ . $ & = - - 0 - 3 w = - & & & < 4 < 2 & ",
"< < $ & & $ $ = - p } | p w m b ~ G A B w - - & @ . @ @ @ . @ # & < 5 0 : 5 w w 0 & & # & < < 4 4 < ",
"8 8 # & & # & & 2 w s ..R m m 0 ( ;.b b M 5 q 5 $ @ $ # @ & & 7 $ K Y 5 a i w i w - & & & 2 < w 5 < "
};
