/* XPM */
static char *_7b842d0b0e7461ac85bc8419607953b8593P9tLf5hvYFUu[] = {
/* columns rows colors chars-per-pixel */
"50 50 146 2 ",
"   c #3A372E",
".  c #3D3A32",
"X  c #3E3D39",
"o  c #403E34",
"O  c #423F38",
"+  c #454334",
"@  c #45433B",
"#  c #49463C",
"$  c #4D4B3D",
"%  c #525238",
"&  c #494541",
"*  c #4D4B43",
"=  c #4D4C4A",
"-  c #514E45",
";  c #524F4A",
":  c #535145",
">  c #5A5A45",
",  c #55534B",
"<  c #59564C",
"1  c #5C5A4E",
"2  c #565351",
"3  c #595652",
"4  c #5D5A53",
"5  c #5E5C5A",
"6  c #615E55",
"7  c #615E59",
"8  c #64644C",
"9  c #636155",
"0  c #6B6A55",
"q  c #65625B",
"w  c #69665D",
"e  c #6C6A5E",
"r  c #666361",
"t  c #6A6662",
"y  c #6D6A63",
"u  c #6E6C69",
"i  c #716E65",
"p  c #726E6A",
"a  c #737165",
"s  c #75726C",
"d  c #79766E",
"f  c #7B796D",
"g  c #777472",
"h  c #797672",
"j  c #7D7A74",
"k  c #7E7B79",
"l  c #817E75",
"z  c #817E7A",
"x  c #838176",
"c  c #85827C",
"v  c #89857D",
"b  c #8C897F",
"n  c #868381",
"m  c #898682",
"M  c #8D8A85",
"N  c #8B8689",
"B  c #8E8B8A",
"V  c #918E85",
"C  c #928F8A",
"Z  c #918E89",
"A  c #908F8D",
"S  c #938F8C",
"D  c #908E8F",
"F  c #918E8A",
"G  c #939184",
"H  c #939089",
"J  c #959289",
"K  c #95928B",
"L  c #91908C",
"P  c #91908E",
"I  c #93928E",
"U  c #96938C",
"Y  c #95918E",
"T  c #96928F",
"R  c #95948F",
"E  c #95918D",
"W  c #9A978E",
"Q  c #98958E",
"!  c #9C9A8D",
"~  c #938F90",
"^  c #939192",
"/  c #949293",
"(  c #959492",
")  c #979694",
"_  c #979596",
"`  c #969291",
"'  c #989793",
"]  c #9B9794",
"[  c #989697",
"{  c #9A9694",
"}  c #9F9C93",
"|  c #9A9997",
" . c #9B9A96",
".. c #9C9895",
"X. c #9D9996",
"o. c #9D9A95",
"O. c #999798",
"+. c #9B9798",
"@. c #9A9899",
"#. c #9B999A",
"$. c #9F9B98",
"%. c #9D9C98",
"&. c #9E9D99",
"*. c #9D9C9A",
"=. c #9E9D9B",
"-. c #9F9E9C",
";. c #9E9B9A",
":. c #A19E95",
">. c #A09C99",
",. c #A19D9A",
"<. c #A09F9D",
"1. c #A19D9B",
"2. c #A2A19D",
"3. c #A1A09E",
"4. c #A5A19E",
"5. c #A4A39F",
"6. c #A4A19D",
"7. c #A9A69F",
"8. c #A19FA0",
"9. c #A2A0A1",
"0. c #A3A1A2",
"q. c #A4A3A1",
"w. c #A7A3A0",
"e. c #A4A2A3",
"r. c #A5A3A4",
"t. c #A6A4A5",
"y. c #A7A6A4",
"u. c #A5A2A1",
"i. c #A8A4A1",
"p. c #A8A7A5",
"a. c #A8A6A7",
"s. c #A9A6A4",
"d. c #A9A8A4",
"f. c #A9A8A6",
"g. c #AAA9A7",
"h. c #ACA9A5",
"j. c #A9A7A8",
"k. c #ADACAA",
"l. c #ADABAA",
"z. c #B1AEA4",
"x. c #B1AEAD",
"c. c #B4B1AE",
"v. c #B8B5AE",
"b. c #B7B3B0",
"n. c #B8B6B7",
"m. c #C0BCBB",
/* pixels */
"H U U m i 1 : , y y a e : + # $ 9 y d c W } J V M q r m U S X.w.s.g.g.t.s.t._ m n S _ c 9 , : * @ - ",
"d j z x j i 9 < 6 f V x 6 : > 1 f v v c M V V Z s < 4 z Z ` $.6.2.2.-.-.9.t.9.#.S I ` B j y q 4 ; 6 ",
"h l v m M v i 1 1 1 s b l 9 < , e x V J H v h d 9 7 s Z ] X.1.1.' 2.t.-.` B ` +.e.s.9.B h t 4 < 9 i ",
"s j j h h h q - 1 # : a f e , $ 6 d c l d y y s p h v m c m ] i.&.` B B ^ ] +._ #.k.g.I m v d 9 a h ",
". # * * < w y w 6 y a 9 < 9 6 $ 6 s j d i y i j q s j h s h z m | &.&._ D ~ #.r.^ &.| I ` v t 3 M Z ",
"i i w 3 , 3 9 q a l v a 1 1 < # # 1 q 7 7 6 q y q t q 7 p j h s k I 2.g.-.^ / #.r.9._ B c 5 : t M Z ",
"m c j s s j c m j y e y 9 , , , * , * @ # * , 4 c j 4 & 3 s z m s t u m &.-.B g u p 5 = * X @ w p p ",
"} M j d h d d d i 9 : + o , y i s j j d d t 3 ; k c p 4 q y y s j s y r 5 3 5 r r r = X 5 s w 3 s p ",
"J v c m z t 4 4 < 4 9 y s s p i z m U ' &.z , 7 q W V 9 j c , 6 y t q 4 , = 2 5 = 5 g m I } ' c M U ",
"l v V m j t 4 < q d c l c V m h M U 1.&.' j 9 y J Z V s y z s - t < @ X @ = r g n B &.2.&.2.5.} ] U ",
"d c l y q y d d s m U U H ' Z z M U w.2.H x s j o.Z J v 7 y V l M p 9 u m I _ 9.-./ _ w.k.c.w.I c s ",
"w s d s d v M v m Z ' } ' M c v U S 6.X.c s q q m 1.U H c i v o.] p 2 u R w.g.x.+.-.k.n.g.2.s.g.` m ",
"w s c m V H J U 6.2.6.w.$.U Z U U m U B x j s s h h.o.z s 6 s J d 3 < s ` 2.r.a.n.t.9.a.g.k.k.w.2.&.",
"q i c V M v V } 6.h.h.1.X.6.6.1.m h h s p s s m - s c d y a i * @ @ 4 j M m m B ;.9.g.s.] ` &.<.| | ",
"- 4 i l v c z c m Z S Z U 1.w.<.M k p 7 , & * s m 4 - , w V v < , 1 t j m B _ 9.r.-.-.9.w.w.] k k m ",
"y 4 : < t j z j y t p c Z S ' 1.Z M x y 7 * ; m v y m h.6.V s j : < r z | w.w.9.k.s.9.| ` ] B g k B ",
"c c * # 4 y w s y i 9 h y M m X.W M s 6 + . 4 t q 9 H 6.d i h 3 7 s h m S ] s.` ] i.w.Z c B ` Z M n ",
"U z t j y t t 7 i w 9 e s c Z o.} x 4 < : : < * - 4 j m d t t 7 u k n M m ` <.` m U ' ' ` S M c h g ",
"s p s M j p q * 9 q j s z y z v l y < < < , 4 - 4 q 4 9 s t ; : p z ` B n ] 1.>.' M M S U m z z m B ",
"* h s z 1.X.k y 7 6 s t p 3 q q w 9 < 1 < 1 y w s v x s y 3 : y h z $.B n ] ] X.6.U m m m c c c B ` ",
"4 h y s 6.c.i.] M p 3 ; 7 t t 9 i 9 - < 9 i j i Z c s s j j y 7 m M 6.U m ] U U ' X.' Z M B M m ` #.",
"m y 7 p m ] b.h.6.m q 7 4 t r t y 9 < 6 y f v j p p d h h j j y t t h h p h h h S 6.w.U m Z Z M n m ",
"o.h t y j z w.s.` ` m z r 5 3 q 3 w y s p s v z d h p y z Z m s w t p j h d m m B 1.1.m j c M M B S ",
"j v i 3 g p z ` <.w.w.$.m h s h 4 y h z d p h i y m l 9 q p s j w y y j d y m M h m S n j z c m B B ",
"9 x q * y z t w.<.;.<.w.n B B m y p z h h z p s s h m c y t a y y w s x h s z Z X.Z M M n z B <.1.c ",
"- : q < s m ` $.$.w.;.w.Z j y z a d m v m Z c m z z z p 4 < 6 7 w 4 t j h s j m H ] ' M m ` ] ` ] M ",
"a e , o d Z S S ] n M ] p p h h y s n n n m j z m m j t 6 4 6 w 4 * < i d i y p h Z <.$.$.w.<.` M z ",
"> 9 + $ i V g h S n m Z h V J j j c Z U Z M c c v Z v h d y w i 6 $ : y s y q 6 ; 9 j B B m m ` Z h ",
"$ $ > e 1 a z g g <.S m X.' s h c B ] 1.X.U Z B m U Z m x i q e 9 : : 9 w q 9 4 7 4 t z M B ` 6.] m ",
"8 8 0 0 s w j h h ` Z Z M x e j c B S ] U n m n M H Z m c s w q < : : 1 < < 4 < 3 4 7 y n ] ` c j d ",
"% > $ 0 :.f 7 3 z p z M y j b j m / ` $.` n B M Z c c m x d y 4 * 1 a a q 6 4 - 3 y s p n >.] z m c ",
"0 > + f v d 6 * 3 3 4 q 1 l l 4 n ~ S $.] B X.X.Z j j v l s q * , d } :.b j y , - t p q r z Z M z p ",
"9 e < i z 4 , 3 t ; * : e d 1 * k B n n m k z M ' m s v s 1 # 6 z m ` X.} ' m l # , q 4 - y v j s i ",
"i v d d p , 9 h 1.h 4 < e a < @ 7 z N B N g g k h j v w w # 1 t k N +.w.s.i.1.' j 6 $ # - w s e 9 1 ",
"y c i i h j X.h.U Z l 6 i G f : 7 n ` <.+.n n n z z y < $ , y M n / $.` m m ' 6.o.l 4 $ # - 1 4 : $ ",
"v U h h M ' h.6.S 1.1.h s v a : r z B ] ] B Z M U s # < 3 i j w.g.g.w.U m M J o.b G j 1 * - , < : : ",
"y M m Z X.i.m.b.x.1.} W c e < 6 t z Z 1.X.U ' M j 3 4 t H l Z 6.g.$.B m U ` v a f f w : , 4 6 6 : , ",
"y m B X.1.1.x.w.x.$.6.i.X.j 6 w p M 6.c.d.1.1.M 3 t j M X.U $.h.s.<.] S H H v j f 9 * $ - < w d d f ",
"7 t t n ' ] s.X.Z ` 6.$.Z x q < p j v U J M m t 4 z n X.U s.<.g.U ` S z s s f j d 1 : , - 4 h M j l ",
"j p q h h u k p 7 t j j p q 4 t h t 4 w s j s & p h m M s.w.1.S S M z z c v l s a 1 1 6 9 l o.W v V ",
"Z c s q 2 ; 4 t j k p n m B <.z 6 + . * s * @ 4 g z m m ` <.;.U m z m M j i i a : 9 < e w j v m l V ",
"z z k h t 4 3 4 s j z 1.w.<.b.1.J l 4   @ O 3 h z B ] <.<.$.N h j h h d y w 9 1 1 , < a c j m J 7 m ",
"s h h s q < < 4 3 4 7 c S S w.] v V c 9 4 - 7 h n Z ] <.X.S m z y h z d w 1 , $ $ , 1 z.z.7.d t 3 p ",
"a h j s 9 < < 4 6 9 q z ' 1.s.$.X.1.6.W l 3 , y U ] <.] m j h k s j c j a 4 : * 1 : 1 d d.:.m < * , ",
"i j m v s 9 , : # 4 t h M ' 1.` 6.1.1.6.M 7 * 4 p j m c s r t g m x d s a 1 - 1 x V 1 q y v.h.Z , c ",
"p l b x a 4 - # + q s y s m X.s.' X.1.i.U j 4 = 4 t s s u p z M m v f y 6 $ , l G ! j # , h ] z r Z ",
"s j j a 9 1 < , : y s w q p z ] b.c.s.i.Z n t ; j c c x c M U U l v d 9 : @ 1 G ! } i 9 o 4 y j c c ",
"d j j s e e w w e j v z z h y h S U ` w.B x 7 * q a j v H ] Z z j j 6 - 1 4 9 l y 6 , w 4 * , y 7 z ",
"l j z j l v c v V e l v Z M v n m c m c m c 7 $ 4 w l U ] U M j j j q y s f y w - q y m M h * @ s I ",
"z z m z v J V m v 6 s d z z j j c z M M V M e - * 4 d v v c j p l l 6 s z v l a t U } 6.i.g.z 5 B k."
};
